<svg version="1.0" xmlns="http://www.w3.org/2000/svg" width="1365.333" height="1365.333" viewBox="0 0 1024 1024"><path d="M439.8 123.5c-3.1 1.7-5.2 7.1-4.2 10.9.8 3.4 5.9 7.6 9 7.6 3.3 0 8.1-2.5 9.4-4.9.5-1.1 1-3.8 1-5.9 0-7.4-8.2-11.5-15.2-7.7zM525 127c-5.5 5.9-6.3 18.3-1.7 25.2 2.4 3.5 4.4 4.3 8.3 3.4 3.6-.9 4.4-3.4 2.9-9.3-1.4-5.4-1.1-7.4 1.9-14.4 1.3-3.2 1.3-3.8 0-5.7-2.3-3.4-7.9-3-11.4.8zm27.6.9c-4.3 4.7.5 12.3 6.8 10.7 5-1.2 6.5-9 2.2-11.8-2.1-1.5-7.3-.8-9 1.1zm167.5 1.7c-2.7 3.5-2.7 7.6.2 10.9 5.3 6.1 16.2.7 14.3-7.1-1.7-6.6-10.5-8.9-14.5-3.8zm-375.8 1.8c-22.5 5.5-39.2 25.3-41 48.7-.8 10 .9 18.4 5.3 27.6 11 22.4 34.1 34.2 59.3 30.3l8.1-1.3 9 8.7c9.5 9.2 12.9 10.6 16.3 6.8 2.2-2.4 2.2-2.4-1.3-16.7l-3.1-12.4 3.6-4.7c13.9-18.1 15.7-41.8 4.8-61.4-6.8-12.1-19.5-22-32.8-25.5-7-1.8-20.9-1.8-28.2-.1zm22.3 13.9c12.1 2.6 22.4 11.2 28.3 23.7 3.6 7.6 3.7 21.6.2 30.3-3.2 8.2-12.2 17.5-20.3 21.3-5.7 2.6-7.3 2.9-16.8 2.9s-11.1-.3-16.2-2.8c-8.5-4.2-16.1-11.6-20-19.5-3.1-6.3-3.3-7.3-3.3-17.2.1-9.1.4-11.2 2.6-16 5-10.6 15.4-19.6 26.2-22.5 6.6-1.7 11.6-1.8 19.3-.2z"/><path d="M343 160.7c-5 1.8-6.8 8.4-3.2 11.6 3.9 3.5 10.9 1.1 11.3-3.9.4-4-.2-5.4-3.1-6.9-1.6-.8-3-1.5-3.2-1.4-.2 0-1 .3-1.8.6zm21.1 3c-3.5 4.4-.3 10.3 5.5 10.3 3.3 0 7.4-3.6 7.4-6.5 0-.7-.9-2.4-2.1-3.9-2.8-3.6-8-3.6-10.8.1zm-28.4 21.1c-5.7 6.3 4.2 19.2 17 22 12.2 2.8 29.3-7.3 29.3-17.2 0-7.4-7.5-8.7-17.7-3.1l-6.3 3.6-6.3-3.6c-7.3-4-13.3-4.7-16-1.7zM626.5 131c-12.1 2.5-23.2 8.6-31.5 17.6-10.5 11.3-15 23.4-15 39.7 0 12.6 3.1 22.6 9.9 32.4 9.8 13.9 20.9 21.1 36.8 23.8 42.5 7.2 77-30.1 66.3-71.9-2.7-10.9-6.3-16.9-15-25.7-11.6-11.8-24.6-17.1-40.9-16.8-3.6.1-8.4.5-10.6.9zm23.5 15.6c15.4 4.6 27.4 18.3 29.9 34.3 3.7 23.4-11.9 44.9-35.7 49.3-13 2.4-27.6-2.4-37.2-12.2-22.8-23.3-13.7-60.4 17.5-71.2 6.4-2.2 18.4-2.3 25.5-.2z"/><path d="M614.1 171.6c-5.7 7.3 1.6 16.2 9.7 12 3.3-1.7 4.2-3.4 4.2-7.5 0-6.6-9.8-9.7-13.9-4.5zm34.9-.4c-2.5 2.7-2.6 7.8-.1 10.9 4.2 5.2 14.1 1.3 14.1-5.6 0-4.5-3.2-7.5-8-7.5-2.7 0-4.5.7-6 2.2zm-19 35.6c-6.1 6.1-3 10.2 7.8 10.2 6 0 7.3-.3 8.2-1.9 3-5.7-.3-10.1-7.9-10.9-4.6-.4-5.3-.2-8.1 2.6zm-142-68.1c-8.8 3.2-7.6 15.7 1.5 15.7 9 0 11.6-12.4 3.2-15.4-1.6-.5-3-1-3.1-.9-.1 0-.8.3-1.6.6zm-230.6 14.7c-2.1 1.8-2.8 3.2-2.8 6.1 0 4.3 3.9 8.5 7.9 8.5s7.9-4.2 7.9-8.5-3.9-8.5-7.9-8.5c-1.3 0-3.6 1.1-5.1 2.4zm284.3-.6c-3.9 4.2-.8 11.4 4.8 11.4 5.5 0 8.8-7.7 4.9-11.6-2.1-2.2-7.7-2-9.7.2zm174.8 11.7c-1.9 1.8-2.5 3.5-2.5 6.5 0 8.5 9 12.1 15.1 6.1 4.1-4.1 3.7-10.2-1-13.8-2.8-2.2-8.9-1.6-11.6 1.2zm65.5.1c-10.3 2.7-18 7.2-26.1 15.3-11.7 11.7-16.9 24.3-16.9 41.1 0 10 1.9 18.3 6 25.9 1.7 3 3 5.8 3 6.2 0 .4-2.6 4.1-5.9 8.2-7.2 9-8.4 11.2-7.6 13.7 1.2 3.6 3.9 4.2 9.7 2.1 2.9-1.1 8.7-3.2 12.8-4.7l7.6-2.8 4.5 2.2c6.2 3 10.2 2.9 12.8-.4 1.2-1.5 2.1-3.7 2.1-5 0-2.4-.8-3.2-10.9-9.6-14.1-9.1-22.2-27.2-19.2-43.3 3.4-18.2 17.8-32.4 36-35.6 17.7-3.2 37.3 7.5 45.3 24.7 2.5 5.3 3.2 8.3 3.6 15.4 1.1 19.5-8.2 34.4-26.5 42.5-10.6 4.7-10.7 4.8-10.6 9 .2 8.5 6.4 9.5 19.8 3.2 13.6-6.5 24.1-18.5 29-33.1 5.2-15.4 4.1-30.8-3.1-45.6-7.2-14.5-23.4-27.2-38.3-30-7.6-1.4-20.6-1.1-27.1.6zm-602.7 8.6c-4.8 2.3-5.4 11.2-1 14.3 4.9 3.5 12.1.1 13.3-6.2.5-2.7.1-3.7-2.4-6.3-3.2-3.1-6.1-3.7-9.9-1.8zm306.5 5.3c-16.1 4.4-26.2 10.1-37.7 20.9-17.8 16.9-26.1 36.6-26.1 61.5 0 18.5 5.4 33.9 16.9 48.4 16.2 20.4 40.1 31.2 65.2 29.3l8.6-.7 8 8.1c6.5 6.5 8.6 8 11 8 1.7 0 3.6-.7 4.3-1.5.7-.8 1.5-6.5 1.8-13.6.7-11.5.9-12.3 3.2-13.8 1.4-.9 5.2-3.9 8.5-6.7 19.7-16.6 30.5-42.9 28-68.8-.8-9.2-2-10.7-9.8-13-7.1-2.1-13.3-6.8-17.2-13.1-2.7-4.4-3-5.7-3.1-13.9-.2-8.4-.3-9.2-2.8-11.3-3.7-3.2-6.1-2.9-15 1.7s-13.2 5.1-16.4 1.7c-3.2-3.4-4.2-7.1-4.2-15.2 0-6.5-.3-7.6-2.2-8.9-3.2-2.2-10.7-1.9-21 .9zm9.6 17.4c.8 5.9 2.8 11.1 6.6 16.6 3.4 5 4.1 9.3 2.9 18.6-.9 7.2-4.7 18.8-7.2 22.3-1.1 1.5-1.7 1.6-4.2.5-6.3-2.7-12.5-8.1-16-14-2-3.2-4.5-6.4-5.5-6.9-4.7-2.5-9.1-.3-10.5 5.2-1.9 7.6 12 23.4 26.5 30.3l3.6 1.7-2.3 11.1c-2.8 14-4.6 30.1-3.7 33 1 3 3.3 4.6 7 4.7 4.8 0 6.2-2.4 7.5-13 .6-5.2 1.3-9.8 1.6-10.3.2-.4 3.4-.7 7.1-.7 11.8 0 24.2-7.6 24.2-14.9 0-1.9-.7-4.3-1.7-5.3-2.3-2.6-8.4-2.4-10.9.3-1 1.2-3 2.7-4.4 3.4-3.3 1.7-12 3-12 1.8 0-1.8 4.7-14.9 8.4-23.2 5.4-12.4 7.6-21.2 7.6-31.1v-8.5l4.8-1.2c2.6-.7 5.6-1.5 6.8-1.8 1.9-.6 2.2-.2 2.7 4.5 1.4 11.9 10 23.1 22.4 29.2l6.3 3.1v6.6c-.1 32.3-26.2 60.8-59.8 65.1-23.2 3-49.4-12.5-60.4-35.7-4.5-9.4-5.8-15.7-5.8-27.5 0-9.3.4-12.1 3-20.3 6.9-21.4 24.6-39.1 46.2-46.1 4-1.3 7.6-2.3 7.9-2.4.4 0 .9 2.2 1.3 4.9zM881 179c-2.6 2.6-2.7 8.9-.1 12.1 4.3 5.3 14.1 1 14.1-6.2 0-6.6-9.3-10.6-14-5.9zm-656.2 12.5c-10.4 2.8-20.7 11.8-25.6 22.3-2.4 5.2-2.7 6.8-2.7 17.2 0 11 .2 11.8 3.3 18.2 5.8 11.7 17.7 20.6 31 22.9 5.2.9 7.2 1.9 11.5 5.6 6.2 5.4 8.9 6.6 12 5.4 2.8-1.1 4.3-4.7 5.1-11.9.5-4.8 1-5.7 5.3-9.7 19.2-17.2 17-49.9-4.4-64.6-9.2-6.4-23.9-8.6-35.5-5.4zm25.4 16.2c6 3.4 11.2 9.6 12.8 15.1 6.2 22.4-14.4 41.4-36.3 33.2-12.6-4.7-19.6-20.1-15.6-34.4 1.6-5.8 9.2-13.3 15.9-15.7 7.8-2.8 16.2-2.1 23.2 1.8z"/><path d="M222.2 218c-2.9 2.7-2.9 7.4 0 9.4 2.9 2.1 5.1 2 7.6-.2 3.2-2.7 3.8-6.6 1.3-9.1-2.7-2.7-6.1-2.7-8.9-.1zm19.8 0c-2.7 2.7-2.5 5.6.5 8.5 2.6 2.7 4.6 3.1 7.5 1.5 4.8-2.5 4.4-8.6-.7-10.9-3.4-1.6-5-1.4-7.3.9zm-12.4 19.7c-5.9 2.1-9.6 6.4-8 9.1 2 3.2 5.7 4.2 15.6 4.2 13.6 0 18.1-2.6 14.3-8.4-3.6-5.4-13.9-7.7-21.9-4.9zm544-39.2c-4.9 4.6-2.1 12.8 4.4 12.8 7 0 10.6-9.1 5.4-13.2-3.5-2.8-6.5-2.6-9.8.4zm35.7-1c-6.7 4.7-1.2 16.3 6.4 13.4 5.8-2.2 7.3-9.2 2.7-12.8-3.1-2.5-6.1-2.7-9.1-.6zm-35.1 29.1c-3.4 2.4-3 7.5 1 11.5 8.4 8.3 22.8 10.5 34.3 5.1 5.9-2.8 12.5-8.9 12.5-11.6 0-2.5-4.1-6.6-6.6-6.6-1.3 0-5 1.4-8.1 3.2-7.4 4.2-12.4 4.2-22 0-8.3-3.7-8.2-3.7-11.1-1.6zm-633.6 16.5c-6.2 7.3.1 18.4 9.3 16.3 1.4-.4 3.8-1.8 5.4-3.2 3.7-3.5 3.8-9.7.2-13.6-2-2.1-3.3-2.6-7.4-2.6-4.3 0-5.3.4-7.5 3.1zm745.7-1.1c-4.7 1.9-5.9 10.1-2 13.8 6.8 6.4 17.3-1.2 13.7-9.9-1.9-4.6-6.3-6.1-11.7-3.9zm-588.1 10.3c-5 5.3-.9 14.2 6.4 14 7.2-.2 10.8-8 6.3-13.7-2.8-3.5-9.5-3.7-12.7-.3zm50.3 13.8c-2.8 1.7-3.5 2.9-3.5 6.5 0 4.9 2.5 6.4 11.1 6.4 4.2.1 9.1.8 11.4 1.6 9.9 3.9 11.2 4 14 1.4 5.6-5.2 2-12.6-7.3-15-6.8-1.8-23.2-2.4-25.7-.9zm271.4.8c-1.8 1.4-2.4 2.9-2.4 6.1 0 5 2.9 8 7.7 8 4.3 0 6.5-1.5 7.8-5.4 2.5-7.7-6.8-13.9-13.1-8.7zm62.8 3.2c-5.8 1.4-12.8 5.3-18.5 10.5-4.7 4.2-5.3 5.1-5 8.2.2 2.4 1.1 4.1 3 5.5 3.3 2.5 6.1 1.8 11.3-2.9 6.6-5.9 10.5-7.4 18.8-7.4 8.4 0 10.7-1.4 10.7-6.6 0-4.4-2-6.5-7.1-7.5-5.4-1-8.3-1-13.2.2zm164.7 7.3c-7.8 3.4-4.9 16.6 3.6 16.6 4.3 0 9-4.7 9-9 0-2.2-.9-4.1-2.9-6.1-3.2-3.2-5.1-3.5-9.7-1.5zm-676.6 10.2c-3.8 2-6.1 6.8-5.4 10.9 1.9 10.1 16.7 10.6 19.7.6 1.4-4.7 0-8.5-4.3-11.1-3.9-2.4-6.3-2.5-10-.4zm213.3 10c-2.4 3-2.6 5.2-1 8.7 2.2 4.8 8.3 6 12.3 2.4 2.4-2.1 3-3.9 2.7-8-.4-5.7-10.2-7.9-14-3.1zm221.4 1.6c-3.2 1.7-4.5 3.9-4.5 7.7.1 5.5 3 8.6 8 8.6 8.2 0 11.9-8.8 6.1-14.6-3.1-3-6.2-3.6-9.6-1.7zm286.4 12.7c-6.1 6.1-2.4 16.6 5.8 16.6 7.8 0 12.4-5.7 10.4-12.6-2.2-7.2-10.8-9.3-16.2-4zm-631.9-.3c-31.6 4.2-65.3 16.7-90.9 33.7-14.1 9.3-33.6 28.9-44.5 44.5-28.4 40.9-41.2 92-35.1 141.2 5.8 46.7 23.8 89.4 57.7 137 6 8.5 11.4 16.4 11.8 17.6 3.5 8.9 4.5 61.7 1.6 84.9-3.1 24.7-7.5 45.7-14.5 69.3-4.4 15-3.7 14.2-13.6 14.2-7.8 0-8.5.2-10.4 2.6-2.7 3.4-2.7 6.4 0 9.8l2 2.6h136.5c94.3 0 137.1-.3 138.5-1.1 4.3-2.3 4.2-10.6-.1-12.9-1-.6-9.1-1-17.8-1h-16l-.7-9.7c-.8-10.2-.3-19.6 1.6-31.4l1.2-7.1 4.6.6c18.4 2.7 36.8 4.6 44 4.6 28.3-.1 46.4-13.1 50-36.1 1.4-8.7-1-36.2-4.5-51.4-1.9-8.2-1.9-8.1 3.1-10.5 5.2-2.5 8-5.8 9.6-11 1-3.3.7-5.2-2.1-15.1-1.7-6.3-3.3-11.9-3.3-12.4-.1-.6 4.5-1.2 11.3-1.6 14.7-.8 19.3-2.2 25.2-7.9 6-5.9 7-10.8 4-20.7-1.2-3.7-10.3-25.3-20.3-47.8-10-22.6-18.4-42.6-18.6-44.5-.3-1.9.3-8.7 1.2-15 3.3-23.5 3-51.4-.9-76.3l-1.3-7.8 5.6-2.9c13.7-6.9 23.8-17.2 30.6-31.4 4.6-9.6 6.5-17.3 7.1-28.6.5-7.9.2-10.1-1.3-13-2.1-4.1-4.7-5.1-18.8-7.3-14.7-2.3-23.1-5.5-52.5-19.7-42.6-20.5-67.3-29.3-100-35.5-24.3-4.5-58.3-5.8-80-2.9zm12.8 93.7c.3 35.5 1.3 32.9-10.8 27.1-12.8-6.1-17-10.5-17-17.7 0-4.8 1.8-5.9 7.8-5.1 5.7.7 8.8-.5 10.2-4.2 2.3-5.9-3.9-11.4-12.7-11.4-6.3 0-9.9 1.3-13.6 4.8-9.3 8.8-9 24.2.8 34.9 5.4 6.1 12.7 10.4 25.2 15.2l9.8 3.7.3 25.8c.2 24.2.1 25.7-1.5 25.2-5.8-1.8-17.9-4.6-24.8-5.6-31.9-4.9-64.7 15.7-66.3 41.7-1.3 20.4 19.1 33.9 31.6 20.9 8.4-8.6 5.6-18.4-5-17.7-1 0-2.8 1.9-4 4.1-1.3 2.2-2.6 4-3.1 4-.4 0-1.6-1.5-2.8-3.3-3.7-5.9-1.4-15.2 5.7-22.2 14-14.1 35.6-16.7 61.8-7.6l8.1 2.7.3 16.2c.2 13.4 0 16.2-1.2 16.2-2.1 0-16.5-4.9-21.1-7.2-5.8-2.9-7.4-4.6-8.1-8.7-1-5.4-2-6.8-5.9-8.1-3-1-4-.9-6.1.5-9.3 6.1-1.7 22.6 14.1 30.3 6.1 3 24.3 9.2 27 9.2 1.2 0 1.5 1.8 1.5 9.7 0 5.4-.4 10.3-.8 10.8-.4.6-1.9 1.8-3.5 2.8-1.5 1-8.7 7.6-16.1 14.8l-13.4 13-4.1-12.4c-2.3-6.8-4.7-13.2-5.4-14.1-.7-1-5.8-2.8-12.7-4.5-36.8-9.1-61.2-32.8-69.6-67.7-2.3-9.5-2.3-28.5 0-38.9 8.4-37.9 33.5-71.3 68.1-90.4 9.2-5.1 23.3-10.7 34.7-13.7 7.7-2 19.9-4.3 21.3-4 .6.2 1.1 11.5 1.3 30.9zm39.8-29.8c12.3 2 30.9 7.5 42 12.3 31.7 14 56.2 38.9 65.5 66.7 2.1 6 2.4 8.9 2.4 21 0 11.5-.4 15.4-2.3 21.9-9.6 33.3-41.1 64.7-80.9 80.7-15.9 6.4-30.4 10.1-44.5 11.3l-6.7.6-.6-3.2c-.3-1.8-.5-10.9-.3-20.2l.3-17 8.5-3.3c10.7-4.1 15.6-6.8 19.8-10.7 6.8-6.3 7.9-12 3.3-16.7-3.3-3.3-5-3.5-9.2-1.4-2 1.1-3.2 2.6-3.6 4.6-.4 2.1-1.8 3.8-4.4 5.5-4.9 3.1-13.5 6.5-14.3 5.7-.3-.4-.6-6.1-.6-12.9v-12.2l8.3-3.2c16.9-6.4 27.1-13.1 43.3-28.3 6.9-6.4 10.5-9 15-10.6 7.7-2.9 8.4-3.6 8.4-8.1 0-5.2-3.9-8.4-9-7.5-6.5 1.2-15.3 6.9-25.9 16.8-5.8 5.4-13.5 11.8-17.1 14.1-6.2 4.1-19.6 10.6-21.9 10.6-1.3 0-1.6-72.8-.3-74.6.4-.5 3-1.8 5.7-2.8 2.8-1 9.1-3.8 14.1-6.2 8.8-4.2 11.4-6.6 11.4-11 0-2.3-4.6-6.4-7.2-6.4-1.3 0-6.8 2.3-12.3 5-5.5 2.7-10.6 5-11.2 5-1 0-1.3-3.4-1.3-13.5V374h8.3c4.5 0 12.3.7 17.3 1.5zm109.9 215.4c6.1 2.8 7.8 5.3 8.3 12 .5 6.5-1.3 11.2-5 13.2-9.6 5.2-20.3 1.3-22.8-8.2-2.1-7.7 2.4-15.6 10-17.7 4.8-1.4 5-1.4 9.5.7z"/><path d="M209.3 432c-2.5 1-5.3 5.8-5.3 9 0 8.5 10.1 13.5 16.6 8.1 5.4-4.4 5.8-9.9 1-14.7-3.5-3.5-7.5-4.3-12.3-2.4z"/><path d="M178.1 445.1c-6.9 7.5 3.1 24.9 18.7 32.6 7.3 3.6 8 3.8 17.7 3.8s10.5-.2 17.8-3.8c7.7-3.8 11.3-7.1 12.3-11.4.9-3.3-1.3-7-4.8-8.2-3.5-1.2-6.4-.2-9.8 3.4-6.9 7.5-22.8 7.3-31.9-.3-1.8-1.5-4.9-6.1-6.9-10.2-3.5-7.1-3.9-7.5-7.4-7.8-2.7-.2-4.1.2-5.7 1.9zm-6.3 44.5c-5.7 3-6.5 9.8-1.9 14.5 7.7 7.6 20.1-1.3 15.3-11-1.3-2.8-5.5-5.1-9.1-5.1-.9.1-2.8.7-4.3 1.6zm180.7-70.4c-3.3 1.9-4.4 4.1-4.5 8.4 0 5.3 3.1 8.4 8.4 8.4 5.1 0 9.6-4.4 9.6-9.3 0-6.3-7.9-10.7-13.5-7.5zm-45 9.1c-4.6 4.6-4.8 9.2-.6 13.9 2.4 2.7 3.6 3.3 7 3.2 13.7-.4 14.9-18.3 1.2-20.1-3.6-.5-4.4-.2-7.6 3zm67 6c-1.8 1.5-2.8 3.6-3.2 6.4-.5 3.7-.2 4.5 2.5 7.3 3.9 3.9 8.8 4.1 13 .5 5-4.2 5-9.2.3-14.3-3-3-9-3-12.6.1zm10.7 31.3c-6.8 1.8-8.5 2.7-14 7.8-6.3 5.8-9.2 12.3-9.2 21.1 0 19.8 18 32.3 30.6 21.3 6.3-5.6 8-11.2 4.5-15.7-2.6-3.3-8.7-3.2-11.7.2-1.2 1.4-2.4 3.2-2.6 3.9-.8 2.1-4.7-2-6-6.3-.9-3.2-.8-4.6.7-8.4 2.4-6.3 7.3-9.5 15.7-10.1 9.4-.8 10.4-1.1 11.8-4.3.9-2.4.9-3.4-.4-5.9-2.6-5.1-9.4-6.3-19.4-3.6zm-51.9 33.8c-8.6 3.9-5.9 14.6 3.6 14.6 3.5 0 4.3.4 5.6 3 6.7 13-8 31.4-30 37.5-8.9 2.4-11.5 3.6-12.5 5.6-2.9 5.2.7 10.9 6.8 10.9 8 0 23.1-6.2 33-13.4 12-8.8 18.4-19.9 19-32.9.4-7.1.1-8.4-2.7-14.1-4.9-10.1-14.7-14.9-22.8-11.2zm402.2-188.8c-22.6 2.3-49.2 8.4-74.5 17.1-15.3 5.2-23.2 8.4-45.5 18.4-27.4 12.1-29.9 12.5-50.7 7.3-20.2-5-23.6-2.7-26.9 18.1-1.8 11.1-.6 24.5 3.1 35.5 6.6 19.8 17.3 32.8 33.8 41 5.8 2.8 6.3 3.4 5.8 5.6-1.6 6.3-3.7 23.3-4.6 37.6-1.1 16.6-.2 32.2 2.5 48 2.4 13.3 3.2 10.2-13.7 48.8-20.8 47.2-23.9 55-24.5 60.4-.8 7.5.3 12.1 3.8 16 5.4 6.2 12.5 8.4 28.4 8.7 4.4.1 8.3.3 8.6.5.4.2-.7 5.4-2.3 11.6-1.8 7-2.7 12.6-2.4 14.7.8 5.2 4.9 10.6 10 13.1 5.1 2.4 5 2.2 3.6 7-1.5 5.1-3.7 20.6-5.1 36-1.4 15.5-.5 23.2 3.6 31.5 5.1 10.4 16.6 18.9 30.1 22.1 8.7 2 28.7 1.4 48.4-1.6 7.4-1.1 14-2 14.6-2 2.1 0 4.8 17.6 4.7 31.1 0 6.9-.4 13.6-.8 14.8l-.6 2.1h-87l-2.4 2.5c-3 3-3.2 6.4-.4 9.9l2 2.6h327l2.4-2.5c2.9-2.8 3.1-4.5 1-8.4-1.8-3.6-3.1-4.1-11.6-4.1h-7l-1.9-4.6c-4.8-11-13.1-46-16.4-68.9-3.5-23.5-4.5-54.5-2.5-77 1.3-15 2.1-18.1 6.4-24.2 28.2-39.6 42.7-66.1 53-97 16.2-48.2 17.4-92.5 3.9-136.2-20.2-65-63.7-108.4-126.7-126.5-24.6-7.1-36.5-8.8-62.7-9.1-12.4-.2-24.3-.1-26.5.1zm50.7 65.4c66.5 14.1 116.1 67.9 116.1 126 0 22-6.2 40.8-19.5 58.4-11.2 14.9-29.5 26-49.4 29.9-6.1 1.2-11.8 2.8-12.7 3.5-.9.8-3.4 6.9-5.7 13.8-2.3 6.8-4.4 12.4-4.7 12.4-.3 0-6.2-5.4-13.1-12.1-16.7-16-18.6-17-32.1-18-14.9-1.2-22.9-2.6-35.9-6.5-32.2-9.7-61.7-28.6-81.1-52-19.9-23.9-28-50.7-22.2-73.4 8.5-34 38.8-63 79.6-76.4 21.8-7.1 32.1-8.6 54.5-8.1 11.5.3 19.4 1 26.2 2.5zM642.5 591.8c3.3 2.4 6.5 8.4 6.5 12.1 0 8.4-5.8 14.1-14.3 14.1-6.4 0-10.2-2.2-12.8-7.2-2.4-4.8-2.2-11.1.6-15.4 3.8-5.9 14.4-7.8 20-3.6z"/><path d="M710 424.5c-22.3 3.8-43.5 14.6-57 29.1-8.3 8.9-14 17.8-14 21.7 0 4.2 2.8 6.7 7.3 6.7 3.2 0 4.6-1.4 12.4-12 9.1-12.2 24-22.6 40.3-27.8 6.6-2.2 18.9-4.6 19.6-4 .2.2-2.9 3.8-6.9 7.9-13.1 13.3-18.1 25.9-18.1 45.4-.1 13 2.3 22.1 8.5 32.7 12.5 21.4 34.1 33.8 58.8 33.8 23.4 0 44.9-11.8 56.6-30.9 12.8-21.2 13.3-47 1.3-67.4-1.5-2.6-2.8-5-2.8-5.3 0-.3 5.3 2.2 11.8 5.5 15 7.7 26.8 16.6 38.4 29.1 7.9 8.5 9.8 10 12.4 10 3.7 0 7.4-3.6 7.4-7.1 0-4.1-5.1-10.9-14.8-19.8-22.8-21-45.2-32.2-81.2-40.9-30.5-7.4-61.1-9.9-80-6.7zm61.5 18c17.3 3.7 32.5 16.6 38.8 32.9 4.3 11.4 3 28.1-3.2 40.4-16 31.7-60.7 37.2-85.1 10.5-18.8-20.5-18.4-51.8 1-71.3 5.8-5.8 15-11.3 21.6-12.9 6.1-1.4 19.2-1.2 26.9.4z"/><path d="M738.3 463c-6.9 2.8-4.8 14.3 2.6 14.3 4 0 8.1-3.7 8.1-7.4 0-5.2-5.7-9-10.7-6.9zm35.7 2c-4.9 4.9-.3 13.9 6.5 12.6 9.2-1.8 8.3-14.6-1-14.6-2.2 0-4.3.8-5.5 2zm-47.4 35.2c-2.1 2.9-2 4.1.3 8.6 2.2 4.2 5.7 7.7 11.7 11.6 12.4 8.1 34 7.5 46.7-1.3 10.4-7.1 14.2-14.6 9.7-19.1-3.2-3.2-6.5-2.5-11.9 2.5-6.9 6.4-12.9 8.9-22.1 8.9-9.1.1-14.2-2-21.6-8.7-6-5.4-10.2-6.2-12.8-2.5zm-590.1-187c-3.3 1.7-4.5 4-4.5 8 0 6.8 6.3 10.6 12.2 7.1 6-3.5 5.9-11.7-.3-14.8-3.3-1.8-4.7-1.8-7.4-.3zm291.7 543.1c-2.8 2.9-2.8 6.7-.1 10.1 2 2.6 2.2 2.6 14.4 2.6 6.8 0 13.1-.3 14-.6 2.6-1 4.5-6.3 3.4-9.3-1.8-4.5-3.6-5-17-5.1-11.8 0-12.7.1-14.7 2.3z"/></svg>