<svg version="1.0" xmlns="http://www.w3.org/2000/svg" width="1365.333" height="1365.333"
    viewBox="0 0 1024 1024">
    <path
        d="M495.5 168.3c-11.1 3.7-19.5 11.2-23.6 21.2l-2.3 5.5h-7.8c-9.2 0-11.8 1.7-11.8 7.5 0 5.7 2.9 7.5 12.1 7.5h7.7l2.2 5.5c8.2 20.3 34.5 28.7 52.9 17.1 5.2-3.3 11.9-11 14.4-16.4 3.3-7.2 3.1-19.8-.5-27.4-3.5-7.6-10.7-15.1-17.6-18.5-6.5-3.2-19.1-4.2-25.7-2zm19.4 15.7c7.8 3.9 13 13.5 11.8 21.9-.7 5.2-6.2 12.8-11.2 15.4-5.8 3-13.6 2.9-20-.3-9.4-4.7-13.9-16.3-9.9-25.8 4.6-11.1 18.8-16.6 29.3-11.2z" />
    <path
        d="M500 190.8c-3.1.6-3.5 1.1-3.8 4l-.3 3.3 9.3-.3c7.3-.2 9.3-.6 9.6-1.8.8-4.1-6.6-6.7-14.8-5.2zm-3.2 15.8c-1.3 1.2-.9 5.1.6 6.3.9.7 4.1 1.1 8.2.9 6.2-.3 7-.5 8.3-3 .9-1.5 1.2-3 .7-3.5-1-1.1-16.9-1.7-17.8-.7zm-148.3-23.1c-4.9 4.8-2.5 13.5 4.1 15.1 2.7.7 8-1.9 9.4-4.5 3.2-6-.9-13.1-7.5-13.1-2.5 0-4.4.8-6 2.5zm271.8 0c-3.7 1.6-5.3 4.2-5.3 8.5 0 6 3.4 9.9 8.8 10 6.6 0 10.1-3.4 10.2-9.8 0-3.2-.6-4.9-2.5-6.7-1.3-1.4-3.1-2.5-3.9-2.5-.8 0-2-.2-2.8-.5-.7-.2-2.7.2-4.5 1zm-208.3 11c-.8.2-6.4 1.1-12.3 2.1-12.2 1.9-15.7 3.8-15.7 8.4 0 4.7 2.5 6.3 8.4 5.6 20.7-2.5 30.7-4.4 32.1-6.2 3.8-5 .1-10.5-6.7-10.3-2.4.1-5 .3-5.8.4zm262.5.5c-4.1 1.6-12.7 13.4-18.9 25.8-1.5 2.9-3.7 5.7-4.9 6.2-1.2.4-7.4 2-13.8 3.5-18 4-23.4 7.6-24.6 16.3-.9 7 3.1 13.5 15.3 25 9.4 8.9 10.5 10.3 11.8 15.1 1.6 6.1 3.8 8.8 8.1 9.7 2.2.4 3.7 0 5.4-1.3 2.1-1.7 2.3-2.6 2.2-11.1-.1-5-.4-9.8-.7-10.6-.3-.8-4-4.3-8.2-7.9-11.1-9.4-16.2-14.2-16.2-15.4 0-1.1 5.4-2.6 22.9-6.3 5.1-1.1 10-2.5 10.8-3.2.8-.7 3.7-5.7 6.3-11.3 2.7-5.5 6-11.7 7.3-13.8l2.4-3.9 1.5 2.4c.9 1.3 4.3 7.9 7.7 14.6 3.3 6.6 6.9 12.5 7.8 13 1 .6 8.2 2.2 16 3.8 7.9 1.5 14.8 3.1 15.5 3.6 1.3.8-3.9 6.3-18 18.8l-6.2 5.6v13.7c0 7.5-.1 13.7-.3 13.7-.2 0-3.9-2-8.3-4.5-14-8-17.5-8.2-29-1.3-15.6 9.3-16.8 11.2-16.8 27.3-.1 14.3.9 16.5 7.4 16.5 5.9 0 7.4-2.5 7.8-12.9.4-9.8.9-10.6 9.8-16.7l5.2-3.6 8.7 5.8c4.7 3.2 8.8 6.1 9 6.5.3.3-4.1.9-9.6 1.1-11.7.6-14 1.9-14.2 8.3-.2 6 2.5 7.5 13.4 7.5h8.9v5.7c.1 7 1.6 9.3 6.7 10 5.9.7 8.3-2.1 8.3-9.7v-6h12c13.2 0 16.8-.9 21-5.4 2.2-2.5 2.5-3.8 3-13.4.5-10.9 1.2-13.3 4.9-16.6 4.5-4.1 1.1-11.6-5.3-11.6-4.2 0-9.4 3.5-12 8-1.6 2.6-2.2 5.9-2.6 13l-.5 9.5-10 .2c-6.2.1-9.2-.1-8-.6 1.1-.5 3.1-2.1 4.5-3.6 2.4-2.6 2.5-3.2 2.8-17.9l.3-15.3 10.4-9.6c14.8-13.9 18.3-21.9 13.3-30.8-2.9-5.1-7.3-7.2-23.9-11-7.4-1.7-13.4-3.1-13.5-3.2-.1-.1-1.8-3.5-3.9-7.4-5.4-10.5-12.5-20.4-16.4-23-3.5-2.4-8.8-2.9-12.6-1.3zm-381.2 8.4c-3.6 1.7-6.5 4.1-9.5 8l-4.3 5.6-6-.6c-11.2-1-16.5 4.3-16.5 16.6 0 6.5 0 6.6-4.9 11.4-2.8 2.7-5.5 6.2-6.2 7.8-1.6 3.9 0 7.3 6.2 13.4 4.7 4.7 4.9 5 4.9 10.6 0 7.4 2.2 12.9 6.2 15.2 2.4 1.5 4.4 1.8 9.7 1.4l6.6-.6 3.7 5.8c9.8 15 23.2 15 32.9 0l3.2-5h6.9c12 0 15.8-3.8 15.8-15.5 0-6.5.1-6.7 4.9-11.8 8.9-9.6 9-12.4.6-20.7l-5.5-5.4V232c0-12.6-4.7-16.9-16.9-15.6l-5.6.6-2.8-4.5c-3.3-5.2-9.8-10.1-14.8-10.9-2.5-.5-4.8 0-8.6 1.8zm10.6 19.8c.9 3.1 2 4.8 3 4.8.9 0 3.6 1 6.1 2.2 2.5 1.1 6 2.3 7.8 2.7 3.2.6 3.4.9 3.7 5.2.3 5.8 2.8 10.5 6.5 12.4 4.5 2.3 4.1 8.8-.5 9.6-2.5.5-4.4 5.7-4.4 12.1l-.1 4.8h-4.8c-3.3 0-6.6.9-10.3 2.7-4.7 2.4-5.5 3.3-6.4 6.8-1.4 5.4-2.2 6.5-5 6.5-1.9 0-2.7-.9-4.3-5.3-1.7-4.6-2.5-5.5-6.8-7.6-2.7-1.3-6.9-2.9-9.4-3.5-4.4-1.1-4.5-1.1-5.8-7.1-.9-4-2.3-7-4.2-9-4.1-4.3-4.1-6.5.2-10.7 2-2 3.9-5.1 4.2-6.7.3-1.7.8-4.4 1.2-6 .5-2.6 1.3-3.1 9.2-5.6 10-3.2 11.2-4 11.2-6.9 0-3.3 2.9-6.8 5.3-6.4 1.5.2 2.5 1.6 3.6 5z" />
    <path
        d="M553.7 205.1c-2.6 1.5-3.9 5.4-2.6 8.2.6 1.4 3.9 3.7 8.2 5.9 26.6 13.1 45.2 41.8 48.2 74.1.8 8.9 2.6 11.7 7.3 11.7 5.4 0 6.6-2.7 5.9-13.7-2.2-35.4-22.7-67.6-53.1-83.3-7.9-4.1-10.8-4.7-13.9-2.9zm-78.4 35.4c-1.6 1.1-2.3 2.6-2.3 5 0 4.7 2 5.7 16.8 8.5 11.8 2.2 12.4 2.2 14.2.5 2.3-2.1 2.6-6.3.7-8.8-1.4-2-13.1-5.3-21.7-6.2-4.2-.5-6-.3-7.7 1zm-50.3 2.1c-37 10.8-67.9 41.4-78.1 77.4-3.4 11.6-2.1 17 4.1 17 3.4 0 5.8-2.1 6.6-5.8 7.9-36.6 37.5-66.9 75.4-76.9 8.9-2.4 10.7-3.2 12-5.6 1.3-2.4 1.3-3 0-5.5-1.4-2.3-2.3-2.7-6.5-2.9-3-.2-8.4.8-13.5 2.3zm335 2.2c-3.1 2.5-3.2 8.8-.1 11.3 1.9 1.5 4 1.9 10.6 1.9 9.5 0 9.5 0 9.5 9.1 0 4.6.5 6.4 2 7.9 2.8 2.8 7.5 2.6 10.7-.6 2.5-2.5 2.5-2.8 2.1-14.1-.4-11.5-.5-11.6-3.6-14.4-3.2-2.9-3.4-2.9-16.1-2.9-10.9 0-13.2.3-15.1 1.8zm-225.9 18.8c-1.2 1.5-2.1 3.3-2.1 4 0 .8 5.7 7 12.6 13.9 10 9.9 13.2 12.5 15.4 12.5 3.1 0 6-2.7 6-5.7 0-6.3-21.8-27.3-28.3-27.3-.9 0-2.5 1.2-3.6 2.6zm222.4 1.6c-7.3 4.2-5.1 14.9 3.1 14.8 7.1-.1 10.7-8.7 5.6-13.3-2.4-2.2-6.4-2.9-8.7-1.5zM453 278.5c-25.3 5-46.5 21.4-57 44-5.7 12.1-7.4 20-7.4 34 0 17.9 3.2 28.3 14.6 47.2 9.1 15 13.5 24.4 14.8 31.2.5 2.9 1 14.5 1 25.6 0 20.1 0 20.2 2.5 22.9 1.3 1.4 3 2.6 3.6 2.6.7 0 .1 1.3-1.4 2.8-1.9 1.9-2.7 3.9-2.7 6.3 0 3.8 2.3 7.9 4.6 7.9 1.9 0 1.8 1-.7 3.6-2.4 2.6-2.8 7.9-.8 11.5.7 1.3 1.4 4.5 1.6 7.2.5 8.3 5.1 15 12.5 18 3 1.3 3.8 2.2 4.4 5.2.9 5.2 2 5.8 22.9 12 10.1 3.1 13.1 2.9 21.2-1.1 5.6-2.7 11.3-9 11.3-12.5 0-1.1 1.5-2.6 3.8-3.8 7.7-3.9 12.2-11.5 12.2-20.4 0-2.1.7-4.5 1.5-5.3 2.4-2.4 1.9-7.8-1.1-11.3-1.8-2.2-2.1-3.1-1.1-3.1 4.9 0 6.5-10.4 2.2-14.4l-2.5-2.3 2.5-1.3c1.3-.7 2.7-2 3.1-2.9.4-.9.8-11.7.9-24.1.2-26.5.7-28.9 10.6-46.5 12.5-22.2 15.9-30.8 18-45 2.8-19.4-3.1-41.7-15.5-58.1-18.1-24.1-49.5-35.9-79.6-29.9zm29.3 16c11.9 2.5 20.9 7.6 30.7 17.4 13.5 13.3 19 26.5 19 45.1 0 15.5-3 24.2-15 43.6-5.5 9-9.2 17.1-12.1 26.9-.6 2.2-1.4 12.5-1.8 23l-.6 19-7-.3c-3.8-.2-7.2-.6-7.5-.9-.3-.3-.5-8.9-.4-19.1.1-23 1.3-28.4 11.5-49 6.9-13.8 7.1-14.5 6.7-20.2-.7-10.1-7.6-17.4-17.7-18.7-13.3-1.8-24.2 5.7-25.8 17.8-.5 3.4-1.2 4.3-5.5 6.9-3.7 2.3-5.3 2.8-6.3 2-1.5-1.2-3.5-8.5-3.5-12.6 0-6.4-7.9-9.6-13.3-5.4-5.6 4.5-4.5 10.6 6.3 33 4.4 9.1 8.7 19.2 9.6 22.5 1.7 6.4 3.2 37.2 2 42-.6 2.5-.8 2.6-8.4 2.3l-7.7-.3-.6-20c-.7-25.5-1.8-29.4-15.2-50.5-11-17.5-14.7-28.2-14.7-43 0-23.9 13.6-45.3 35.9-56.6 11.9-5.9 27.8-7.8 41.4-4.9zm5.9 83.2c2.2 2 2.3 4.5.3 8.3-1.9 3.6-2.3 3.6-6.6.7-3.7-2.5-4.7-5.4-2.9-8.6 1.3-2.6 6.5-2.8 9.2-.4zm-13.5 23c3.8 2 5.1 3.2 4.7 4.3-.4.8-2.1 5.3-3.8 10-3 8.4-3.1 8.8-3.6 31.5-.5 22.2-.6 23-2.5 23s-2-.8-2.5-22.5c-.5-22.4-.5-22.5-3.8-31.5-1.8-5-3.6-9.7-3.8-10.6-.4-1.1.8-2.4 3.8-4.2 2.4-1.4 4.7-2.6 5.3-2.7.5 0 3.3 1.2 6.2 2.7zm12.6 86c-8.9.2-23.7.2-33 0-9.2-.1-1.9-.3 16.2-.3 18.2 0 25.7.2 16.8.3zm14.2 16.3c.4.7-10.2 1-30.9 1-20.4 0-31.6-.4-31.6-1s11-1 30.9-1c19.6 0 31.2.4 31.6 1zm-6.1 20.1-.1 3.2-19.4.2c-29.6.2-31.5.3-30.1 1.7.7.7 1.2 1.7 1.2 2.2-.1 1.8-5-6.8-5-8.7 0-1.6 1.9-1.7 26.8-1.7h26.7l-.1 3.1zm-.4 5.3c0 .3-.4.8-1 1.1-.5.3-1 .1-1-.4 0-.6.5-1.1 1-1.1.6 0 1 .2 1 .4zm-19.4 20.1c-1.7 1.3-3.4 2.1-3.9 1.8-.6-.3-2.2-.6-3.6-.5-1.5 0-3.8-.8-5.1-1.9l-2.5-1.9 9 .1h9l-2.9 2.4z" />
    <path
        d="M779.5 282.5c-.5.2-2.6.6-4.6.9-4.9.8-7.9 3.9-7.9 8 0 4.9 2.8 7 8.5 6.4 2.5-.3 4.5-.4 4.5-.1 0 .2-.7 1.7-1.5 3.2-1.5 2.9-3.6 4-11.9 6.2-6 1.5-12 7.1-13.5 12.6-.6 2.1-1.1 12.5-1.1 23V362h-86v-4.8c0-5.8-2.9-9.2-7.6-9.2-5.3 0-7.4 2.4-7.4 8.6v5.4h-13.5c-22.1 0-23.5 1.3-23.5 21.9v13l3.1 3.5c1.6 1.9 3.9 3.8 5 4.1 1.8.6 1.9 1.7 1.9 18.4v17.8l-4.2.6c-8.3 1.1-16.5 9.9-18.5 19.8-.9 4.7-1 4.7-12.2 6.9-23.3 4.3-46.6 25.8-53.7 49.5-1.4 4.4-1.8 9.2-1.8 17.9 0 11.2.2 12 2.3 13.7 3.2 2.6 7.3 2.4 9.9-.4 1.9-2 2.2-3.5 2.2-11.4 0-5 .4-11.4 1-14.2 2.7-14.4 14.4-28.8 29.1-35.9 4.6-2.2 9.4-4.4 10.7-4.7l2.2-.6v37.8l-3.9 1.1c-9.9 3-12.1 7.5-12.1 25v12.8l-11.5 3.3c-18.5 5.4-34 13.8-45.7 24.8l-3.6 3.5-3.7-4.1c-10.2-11.2-24.2-18.7-48-25.4-27.4-7.8-45.1-9.9-80.5-9.9-13.5 0-30.1.5-37 1.2-25 2.3-53.8 7.5-59.4 10.8-6.4 3.8-6.9 5.2-12.7 37.9-1 5.6-1.4 6.2-4 6.8-3.2.7-7.6 5.4-8.5 9.1-.8 3.1-1.4 3-7.2-.6-2.7-1.6-6.1-3-7.6-3-3.4 0-8.2 2.5-9.5 4.9-.6 1-7.1 27.2-14.6 58.2C196 782.6 183.9 832.2 183 834.6c-.9 2.3-1.3 2.4-11.9 2.4-6.1 0-12.1.5-13.5 1.1-3.1 1.5-5 5.9-4.1 9.8 1.4 6.6-10.5 6.1 158.6 6.1h153.6l6.4 2.8 6.4 2.7h68l6.6-2.7 6.6-2.8h305.2l2.6-2.3c3.9-3.3 3.9-9.1.1-12.3-2.5-2.2-3.6-2.4-14.2-2.4-11 0-11.5-.1-12.3-2.3-2.4-6.5-14.7-67.9-28.6-143.7-10.3-56.1-13.2-70.5-14.4-72.9-3-5.6-12.3-6.4-18.6-1.7-1.8 1.4-3.8 2.6-4.3 2.6s-1.4-3.7-2-8.2c-1.5-10.4-3.7-14.8-8.4-17.1-3.5-1.7-3.7-2.1-4.8-9-2.4-15-4.4-19.4-10.7-22.6-3.4-1.7-19.5-4.8-40.8-7.8-18-2.6-20.9-2.8-56.5-2.7-32.6.1-39.1.3-49.3 2l-11.8 2 .3-9 .3-9.1 109.8-.3L811 537v9h-33.9l-2 2.6c-2.5 3.2-2.7 7.1-.5 10.2 1.5 2.1 2.1 2.2 19 2.2H811v13.9c0 13.5-.1 13.9-2.2 14.5-1.3.3-8.7.6-16.5.6-14.1 0-14.2 0-16.2 2.6-1.2 1.5-2.1 3.7-2.1 4.9 0 1.2.9 3.4 2.1 4.9l2 2.6h33.5c32.1 0 33.5-.1 35.4-2 2.4-2.4 2.2.3 2-32-.2-30.5-.9-33.8-8.8-42.2-5.9-6.3-12.5-8.8-23.2-8.8h-8l-.1-8.3c-.1-4.5-.3-12.8-.5-18.3l-.4-10.2 4.4-1.1c7.7-1.9 8.6-4.1 8.6-20 0-18.3-1.3-20.2-15-21.1l-7.5-.5-1.7-6c-2.2-8.2-2.2-14.1.3-22 1.7-5.4 2.6-7 5.2-8.3 7.5-4.1 7.7-4.6 7.7-20.5 0-12.8-.2-14.7-2-16.9-3.1-4-6.9-5-17.5-4.6-9.2.3-9.8.4-12.1 3.1-1.3 1.6-2.4 4.1-2.4 5.7 0 4.3 3.1 6 11.2 6h6.8v12H630v-12h64.8c49.4 0 65.3-.3 67.1-1.3 1.3-.6 3.2-2.8 4.2-4.7 1.7-3.1 1.9-6 1.9-25 0-11.8.4-22 .8-22.5.4-.6 3.6-1.9 7.1-3 11.1-3.3 19.1-11.8 19.1-20.3 0-2.5.4-3.2 2-3.2 4.1 0 13.1 4.3 17.9 8.6 6.2 5.6 9.5 11.1 12 20.5 2.1 7.7 3.8 9.9 8.1 9.9 4.5 0 7-2.6 7-7.4 0-10.4-5.7-22.6-14.9-31.6-7.8-7.7-14.6-11.6-23.8-13.5-6-1.3-21.1-1.9-23.8-1zm2.1 123.2c-2.8 9-3.3 20.4-1.1 28.6.8 3.2 1.5 6 1.5 6.2 0 .3-31.7.5-70.5.5H641v-16.9c0-9.3-.3-17.6-.6-18.5-.6-1.5 6.1-1.6 70.6-1.6 67.3 0 71.1.1 70.6 1.7zm23.4 55.8v4.5H615.9l1.7-3.3c.9-1.7 2.1-3.8 2.6-4.5.8-.9 20.6-1.2 92.9-1.2H805v4.5zM615 501v19h-8v-38h8v19zm177 0v19H631v-38h161v19zm40 46.2c.6 2 .9 12.3.8 23-.3 18.5-.4 19.3-2.3 19.3s-2-.7-2.2-25c-.2-22.4-.1-24.8 1.2-23 .9 1.1 2 3.6 2.5 5.7zM412.5 568c43 3.6 75.5 15.9 89.2 33.8l3.3 4.4v183.9l-7.9-6.5c-22.3-18.1-48.9-28-88.1-32.7-14.9-1.8-62.2-1.5-84.5.5-9.9.9-27.8 3.1-39.7 4.9-12 1.8-21.8 2.9-21.8 2.4s1.1-5.7 2.5-11.6c11.5-49.9 19.7-95.6 24-133.1 2.3-20 4.6-36.4 5.4-37.2 1.7-1.9 34.9-7.4 52.5-8.7 14.9-1.2 51.4-1.2 65.1-.1zm268 0c22.5 1.5 57.6 6.6 59.6 8.8.7.7 3 18.6 6.9 54.7 2.5 22.7 5 39.9 9.1 63.5 3.2 18.5 10.4 57.3 11.5 61.7.7 2.6.6 2.6-3.7 2-2.4-.4-12-1.8-21.3-3.2-30.6-4.5-49.6-5.8-85.1-5.8-29.4-.1-34.6.1-47.5 2.1-24.4 3.8-43.2 9.2-58.3 16.8-7.3 3.7-21.6 13.6-25.6 17.8-1.9 2-3.7 3.6-4 3.6-.4 0-.5-41.1-.3-91.4l.2-91.5 5.2-5.6c20.7-22.7 59.7-33.9 119.8-34.4 9.7 0 24.7.4 33.5.9zm-410.6 69.5c-3.5 23.3-11.5 64.4-17.9 92.5-6.3 27.4-7.4 35.1-5.6 39.5 1.8 4.1 6.8 7.5 11.4 7.5 1.9 0 11.3-1.3 21-3 75.8-12.7 138.5-11.5 167.5 3.1 6.3 3.2 13.1 7.9 12.4 8.6-.2.2-3.3-.3-6.8-1.1-9.3-2.1-29.3-5.3-45.4-7.2-31.2-3.7-114.3-.9-166 5.5-3.8.5-7.1.8-7.2.7-.4-.4 29.5-134.3 31.8-142.6 1.8-6.5 6-17.1 6.6-16.6.1.1-.7 6-1.8 13.1zm501.2 17c2.1 10.4 6.3 34.5 9.4 53.5 3 19 7.1 43.7 9.1 54.8 2 11.2 3.4 20.5 3.2 20.7-.2.1-3-.1-6.3-.6-43.7-6-132.6-9.4-162.5-6.1-12.8 1.4-36.5 5.2-50.9 8.2-5.2 1.1-9.6 1.9-9.8 1.7-.6-.6 15.3-9.5 21.4-12 7.3-3 20.3-6.1 32.8-7.9 13.1-1.9 63.5-1.5 84.5.6 19 1.9 47.7 5.9 58 8.1 12.7 2.7 19.5 1.5 23.8-4 2.6-3.3 2.8-7 .7-18-.8-4.4-3.3-17.5-5.4-29-5.8-30.3-10.8-59.8-13.1-77-1.1-8.3-2.3-16.4-2.5-18-.4-2.5-.1-2.3 1.7 1.5 1.2 2.5 3.8 13 5.9 23.5zm15.5-10.2c1.3 6.1 4.6 23.8 7.4 39.2 11.2 61.8 13.3 73.2 19.1 103.5 3.3 17.3 6.7 34.2 7.5 37.5.7 3.3 1.4 6.6 1.4 7.2 0 1-26.6 1.3-129.8 1.3H562.3l-2.6-4.9c-1.5-2.7-2.7-5.1-2.7-5.5 0-.3 56.9-.6 126.5-.6 141.7 0 131.5.5 131.5-7 0-2-.4-5-.9-6.6-1-3.3-1.7-6.7-6.1-31.4-1.7-9.6-4.4-24.5-6.1-33-1.6-8.5-4.9-27.2-7.4-41.5s-6.1-34.6-8-45.2c-3.4-18.5-4.3-26.4-2.8-24.9.4.3 1.7 5.7 2.9 11.9zm-536-6.1c-.4 2.9-2.5 12.9-4.7 22.3-2.2 9.3-5.8 24.9-8 34.5-2.3 9.6-7.9 33.5-12.6 53-12.3 50.8-11.7 47.9-9.5 50.9 2.9 3.9 6.4 4.6 14.6 2.7 3.9-.9 17.2-2.7 29.6-4.1 45.3-4.9 60.1-5.8 97.5-5.9 36.8-.1 41.9.2 68.5 4.5 17.2 2.8 41.7 9.2 43.7 11.4.4.4 0 .5-1 .2-1-.4-55.6-.7-121.3-.7H227.9l1.2-2.1c.9-1.9.8-2-1-1.4-1.1.3-4.4 1-7.3 1.4-3.8.6-5.8 1.6-7.5 3.5-2.8 3.2-3.1 9.1-.6 11.8 1.5 1.7 6.9 1.8 129 1.8 70 0 127.3.3 127.3.6s-1.2 2.8-2.7 5.5l-2.8 4.9H332.8c-107 0-130.8-.2-130.8-1.3 0-.7 3.4-15.5 7.6-32.8 4.1-17.3 10.8-45.6 14.9-62.9 20.8-88.6 24.4-103 25.8-103 .6 0 .7 2.2.3 5.2zM703.5 792c22.2 1.2 42.4 3.1 69.6 6.5 10.8 1.4 19.9 2.5 20.2 2.5.4 0 1.3 1.3 2.2 3l1.6 3h-119c-65.4 0-119.8.3-120.8.6-1.2.5-1.5.4-.8-.4 2.5-2.5 32.5-9.6 53.5-12.6 24.9-3.6 58-4.5 93.5-2.6zm-206 35c7.8 1.8 29.9.9 38-1.5 1.6-.5 2.5.2 4.4 3.4 2.8 5 2.5 7.8-1.2 10.5-2.7 2-4 2.1-25.5 2-23.8 0-26.1-.4-28.3-4.6-.9-1.7-.7-3 1.2-7 2.1-4.4 2.6-4.9 4.9-4.3 1.4.3 4.3 1 6.5 1.5z" />
    <path
        d="M693 500.7c-3.8 1.4-5.4 7.9-2.5 10.3 1.7 1.4 15.8 2.5 20.9 1.6 4-.8 6.1-3.6 5.2-7.1-1.2-4.7-3.1-5.5-12.9-5.4-5.1 0-9.9.3-10.7.6zm41.3.3c-4.4 1.8-4.1 9.4.4 11.1 6.3 2.4 11.8.6 13.6-4.4.7-1.9-.8-5.6-2.7-6.9-1.5-1-8.6-.9-11.3.2zm32-.4c-2.9.7-4.9 5.7-3.5 8.8 1.1 2.5 5.1 3.6 13 3.6 6.8 0 10.5-5.5 6.8-10.5-1-1.5-2.8-1.9-7.7-2.1-3.5-.1-7.4 0-8.6.2zm-440.2 101c-2.7 3.5-2.7 7.8.1 10.4 1.9 1.7 3.5 2 12 2h9.8v108.9l2.3 2.7c3.2 3.6 8.3 3.6 11.5-.1l2.2-2.6V614h9c8.4 0 9.3-.2 11.7-2.6 2-2 2.4-3.1 1.9-5.7-1.3-6.6-1.8-6.7-31.6-6.7h-26.9l-2 2.6zm100.4 12c-18.7 2.5-24.8 4.2-27.1 7.2-.7.9-1.4 3.4-1.4 5.4 0 2.9.6 4.1 2.5 5.4 2.5 1.6 3.1 1.6 11.8-.6 13.6-3.4 30.8-3.2 48 .4 11.9 2.5 13 2.6 15.3 1.2 5.2-3.5 3.6-10.4-3-13.1-8.6-3.6-36.6-7.2-46.1-5.9zm-119.8 27.5c-2.6 1.5-3.2 3.7-8.3 27.8-2.5 11.9-6.3 28.9-8.5 37.9-2.1 9-3.9 17.8-3.9 19.6 0 5.4 4.6 8.2 9.7 6.1 2.4-1 3.4-2.4 4.6-6.2 2.5-7.5 6.1-22.6 12.2-50.3 3-14 5.7-26.4 5.9-27.4.6-2.4-1.8-7.2-3.9-8-2.4-.9-5.8-.7-7.8.5zM427 649c-11.5 1.1-24 4.8-27.2 8.1-1.6 1.5-2.8 3.4-2.8 4.3 0 2.7 2.2 6.5 4.1 7.1 1 .4 6.7-.6 12.5-2.1 13.6-3.3 26.9-3.7 40.1-.9l9.3 1.9 2.5-2.4c1.4-1.3 2.5-3.5 2.5-5 0-7.1-5.9-9.4-29.5-11.4-2.2-.2-7.4 0-11.5.4zm54 15.3c-4.3 2.1-4 9.5.5 11.5 3.3 1.5 7-.1 8.6-3.9.9-2.4.9-3.3-.5-5.4-.9-1.4-2-2.5-2.5-2.5s-1.5-.2-2.3-.5c-.7-.3-2.4.1-3.8.8zm-63.5 21.2c-10.6 2.1-14.8 3.5-17.2 5.8-4.3 3.9-2.2 12.7 3 12.7.9 0 5.2-1 9.4-2.3 6.7-1.9 10.1-2.2 23.8-2.1 14.7 0 16.8.3 25 2.9 17.1 5.3 16.1 5.2 19 2.5 3.2-3 3.3-7.3.2-10.4-2.8-2.8-15.7-7.2-26.5-9.1-9.7-1.8-27.5-1.7-36.7 0zm3.5 34.1c-6.9.8-15.5 2.7-18.3 4.1-3.4 1.7-5.2 5.3-4.3 8.8 1.1 4.2 4.3 5 14.4 3.4 10-1.6 20.3-1.8 31.5-.5 6.8.8 8 .7 9.7-.9 2.2-2 2.6-6.5 1-9.5-.6-1.1-3.2-2.6-5.9-3.4-5-1.5-22-2.7-28.1-2zm47.5 10.9c-3.6 3.5-3.3 7.6.8 10.7 4.4 3.4 9.2 5.8 11.6 5.8 2.3 0 6.1-4.4 6.1-7.1 0-3.9-9.7-11.9-14.5-11.9-.9 0-2.7 1.1-4 2.5zm181.3-143.8c-4.3.5-6.8 3.2-6.8 7.4 0 4.5 2.7 5.9 11.6 5.9 4.3 0 8.4-.4 9.1-.8 2.3-1.5 3.2-5.6 1.8-8.8-1.8-4.4-3.9-4.9-15.7-3.7zm31.2 1.8c-1.8 2.2-1.8 8.1.1 10 .9.9 4.3 1.8 8.2 2.2 5.6.5 7 .3 8.7-1.2 2.3-2.1 2.6-7.2.6-10s-15.5-3.5-17.6-1zm34.4 2.9c-.3.7-.4 3.3-.2 5.7l.3 4.4h12l.3-3.4c.2-1.9.1-4.4-.2-5.7-.6-2.2-1.2-2.4-6.2-2.4-3.7 0-5.6.4-6 1.4zm-124.9 17.1c-17.7 3.4-35.8 9.7-40.7 14.2-2.4 2.2-2.4 8.5 0 10.6 2.7 2.5 5.7 2.1 15-1.9 10.8-4.6 28.4-9 41.4-10.4 8.5-.8 10.6-1.4 12.1-3.1 2.3-2.8 2.2-6-.4-9.3-1.9-2.4-2.7-2.6-8.7-2.5-3.7 0-12.1 1.1-18.7 2.4zM646 632c-2.7 2.7-2.6 8.1.1 10.6 1.8 1.6 4.4 2 19.7 2.6 10.2.3 23.4 1.6 31.2 2.8 20.8 3.5 20.2 3.4 23.3 1 4.2-3.3 3.6-9-1.3-11.5-6.7-3.4-38.7-7.5-59.2-7.5-10.5 0-12 .2-13.8 2zm-45 9.7c-25.7 4-51.5 12.6-57.4 19.2-3.8 4.2-1.3 12.1 3.9 12.1 1.2 0 5.5-1.5 9.6-3.4 15.7-7.1 31.9-11.6 49.4-13.5 10-1.2 12.5-2.7 12.5-7.7 0-5.1-3.1-7.4-9.9-7.3-3.1.1-6.7.3-8.1.6zm45 30.3c-2.8 2.8-2.6 8.1.3 10.7 2 1.9 3.8 2.1 23.2 2.6 20.7.6 38.6 2.6 53.8 6.1 9.1 2.1 11 2 13.5-.7 4.9-5.2 1.2-11-8.5-13.3-19.4-4.6-44.1-7.4-65.5-7.4-13.5 0-15 .2-16.8 2zm-44 4.7c-24.9 3.9-54.7 14.3-59.8 20.8-1.2 1.5-2.2 3.9-2.2 5.2 0 2.5 4 7.3 6.2 7.3.7 0 5.5-2 10.5-4.5 14.5-7 32.4-12.2 50.3-14.5 6.5-.8 8.9-1.6 10.3-3.2 2.1-2.5 2.2-6.6.1-9.6-1.3-1.9-2.4-2.2-7.2-2.1-3.1.1-6.8.4-8.2.6zm79.6 33.5c-1.9 2.7-2.1 6.8-.3 9.1 1.4 2 19 6 22 5.1 2.7-.9 4.7-6.1 3.5-9.5-1-3-3.8-4.4-11.7-5.9-8.5-1.6-11.8-1.3-13.5 1.2zm-82.1 2.4c-4.9.9-7.6 2-8.8 3.5-2.5 3.1-1.8 7.7 1.3 10 2.4 1.7 2.9 1.7 12.9 0 8.4-1.4 10.8-2.2 12.2-4 2.4-3 2.4-5.2-.2-8.5-2.4-3-6.1-3.3-17.4-1zm121.2 2.2c-2.5 2.8-2.2 8.8.6 10.6 2.5 1.6 13.7 4.6 17.1 4.6 5.1 0 7.6-7.9 3.7-11.4-2.3-2.1-13.1-5.6-17-5.6-1.5 0-3.5.8-4.4 1.8zm-157.8 8.6c-8.7 3.7-17.8 9.1-19.6 11.5-1.9 2.5-1.6 7.8.7 10.1 2.9 2.9 6.2 2.5 12.7-1.6 3.1-2 8.6-5 12.2-6.6 8.5-3.8 10.1-5.4 10.1-9.4 0-2.3-.7-3.8-2.6-5.3-3.5-2.8-4.6-2.7-13.5 1.3zM225.6 290.1c-2 1.6-2.6 2.9-2.6 5.9 0 7 7.2 10.3 12.6 5.7 3.5-3.1 3.7-7.7.4-11.2-2.9-3.1-6.8-3.2-10.4-.4zm346.1 25.7c-2.2 2.4-2.1 3.3.4 15.5 1.7 8.4 2 12.3 1.5 22.2-.3 6.6-.8 13.8-1.2 16.1-.5 3.5-.3 4.4 1.7 6.3 2.8 2.6 5 2.7 7.9.3 6.4-5.2 6.6-40.6.3-56.4-2.3-5.8-7.3-7.7-10.6-4zM222.2 318c-10.2 3.7-18 11.4-21.3 21.4l-1.8 5.1-4.8.3c-6 .4-8.3 2.4-8.3 7.2 0 4.8 2.3 6.8 8.4 7.2 4.8.3 4.8.3 6.7 5.3 2.2 5.8 8.6 13.6 13.9 17 11.7 7.4 29 7 39.9-.8 5.6-4.1 11.4-11.6 13-16.7l1.1-3.9 23.1-.3c22.9-.3 23.1-.3 25-2.7 2.5-3 2.4-7.2-.1-9.9-2-2.1-2.7-2.2-24.4-2.2h-22.4l-1.5-4.5c-3.5-10-12.3-19.1-22.1-22.5-7.1-2.5-17.2-2.5-24.4 0zm21.5 14.3c7.5 3.9 11.6 10.7 11.7 19.3.2 11.8-8.5 20.6-20.4 20.8-14.2.2-24.7-12.7-21.1-26 1.7-6.3 5.1-10.5 11.1-13.7 4.6-2.4 6.3-2.8 10.6-2.4 2.9.3 6.5 1.2 8.1 2z" />
    <path
        d="M228.3 342c-.3 1-1.3 2.2-2.3 2.5-2.3.7-3.5 5.2-1.9 7.2.7.8 2.3 1.3 3.6 1 1.9-.4 2.3 0 2.3 2.2 0 1.4.3 4.3.6 6.3.6 3.6.8 3.8 4.5 3.8h3.9v-6.5c0-6.2.1-6.5 2.5-6.5 2.7 0 4.6-2.6 3.6-5-.3-.8-1.4-2.7-2.5-4.3-1.7-2.4-2.4-2.7-7.8-2.7-5.1 0-6.1.3-6.5 2zm379-14.3c-3.1.6-6.3 5-6.3 8.5 0 4.1 4.8 8.8 9 8.8 6.3 0 10.9-7.6 7.9-13.2-.9-1.6-7.1-5.2-8.1-4.7-.2.1-1.3.4-2.5.6zm185.2 5.8c-1.6 1.5-2.5 3.6-2.5 5.5 0 3.6 3.8 8 7 8 4.9 0 8.9-3.8 9-8.6 0-6.7-8.6-9.9-13.5-4.9zm-448.1 19.6c-2.1 2.4-2.3 10.5-.4 20.7 1.2 6.7 2.8 8.5 7.1 8.4 5.9-.2 6.4-1.5 4.9-15.4-.8-8.2-1.7-12.9-2.8-14.1-2.1-2.3-6.5-2.2-8.8.4zM289.3 396c-2.8 1.1-4.3 4-4.3 8.2.1 3.7 1.4 5.9 4.8 7.7 5 2.7 12.2-1.8 12.2-7.5 0-4.6-.9-6.3-4.1-7.9-3.1-1.7-5.4-1.8-8.6-.5zm74.2 3.9c-9 2.2-13.9 9.8-11.5 18.1 3.8 13.2 22.4 14.1 28.5 1.5 3.2-6.9-1.3-17.3-8.3-18.9-1.5-.4-3.4-.8-4.2-1-.8-.2-2.8-.1-4.5.3zm201.1.1c-10.2 3.2-13.5 16.9-5.8 24.3 8.1 7.8 21.9 4 25.2-7 1.2-3.8 1.1-4.6-1.1-9-3.5-7-11.2-10.5-18.3-8.3zm-381.5 4.6c-2.3 2.9-2.7 6.4-1.1 9.4 1.1 2.1 6.4 4.2 8.5 3.4 1.1-.5 1.5.2 1.5 2.5v3.1h-15.1c-8.3 0-15.9.4-16.9 1-3.7 2-4 5.8-4 56.7 0 52.6.2 54.7 4.8 57.2 1.2.7 8.1 1.1 16.6 1.1H192v24.4c0 27.4.4 26.1-7.6 25-5.2-.7-11 1-12.4 3.6-1.2 2.2-1.3 7-.2 8.6 2 3.1 5.4 3.4 39.6 3.4 33.1 0 34.7-.1 36.6-2 2.9-2.9 3.5-6.6 1.6-9.6-2.1-3.2-5.4-4.4-11.7-4.4H233l.2-24.2.3-24.2 45.5.2c45.5.1 51.4-.2 54-3.3 1.8-2.2 1.5-10.1-.5-13.1-2.1-3.3-16.8-10.3-63.7-30.3L233 477.8V458c0-19.7 0-19.8 2.3-20.3 1.2-.3 4.2-.2 6.7.1 6.5 1 8.6 4.6 9.6 16.4.5 6.9 1.1 9.5 2.5 10.9 2.4 2.4 7 2.4 10 0 2.2-1.8 2.4-2.6 2.3-11.8-.1-11.4-2.1-18.7-6.6-23.9-4.5-5.1-6.3-5.8-16.8-6.4-9.4-.5-9.5-.5-9.8-3.2-.3-2.3.1-2.7 2.9-3 6.5-.6 8.7-8 3.9-12.8-1.9-1.9-3.4-2-28.4-2h-26.5l-2 2.6zm34.9 15.5v3l-5.2-.3c-4.9-.3-5.3-.5-5.6-3.1-.3-2.7-.2-2.7 5.2-2.7 5.6 0 5.6 0 5.6 3.1zM192 481v43h-21v-86h21v43zm26 0v43h-11v-86h11v43zm47 26.5c16.2 6.9 31.8 13.7 34.5 15l5 2.4-35.5-.2-35.5-.2-.3-15.4c-.2-12.1 0-15.2 1-14.8.7.3 14.6 6.3 30.8 13.2zM218 564v25h-11v-48.9l4.8-.4c2.6-.2 5-.4 5.5-.5.4-.1.7 11 .7 24.8zm612.7-142.2c-2.1 2.3-2.2 7.6-.1 9.6 1.2 1.2 3.7 1.6 10.8 1.6 10.3 0 12.9-1.3 12.9-6.5s-2.6-6.5-12.8-6.5c-7.6 0-9.5.3-10.8 1.8zm-546.1 8.3c-2 1.6-2.6 2.9-2.6 5.8 0 5.5 2 6.7 13.5 8 5.5.6 12.4 1.6 15.3 2.3l5.2 1.1v10.6c0 18.8 4.3 30.1 15.9 42.4 3.8 3.9 9.4 8.7 12.4 10.5 11.5 6.9 41.5 15.4 47.1 13.2 5.6-2.1 6.9-9.2 2.3-12.5-1.1-.8-6.5-2.4-11.9-3.6-5.5-1.3-9.8-2.7-9.8-3.4 0-.6.5-3.7 1.1-6.9 2.6-14.2-4.1-31.8-17-44.7-12.5-12.5-26.5-19-49.4-22.9-15.1-2.5-18.7-2.5-22.1.1zm53.3 27.3c12.3 9.2 19.1 20.1 19.9 32.2.2 3.9 0 7.9-.5 8.8-.8 1.5-1.6 1.2-6.9-2.3-11.2-7.4-17.8-19.3-19-34.1-.8-9.4-.4-9.7 6.5-4.6z" />
    <path
        d="M283.6 456.1c-4.7 3.7-2.1 11.9 4 11.9 3.4 0 7.4-3.7 7.4-7 0-3.1-3.9-7-7-7-1 0-2.9.9-4.4 2.1zM848.4 490c-4.7 1.9-6.7 7.7-4.2 12.3 1.7 3.4 3.9 4.6 8 4.7 7.2 0 11.3-9 6.6-14.4-2.5-2.9-7.2-4-10.4-2.6zm-108.1 56.8c-2.2 1.4-3.2 5.7-1.9 8.3 1.4 2.8 4.4 3.6 14.7 3.8 8.5.1 10.9-1.3 10.9-6.2 0-5.2-2.9-6.7-13.2-6.7-5.1 0-9.8.4-10.5.8zm-549.1 82.8c-1.7 1.2-2.2 2.5-2.2 5.9 0 6.2-.7 7.5-4.2 7.5-8.4 0-13.8 8.5-8.8 13.8 2.6 2.8 6 2.8 9.5 0 3.8-3 10.9-3 15-.1 4.6 3.4 8.4 3.4 11.5.1 4.3-4.6.8-12-6.4-13.3-3.5-.7-3.5-.8-4.2-6.6-.9-8.2-4.9-11-10.2-7.3zm648.3 8.3c-5 2.1-7.3 7.6-5 12 3.3 6.5 12.3 7.8 16.5 2.4 6-7.7-2.3-18.1-11.5-14.4zM191 667.8c-2.2.8-3.9 3.4-4 5.9 0 3 3.4 6.3 6.3 6.3 2.8 0 6.7-3.9 6.7-6.7 0-3.5-5.5-6.9-9-5.5z" />
</svg>