<svg version="1.0" xmlns="http://www.w3.org/2000/svg" width="1365.333" height="1365.333"
    viewBox="0 0 1024 1024">
    <path
        d="M413 79.9c-4.7 2.1-17 8-27.5 13.1-10.4 5.1-26.4 12.7-35.5 17-9.1 4.3-22.1 10.5-29 13.8-18.4 8.8-26.7 12.7-67.5 31.7-20.3 9.5-46.4 21.8-58 27.2-11.5 5.5-29.4 13.9-39.7 18.8-10.3 4.8-20.6 10.3-22.7 12.2-2.4 2-5.4 6.2-7.3 10.1l-3.3 6.7V308c0 42.6.3 80 .7 83 1.1 7.6 5.2 13.8 11.6 17.5 4.9 2.8 5.1 3.2 4.4 6-.4 1.6-.7 7.7-.6 13.5 0 9.7.3 11.2 3.8 20 11.1 27.7 19.3 36.3 31.6 33.1 3.9-1 6-1 10.5 0 13.3 3 20.2-4.6 30.5-33.6 4.4-12.4 5.3-25.4 2.1-31.7-1.3-2.4-3-4.9-3.9-5.6-1.5-1.1-1.4-1.5 1.1-3.8 3.6-3.3 7.4-11 8.8-17.6 1.3-6.5 3.3-9.8 5.8-9.8 1.8 0 1.8.2.3 6-1.6 5.8-1.5 6.1.4 8.7 2.3 3.1 31.2 21.6 41.2 26.5 4.5 2.2 7.2 2.9 9.5 2.5 5-.8 75.8-36.1 78.7-39.1 3.3-3.7 3.4-9.5 0-13.1-1.3-1.4-7.8-5.7-14.4-9.6-20.1-11.9-31.6-19.2-31.6-20 0-.5 4.6-3.1 10.3-5.8 28.9-13.9 36.2-17.1 37.6-16.6.9.3 7.3 4.2 14.3 8.7 14.2 8.9 13.9 8.4 7.7 15.6-1.6 1.8-2.9 4.2-2.9 5.4 0 1.1 2 4 4.4 6.4 3.7 3.8 4.9 4.4 8.4 4.4 5.3 0 7.7-1 13.5-5.4 2.6-2 5.2-3.6 5.7-3.6 3 0-1.7 9.4-10.7 21.2-4.8 6.3-5.4 9.9-2.2 12.2 1.9 1.3 2.1 2.2 1.7 6.8-.3 2.9-1.2 5.6-1.9 6.1-.8.4-10.2 5.5-20.9 11.3-10.7 5.8-27.8 15.1-38 20.7-26.8 14.6-26.9 14.6-45.4 24.6-9.3 5-17.5 9.1-18.2 9.1-2.5 0-2.5-2 .1-11.2 1.4-5.1 2.5-10.3 2.5-11.5 0-3.6-5.1-5.5-15.8-6.1-9.1-.5-9.4-.4-16.7 3.2-9.8 4.9-12.1 7.6-13 16.3-.4 3.7-1.6 9-2.7 11.8-1.7 4.1-1.9 6.6-1.6 14.1l.5 9.1-10.6 5.8c-43.6 24.1-43.1 23.7-45.8 28.8-2 3.9-2.2 21.9-.2 24.3 1.1 1.4 12.8 9.3 79 53.6l32.7 21.9-4 6.9c-2.2 3.8-4.6 7.4-5.3 8-1 .8-3.3-.3-9.4-4.9-8-5.9-17-10.1-21.5-10.1-4.6 0-15.2 4-19.4 7.4-2.4 1.9-5.7 5.2-7.4 7.3-3.7 4.6-8.6 14.6-9.3 19-1.7 10.8-1.2 10-5.6 10.7-8.1 1.3-14.4 6.4-17.2 14-.5 1.3-1.2 1.6-2.5 1-4-1.8-11.9-1.6-16 .5-8.4 4.3-14.2 14.7-12.7 22.8.8 4.8 7.4 11.3 20.4 20.3 5.1 3.6 16.4 11.4 25.1 17.5 8.7 6 25.5 17.7 37.4 26 45 31.2 64.2 44.8 68.3 48.6 2.8 2.6 6 4.3 10 5.4 3.2.9 7.6 2.2 9.8 3 5 1.7 33.4 10.5 34 10.5 2.3 0-1.4-7-18.3-35l-8.7-14.5-13.5-9.2c-7.4-5.1-17.5-12.1-22.4-15.5-4.8-3.5-12.1-8.6-16.2-11.4-9.1-6.2-10.4-7.5-8.5-8.1 1.8-.7 6.1-10.2 6.1-13.6 0-3.4.7-3.4 5 .1 1.9 1.6 10.7 8.4 19.5 15.1 15.8 12.1 28.2 21.7 52.5 40.8 6.9 5.4 17.1 13.3 22.8 17.6 10.1 7.5 10.5 7.7 16.1 7.7 8 0 16.4-4.4 24.1-12.6 8-8.6 11.5-16 11.5-24.5 0-5.6-.4-7.1-2.7-10.1-2.8-3.7-24.3-22-40.8-34.8-5.2-4.1-13.3-10.5-17.9-14.4-15.2-12.9-46.5-38.5-56.8-46.7l-10.3-8 2.7-4.7c1.4-2.6 3.7-6.1 5-7.9l2.4-3.2 16.7 11.2c9.2 6.2 31.1 20.7 48.7 32.2 17.6 11.5 52 34.2 76.5 50.4 24.5 16.2 46.3 30.1 48.5 30.9 5.1 1.8 12.9 1 18.5-1.8 3.9-2 27.3-16.3 56-34.2 5.8-3.6 21.5-13.2 35-21.3 13.5-8.1 28.3-17.1 33-20 27.5-16.9 90.2-54.7 164-98.8 42.1-25.2 42-25.1 42-35.9 0-11.9-2.5-15.1-19.5-25.1-12.3-7.2-37.1-22.4-40.5-24.7-3.3-2.3-7.2-17.7-6.4-25 .4-3 1.4-6.4 2.4-7.5 4.5-5.2 5.2-14.2 1.5-18.7-1.4-1.6-2.5-4.2-2.5-5.6-.1-7.3-7.2-15.9-15.2-18.1-11.8-3.3-23.8 7.4-23.8 21.2 0 1.4-.7 2.7-1.5 3.1-.8.3-2 1.7-2.5 3.2-1.3 3.2 1.2 14.4 4 18.4 4.6 6.4 1.5 6.6-8.1.4-7.6-4.9-9.2-7.4-10.9-16.2-.7-4.2-.6-4.9 1.7-7.7 9.4-11.1 7.9-27.9-3.3-36-3.9-2.8-4.2-3.3-4.1-7.8 0-3.9-.5-5.3-2.9-7.8-1.6-1.7-4.4-3.8-6.2-4.6-3.1-1.3-3.7-1.2-7.7 1.1-2.3 1.4-4.6 3.3-5 4.3-.5 1.2-1.2-.9-2.1-6.5-5.1-31.3-21.7-53.4-39-52-7.1.6-9.8 3-9 7.8.5 3.2.2 3.6-2.8 5.2-4.4 2.1-28.7 19.6-30.3 21.7-.7.9-1.3 2.1-1.3 2.8 0 2.2 5 7.1 9.5 9.2 5.4 2.5 8.5 2.6 12.7.5 2.9-1.5 3.7-1.5 11 .2 4.4.9 8.1 2.1 8.3 2.5.3.3-.2 2.9-1 5.7l-1.5 5-2.9-2.9c-4.8-4.7-13.1-3.5-17.9 2.5l-1.9 2.5-10.9-6.3c-6-3.5-12.1-7.5-13.5-8.9-2.9-3-4.9-8.9-5.1-15.7-.2-4.3.1-4.9 4.9-9.5 3.4-3.3 5.5-6.4 6.2-9 1.5-5.5 1.4-7-.9-15.9-1.8-7-1.8-8-.4-10 .8-1.3 1.9-3.9 2.5-5.7 1.3-4.2 3.1-19.9 3.1-25.9-.4-33.8.4-45 3.5-50.1 1.3-2 4.6-5.8 7.5-8.5 9.4-8.8 15.5-16.3 19.6-24.2 6.4-12.2 7.7-17.7 7.6-32.7 0-11.6-.3-13.9-2.8-21-3.5-10.3-8.4-18.2-16.2-26.4-11.2-12-23.4-18.5-40.1-21.7-11-2-20.6-1.2-32.8 2.7-11.6 3.7-17.9 7.4-26.5 15.5-24.1 22.8-28.9 58.7-11.8 87.9 2.7 4.5 7.7 10.5 14.4 17 5.6 5.5 11 11.5 11.9 13.4 2.6 5.2 3.6 37 1.4 44.2-.9 3-.8 4.5.4 8 .9 2.4 1.8 7.5 2.1 11.4.3 3.8 1.5 9.8 2.7 13.2 2.2 6 2.2 6.4.6 11.4-3.8 11.8-1.3 22.5 6.4 27.6l4.1 2.7-.5 6.4c-.2 3.5-.8 6.6-1.1 7-.4.3-1.7 0-2.9-.8s-6.9-4.2-12.7-7.7c-5.8-3.4-14.4-8.6-19.2-11.5l-8.6-5.3-4.8-11.9c-2.6-6.6-4.9-14.1-5.2-16.7-.6-6.6 2.3-20 6.4-29 1.9-4.2 3.4-8.6 3.4-9.8 0-5.7-7.2-15.7-13-18.1-2.4-1-3-1.9-3-4.2 0-4.2-5.7-9.8-9.9-9.8-6.1 0-11.1 4.4-11.1 9.9 0 1.2-1.6 3.1-4.2 5-11.9 8.2-14.3 15.3-9.2 27.4 3.8 8.9 6.4 19.3 6.4 26 0 4.6-1 8.3-4.4 17-2.4 6.2-4.6 12.1-5 13.2-.3 1.1-1.6 2.7-2.8 3.4-4.3 2.7-25.1 14.1-25.8 14.1-.4 0 .7-5.1 2.3-11.3 2.7-9.7 3.1-13 3.1-24.7.1-12.8-.1-13.8-2.7-19.5-5-10.8-13.3-17.2-23.1-18.1-6.6-.7-11.6 2.1-11.6 6.3 0 2.1-.9 3.4-3.6 5.3-2 1.3-6.1 5.7-9 9.7-3 4-5.8 7.3-6.2 7.3-.5 0-3.7-1.8-7.3-4-3.5-2.2-8.5-5.2-11.1-6.7-2.7-1.6-4.8-3.4-4.8-4.1 0-1.2 18.6-10.6 50.4-25.3 15.1-6.9 21-11.3 25.4-18.7l2.7-4.7.3-86.8c.1-57-.1-88.1-.8-90.6-2.2-8.3-9.1-13.1-18.7-13.1-4.6 0-7.6.9-14.3 3.9zm17.3 1.2c3.4 0-33.7 18.3-96.3 47.4-7.4 3.5-20.7 9.8-29.5 14-8.8 4.2-18.5 8.8-21.5 10.2-6 2.8-32.2 15.1-58 27.3-20.4 9.7-46.4 21.8-63.4 29.6-14.7 6.7-19 10-23.1 17.5l-3 5.4-.3 65.2c-.1 35.9-.6 65.3-1 65.3s-2-1.2-3.5-2.6l-2.8-2.5.3-64.2.3-64.2 3-5.3c3.6-6.7 7.9-9.7 24.3-17.2 7-3.2 16.5-7.6 21.2-9.8 4.7-2.2 11.9-5.6 16-7.5 7.6-3.5 51.3-24.1 71.5-33.7 13.3-6.3 54.1-25.3 61-28.5 2.8-1.2 12.7-6 22-10.5 73-35.3 77.2-37.2 79.3-36.5.8.3 2.3.5 3.5.6zm4.1 19.8c1.4 1.6 1.6 8.6 1.4 64.1l-.3 62.4-18.5 8.8c-10.2 4.8-25.7 12.2-34.5 16.4-8.8 4.2-40.3 19.1-70 33.1-67.3 31.8-68.5 32.4-88 41.8-8.8 4.3-19.8 9.5-24.5 11.7-4.7 2.2-16.1 7.6-25.4 12-13.1 6.3-17.2 7.9-18.5 7.1-1.4-.9-1.6-6.7-1.9-60.3-.1-36.6.2-60.6.8-62.9 1.9-7.1 6.4-10 40.5-26.2 38.7-18.3 66.2-31.3 81-38.2 6.1-2.8 16.3-7.7 22.8-10.9s12-5.8 12.3-5.8c.3 0 14.1-6.5 30.7-14.4s37.9-18 47.2-22.4c9.4-4.4 22-10.5 28.2-13.5 11.5-5.7 13.8-6 16.7-2.8zm166 21.5c6 1.4 19.2 7.5 20.6 9.6.3.4 2.3 2.9 4.5 5.5s3.9 4.9 3.7 5.1c-.2.3.6 1.6 1.6 2.9 1.1 1.4 3.9 6.9 6.3 12.2 4.3 9.7 4.3 9.9 4.3 21.3 0 9.1-.5 12.8-2.2 17.8-2.9 8.5-8.5 18.9-12.5 23.2-6.1 6.5-18.6 13.8-26.4 15.3l-3.3.6v-16.6l4.5-1.3c8.3-2.3 11.4-7.7 8.4-14.4-1.2-2.5-5.4-4.6-9.1-4.6-3.7 0-7.8 3-8.5 6-.3 1.7-.9 3-1.3 3-.5 0-.6.8-.3 1.9.6 2.3-.8 3.3-5.7 3.8-3.6.4-3.8.3-4.5-2.7-.4-1.9-.3-3.5.3-3.9.5-.3 1.3-1.7 1.7-3.1l.7-2.5-1.7 2.3c-1.8 2.4-3.8 2.1-2.8-.5.5-1.2.3-1.4-.7-.8-.9.6-1.2.4-.8-.6.6-1.6 0-1.7-7.7-2-6-.3-9.5 2.8-9.5 8.2 0 5.3 3.2 8.7 9 9.7l4.5.8.3 9.3.3 9.4-3.9-.6c-3.5-.4-6.3-1.6-17.4-7.4-1.5-.8-4.6-3.1-6.7-5.1-2.2-2-5.4-4.8-7.1-6.2-1.6-1.4-3-2.9-3-3.5 0-.6-.9-1.6-2-2.3-1.2-.7-4.6-5.2-7.7-9.9l-5.5-8.6.4-11.6c.7-18.7 6.2-31.2 19.2-44.2 7.8-7.8 18.9-13.9 29.6-16.3 7.9-1.8 20.8-1.5 30.4.8zm-28 84.5c2.2 2.4 1.7 5.3-.8 5.7-4.5.6-7.3-3.5-4.4-6.4 1.7-1.7 3.2-1.5 5.2.7zm31.1 1.6c0 2.5-.4 3.1-2.7 3.3-2.4.3-2.8 0-2.8-2 0-2.9 1.9-5 4-4.6.9.2 1.5 1.4 1.5 3.3zm-21.3 15.2c-.5 8.3-.9 9-1.1 2 0-3.7.2-6.7.7-6.7.4 0 .6 2.1.4 4.7zm-140.4 24.5c-.4 17.2-1.5 20.7-8.3 26.7-3.6 3.1-6.5 4.6-38 19.4-8.8 4.1-23.6 11.2-33 15.7-9.3 4.5-26.7 12.7-38.5 18.2-25.6 12-31.1 14.6-67.2 31.7-15.3 7.2-28.2 13.1-28.7 13.1s-1.1-.6-1.3-1.2c-.5-1.5-12.3-1.7-20.5-.5l-5.3.8v-4.5c0-2.5-.4-4.7-.9-5-3-1.9-15.7 7.5-21 15.5-3.9 5.8-6.4 12.1-7.5 19.1l-.7 3.6-3.6-1c-2.1-.6-5.9-.8-8.5-.6l-4.8.5v-31.8l3.7-1.5c4.4-1.9 66-30.9 88.8-41.9 25.3-12.2 130.8-61.9 190-89.5 2.2-1 4.4-1.9 4.8-1.9.5-.1.7 6.8.5 15.1zm59.7 21.6c0 5.3.1 5.4 3.8 6.7 5.8 2 8.3 4.1 10.6 8.8 3.1 6.3 2.7 8.9-1.7 12.9-6.8 6.1-20.5 7.4-30.9 2.8-5-2.2-7.8-6.8-6.9-11.3 1.3-6.4 9.2-13.7 15-13.7 2.3 0 2.7-.3 2.1-1.8-2.9-6.6-1.2-10.5 4.4-10l3.6.3v5.3zm69 12.2c3.9.9 10 2.1 13.7 2.4 5.3.6 6.6 1.1 6.1 2.2-.4 1.1-.9 1.2-1.9.3-.9-.8-1.4-.8-1.4-.1 0 1.8-3.5 2.3-10.2 1.3-8.8-1.2-16.8-4.7-16.8-7.3 0-1.5.4-1.8 1.8-1.3.9.4 4.9 1.5 8.7 2.5zm-.8 11c3.4 1 9.2 2.1 12.8 2.5 9.7 1.1 8 3-2.6 2.9-10.4-.2-19.9-3.3-19.9-6.6 0-1.5.4-1.8 1.8-1.3.9.4 4.5 1.5 7.9 2.5zm6 12c5.1 1.1 10 1.7 10.9 1.3 1.2-.4 1.5-.2 1.2.8-.4 1.1-2.6 1.4-9.4 1.3-10.3 0-19.4-3.1-19.4-6.5 0-1.8.2-1.8 3.8-.3 2 .8 7.9 2.4 12.9 3.4zm-86 .9c3.3.7 8.1.7 13.4.1 4.6-.5 8.5-.8 8.7-.5.2.2-.4 3.4-1.3 7.2-3.5 13.8-3 20 2.6 33.5 1.6 4 2.7 7.8 2.4 8.6-.8 2.2-9 5.2-15.8 5.9-7 .6-15.8-1.4-19.7-4.5l-2.2-1.8 3.7-10c4.1-10.9 5.4-19.5 3.7-25.2-.6-2-1.6-5.7-2.2-8.1-.6-2.3-1.4-5-1.7-5.8-.5-1.1-.1-1.4 1.3-.9 1 .3 4.2 1 7.1 1.5zm-61.6 2.7c4.2 2.1 10.2 9.6 12.2 15.2 3.6 9.8 2 27.4-4.5 49.5-2.2 7.3-2.5 7.8-5.8 8.7-4.3 1.1-20.2-.2-24.8-2.1l-3.3-1.4 4.8-6.1c6.2-7.7 9.9-14 12.4-21.1 1-3.1 1.9-5.9 1.9-6.3 0-.4-3-.5-6.7-.2-6.3.5-7.2.8-11.7 4.9-4.6 4.1-5.2 4.4-9 3.7-4.1-.6-7.6-2.8-7.6-4.7 0-1.8 20.2-29.6 22.8-31.3 2-1.3 2.9-1.4 4.4-.5 3.1 2 4.1.3 3.4-5.7l-.6-5.4 4.7.7c2.6.4 6 1.3 7.4 2.1zm143.4 5c8.4 1.9 26.4 1.4 33.8-.9l4.7-1.5v3.9c0 12.7-9.4 22.4-23 23.6-8.1.8-15.9-1.7-20-6.3-3.9-4.5-4.9-7.2-5.9-15.2-.7-6.1-.7-6.3 1.3-5.7 1.2.3 5.3 1.3 9.1 2.1zm6.3 29.3c2.9.6 8.3 1.1 12 1.2 3.7 0 7.6.4 8.7.8 1.7.7 1.4 1-2 2-7.8 2.2-13.7 2.3-21.2.3-5.7-1.4-7.3-1.6-7.3-.5 0 2.1 5.3 4.2 13.4 5.2 7.3.9 13 .2 22.4-2.5 3.1-.9 2.9 1.9-.3 4.4-6.5 5.1-26.4 5.6-34.9.9-4.9-2.8-6-2.3-2.3 1 4.2 3.9 7.1 4.7 18.9 5.1 8.8.3 12.7.1 16.2-1.1 4.9-1.7 5.8-.9 2.7 2.2-4.7 4.7-22.1 6.7-31.4 3.5-7.1-2.4-9.7-6.1-9.7-13.7 0-3.4.5-7.9 1.1-9.9l1-3.8 3.7 1.9c2 1 6.1 2.4 9 3zM329 357.1c3 1.8 7.5 4.7 10 6.5 2.5 1.7 7.1 4.5 10.2 6.3 10.3 5.8 8.9 9.7-5.7 16.3-3.8 1.8-19.6 9.5-34.9 17.1-23.8 11.8-28.5 13.8-31.3 13.4-3.3-.6-24.7-13.4-34.5-20.6-5-3.6-6.5-6.8-2.8-5.6 2.4.8 2.6-.2.3-2.7-1.3-1.5-1.4-2.1-.4-3.1 1-.9 1.1-.9.6.4-.4 1.1 0 1.9 1.2 2.3 1.6.6 3.4 1.6 7.1 4 1.1.6.9 1.3-.9 3.2-1.2 1.3-1.8 2.4-1.3 2.4.8 0 2.7-1.4 8.1-6 1.4-1.2 2.7-.7 11.8 4.5 11.4 6.4 12.5 6.2 40.9-7.8 13.1-6.4 24.9-12 26.2-12.3 4.1-1 2.7-2.9-5.8-7.4-19.6-10.3-18.8-9.6-18.8-17.1v-5.8l7.3 4.3c3.9 2.4 9.7 5.8 12.7 7.7zm335.8-.7c4.9 4.5 8.2 11 11.4 22.2 1.9 6.8 2.2 10.3 2.3 24.9 0 16.1-.2 17.4-2.8 25-2.9 8.2-7 15.5-8.7 15.5-.6 0-1-1.5-1-3.3 0-5.6-2.5-13.4-6.3-19.5l-3.6-5.9 1.9-5.1c2-5.3 6.1-26.2 5.4-27.4-.3-.4-2.1.4-4.1 1.7-4.2 2.9-6.3 3.1-12.8.8-4.1-1.4-5.6-1.4-9.4-.4-2.5.7-4.9 1.7-5.3 2.4-.4.6-1 .8-1.4.4-.4-.4.1-1.4 1.2-2.1 2.6-1.9 1.3-3-1.9-1.5-1.9.9-3.1.8-5.3-.2-1.5-.8-2.9-1.9-3.1-2.5-.2-.6 4-4 9.4-7.4 5.4-3.5 12-8 14.6-10.1 3.9-3.1 5.4-3.7 7.8-3.2 2.8.5 2.9.4 2.9-3.4 0-4.1 1.6-6.7 3.4-5.6.6.4 3 2.5 5.4 4.7zm-185.4 5.1c1.3.9 5.6 2.2 9.6 3.1 8.1 1.7 19.6.7 25-2.1 1.6-.8 3.3-1.5 3.7-1.5 1.1 0 5 10.3 6.4 16.9.6 3 .9 7.7.6 10.4-.9 9.9-11 15.7-27.2 15.7-9.1 0-16-1.7-21-5.1-6.4-4.4-8.2-10.8-6.1-20.9 1.4-6.6 5.4-18 6.2-18 .3 0 1.5.7 2.8 1.5zm65.6 14.6c7.4 4.5 15 9.1 16.8 10.2 1.7 1 3.2 2.4 3.2 2.9 0 1.9-4.4 8.8-5.3 8.5-.5-.1-7.2-4.1-14.8-8.7-14-8.6-14.7-9.3-16.7-17-.6-1.9-1.3-4.3-1.7-5.4-.7-1.7-.6-1.7 2.1-.3 1.6.8 9 5.2 16.4 9.8zm-410.3-5.7c4.3 2.9 5.3 2.9 12.1 1l2.2-.6v31.1l-3.4 2.6c-3.2 2.5-3.6 2.5-6.3 1.2-3.9-2.1-7.9-6.5-9.7-10.9-2.1-4.9-2.3-29.6-.3-28.1.6.5 3.1 2.2 5.4 3.7zm330.3 5.7c-1.1 4.6-2.3 8.5-2.7 8.7-.5.1-5.1 2.7-10.3 5.7l-9.5 5.4-1.2-3.7c-1.6-5.1-1.6-9.7.1-11.1 1.9-1.6 25-14 25.4-13.7.1.2-.7 4.1-1.8 8.7zM195.5 375c-.1 2.5-.3 5.1-.4 5.7 0 .8-1.6 1.3-3.9 1.3-4.7 0-7.7 2-10.2 7.1-2.3 4.5-3.5 5.1-2.6 1.3 1.7-6.5 15.3-23.7 16.8-21.1.3.7.5 3.3.3 5.7zm394.1-3h5.2l1.2 6.7c1.4 8.3 3.6 13.4 9.9 23.3 8.6 13.4 9.9 19 5.8 25.1-6 9-31.4 11.7-44.8 4.8-10.2-5.2-11.5-12.7-4.4-25.4 2.5-4.4 5.9-10.8 7.6-14.1 3-6.2 5.5-17.4 4.4-20.2-.5-1.2.3-1.4 4.7-.9 2.9.4 7.6.7 10.4.7zm-370.1 6.2c-1.6 8.3-3.6 15.1-4.9 16.9-6.2 8.9-13.7 13.6-23.2 14.6-5.3.6-5.4.5-5.4-2 0-1.6 1.2-3.6 3.2-5.4 6.4-5.8 7.8-7.6 9.3-12.8.8-2.9 1.5-6.2 1.5-7.3 0-2.6 2.4-5 5.8-5.8 1.5-.3 3.2-.7 3.7-.9.6-.2 3.2-.4 5.8-.4l4.9-.1-.7 3.2zm21.5 3.2c0 .3-.4.8-1 1.1-.5.3-1 .1-1-.4 0-.6.5-1.1 1-1.1.6 0 1 .2 1 .4zm4.5 3.6c.3.5.2 1-.4 1-.5 0-1.3-.5-1.6-1-.3-.6-.2-1 .4-1 .5 0 1.3.4 1.6 1zm-52 4c1.5 2.9 1.5 3-1.8 4.3-4 1.7-7.9 6.2-10.8 12.5-2.3 5-3.5 4.3-2.5-1.3 1.3-6.8 9-18.5 12.3-18.5.7 0 1.9 1.3 2.8 3zm43.2 0c0 2.5-.2 2.7-1.2 1.3-1-1.4-.5-3.6 1.1-4.3 0 0 .1 1.3.1 3zm13.8-1.2c-.3.3-1.1 0-1.8-.7-.9-1-.8-1.1.6-.5 1 .3 1.5.9 1.2 1.2zm177.2-.3 6.2-.6 1.1 4.1c1.5 5.4 1.1 6.8-2.3 9.4-4.1 3-18.6 3-23.7 0-3.7-2.2-3.9-3.3-2.5-11l.5-3 7.3.8c3.9.5 10 .6 13.4.3zm194.2 18.3c5.2 3.1 9.6 6.2 9.8 6.7.2.6-.3 2-1.1 3-1.5 2-1.6 1.9-7.3-1-4.8-2.5-6.3-4-9-8.8-1.7-3.1-2.9-5.7-2.5-5.7.4 0 4.9 2.6 10.1 5.8zM398 403c0 .6-2 3.1-4.5 5.8-6.3 6.6-9.5 13.3-9.5 20v5.3l-4-2.2c-2.2-1.3-4-2.6-4-3.1 0-1.2-2.3 0-20 10.1-9.1 5.1-20.1 11.4-24.5 13.9-4.4 2.5-9.3 5.4-10.8 6.5l-2.8 1.9 6.8 4.5c3.7 2.5 6.9 4.6 7.1 4.8.2.1-.8 1.5-2.2 3-4.2 4.5-5.9 10.5-5.4 18.8.5 7.6 2.2 12.3 5 14.1 2.7 1.6 3 .3 1.3-6.5-2.1-8.9-1.9-13.6.9-19.6 1.8-3.9 3.5-5.8 7-7.8 4.2-2.5 4.9-2.6 7.9-1.4 5.3 2.1 10.9 7 12.8 11.3 2.5 5.5 2.5 14.1 0 18.7l-1.9 3.5h2.1c1.8-.1 2.4.7 3.1 4.8.9 4.7.9 5-2 7.3-1.6 1.3-6.6 5.5-11 9.4l-8.1 7-.6 6.1c-.7 8.4.5 11.5 5.4 12.9 2.1.7 3.9 1.5 3.9 1.9 0 .4-1.8 2.1-4 3.9-3.5 2.8-4 3.7-4 7.4v4.2l-15.9 9.3c-8.8 5.2-16.4 9.9-17 10.5-.7.9 5.5 5.6 23.6 17.6 13.5 9 25.3 16.6 26.3 16.8.9.2 9.3-3.5 18.6-8.3 15.6-8.1 17.5-9.3 24.1-16.3 5.7-6 7.5-7.4 8.7-6.6.9.5 12.2 7.7 25.1 16 12.9 8.2 23.5 15.3 23.5 15.7 0 .8-1.9 2-21.8 14.2C416 651.3 410 655.2 410 656c0 .4 3.7 3.2 8.3 6.1 7.3 4.7 14.5 9.4 49.7 32.4 30.5 19.9 41 26.5 42 26.5 1.7 0 26.7-15.1 72.5-43.8 11-6.8 22.2-13.9 24.9-15.5 5.8-3.7 8.5-1.1-22.1-20.5-12.8-8.1-23.3-15.1-23.3-15.7 0-.6 10.6-7.7 23.6-15.8l23.6-14.8 7.7 4.9c27.7 18 44.5 28.3 45.5 28 1.9-.5 49.6-30.2 49.6-30.9 0-.9-17.4-12.1-36.7-23.8-8.4-5.1-15.3-9.6-15.3-10.1 0-.4 9.8-6.6 21.8-13.9 11.9-7.2 22.8-13.8 24.2-14.7 2.5-1.5 2.8-1.5 8.5 2.4 3.3 2.2 13.6 8.9 23 14.8 9.3 5.9 19.2 12.2 22.1 14.1l5.1 3.4 16.9-9.9c9.3-5.5 20.7-12.2 25.3-15l8.4-5.1-6.2-3.8c-5.5-3.4-6.3-4.3-7.3-8.3-.8-3.4-2.4-5.7-6.2-9.2-5.2-4.9-5.8-7.5-.9-4 3.1 2.2 26.2 16.4 36.3 22.3 3.6 2.1 7.7 5 9 6.4 2.3 2.4 2.3 2.5.4 4.6-1 1.2-10.7 7.3-21.4 13.7-10.7 6.3-47.4 28.3-81.5 48.7-53.2 31.9-89.3 53.9-197 119.8-26.5 16.2-25.7 15.8-31.9 15.8-3.2 0-6.8-.7-8.7-1.7-1.9-.9-18.4-11.7-36.9-23.9-18.4-12.2-37.3-24.6-42-27.7-4.7-3-15.7-10.2-24.5-16-8.8-5.7-28.4-18.5-43.5-28.3-15.1-9.8-31.3-20.3-35.9-23.3-11.1-7.3-14.9-8.6-23.3-7.7l-6.7.6-19.8-13.4c-10.9-7.3-35.4-23.8-54.5-36.6-19.1-12.7-34.9-23.5-35.2-23.9-.2-.4-.7-2.8-1.1-5.5-.9-5.7-.1-5.9 5.8-1.8 14.9 10.3 106.5 70.5 108 70.9 1.8.5 2.2-.5.9-2.4-.4-.6-25.5-17.6-55.9-37.7-30.3-20.1-55.7-37.6-56.3-38.8-1.8-3.2.1-6.4 6.2-10.2 7.2-4.6 45.5-25.7 46.5-25.7.4.1 2.5 1.6 4.6 3.4l3.7 3.3-12.7 7.5c-7.1 4.2-14.9 8.7-17.5 10.2-2.7 1.5-4.8 3-4.8 3.4 0 .4 3.5 2.9 7.8 5.6 30.1 19.2 45.4 28.6 46.3 28.6.7 0 4.8-2.2 9.3-4.9 23.4-14 38.2-22.7 39.9-23.4 1.4-.5 3.6.5 8.3 3.8 3.6 2.5 7.8 5.2 9.3 6l2.9 1.4.5-3.7c1.1-6.6 2-22.2 1.4-22.2-.4 0-4.5 2.3-9.1 5-4.7 2.8-9.2 5.3-10.1 5.6-1 .4-8.1-3.7-19.3-11.1-9.7-6.5-18.1-12.1-18.5-12.5-.5-.4.7-3.1 2.7-6 1.9-2.8 3.8-6.7 4.2-8.6.7-3.6.1-11.1-1.1-15-.6-1.9.8-2.9 12.2-8.9 7-3.8 29.7-16 50.3-27.3 20.6-11.2 40.4-22 44-23.9 3.6-2 7.4-4.2 8.5-4.9 2.3-1.7 3.5-1.8 3.5-.4zm315.9 1.6c2.6 3.3 2.7 6.6.1 8.9-1.9 1.7-1.9 1.7-1.5-1.9.4-2.8.2-3.5-.7-2.9-.7.4-1.5.8-1.8.8-1.8.2-6 4-5.6 5.1.4 1.1.2 1.1-1.4.1-2.8-1.7-2.6-6.8.5-10.1 3.2-3.5 7.6-3.5 10.4 0zm-68-.6c2.7 1.4 4.6 6.6 3.2 8.4-.9 1.1-.7 2 1.4 4 1.4 1.5 4 5.6 5.7 9.3 4.1 8.6 5 20.5 2.3 27.7l-1.7 4.5 2.6 3.1c5.2 6.3 2.3 13-7 16-5 1.7-19 .8-23.1-1.3-7.8-4.1-9.2-9-4.3-14.9l3-3.6-2-4.4c-2.5-5.4-2.6-15.6-.4-22.2 1.1-3.1 3.8-7.1 7.6-11.1 3.3-3.6 5.4-6.6 4.8-7-1.7-1.1-1.1-4.7 1.2-7.2s4-2.8 6.7-1.3zM168 405.6c3.9 2.6 5 4.5 5 8.7 0 5 1.5 7.7 4.4 7.7 2.6 0 4.2-1.5 4.8-4.5.4-2.1.4-2.1 11.1-1 3.9.4 5.7 1.1 5.4 1.8-.6 1.6 1.1 5.9 2.1 5.3 2.3-1.4 1.9 14.5-.5 19.1-1.1 2.1-1.8 4.4-1.6 5 .3.7-.4 2.5-1.5 4-1.1 1.6-2.2 3.7-2.6 4.8-.9 3.1-5.1 7.5-7.2 7.5-1.4 0-1.5.3-.6.8.9.7.7 1.3-.9 2.8-1.2 1-2.3 1.8-2.5 1.6-.8-.5-5.4 3-4.9 3.8.7 1.1-7.5 3.1-10.9 2.6-4.3-.5-7.8-5.2-15.5-20.8-9.8-19.7-11.3-30.2-6.1-41.1 4-8.3 15.3-12.5 22-8.1zm242.5.6c4.3 1.3 20.2 1.2 23.7-.3 2.7-1.1 3.1-1 5.8 2.2 7 8.2 8.4 10.9 8.8 17.4.4 6 .3 6.4-2.7 9.2-8.9 8.5-37.1 10-49.1 2.6-2.3-1.4-2.4-1.4-1 .1 7 7.4 39.2 8 49.6 1 1.9-1.3 3.7-2.4 3.9-2.4 1 0 .5 6-.7 8.5-4.2 9.3-37.6 12.1-53 4.3-6.2-3-7.2-5.5-6.4-15.5.3-4.7 1.5-10.4 2.5-12.7 2.5-5.8 12.2-16.7 14.1-16 .8.4 2.9 1 4.5 1.6zm84 2.9c.8 1.2-1.3 3.1-6.6 5.9-5 2.6-9.9 7.7-9.9 10.2 0 1.2 1.4 4.3 3.1 7.1 1.7 2.8 3.3 6.6 3.6 8.5l.6 3.5-9.4-6.3c-5.2-3.5-10.6-7.7-12-9.4l-2.6-3 7.6-4.6c22.5-13.6 24.1-14.4 25.6-11.9zm221.1 10.6c-.6.6-3.6-.9-3.6-1.8 0-.5.9-.4 2 .3 1 .7 1.8 1.4 1.6 1.5zm-8.6-.2c2.4.8 4.5 1.3 4.8 1 .3-.3 1.1 0 1.9.6.7.6 1.3.8 1.3.5 0-1.9 4.3 2 6 5.4 2.4 4.7 2.6 9.7.5 14.7-1.8 4.2-6.8 9.1-10.2 9.9-1.3.4-2.3 1-2.3 1.5 0 1.5-5.3 1-9.6-1-2.3-1-5.1-3.3-6.4-5.1-2.8-3.9-3.8-12.1-2.1-17.3 1.1-3.3 9-11.7 11-11.7.4 0 2.8.7 5.1 1.5zm-216.1 4.1c1.5-1.4 2.1-1.2 6.9 2.1l5.2 3.6 4.8-3c3.7-2.3 5.3-2.8 6.6-2.1 1.7 1 3.2.8 6.9-.7 2.1-.9 1.5 1.1-2 6.7-1.2 2.1-3.1 6.8-4.2 10.5l-1.8 6.8-3.7-.3c-4-.3-4.9 1.3-1.2 2.2 3.8.9 8.5 5.4 11.1 10.7 3.3 6.4 3.3 13.9.2 19.3-4.8 8.5-17.9 11.3-28.4 6.1-6.6-3.3-8.5-6.3-9.1-14.5-.3-5.3 0-7.4 1.6-10.6 2.2-4.4 7.8-9.8 11.1-10.9 2.7-.8 2.8-2.5.1-1.8-2.3.6-3.3-1.5-4.4-8.8-.4-2.9-2-6.5-4.1-9.5-4.5-6.3-4.6-8-.4-5.9 2.8 1.5 3.3 1.5 4.8.1zm-32.2 6.7 2.3 1.3-3 1.7-3 1.8v-3c0-3.4.4-3.6 3.7-1.8zm106.1 5.1c2.6 1.3 5.8 2.7 7.2 3.1 2.2.7 23 12.8 27.2 15.9 1.5 1.1 1.3 1.8-1.8 8.2-3 6.3-4.1 7.5-9.3 10.6l-6 3.5-.6-4.1c-1.5-9.1-8.7-17-17.9-19.6-6.2-1.7-13.1 0-18.5 4.7-4.8 4-7 7.8-8.5 14.6l-1.1 4.8-3.5-2.3c-2.8-1.9-3.6-3.3-4.6-7.8-.6-3-1.9-7.2-2.9-9.2-1-2.1-1.7-3.9-1.4-4.1.5-.5 23.1-14 29.9-18 5.6-3.2 6-3.3 11.8-.3zm-293.5 3.1c2.1.9 2.2 3.4 0 10.1-1.5 4.7-1.9 5.2-4.4 5.2-1.6-.1-2.6-.4-2.4-.9.3-.4-.4-.5-1.5-.2s-2 .1-2-.3c0-.5-2.1-1-4.8-1.1-5.6-.3-16.4 1.6-15.7 2.8.3.4.1 1-.5 1.4-1.6 1-1.2-6.8.5-9.2 1.9-2.7 7.5-6.2 12.8-7.9 4.1-1.4 14.3-1.3 18 .1zm348.3 14c.4 2.6.1 4.3-1.6 6.9-1.7 2.9-2.1 4.8-1.8 10 .2 3.5.5 6.3.8 6.1.3-.2 1.4.4 2.5 1.2 1.8 1.3 1.1 1.4-7 .8-4.9-.4-9.4-1.1-9.8-1.5-.5-.4-.9-3.4-1-6.6-.1-4.8.3-6.5 2.3-9.3 2.8-3.8 13.1-12.1 14.2-11.5.4.3 1 2 1.4 3.9zm-364.5 2.7c4 1.4 12.5 7.7 12.1 9-.1.5.1.7.6.4 2.2-1.3 7.1 8.1 7.2 13.8 0 4.6-3.7 11.1-8 14.1-4.4 3-10.3 5.4-13.8 5.5-4 0-1.3 2 2.7 2h3.8l2.7 13.9c3.1 16.7 3.1 16.3.5 18.7-2.9 2.7-12.9 2.6-18.4-.1-4.8-2.4-4.9-3.9-1.7-16 1.2-4.4 2.5-10.6 3-13.7l.9-5.7-3.8-2.7c-6.9-4.7-10.4-15.9-7.9-24.8 1.4-5 5.9-11 10.4-13.7 3.6-2.2 5.1-2.3 9.7-.7zm311 4.1c4.5 3 5.6 7.7 3.5 14.9-2.4 8.4-10.7 16.8-16.5 16.8-2.5 0-7.7-4.4-9.6-8.1-2-3.8-1.8-10.6.4-15.4 4.4-9.5 14.6-13.3 22.2-8.2zm-148.6-.3c1.8.8 1.7.9-.7.9-1.6.1-2.8-.4-2.8-.9 0-1.2.8-1.2 3.5 0zm365.5 0c0 .5-.4 1-1 1-.5 0-1-.5-1-1 0-.6.5-1 1-1 .6 0 1 .4 1 1zm-31.6 3.1c-.8 1.3-2.4.1-2.4-1.8 0-1.3.3-1.3 1.5-.3.8.7 1.2 1.6.9 2.1zm-40.4 1.8 3.5 1.6.3 10c.3 11.4-1.8 27.3-4.5 32.5-2.4 4.9-4.9 7.4-6.5 6.4-.7-.4-1-.4-.6.1.5.5-.2 1.3-1.5 2-2.5 1.3-7.7.1-11.5-2.6-2.2-1.6-2.3-1.9-1.2-7.5.6-3.3 1.5-10.9 1.9-17 .7-10.3.9-11.3 3.8-15 1.8-2.1 3.7-6 4.3-8.6 1.2-4.6 1.2-4.6 4.8-4.1 2.1.3 5.3 1.3 7.2 2.2zm-289.6 4.2c15.6 9.4 39.5 25.5 39.3 26.4-.2.5-11.5 7.6-25.1 15.8-17.4 10.4-25.4 14.6-26.7 14.2-4.4-1.4-4.9-3-4.9-16s-.7-15-4-12c-1.7 1.6-2.1 1.6-4.2.1-3.1-2.2-5.3-2-13 1.3l-6.6 2.8-4.6-2.9c-2.5-1.7-4.4-3.4-4.1-3.8.3-.4 5.8-3.9 12.2-7.8 19.5-11.6 35.8-21.1 36.2-21.2.2 0 2.7 1.4 5.5 3.1zm324.4 20.3c.3 1.5.1 1.6-2 .6-3.9-2.1-8.7-6-9.8-8.1-.8-1.5.4-1 5.2 1.9 3.5 2.1 6.5 4.7 6.6 5.6zm-259.9-4.5c3 4.2 10 6.6 19.1 6.6 6.3 0 8.5-.5 12.8-2.7 4.1-2.1 5.2-2.4 5.2-1.2 0 2.8-2 5.4-5.8 7.3-7.4 3.7-15.1 4.2-23.7 1.5-7.3-2.3-10.5-5.2-11.2-10.2-.7-5 .7-5.5 3.6-1.3zm159.1-1.6h9.7l1.9 7.1c1.7 6.2 2.7 8 8.6 14.4 7.1 7.6 8.6 11.2 7.4 17.6-.4 1.8-1.4 4-2.4 4.9-3.3 3-10.6 5.6-19.3 6.8-7.4 1.1-10.1 1-18.3-.3-5.3-.9-11.9-2.7-14.6-4-5.4-2.7-6.3-2.4-2.7 1 10.7 10.1 42.3 10.8 55.5 1.2l4.2-3v4.6c0 3.6-.5 5.1-2.8 7.3-9.2 9.2-39.8 10.9-55.2 3.1-6.5-3.3-7.5-5.9-7.3-17.3.3-12.2 2-16.4 9.6-23.8 4.8-4.7 5.8-6.4 7.9-13.2 2.3-7.6 2.3-7.7 5.2-7.1 1.6.3 7.3.6 12.6.7zM535.1 487c2.4 1.6 6.9 4.7 9.9 6.9 3.4 2.4 7.1 4.2 9.7 4.6 2.4.3 4.3.9 4.4 1.3.3 2.8 1.4 6.9 3.9 14.8 1.6 5 3.2 11.3 3.6 14.1.6 5 .6 5-2.6 6.2-6 2-13.4 1.1-19.5-2.6-2-1.2-2-1.2.4-7.5 5.4-14.5 7.4-24.9 5.1-26.3-.9-.5-9.6 3.8-15.2 7.7-3.4 2.4-4.3 2.3-4.4-.5-.1-1.2-.5-6.6-.9-12-.5-6-.4-9.7.2-9.7.5 0 2.9 1.3 5.4 3zm73.2 13.7c3.4.5 3.6.7 2.4 2.2-2.7 3-5.7 10.1-6.4 14.6-.3 2.5-.9 4.5-1.3 4.5-.7 0-12.4-7.2-28-17.2-3.1-2-6.2-4.4-7-5.3-1.3-1.6-1.2-1.9 1-3.3 1.4-.9 4.5-3.7 7-6.2l4.5-4.6 12 7.3c6.7 4.1 13.7 7.6 15.8 8zm76.2-8.1c-.9 9.6-2.7 17.6-4 18.1-.6.2-4.1-3.1-7.8-7.2l-6.8-7.5 3.3-2c1.8-1.1 5.8-3.5 8.8-5.4 3-1.9 5.9-3.5 6.3-3.5.5-.1.6 3.3.2 7.5zm-208.2 5.1-.8 4.3-5.8-3.9-5.9-3.9 4.4-2.8c8.5-5.6 8.3-5.6 8.6-1.5.1 2-.1 5.5-.5 7.8zm285-8.4c2.1.8 4.1 1.8 4.6 2.3 1.6 1.8 5.1 12.5 3.8 11.8-.9-.5-.9-.4 0 .6s1 1.7.2 2.7c-.9 1-.7 1.3.7 1.4 1.8 0 1.8.1-.1.8-1.1.5-2.8.5-3.7 0-2.2-1.2-3.1-1.1-2.3.1.3.5-.4 1-1.5 1-2.4 0-8.7-2.7-9.5-4.1-.5-.7 1.1-13.5 2.1-16.7.4-1.5 1-1.5 5.7.1zm-275.5 6.5c3.8 2.6 5.7 3.2 14.4 4.3 7.1.9 8.4.8 15.4-1.6 4.2-1.4 7.8-2.4 7.9-2.3.1.2.5 2.7.8 5.6.5 4.5.3 5.5-1.6 7.3-3.3 3.1-6.6 4.6-13.5 5.9-7.1 1.4-15.9.2-22.2-3-5.7-2.9-6.2-4-5.4-11.4.4-3.6.9-6.6 1.1-6.6.3 0 1.7.8 3.1 1.8zm-91.1 5.8c.6 1.7-5.9 4.4-10.5 4.4-2.3 0-4.3.5-4.5 1.2-.3.7-.6.8-.6.3-.2-4.5 14.3-10 15.6-5.9zM379.5 517c.3.6-.1.7-.9.4-1.8-.7-2.1-1.4-.7-1.4.6 0 1.3.4 1.6 1zm356.9 2.7c-4.6 3.4-21.6 12.4-22.2 11.8-.4-.4.5-1.7 2-2.9 4.7-3.6 21.3-12.2 21.7-11.2.2.5-.5 1.6-1.5 2.3zm-239.1-.4c6 .8 9.6.8 14.9-.1 3.9-.7 7.3-1.1 7.5-.8.2.2 1.1 3.2 1.9 6.5.7 3.4 3.5 10.7 6 16.2 2.5 5.6 4.9 11.8 5.1 14 .5 3.5.2 4.3-3 7.2-6.6 6.3-26.3 9.4-40.6 6.3-4.1-.9-7.6-1.4-7.8-1.2-.2.1.5 1 1.5 2 3.2 2.8 15.6 4.9 25.7 4.2 10.9-.6 16.8-2.3 23-6.5 5.2-3.5 6.2-2.8 5.2 3.6-.8 4.4-3.5 7.5-9 9.9-2.3 1-4.7 2.4-5.4 3-.7.7-4.2 2.8-7.8 4.9l-6.5 3.6-5.5-3.1c-3-1.7-5.5-3.4-5.5-3.7 0-.3 2.7-.3 5.9-.1 3.3.2 5.8.1 5.5-.3-.2-.4.5-.5 1.6-.2 2.9.8 11-.6 11-1.9 0-.6-1-.8-2.6-.4-5.1 1.3-25.7.7-31.9-.9-13-3.4-17.2-8.9-16.1-21 .6-5.8 1.6-9 6.2-18 3-6.1 6.2-14.3 7.1-18.3 1.6-6.6 2-7.3 3.8-6.7 1.1.3 5.5 1.1 9.8 1.8zM373 520c0 1.7-2.2 6.5-3.2 7.1-3.7 2.3-5.1-3.1-1.7-6.7 2-2.1 4.9-2.3 4.9-.4zm310.8 1.5c.1.1 0 1-.4 1.9-1 2.6-3.1 1.8-3.6-1.3-.4-2.7-.3-2.9 1.6-1.9 1.2.6 2.2 1.2 2.4 1.3zm-325.4 5c-2.6 2.5-5.3 4.5-6 4.5-.7 0-1.5.6-1.7 1.2-.4 1-.6 1-.6 0-.1-.7.6-1.5 1.4-1.8.8-.3 3.4-2.4 5.7-4.5 2.4-2.1 4.7-3.9 5.2-3.9s-1.3 2-4 4.5zm64.5 9.2c6.5 4.3 17.1 11.1 23.5 15.2 6.4 4.1 11.5 7.9 11.3 8.5-.2.6-7.5 5.5-16.3 10.8-8.7 5.4-19.5 12-23.9 14.7l-7.9 4.9-2.8-2-2.8-1.9V558c0-25.5.1-28 1.8-28.9 3.2-1.9 5.1-1.1 17.1 6.6zm187 9c4.6 3.1 13.3 6.2 20.1 7.1 4.4.7 8 2.2 15.4 6.6 9.5 5.8 9.6 5.8 7.3 7.6-3.7 2.9-43.1 27-43.7 26.8-.7-.4-27.4-17.9-38.5-25.3-4.9-3.3-9-6.6-9-7.3 0-.8 6.3-5.1 14-9.6s16.9-10.1 20.5-12.4l6.4-4.1 2.1 4.2c1.2 2.3 3.6 5.2 5.4 6.4zm-231 1.7C366.3 558 348 568.6 348 564.1c0-2.2 15.4-13.8 25.7-19.3 5.9-3.1 11-5.4 11.3-5.1.3.3-2.5 3.3-6.1 6.7zm381 1.6c4 .7 9.1.9 11.3.6 2.6-.4 3.7-.3 3.3.4-1.1 1.8-14.3 1.1-21.6-1-3.8-1.2-6.9-2.5-6.9-3s1.5-.3 3.3.4c1.7.8 6.5 1.9 10.6 2.6zm25.1-2.5c0 .6-2.6 1.6-7 3-1.4.4-2.1.4-1.7-.1.5-.5 2.5-1.4 4.5-2 2-.7 3.8-1.2 4-1.3.1-.1.2.1.2.4zm-231.2 12.6 2.3 1.8-5.3 3.5c-2.9 2-5.7 3.6-6.3 3.6-1.6-.1-6.5-11.6-6.5-15.4v-3.5l6.8 4.1c3.7 2.3 7.7 5 9 5.9zm288 5.5c-2.1 2-32.7 20.7-84 51.2-35.5 21.2-93.1 56.1-142.3 86.2-13.7 8.4-26.6 16.2-28.5 17.3-4.1 2.4-23.9 14.6-51.4 31.7-16.6 10.3-20.6 12.4-24.7 12.8-2.6.2-5.9.2-7.3-.2-1.4-.3-20-12.2-41.3-26.4-42.3-28-69.6-46-107.3-70.5-30.1-19.5-37.8-24.7-39.1-26.3-.5-.7-.9-3.7-.7-6.8l.3-5.5 19.2 12.7c10.6 7 29.1 19.1 41 26.8 41.3 26.8 47.9 31.2 85.3 55.9 22 14.6 39.5 25.5 42.3 26.4 6.5 2.1 11.6.6 23.2-6.6 7.6-4.7 18.8-11.6 52.8-32.4 2.3-1.4 12.5-7.7 22.7-13.9s25.5-15.6 34-20.8c51.7-31.6 96.1-58.3 151.5-91.2 22.6-13.3 44.4-26.4 48.5-28.9l7.5-4.7.3 5.5c.3 4.6 0 5.8-2 7.7zm-377.1-2.9c-.3.3-1.1.2-1.7-.2-.8-.5-.7-1.1.2-2.2 1.2-1.5 1.3-1.4 1.6.1.2 1 .1 2-.1 2.3zm-84.1 9.5c.1 1.8-.5 3.8-1.2 4.6-.8.7-1.4 2.1-1.3 3 0 1.4.2 1.3.9-.3.5-1.3.9 2.4.9 10.2.1 6.7.6 13.4 1.1 14.9.6 1.5.8 2.9.5 3.2-.3.3-4.7.8-9.7 1l-9.1.5.6-4.9c.8-6.5 5.1-19.6 6.2-18.7.4.5.5.2.1-.4-.4-.7-.2-2.2.5-3.4.9-1.7 1.3-1.9 2-.8.7 1 .8.6.4-1.2-.5-2 .2-3.4 3.2-6.7 2.1-2.3 4-4.2 4.3-4.2.3 0 .6 1.4.6 3.2zm154 40.3c19.7 12.3 23.4 15 22.2 16.1-2.3 2.3-30.1 19.4-36.7 22.6l-6.4 3 .7 6c.3 3.4 1.7 9.6 3.1 14 1.4 4.3 2.5 8.4 2.5 8.9 0 1.7-6.7 3.9-11.7 3.9-5.7 0-13.3-3.2-13.3-5.5 0-.9.7-3 1.6-4.7 2.7-5.3 6.4-17 6.4-20.2-.1-2.9-1.3-3.9-20.5-16.5-11.3-7.4-20.5-13.7-20.5-14 0-.4 6.4-4.6 14.3-9.4 7.8-4.8 18-11.2 22.7-14.2 4.7-2.9 9.3-5.2 10.3-5 .9.2 12.3 6.9 25.3 15zM302.5 622c2.2.8 2.4 1.2 1.3 2.3-.7.8-3.3 4.6-5.8 8.6s-5.7 9-7.3 11.2l-2.8 4-4.5-3.2c-4.2-2.9-4.4-3.2-3.1-5.2.7-1.2 3.1-5.1 5.2-8.7 2.1-3.6 4.5-7.3 5.3-8.3 1.7-1.9 7.5-2.3 11.7-.7zm-49 7.7c3.5 1.9 31.9 23.3 38.5 29.2 4.1 3.5 4.3 4 2.5 4.6-1.1.4-4.9 2-8.4 3.7-8.5 3.8-19.6 15-24.1 24.3-1.7 3.6-3.6 6.3-4.1 5.9-.5-.3-.9-.1-.9.5s-.7.8-1.5.5c-1.2-.5-1.3-.9-.4-2 .9-1.2.9-1.3-.4-.8-1.8.6-6.4-2.1-5-2.9.5-.3 1.5-.2 2.3.4 1.9 1.1 3 1.1 3 0 0-.5-1-1.1-2.1-1.4-1.6-.4-2-1.1-1.6-2.6.3-1.2-.3-2.9-1.4-4.2-1-1.2-1.9-1.7-1.9-1s-.4.9-1 .6c-.5-.3-1-1.7-1-2.9 0-1.3-.7-2.9-1.5-3.6-1.2-1-1.5-1-1.5 0 0 .7-.7 1-1.5.6-.8-.3-1.5 0-1.5.7s-.4 1.8-.9 2.6c-.8 1.3-1.2 1.3-2.8.1-1.5-1.2-1.5-1.1.2.9 2.5 3.1.8 2.1-7-3.8-7.5-5.6-8.6-6.7-7.8-7.5.4-.3-.1-.6-1-.6s-1.9-.5-2.3-1.2c-.4-.7-.3-.8.4-.4 1.7 1 1.5-.3-.4-2.1-1.3-1.3-1.7-1.4-2.4-.3-.4.7-1.3.9-2 .5-1.6-1-.7-7.8 2.2-17 1.9-6 3.2-8 8.8-13.7 5-5 7.8-7 11.6-8.2 5.5-1.7 12.2-1.3 16.9 1.1zm58.3 44.7c21 17.2 27.7 23.1 27.6 24.2-.1.7.4 1 1 .8 1.4-.5 13.2 9.3 12.8 10.7-.1.5.3.9.9.9.5 0 3.1 1.6 5.6 3.5 2.5 1.9 4.1 3.5 3.6 3.5-.6 0-1.6-.7-2.3-1.5-.7-.8-2-1.5-2.9-1.4-1.2 0-1.1.4.7 1.6 1.2.8 2.2 2.1 2.2 2.7 0 .8-.2.8-.8 0-.5-.8-1.7-.1-3.7 1.9-2.7 2.8-2.8 3-.7 2.5 1.2-.3 2.2-.5 2.2-.4 0 .2-2.1 1.7-4.7 3.4-2.7 1.7-6.3 4.6-8.2 6.6l-3.4 3.5-4.3-3.2c-2.4-1.8-7.3-5.2-10.9-7.7-3.5-2.5-6.5-5.1-6.5-5.8 0-.6-.6-1.2-1.3-1.2-.7 0-3.1-1.3-5.3-3-2.1-1.6-4.3-3-4.8-3s-3.2-1.7-6-3.8c-2.8-2.2-8.9-6.5-13.6-9.7-4.7-3.3-9.8-7.2-11.5-8.7-1.6-1.5-3.3-2.8-3.7-2.8-1 0-4.6 6.2-5.3 9.3-.4 1.5-1.2 3-1.8 3.4-1.6.9 0-4.3 3.4-11.1 5.1-10.4 14.7-18.5 24.8-21.2 6.4-1.7 8.4-1 16.9 6zM205 672c1.7 1 1.8.9-4 4.2-2.5 1.5-5.5 3.6-6.7 4.8-2.7 2.4-2.9 1.4-.8-3.6 1.9-4.6 8.1-7.6 11.5-5.4zm14 13.5c16.4 11.3 42.5 30.6 46.9 34.6 3.6 3.3 3.8 4.4 1.1 5.9-1.7.9-2.6.7-4.7-1-3.1-2.4-4.4-1.8-1.9.9 1.7 1.9 1.7 2-.3 3.1-1.4.7-2.1.7-2.1 0 0-.5-.9-1-2-1s-2-.3-2-.8c0-.4-2.7-2-6-3.7-3.3-1.6-5.5-3.2-4.9-3.6 1.1-.6-1.8-2.4-3.3-2.1-.5.1-.8-.2-.8-.7 0-.5-1.7-1.9-3.7-3.1-2.9-1.7-3.4-2.3-2.2-3.1 1-.6 1-.9.2-1-3.5-.4-8.3-2.7-8.3-3.9 0-.7-.8-.9-2.1-.5-1.5.5-1.9.4-1.5-.4.5-.7-.1-1.1-1.4-1.1-1.3 0-2.4-.9-3-2.4-.7-1.8-1.4-2.3-3-1.9-1.4.4-2.7-.2-4-1.7-1.1-1.3-2.4-1.9-3.1-1.4-.8.5-.9.3-.5-.5.5-.8 0-1.4-1.3-1.8-1.1-.3-1.8-.9-1.6-1.4.3-.4-.6-1.6-2.1-2.5-2.2-1.5-2.7-1.5-3.5-.3-.7 1.2-.9 1.2-.9-.1 0-3 3.7-8.4 7-10.1 3.9-2.1 3.9-2.1 15 5.6zm25-4.5c0 .5-.4 1-1 1-.5 0-1-.5-1-1 0-.6.5-1 1-1 .6 0 1 .4 1 1zm-67.2 3.6c1.2.4 2.2 1 2.2 1.4 0 .4-1 1.1-2.2 1.4-4.4 1.2-12 7.7-13.7 11.7-2 4.7-3.3 5.1-2.4.6 1.2-6.1 3.3-9.7 7.5-12.7 4.3-3.2 5-3.3 8.6-2.4zm11.3 9.1c3 2 10.8 7.3 17.4 11.8 6.6 4.5 31.1 21.4 54.5 37.5s47.1 32.5 52.7 36.3c9.5 6.4 11.5 8.7 7.7 8.7-.8 0-2 1.3-2.5 2.8-.8 2.4-2 3.2-6.7 4.5-3.3.9-5.8 1.2-6 .6-.2-.5-.7-.9-1.2-.9-.8 0-29.5-19.3-42-28.3-3.6-2.6-17.1-12-30-20.9-12.9-8.9-24-16.7-24.7-17.3-.6-.5-4.8-3.3-9.3-6-4.5-2.8-12.6-8.1-17.9-11.9-5.3-3.8-10.2-6.9-10.8-6.9-1.6 0-1.6-.2.1-3.5 2.3-4.4 9.2-10.1 12.2-10.2.7 0 3.6 1.7 6.5 3.7zm27.4 7.3c-.3.5-1.2 1-1.8 1-.7 0-.6-.4.3-1 1.9-1.2 2.3-1.2 1.5 0zm162.7 28.2c9.3 6.5 19.8 14.9 19.8 15.9 0 .5-.7.9-1.5.9-.9 0-4.4 1.3-8 2.9-13.1 6-24.9 18.3-26.1 27.2-.4 2.7-.9 4.9-1.2 4.9-.5 0-8.4-6.2-10.8-8.5-.6-.5-3.4-3-6.2-5.5-4.1-3.5-5.2-5.1-5.2-7.5 0-11.7 10.3-25.8 23.1-31.4 6.6-2.9 10.6-2.7 16.1 1.1zm29.9 23.9c2.4 1.8 6.2 4.9 8.5 6.9l4 3.7-6.5 2.9c-11.7 5-24.6 21.2-25.3 31.6-.2 3.6-.3 3.7-2.3 2.4-1.1-.8-1.9-1.9-1.8-2.5.2-.6-.3-.8-1-.6-1.5.6-13.7-9.1-13.7-10.8 0-.7 1.1-4.9 2.3-9.3 1.3-4.5 2.2-9.1 2-10.3-.2-1.3.1-2 .7-1.6.5.3 1.2-.6 1.6-2 .3-1.4 1.3-2.5 2.1-2.5s1.2-.4.8-.9c-.9-1.6 8.4-7.3 10.7-6.5 1.5.4 1.8.3 1.3-.6-.5-.9-.4-1.1.3-.6.6.4 2.4 0 3.9-.8 4.3-2.3 7.6-1.9 12.4 1.5zm-73.6 47c3.1 5 5.9 9.7 6.2 10.5.3.8-1.2 3.6-3.3 6.2-2.1 2.6-3.9 4.9-4.1 5.1-.3.4-2.2-.1-15.5-4.1l-6.6-1.9.5-7.7c.3-4.2 1.1-8 1.7-8.4.6-.4 2.6-.8 4.4-.8 2.2 0 3.4-.6 3.8-1.8 1.6-5.1 2.5-6.2 4.8-6.2 2 0 3.5 1.6 8.1 9.1z" />
    <path
        d="M358 190.7c0 1.6 2.5 2.3 4.1 1.1 1.1-.8 1.1-.9-.2-.5-.9.3-2.2 0-2.8-.6-.8-.8-1.1-.8-1.1 0zm-81 28.9-2.5 1.4h2.7c1.4 0 2.9-.6 3.1-1.3.4-.9.6-.9.6.1.1.7.6 1 1.1.7.6-.3 1-.1 1 .5 0 .7-.6 1-1.3.7-.8-.3-2-.1-2.8.5-1.1.8-1.1.9.2.5.9-.3 2.2 0 2.8.6 1.4 1.4 1.5 3 .1 2.2-.7-.4-.9.3-.6 1.9.7 3.7-3.5 8.6-5.7 6.8-.8-.7-1.8-2.7-2.2-4.5l-.8-3.2-.7 4c-.5 2.3-.4 4.5.2 5.2.6.8-.9 3.1-4.7 7.4-11.2 12.6-15.4 27.8-7.6 27.9.8 0 8.4-3.2 17-7 21.4-9.7 24.3-13 20.7-23.3-1.8-4.8-4.2-7.6-8.3-9.4-2.7-1.1-3.3-1.9-3.3-4.3 0-1.8-.6-3.3-1.5-3.6-.8-.4-1.2-1-.9-1.5.7-1.2-1.4-3.9-3-3.8-.6.1-2.2.7-3.6 1.5zm27.5 88.5c-9.2 8.1-8.6 19.3.9 19.3 6.7 0 14.6-8.3 14.6-15.2 0-7.4-9.1-9.7-15.5-4.1zm107.8 17.6c-.7.2-1.3 1.6-1.3 2.9 0 1.9.5 2.4 2.4 2.4 1.3 0 3-.7 3.7-1.6 1.1-1.4 1-1.8-.6-3-2-1.5-2.3-1.5-4.2-.7zm-170.1 67c-1 .4-.9.8.5 1.8 1.3 1 2.2 1 3.1.3 1.1-.9 1.1-1.3 0-1.9-1.4-1-1.7-1-3.6-.2zm-71 25.3c0 1.4.2 1.9.5 1.2.2-.6.2-1.8 0-2.5-.3-.6-.5-.1-.5 1.3zm-15.7 14.1c-.4.6-.5 1.2-.2 1.5.2.3.7-.2 1-1.1.7-1.7.1-2-.8-.4zm.2 24.6c-1.2 1.2-.7 3 1.4 5.4l2.1 2.4-1.7-2.8c-.9-1.6-1.4-3.5-1.1-4.3.6-1.5.3-1.8-.7-.7zm35.3.4c0 .5.5.7 1 .4.6-.3 1-.8 1-1.1 0-.2-.4-.4-1-.4-.5 0-1 .5-1 1.1zm-31.8 9.5c1 1 2 1.6 2.2 1.3.3-.3-.5-1.1-1.7-1.8-2.1-1.3-2.1-1.2-.5.5zm4.9 4c0 1.1.3 1.4.6.6.3-.7.2-1.6-.1-1.9-.3-.4-.6.2-.5 1.3zm2.9 2c0 .8.5 1.2 1 .9.6-.4.8-1.1.5-1.6-.9-1.4-1.5-1.1-1.5.7zm94-23.8c.8.5 2.6 1.3 4 1.6 1.7.5 2 .4 1-.2-.8-.5-2.6-1.3-4-1.6-1.7-.5-2-.4-1 .2zm433.1 37.8c0 1.1.3 1.4.6.6.3-.7.2-1.6-.1-1.9-.3-.4-.6.2-.5 1.3zm-2 8c0 1.1.3 1.4.6.6.3-.7.2-1.6-.1-1.9-.3-.4-.6.2-.5 1.3zm0 8c0 1.1.3 1.4.6.6.3-.7.2-1.6-.1-1.9-.3-.4-.6.2-.5 1.3zm-2 7.7c-.1 2.1 5.5 5.7 8.9 5.7 2.4-.1 2.4-.1.5-1.6-1.1-.8-2.5-1.2-3.2-1-.7.3-2 .3-2.9-.1-1.3-.5-1.3-.8-.2-1.5 1-.8.9-.9-.4-.4-1 .3-1.8-.1-2.1-1.2-.4-1.5-.5-1.5-.6.1zm75-9.6c-.1 5.4.2 6.3 1.7 6.3 1.3 0 1.4-.2.3-.9-1.1-.7-1.1-.9 0-1.4.8-.3.9-.6.3-.6-.6-.1-.9-1.1-.7-2.4.2-1.2 0-3.3-.6-4.7-.8-2.1-1-1.5-1 3.7zm-250.6 4.5c-5.1 1.4-9.2 1.8-15.3 1.5-10.2-.4-8.4 1.2 2.2 2 7.6.6 16.2-1.2 20.1-4.1 2.5-1.9 1.8-1.8-7 .6zm-13 100.2c-8.6 3.8-13.7 11.6-13.8 21.1-.1 8 2.8 14.4 8.2 18.3 9.7 7 20.2 6.5 29.1-1.5 10.3-9.2 10.2-23-.2-33-6.1-5.9-16.2-8-23.3-4.9zm13.9 4c1.9.8 3.7 1.9 4 2.5.4.5-.9.4-2.9-.4-2-.9-3.5-1.1-3.5-.5 0 .5.5 1 1.1 1 .5 0 .7.4.4 1-.3.5-.2 1 .4 1 .5 0 .8 1.4.5 3.2-.3 1.8 0 4 .5 4.8.9 1.3 1.2 1.3 2.3-.3 1.2-1.6 1.4-1.1 1.6 4.2.2 3.7-.2 6.1-.8 6.1-.5 0-1-.6-1-1.3 0-.8-.3-.7-1 .3-.6.9-.5 1.7.2 2.1 1.7 1.1-3.8 7.8-7 8.5-1.5.4-3 1.2-3.4 1.8-.5.7-.8.7-.8-.2 0-.9-.7-1.1-1.9-.7-2.7.8-8.6-4.6-10.2-9.2-1.9-5.8-.7-13.7 2.8-18.1 5.3-6.6 11.9-8.7 18.7-5.8z" />
    <path
        d="M499.8 621.7c.7.3 1.6.2 1.9-.1.4-.3-.2-.6-1.3-.5-1.1 0-1.4.3-.6.6zm-175 83c.7.3 1.6.2 1.9-.1.4-.3-.2-.6-1.3-.5-1.1 0-1.4.3-.6.6zm19.5 3.4c.1 1 .8 1.9 1.7 1.9 1.2 0 1.2.2.2.9-.9.5-.3.8 1.7.7 2.8-.1 2.9-.2 1.4-1.4-1-.7-2.6-1.9-3.5-2.7-1.5-1.2-1.6-1.1-1.5.6zm8.2 11.9c.3.5 1.1 1 1.6 1 .6 0 .7-.5.4-1-.3-.6-1.1-1-1.6-1-.6 0-.7.4-.4 1zm-3.5 4.8c0 1.4 1.1 2.1 2.6 1.5.8-.3 1.1-.9.8-1.4-.7-1.1-3.4-1.2-3.4-.1zm27 42.1c-.6 1.2-.7 2.1-.1 2.1 1 0 2.4-3 1.7-3.7-.2-.3-.9.5-1.6 1.6zM551 89c0 1.1.6 2.3 1.4 2.6.8.3 1.2 1.2.9 2-.7 1.8 1.6 10.2 2.9 11 .5.4 1.5.1 2.1-.5.9-.9.8-1.1-.6-.5-1.6.6-1.8.1-1.7-3.7 0-3.8-.1-5.9-.8-11.7-.3-2.1-4.2-1.4-4.2.8zm62.6 2.5c-.3.9-.6 2.4-.5 3.3 0 .9.5.4 1-1.2.9-3.2.6-4.8-.5-2.1zM510.5 107c-.4.6 1.3 3 3.6 5.3 3.9 3.9 3.7 2.8-.3-1.7-2.3-2.5-2.3-3.7-.1-2.9 1.1.4 1.4.3.9-.5-.9-1.5-3.3-1.6-4.1-.2zm142.4 2.7c-2.6 2.9-4.7 6.9-2.9 5.8.6-.3 1-1.3 1-2.1s.4-1.4.9-1.4 1.6-1.1 2.5-2.5c2.1-3.2 1.7-3.2-1.5.2zm0 5c-1.3 1.6-1.2 1.7.4.4.9-.7 1.7-1.5 1.7-1.7 0-.8-.8-.3-2.1 1.3zM486 139.9c0 1 .6 2.1 1.3 2.4.6.3 2.9 1.3 5 2.2 2.2.9 3.6 1.1 3.2.6-.3-.6-1.4-1.1-2.3-1.2-1.4 0-1.3-.2.3-.8 1.1-.5 2.5-.6 3-.3.6.3.5-.1-.1-.7-.9-1-1.7-1-3.2-.2-2.6 1.4-3.5 1.4-2.7.1.3-.6-.3-1-1.5-1s-1.9-.4-1.5-1c.3-.5 1.3-.6 2.2-.3 1.1.4 1.4.3.9-.5-1.2-2-4.6-1.4-4.6.7zm195.6-.4c.4.8.1 1.5-.7 1.5-.7 0-.9.3-.6.6.9.9 3.8-1.6 3.1-2.7-.9-1.5-2.4-1-1.8.6zM675 141c-1.9 1.1-3 1.9-2.5 1.9.6 0 2.6-.8 4.5-1.9 1.9-1.1 3.1-1.9 2.5-1.9-.5 0-2.6.8-4.5 1.9zm-177.3 2.7c-1 .9-.9 2.3.1 2.3.5 0 .9-.7.9-1.5 0-1.7-.1-1.8-1-.8zm174.1 2c-1 .2-1.8.9-1.8 1.4 0 .6 1 .5 2.3-.2 3.7-2 3.6-2.3-.5-1.2zm5.7 31c-1.1.2-3 .6-4.2.9-3.7.7-2.6 2 1.5 1.7 7.2-.7 10.2-1.4 9.7-2.4-.6-.9-3.3-1-7-.2zM480 178.4c0 .8.7 1.7 1.6 2 1.2.4 1.5.2 1-.9-.7-2 .4-1.9 2.1.2 1 1.3 1.6 1.5 1.9.5.3-.6 1.6-1.2 2.9-1.2 1.3 0 2.7-.5 3-1 .4-.6-1.8-1-5.9-1-5 0-6.6.3-6.6 1.4zm17-.4c2 1.3 3.3 1.3 2.5 0-.3-.6-1.4-1-2.3-1-1.5 0-1.5.2-.2 1zm176.8 2.7c.7.3 1.6.2 1.9-.1.4-.3-.2-.6-1.3-.5-1.1 0-1.4.3-.6.6zm6 0c.7.3 1.6.2 1.9-.1.4-.3-.2-.6-1.3-.5-1.1 0-1.4.3-.6.6zm143.6 1.8c-2.9 1.2-5.4 5-5.4 8.1 0 2.6 4.7 6.4 8 6.4 3.6 0 8-4.1 8-7.5 0-2.7-3.3-7.1-5.8-7.7-1.1-.3-3.2 0-4.8.7zm5.1 4.4c0 4.1-2.5 6.2-4.9 4.2-3.3-2.7-1.2-8.5 2.9-7.9 1.6.2 2 1.1 2 3.7zm-83.5.5c-7 2-12.8 3.4-21.3 5.2-12.2 2.5-29.3 12.2-34.5 19.5-1.9 2.7-.5 6.3 5.6 14.1 5.8 7.4 11.2 16.7 11.2 19.3 0 10.4-11.1 21.5-21.5 21.5-5.4 0-12.2-3.3-13.7-6.5-1.8-4 .5-13.5 5.7-23.8 2.5-4.9 4.3-9.2 4-9.6-.2-.5-1.4-1.1-2.5-1.4-2.8-.7-5.2 2.7-8.9 12.3-14.4 37.4-1.6 87.1 29.2 113.3 10.6 9 25.2 16.5 36.8 18.9 5.2 1.1 6.5 1.8 7.8 4.1.9 1.6 4.6 7.5 8.2 13.1 11.2 17.1 28.9 31.8 45.8 38 3.6 1.3 8.3 3 10.3 3.7l3.8 1.4.3 19c.5 21.3 1.4 25.9 7.5 36 5 8.2 9.1 12.6 16.6 17.4 14.5 9.5 27.5 11.1 42.1 5.1 2.9-1.2 3.8-.9 19.3 7.9 8.9 5.1 18.8 10.2 21.9 11.3 7.3 2.6 18.7 3.5 23.9 1.8 4.5-1.4 20.5-10.8 25.4-14.9l3.4-2.8v-39.4l.1-39.4-2.7-4.5c-3.3-5.7-6.3-8.5-14.6-13.6l-6.7-4.1-.3-12.5-.3-12.5 3.1-1.3c6.8-2.8 11-10.9 9.6-18.3-2-10.5-12.4-18.5-45.3-35.1-7.6-3.8-9.3-5-9.3-6.9 0-4.4-5.1-21.2-9-29.5-13-27.6-35.6-49.6-58.2-56.8-5.3-1.6-6.1-2.2-10.4-8.7-6.2-9.4-19.9-23.4-29-29.7-8-5.6-18.2-10.1-26.3-11.9-6.9-1.5-21.5-1.3-27.1.3zm25.1 4.6c11.7 2.1 34.8 16.5 33.2 20.7-.5 1.3-.2 1.5 1.3 1 1.4-.5 1.2-.2-.6 1.2-1.6 1.3-2.9 1.6-3.4 1-.6-.5-1.6-.9-2.4-.9-.9 0-.7.9.9 3.2 2 2.9 1.7 2.7-2.7-1.2-11.7-10.8-25.4-18.9-38.4-22.6-4.9-1.4-6.8-2.3-5.5-2.7 3.5-.9 12.1-.7 17.6.3zm-24.4 6c18.5 2.5 34.4 10.9 48.4 25.7 6 6.3 9.5 11.8 8 12.7-.5.4-4 1.6-7.8 2.7-10.3 3.2-25.5 11.3-32.7 17.3l-6.4 5.4-4.8-2.4c-18.3-9.3-36.7 13.1-27 32.9 1.4 3 4.3 7 6.4 8.9l3.7 3.3V325c0 18.3.3 21.3 2.3 28.3 3.1 10.8 3 11.8-1 11.1-4.4-.8-18.6-7.5-25.3-11.9-6.8-4.6-16.4-14.2-22.1-22.2-9.4-13-17.8-36.6-17.2-47.8l.3-5 11-1.2c22-2.5 27.5-3.5 27.5-4.8 0-.7 1-3.8 2.1-6.9 2.2-5.7 6.3-10.8 11.2-14.1 3.3-2.1 3.1-3.5-1.8-11.5-4.7-7.8-15.5-29.6-15.5-31.3 0-1.8 8-6.1 15-8.1 9.7-2.7 14.8-3 25.7-1.6zm82.3 41c10.7 2.8 30 13 30 16 0 .4-1.2 1.3-2.7 1.9-1.6.6-4.3 1.8-6.1 2.7-1.9.8-3.1 1-2.7.4.3-.5 0-1-.7-1s-3.3-1.6-5.7-3.5c-9.4-7.5-24.1-12.5-37-12.5-4.1 0-7.1-.3-6.8-.7 1.2-1.1 17-5.1 20.7-5.2 1.9 0 6.9.8 11 1.9zm-5.3 13.2c9.8 3.5 16.1 7.6 27.1 17.3 12.3 10.9 21.9 25.8 28.3 43.7 1.3 3.8 2.9 6.8 3.6 6.8 1.6 0 1.6.1-.2-8.4-.8-3.8-1.3-7.1-1.1-7.3.4-.4 8.2 19.1 9.1 22.9.5 2.1.2 2.9-1.6 3.8-1.9 1.1-2.4 1-3.6-.6-.7-1-1.3-1.3-1.3-.5 0 2.3-2.7 3.9-11.1 6.6-11.9 3.7-15.9 6.2-18.8 11.6-3.2 6.1-2.4 12.5 2.4 17.8l3.3 3.7-5.1 3.5c-2.9 1.9-10.5 5.9-16.9 8.9-19 8.6-23.6 15.1-22.5 31.4.3 4.4.3 7.3.1 6.3-.7-2.4-2.4-2.1-1.9.3.6 3.1-1.8 3.4-7.7 1-4-1.5-4.5-1.9-2-1.6l3.2.5v-5.8c0-3.2.2-11.4.4-18.2.3-8.4.2-11-.4-7.9l-.8 4.5.4-5c.2-2.8.4-6.3.6-7.9.2-1.7-.2-3.1-.9-3.3-.9-.3-1.3.9-1.3 4 0 2.5-.5 4.7-1.1 4.9-.8.3-1.2 4.1-1.2 11.6 0 6.2-.3 11.4-.6 11.7-.4.2-.5-1.1-.4-2.8.5-5-.6-5.9-7.3-5.4-4.4.2-5.3.5-3.6 1.1 1.2.5 2.2 1.3 2.2 1.8 0 .6.6.8 1.4.5.9-.4 1.3.2 1.2 1.7 0 1.4-.6 2.2-1.3 1.9-.7-.3-1.3 0-1.3.7 0 .9-.7.8-2.3-.3-1.3-.8-3.7-1.7-5.3-2-4-.7-6.4-1.7-6.4-2.8 0-1.2 2.7-1.1 3.5.1.3.5 1.1 1 1.8 1s.6-.5-.3-1.4c-2.1-2-6.4-2.3-8.4-.7-1.3 1.1-1.9 1.1-3.1.1-.8-.7-1.5-1.9-1.5-2.6 0-.8-.6-1.4-1.3-1.4-.8 0-2.3-1-3.5-2.3-1.7-1.8-1.9-2.6-1-3.5.9-.9.8-1.6-.4-2.9-1.6-1.5-1.7-1.5-1.1.8.5 2.2.3 2.2-3.1-1.1-4.7-4.4-16.3-27.8-12.7-25.6.6.4 1.1 1.6 1.1 2.7s.7 2.2 1.5 2.5c.8.4 1.5 1.5 1.5 2.6 0 1.7.3 1.8 1.5.8 1.7-1.4 2-4 .5-4-.5 0-1.4-1.5-2-3.3l-1-3.2.3 3.2c.2 1.8 0 3.3-.5 3.3-.7 0-1-1.6-1.2-7.5-.1-2.8-2-3.1-2.7-.3-.4 1.8-1 1-2.7-4.2-3.3-10.2-4.5-18.5-4.4-32.5 0-23.1 4.7-38.4 15.5-50.4 1.5-1.7 2.7-3.3 2.7-3.6 0-.7 4-5.4 7.1-8.5 6.6-6.4 22.7-12 34.7-12 3.2 0 3.3.1 3.2 3.7-.4 7.5-.1 9.9 1 8.3.8-1.1 1 .3 1 5-.4 19.6 0 28 1.3 28 .7 0 1.4-1.3 1.5-3 .1-1.7-.2-3-.8-3-.6 0-1-2.6-1-6 0-3.3.4-6 1-6s1-5.4 1-14.1v-14.1l3.7.7c2 .3 7.4 2 12 3.7zm-73.1 13c1.1 1.1.7 2.1-1.7 5.8-1.7 2.5-4.4 7.2-6.1 10.4l-3 5.9-3-5.2c-3.8-6.5-3.3-10.8 1.8-15.9 3-3 3.9-3.4 7.1-2.9 2 .4 4.2 1.2 4.9 1.9zm172 75.1c15.7 8.6 25.3 15 28.3 18.8 1.9 2.5 1.9 2.7.3 4.2-1.3 1.1-18.4 10.3-23.4 12.5-.5.2-.8-.8-.8-2.2 0-3-5.1-9.1-10.7-12.8-2.1-1.4-10.1-6-17.8-10.3-21.3-11.9-19.8-10.3-12.4-13 3.5-1.2 8-3 9.9-3.9 6.3-3 11.3-1.7 26.6 6.7zm-40 5.5c6 3.9 26.3 15.6 32.1 18.6 1.8.9 4.9 3 6.8 4.7 3.4 3.1 3.5 3.2 3.5 11 0 8.8-.4 9.3-7.6 10.4-4.4.7-11.9-2.6-30.6-13.3-5.7-3.2-13.1-7.3-16.4-9.1-8.7-4.6-11.9-8.2-11.8-13.2.2-5.1 3-8.2 9.8-10.8 6.9-2.7 7.5-2.6 14.2 1.7zm-14.8 31.4c.3 3.4 0 3.8-4.8 6.4-2.8 1.5-4.9 3.2-4.7 3.7.1.5 2.3 1.8 4.7 2.7 3.7 1.4 4.6 2.3 4.8 4.6.4 3.7 1.5 4.8 4.1 3.9 1.9-.6 2.1-1.4 2.1-9.6 0-4.9.4-8.9.9-8.9 1.8 0 8.6 3.3 18.5 8.9 5.5 3.1 11.5 6.3 13.2 7l3.2 1.3.4 11.6c.2 6.4.7 12.3 1.1 12.9.6 1 2.9.2 9-2.8 4.5-2.3 9.4-5 10.9-6 1.4-1.1 3.2-1.9 3.8-1.9 1.6 0 18.3 8.4 22.3 11.2 8.9 6.3 10.1 9.7 9.8 27.4l-.1 9.2-6.2 4c-10.5 6.8-15.3 8.5-21.9 7.9-7.1-.8-15.4-3.9-21.6-8-4.1-2.8-5.1-4.1-7.3-10.3-6.4-17.2-20.6-29.3-38-32.3-3-.5-9.5-2.6-14.3-4.6l-8.8-3.6-9.6 1.5c-5.2.8-11.3 2.4-13.4 3.5L821 419l-.2-4.8c-.4-11.7.8-16.5 5.1-20 .9-.7 7.5-4.1 14.6-7.6 7.2-3.5 15.5-8 18.5-9.9 3-2 6-3.4 6.5-3.3.6.1 1.1 1.9 1.3 3.8zm-63.1 27c-.2 2.4-.4.5-.4-4.2s.2-6.6.4-4.3c.2 2.4.2 6.2 0 8.5zm-23.7 3.3c1.2 1.3 2.7 2.2 3.1 1.9.5-.3.9 0 .9.5 0 .6-.3 1.1-.7 1.1-1.3-.1-7.9-5.9-6.7-6 .6 0 2.1 1.1 3.4 2.5zm20.7 7.2c-.3 1-.5.2-.5-1.7s.2-2.7.5-1.8c.2 1 .2 2.6 0 3.5zm-11.1-1.6c1 1.2 3.6 2.8 5.7 3.6 2.1.9 3.6 1.8 3.3 2.1-.7.7-11.1-4.5-12.6-6.3-2-2.5 1.4-1.9 3.6.6zm64.9 9.8c9.5 4.6 22.7 17.8 27.3 27.3 6 12.2 7.8 30.5 4.1 42.6-1.1 3.7-7.4 11.1-8.5 10-.2-.2.3-2.8 1.1-5.8 4-15-.4-40.8-9.4-54.6-4.4-7-9.8-12.4-12.3-12.4-1.4 0-.5 1.9 3.8 8.5 9.7 14.9 13.6 27.5 13.6 44 .1 20.7-7.6 27.4-24.7 21.5-12.4-4.3-22.3-13.2-28-25.3-4-8.3-5.5-16.8-5.5-30.7.1-16.6 2.3-22 11.3-26.5 4.5-2.3 6.2-2.6 12.7-2.3 6.1.2 8.8.9 14.5 3.7zm36.2 17.6c8.2 7 12.8 20.8 11.2 33.2-.7 5.5-4.1 13.3-6.9 15.8-1.4 1.3-1.6.3-1.7-10.8-.2-14.6-2.3-23.7-8.2-35.7-2.3-4.5-4.1-8.3-4.1-8.6 0-1 5.7 2.6 9.7 6.1zm21 35.2c-.3 1-.5.2-.5-1.7s.2-2.7.5-1.8c.2 1 .2 2.6 0 3.5zm13.3 1.7c0 .2-.7.6-1.5 1-.8.3-1.5.1-1.5-.4 0-.6.7-1 1.5-1s1.5.2 1.5.4zm-15 4.3c-1.1 1.7-1.1 1.7-.6 0 .3-1 .6-2.4.7-3 0-.9.2-.9.5 0 .3.7 0 2-.6 3zm32.4-1.8c1 1.6-5.5 2.2-7.1.6-1.3-1.3-1-1.5 2.6-1.5 2.2 0 4.2.4 4.5.9zm-24.1 5.6c-.7 2.1-1.3 1.9-1.3-.6 0-1.1.4-1.8 1-1.4.5.3.7 1.2.3 2zm-4.8 2.8 2.9 2.8-2.7-1.2c-1.5-.7-2.7-1.6-2.7-2.1 0-.4-.6-.8-1.4-.8-.8 0-1.7-.4-2-.8-1.2-2 3.2-.4 5.9 2.1zM928 486c0 .5-.2 1-.4 1-.3 0-.8-.5-1.1-1-.3-.6-.1-1 .4-1 .6 0 1.1.4 1.1 1zm0 6c0 .5-.7 1-1.6 1-.8 0-1.2-.5-.9-1 .3-.6 1-1 1.6-1 .5 0 .9.4.9 1zm18.1 4c2.3 0-.5 2-2.9 2.1-2.4.1-2.3.3.8.9 3.2.7 3.1.7-1.8.9-6.1.1-14.2-1.7-14.2-3.1 0-.6.8-.7 1.8-.3 6.1 2.5 14.1 1.3 14.3-2.3.1-1.6.2-1.6.6 0 .2 1 .9 1.8 1.4 1.8zm-45 7.1c9.7 5.4 17.8 8.4 26.6 9.9 6.1 1 8.1.9 13.5-.5 6.3-1.6 14.5-5.7 20.5-10.1 1.7-1.3 3.4-2.4 3.7-2.4.3 0 .6 2.1.6 4.7 0 4.7-.1 4.8-6.3 9-3.4 2.3-9.3 5.9-13.2 7.9-6.5 3.4-7.5 3.6-13.5 3.1-8.2-.7-18-4.3-28.4-10.6-4.5-2.7-10.1-5.8-12.5-7l-4.3-2.3 2.8-2.9c1.5-1.6 2.9-2.9 2.9-2.9.1 0 3.5 1.8 7.6 4.1z" />
    <path
        d="M800 212.9c0 1 1.9 2.5 2.5 2 .1-.2-.3-1-1.1-1.7s-1.4-.8-1.4-.3zM788 252c-2.5.8-2.5.8-.2.9 1.3.1 2 .5 1.7 1.1-.3.5.1 1 .9 1 1 0 1.3-.6 1-1.5-.5-1.2.3-1.5 4.1-1.5 2.8 0 4.4.4 4 1-.3.5-.1 1 .4 1 .6 0 1.1-.7 1.1-1.5 0-1.2-1.2-1.5-5.2-1.4-2.9.1-6.4.5-7.8.9zm-6 2c-.8.5-1.1 1.3-.6 1.7.5.4 1.1.2 1.3-.5.3-.6 1-.9 1.5-.6.7.4.8.2.4-.4-.9-1.4-.7-1.4-2.6-.2zm-5.2 2.4c-.8.7-2.4 1.7-3.6 2-2.2.7-3.1 2.6-1.2 2.6.6 0 1-.5 1-1.1 0-.6 1-.9 2.3-.8 2.7.4 4.7-.7 4.7-2.7 0-1.8-1.4-1.8-3.2 0zm21-.7c.7.3 1.6.2 1.9-.1.4-.3-.2-.6-1.3-.5-1.1 0-1.4.3-.6.6z" />
    <path
        d="M774.5 261c.3.5.8 1 1.1 1 .2 0 .4-.5.4-1 0-.6-.5-1-1.1-1-.5 0-.7.4-.4 1zm-8 1.1c-1.1.5-2.5 2.1-3.2 3.5-1 2.2-.9 2.5.5 2.2.9-.2 1.7-1.1 1.7-2.1s.8-2.3 1.8-2.9c1.7-.9 1.8-.8.8 1-.6 1.2-1.1 2.9-1.1 3.9.1 1.6.2 1.6 1.3.3.7-.9 2.7-2.2 4.5-3l3.4-1.3-3.2-1.4c-3.7-1.5-3.8-1.5-6.5-.2zm-8.5 8.7c-.8.9-1.5 2-1.5 2.3 0 .4-.3 1.1-.7 1.5-1.5 1.4-.8 2.1 1.6 1.7 1.9-.4 2.5-1.3 2.8-3.9.4-3.8 0-4.1-2.2-1.6zm8 8.1c0 1.7.5 3.1 1 3.1.6 0 1-1.1 1-2.4 0-1.4-.4-2.8-1-3.1-.6-.4-1 .7-1 2.4zm-9 0c0 .5-.8 1.1-1.7 1.5-1 .3-2.4.9-3 1.2-.8.3-1.3-.2-1.4-1.3-.1-1.3-.3-1.1-.8.7-.4 1.4-.4 2.7-.1 3 .4.3 1 1.2 1.3 2 .4 1.2.6 1.2.6-.2.1-.9.9-1.9 1.9-2.3 2-.7 5.8-5.5 4.2-5.5-.5 0-1 .4-1 .9zm-8.5 11.2c0 2.7.3 4.9.8 4.9.4 0 .6.5.5 1.1-.2.6.3 1.4 1 1.6.6.3 1.2-.2 1.2-1.1 0-.9-.4-1.6-1-1.6-.5 0-1-1.7-1-3.8 0-2-.4-4.2-.8-4.9-.4-.6-.7 1.1-.7 3.8zm27.5-3.6c0 1.1-1.1 1.5-4 1.5h-4v10.4c0 9.9.1 10.4 2.2 11 1.3.3 2.7.1 3.2-.4 1.2-1.2 3.6-.1 3 1.5-.3.7.1 2.6.9 4.1l1.4 2.7.7-2.9c1.1-4.4 6.5-10.8 11.6-13.8 4-2.3 4.1-2.6 1.5-2-2.3.4-2.6.3-1.5-.5.8-.6 2.5-1.1 3.7-1.1 2.8 0 5.3-1 5.3-2.1 0-.5-1.1-.9-2.5-.9s-2.5.4-2.5 1c0 .5-.7 1-1.6 1-2.7 0-8.3 3.1-8.7 4.8-.2 1-.4 0-.3-2 0-3.8.3-4 6.9-6.2 1-.3 1.5-1.1 1.2-1.7-.7-1-3.1-.7-6.9.7-1.3.5-1.6-.1-1.6-3 0-3.5-.1-3.6-4-3.6-2.9 0-4 .4-4 1.5zm12.2 14.7c-.6.6-1.5.8-1.9.4-.4-.4-.1-1.1.7-1.6 1.9-1.2 2.7-.3 1.2 1.2zm-9.1 5.1c-.8.8-1.1.7-1.1-.4 0-.9.3-1.9.7-2.3.4-.4.9-.2 1.1.4.3.7-.1 1.7-.7 2.3zm-5.1-.3c0 .4-.6 1.3-1.4 1.9-1.1.9-1.5.7-1.9-.8-.3-1.1-.3-2.2 0-2.5.7-.6 3.3.4 3.3 1.4zm7.7 1.1c-.8 2.1-1.3 2.6-1.5 1.5-.2-1 .2-2.3.8-3.1 1.8-2.2 2-1.8.7 1.6zm-34.6-17.5c0 1.1.3 1.4.6.6.3-.7.2-1.6-.1-1.9-.3-.4-.6.2-.5 1.3zM744 300c0 1.1.5 2 1 2 .6 0 1-.9 1-2s-.4-2-1-2c-.5 0-1 .9-1 2zm-2 7.4c0 4.5 1.3 6.8 2.3 4.2.6-1.5-1-8.6-1.8-8.6-.3 0-.5 2-.5 4.4z" />
    <path
        d="M769.1 311.6c1 1.3 1 1.7 0 2.4-1 .6-.8 1 .8 1.5 2.4.7 2.3.2 2.7 8.2.2 5.7-.7 8.2-1.9 5-.3-.6-.6.2-.6 2-.1 1.7-.5 3.5-1.1 3.8-.5.3-.9 2.3-.8 4.3l.1 3.7.4-3.3c.6-4.9 3.3-4.2 3.3.8 0 3.5-.3 4-2.2 4-1.9.1-2 .2-.7 1 1.9 1.1 1.4 6.3-.7 8.1-1.8 1.5-1.8 2.9 0 2.9 1.3 0 2.9 2.9 3.1 5.4 0 1.3 2.5 2 2.5.7 0-.6.3-1 .8-.9 1.1.4 6.2-3.8 6.2-5 0-.6-.8-1.5-1.7-2.1-1-.5-1.5-1.3-1.1-1.6.4-.4.2-1.9-.4-3.4-1.9-4.9-3.8-13.2-3.8-16.4.1-1.8.7-5.9 1.5-9.2 1.8-7.5 1.8-7.5-.1-7.5-.9 0-1.8-.9-2.1-2-.3-1.1-1.2-2-1.9-2-.8 0-1.4-.5-1.4-1 0-.6-.5-1-1.1-1-.8 0-.7.5.2 1.6zm7.9 42c0 .7.3 2.1.6 3.1.5 1.5.4 1.5-.5.3-.6-.8-1.1-1-1.1-.4 0 .7-.7 1.4-1.5 1.8-1.8.6-3.7-2.6-2.9-4.8.7-1.8 5.4-1.8 5.4 0zm23.4-42.2c-4 1.8-9.8 8.7-11.2 13.5-4.2 13.8 2.9 31.1 15.1 37 5.7 2.8 10.7 2.6 16.6-.3 10.9-5.6 15-20.8 9.1-34.2-5.4-12.5-19.8-20.3-29.6-16zm21.6 13.3c1.7 2.6 3.5 6.6 4.1 8.8 1.3 4.8.5 12.9-1.5 16-4.7 7.2-15-8.3-13.1-19.5.7-3.9 4.7-10 6.6-10 .5 0 2.3 2.1 3.9 4.7zm-80.8-8.7c0 1.9.2 2.7.5 1.7.2-.9.2-2.5 0-3.5-.3-.9-.5-.1-.5 1.8z" />
    <path
        d="M768 317.9c0 1.2.6 2.1 1.6 2.1.9 0 1.4-.7 1.2-1.7-.5-2.5-2.8-2.8-2.8-.4zm2 8.1c0 .5.5 1 1.1 1 .5 0 .7-.5.4-1-.3-.6-.8-1-1.1-1-.2 0-.4.4-.4 1zm-26.9 17.2c0 .9-.4 2.5-.7 3.5-.5 1.5-.4 1.6.5.3 1-1.2 1.2-.9 1 1.5-.2 4.5 0 5.5 1.1 5.5.6 0 1-2 1-4.5s-.4-4.5-.9-4.5-1.2-.8-1.4-1.8c-.4-1.5-.5-1.5-.6 0zM757 364c0 4.4 2.2 5.3 2.8 1.2.3-1.8 1-2.2 4.2-2.2 5 0 7.7 1 5.8 2.1-.9.6-.9.9-.1.9 2 0 2.4-1.7.8-3.3-1-1-1.1-1.7-.4-1.9.7-.2-2-.5-6-.6l-7.1-.3v4.1zm28 0c0 .5.5 1 1.1 1 .5 0 .7-.5.4-1-.3-.6-.8-1-1.1-1-.2 0-.4.4-.4 1zm-5 3.9c-2.6 2.2-3 3-1.7 3.1 1 0 1.7-.7 1.7-1.8.1-1.6.1-1.6 1.4.1 1 1.3 1.5 1.5 1.8.5.4-1 1-1 3.1-.1 1.4.7 2.9.8 3.2.4.3-.5-.2-1.2-1.1-1.5-.8-.3-1.2-1-.9-1.6.3-.5.2-1-.4-1-.5 0-1.5-.2-2.3-.5-.7-.3-2.9.8-4.8 2.4zm-19.6 3.1c0 1.6.3 2.7.7 2.4.5-.2.5-1.2.2-2.1-.5-1.2-.2-1.5 1-1 2.3.9 2.2 0-.1-1.2-1.6-.8-1.8-.6-1.8 1.9zm4.4-2.3c.7.3 1.6.2 1.9-.1.4-.3-.2-.6-1.3-.5-1.1 0-1.4.3-.6.6zm29.2 3.2c0 .5.7 1.2 1.6 1.5 1.4.5 1.5.4.4-.9-1.4-1.7-2-1.9-2-.6zm-19.7 2.3c-.1 3.2 1.2 3.7 2 .8.3-1.1.1-1.8-.3-1.5-.5.3-1-.1-1.3-.7-.2-.7-.4-.1-.4 1.4zm7.4.2c-.4 1 0 1.4 1.4 1.3 1-.1 1.8-.6 1.6-1.1-.5-1.6-2.4-1.8-3-.2zm10.5-.2c.5 1.5 2.8 2.3 2.8 1 0-.5-.7-1.3-1.6-1.6-1-.4-1.4-.1-1.2.6zm-40.2 1.2c0 .8.5 1.8 1 2.1.6.3 1-.1 1-.9s-.4-1.8-1-2.1c-.5-.3-1 .1-1 .9zm18.8.6c-.7 1.1-1.8 2-2.5 2-.6 0-1.4.4-1.7.8-.8 1.3 2.7 1 3.9-.2 1.3-1.2 2.7-4.6 2-4.6-.3 0-1 .9-1.7 2zm18 1.1c-2.4 1.3-2.3 2.9.2 2.9 1.1 0 2-.2 2-.4s.3-1.1.6-2c.7-1.8-.3-2-2.8-.5zm9.6 2.3c.3 1.2.6 2.7.6 3.3 0 .7.9 1.3 2 1.3 1.4 0 2-.7 2-2.3 0-1.8-.2-1.9-1-.7-.9 1.3-1 1.3-1.1 0-.1-.8-.1-2 0-2.6.1-.6-.6-1.1-1.5-1.1-1.1 0-1.4.6-1 2.1zm-4.9 3.6c-.4.6.5 1 1.9 1s2.6-.5 2.6-1c0-.6-.9-1-1.9-1-1.1 0-2.3.4-2.6 1zm-9.5 7.5c0 1.2 1.6 1.5 8 1.5s8-.3 8-1.5-1.6-1.5-8-1.5-8 .3-8 1.5zm-19.3 2.2c-.3.5.4 1.7 1.4 2.7 1.1 1.1 1.9 1.4 1.9.8 0-.6-.5-1.4-1-1.7-.6-.4-.8-1.1-.5-1.6.4-.5.2-.9-.4-.9-.5 0-1.2.3-1.4.7zm7.1 6.4c.7 1.8 2.2 2.8 2.2 1.4v-2c0-.8-.7-1.5-1.5-1.5-1 0-1.2.6-.7 2.1zm62.3 40.7c-1.3.4-3.8 2.5-5.5 4.6-2.9 3.5-3.1 4.4-3 11.1 0 6.2.5 8.3 3.2 13.7 7.5 14.7 17.4 20.7 26.7 16.2 5-2.4 6.9-7.1 6.2-16-1.3-17.6-15.7-33-27.6-29.6zm4.8 8.4c-.8 2.8-.6 3.5 1.1 4.7 1.1.7 2 2 2 2.8 0 1 .6 1.3 1.6.9 1.3-.5 1.4-.3.6.7-1.4 1.6.1 4.2 1.9 3.2.9-.6 1.1-.4.6.8-.3.9-.1 1.9.5 2.3.7.5.8.2.3-.7-.5-.8.4-.2 1.9 1.3 1.6 1.5 3.6 3 4.6 3.3 4.1 1.3 2.8 8.5-1.6 8.5-8.3 0-19.4-12.7-19.4-22 0-4.8 2.6-8.9 5.7-9 .8 0 .9.9.2 3.2zm7.6 1.8c.3.5.1 1-.4 1-.6 0-1.1-.5-1.1-1 0-.6.2-1 .4-1 .3 0 .8.4 1.1 1zm1 6.9c-.3.5-.1 1.2.5 1.6.5.3 1 1.2 1 1.8 0 .7-.7.3-1.5-.7-.8-1.1-1.5-1.4-1.5-.7s-.5.9-1.1.6c-.6-.5-.4-1.2.8-2.1 2.1-1.6 2.6-1.7 1.8-.5zm5 1.1c.3.5.1 1-.4 1-.6 0-1.1-.5-1.1-1 0-.6.2-1 .4-1 .3 0 .8.4 1.1 1zM494 213.5c-5.2 2.7-4.7 3.3.8.9 2-1 4.6-1.9 5.6-2.1 3-.5 3.3-1.3.5-1.2-1.3.1-4.4 1.2-6.9 2.4zm174-1.4c0 .6.9.8 2 .4 1.6-.5 1.9-.3 1.3 1.2-.6 1.5-.5 1.6.9.3.9-.8 1.4-1.8 1.1-2.3-.7-1.1-5.3-.8-5.3.4zm-174 5.4c-1.4.8-2 1.4-1.4 1.5.5 0 1.9-.7 3-1.5 2.4-1.8 1.6-1.9-1.6 0zm-7.7.5c-2.4 1-3 2.5-1.3 3.5.6.3 1-.2 1.1-1.2 0-1 .3-1.3.6-.6.2.7 1 1.3 1.6 1.3.5 0 .7-.3.4-.7-.4-.3-.2-1.2.4-2 1.3-1.5.4-1.6-2.8-.3zm159.3 21.8c-.2.4 1.3 2.5 3.4 4.6 2.7 2.6 4 3.4 4.6 2.5.4-.7.3-1-.3-.6s-1.4 0-1.7-.9c-.9-2.3-.8-2.4 1.2-1.7 1.3.5 1.1 0-.7-2-2.9-3.1-3.6-3.4-2.7-1 .6 1.7.5 1.7-.8 0-1.4-1.9-2.2-2.1-3-.9zM470.3 242c-4.3 1.8-5.9 9.3-2.5 12.2 3.7 3.2 7.9 3 11.5-.7 5.3-5.2-1.9-14.4-9-11.5zm5.5 4.7c.2 2.5-.1 3.3-1.8 3.8-3.9 1.2-6.7-3.4-3.8-6.3 2.3-2.3 5.3-1 5.6 2.5zm38.7-.7c-.3.5-.1 1 .4 1 .6 0 1.1-.5 1.1-1 0-.6-.2-1-.4-1-.3 0-.8.4-1.1 1zm-.3 5.1c-1.8 1.6-2.8 2.9-2.4 2.9 1.1 0 6.6-5 6.1-5.5-.2-.2-1.9 1-3.7 2.6zm-2.8-.5c-1.8 1.4-1.8 1.5.4.4 1.2-.6 2.2-1.3 2.2-1.5 0-.8-.5-.6-2.6 1.1zm386.1 7.4c-6.6 1.4-10.5 6-10.5 12.2 0 2.1.2 2 1.6-.7 2.3-4.5 5.3-6.5 10.2-6.5 3.5 0 4.9.6 7.3 2.9 3 3 3.7 5.1 1.8 5.1-.5 0-.7-.4-.4-1 .4-.6-.1-.7-1.1-.3-1.5.6-1.5.7.1 1.5 1.1.7 1.5 1.7 1.1 3.2-.3 1.3.3 3.9 1.4 6.1 1.1 2.2 2 4.7 2 5.7s.7 1.8 1.5 1.8 1.5-.4 1.5-1c0-.5 1.1-1.6 2.3-2.5 1.9-1.2 3-1.3 5.6-.4 1.9.7 3 1.7 2.7 2.4-.2.7.3 1.2 1.2 1.1 2.5-.2 5.1 6.1 5.2 12.3 0 3-.3 5.1-.7 4.8-.3-.4-.6-2.7-.6-5.2s-.4-4.8-1-5.2c-.5-.3-.7-.1-.4.4.4.6-.2 2.1-1.3 3.3l-2 2.3V298c0-3.6-1.2-1.6-1.7 2.7-.5 5.6-4.4 12.7-7.2 13.1-3 .5-2.1 2.8 1 2.5 1.3-.1 1.8.1 1.1.4-2.4 1 .9 3.3 4.7 3.3 13.9 0 20.2-21.8 10.1-34.8-2.9-3.7-8.9-7.2-12.2-7.2-2.2 0-2.8-.5-2.8-2.3 0-3.8-4.6-12.3-8-14.7-3.8-2.7-8.5-3.8-12.5-3zm31.5 42.4c0 .8-.4 1.8-1 2.1-.5.3-1-.3-1-1.4 0-1.2.5-2.1 1-2.1.6 0 1 .6 1 1.4z" />
    <path
        d="M898 269.9c-.8 1.6-.6 2.1 1.1 2.6 1.1.4 2.3.4 2.6.1.4-.3.1-.6-.6-.6-.8 0-1-.7-.6-2 .8-2.6-1.1-2.6-2.5-.1zM83.2 312.5c2.5 2.4 2.6 2.9 1.4 4.7-.8 1.1-1.2 2.7-.9 3.4.3.8 0 1.4-.6 1.4s-1.1 1.2-1.1 2.7c0 1.6-.4 3.4-.9 4.2-.7 1.1-1.1 1-1.9-.5-.9-1.6-1.2-1.5-3.6 1.2-1.4 1.6-2.6 3.8-2.6 4.8 0 1.8-.1 1.8-1.8.2-1.7-1.5-2.1-1.5-5 0-1.8.8-3.2 2.1-3.2 2.7 0 .8.3.7.9-.2.5-.8 1.7-1.1 3.2-.6 1.9.5 2.1.4.9-.4-1.3-.9-1.3-1.1.2-1.1 1.7 0 3.4 1.7 2.6 2.6-.3.2-2 .6-3.9.8-4.4.5-6.2-.9-4.8-3.8.9-1.9.9-2-.4-.3-1.4 1.6-1.5 1.6-2.1.1-.4-.9-.9-1.4-1.3-1.1-1.1 1.2 4.1 7.5 7.4 9.1 4.5 2.1 10.9 2 15.9-.3l4.2-1.9 10.2 6.9c5.6 3.9 10.7 6.8 11.4 6.6.6-.2 1.2-1.2 1.4-2.3.2-1.4-2.1-3.5-8.5-7.9l-8.8-6.1.3-7.6c.5-9.9-2-15.2-8.9-18.8-2.3-1.3-2.3-1.2.3 1.5zm10.4 55.8c.3 1 .9 1.5 1.2 1.2.3-.3 0-1.1-.7-1.8-1-.9-1.1-.8-.5.6zM83 377c0 .5.7.7 1.5.4.8-.4 1.5-.8 1.5-1 0-.2-.7-.4-1.5-.4s-1.5.4-1.5 1zm-5.5 12.3c-8 3.1-10.5 6.6-10.5 14.4 0 4.3-.4 5.1-3.6 7.8l-3.5 3-.2 10.2c-.1 5.6-.7 10.6-1.2 11.1-.6.5-3.1 1.7-5.7 2.7-6.2 2.3-12.6 7.9-14.9 12.9-1.7 3.8-1.9 8-1.9 65.7v61.7l4.1 3.7c19.6 17.7 77.7 17.7 95.7 0l4.2-4.2v-61.2c0-52.9-.2-61.7-1.5-64.9-3-7-8.9-11.4-20.4-15.1-3.6-1.2-6.8-2.7-7.3-3.4-.4-.6-.8-5.4-.8-10.4V414l-4-2.6c-3.9-2.6-4-2.7-4-8.8 0-7.4-1.6-10-7.4-12.7-4.6-2.1-12.5-2.4-17.1-.6zm16.3 5.6c1.4.7 2.2 2.1 2.2 3.6 0 2.4-.3 2.5-5.6 2.5-8.8 0-9.1.3-8.9 11.4l.2 9.6h-2.6c-1.5 0-3.7-.7-4.9-1.6-2-1.4-2.2-2.4-2.2-10.4 0-4.9.4-10 1-11.4 2.1-5.7 13.3-7.7 20.8-3.7zM70 426.2c4.3 1.7 7.6 2.2 15 2.2s10.7-.5 15-2.2c3-1.2 5.7-2.2 5.9-2.2.2 0 .1 2.8-.2 6.2-.4 4.4-1.1 6.6-2.4 7.5-5.3 4-22.4 5.6-30.8 3-7.4-2.3-7.9-2.8-8.3-10.1-.2-3.6-.3-6.6-.1-6.6.2 0 2.9 1 5.9 2.2zm50.8 17c8.9 3.3 14.2 10.2 14.2 18.6 0 2-.4 1.9-5.4-2.2-3-2.4-10-6.8-15.5-9.8-5.6-2.9-10.1-5.6-10.1-6 0-.4 1.2-1.4 2.8-2.2 3-1.7 5.9-1.4 14 1.6zm-60-1c1.2 1.6 2.3 64.6 1.1 65.3-1.2.8-13-3.3-17.1-6.1L41 499v-17.3c0-27.7 1.7-32.9 12.2-38.1 6-3 6.2-3 7.6-1.4zm10.7 8.3c1.7 1.2 3.9 2.5 5 2.9 4.7 1.4 20.7 17.4 23.5 23.5 1.2 2.5 2.6 5.3 3 6.2 1.2 2.2 3.2 13.7 3.2 17.2-.1 4.5-1.7 5.5-10.5 6.3l-8.2.8 5 .7c2.8.3 5.4.2 6-.2.5-.5 2.7-.9 5-.9 3.6.1 3.8.2 2 1.3-2.6 1.6-36.9 1.7-38.5.1-.7-.7-1.1-11.2-1.3-31.1-.2-33-.6-31.5 5.8-26.8zm-13.9 62.4c11.7 3 25.4 4.3 37.6 3.5l10.7-.7.7 2.7c1 4.1-.2 37.6-1.6 42.3-1.6 5.5-4 6.3-19.9 6.3-20 0-38.4-4.9-42.5-11.3-1.2-1.8-1.5-6.6-1.5-24.6 0-12.4.2-22.8.5-23.3.3-.4 2.2.1 4.3 1.1 2.1 1.1 7.3 2.9 11.7 4zm-3.5 56.5c11.7 4.8 41.6 5.9 60.4 2.2 2-.4 1.7-.1-1 .8-2.2.8-3.4 1.5-2.6 1.5 1.1.1 1 .5-.5 1.6-1.4 1.1-1.6 1.5-.4 1.5 3 .1-1.7 2-9 3.5-9.1 1.9-24.5 1.9-33.5 0-12.1-2.5-12.9-2.7-15.7-4.6-1.4-1.1-3.1-1.9-3.7-1.9-1.4 0-1.4-1.6-.1-4.1 1.3-2.3 1.8-2.3 6.1-.5z" />
    <path
        d="M68.8 461.7c-.3.5-.1 4.2.2 8.3l.7 7.5.1-8.3c.2-7.5-.1-9.4-1-7.5zm-.2 24.6c-.4 1-.6 4.7-.2 8.2.4 4.3.3 6.5-.4 6.5s-.7.7.1 2.1c.8 1.5.8 1.9 0 1.5-.6-.4-1.1 0-1.1.9s.5 1.3 1 1c.6-.3 1-.3 1 .2 0 .4 3.7.8 8.3.9 4.5.1 6.9-.1 5.2-.3-1.6-.3-3.5-.9-4.1-1.3-.5-.5-2-.7-3.1-.4-1.2.3-3 .1-4-.5s-1.2-1.1-.5-1.1c.6 0 1.2-.7 1.2-1.6 0-.8-.4-1.3-1-.9-.5.3-1-2.9-1.2-8.2-.2-5.9-.6-8.2-1.2-7z" />
    <path
        d="M75 497c0 .5.5 1 1 1 .6 0 1-.5 1-1 0-.6-.4-1-1-1-.5 0-1 .4-1 1zm28.8 5.3c-.3 1.9-.2 2.5.4 1.9.6-.6.8-1.8.6-2.8-.3-1.4-.5-1.2-1 .9zm-29.1-.7c-.9 1 .2 2.4 1.9 2.4.8 0 1.4-.7 1.4-1.5 0-1.5-2.1-2.1-3.3-.9zm6.2 3.5c-1 .6-.7.9 1.4.9 2.9 0 3.5-.5 1.4-1.3-.8-.3-2-.1-2.8.4zM898.5 549c-2 2.3-2.1 2.1 6.2 11.9l5.2 6-3.2 5.5-3.2 5.4-12.2.4-12.3.3-3.2 3.3c-3 3-3.3 3.8-3.3 9.6 0 9.5 5.1 19 16.5 30.9 17.5 18.4 35.4 24.3 56 18.6 15.4-4.2 30.6-14.9 38.1-26.7 7.7-12.2 9.3-31.8 2.8-35.3-1.1-.5-6.5-1.2-12.2-1.5-12.2-.6-15-1.1-14.1-2.5.3-.6.8-.8 1.1-.5.3.3 1.4.1 2.5-.5 1.5-.8 1.7-1.4.8-2.4-.8-1-.7-1.6.7-2.4 1.3-.7 1.5-1.3.8-2-1.5-1.5-10.5-2.3-10.5-.9 0 1.5 3.6 5.8 4.4 5.1.3-.3.6-.2.6.4 0 2.4-1.5 2-4.1-1.3-4.1-5.2-6.8-7-14-9.4-7.9-2.7-17.6-2.4-23.7.8l-4 2.1-4.1-4.9c-4.6-5.5-5.5-7.4-1.5-3.5 3.3 3.3 4.6 2.4 1.4-1-2.3-2.5-1.5-3.6.9-1.3 1 1.1 1.1.9.5-.6-.6-1.5-.4-1.7.6-1.1.9.5 1.1.4.6-.3-.4-.7 0-1.2 1-1.2s1.5-.2 1.3-.5c-.3-.2-3 0-6 .5-4.7.8-5.6.6-7-1-1.6-1.9-1.7-1.9-3.4 0zm40.7 16.6c5.4 1.8 12.1 7.2 14.3 11.6 5.2 10.6 1.4 21-10 27.1-3.1 1.7-5.8 2.2-11.5 2.2-8.7 0-13.7-2.2-18.8-7.9-7.3-8.3-6.8-21.4 1.1-28.2 7-5.9 16.4-7.8 24.9-4.8zm-36.7 21.1c.4 2.7 1.3 6.6 2.1 8.8 1.3 3.9 1.3 4.1-1.2 5.9-1.4 1-6.1 4.7-10.4 8.2l-7.9 6.3-1.9-3.3c-2.9-4.9-6-13.8-6.7-19.3-.6-4-.3-5.3 1.4-7.5 2.3-2.9 4.3-3.3 17.2-3.6l6.7-.2.7 4.7zm82.3-2.8c.1.1.2.8.2 1.6 0 .9-.6 1.2-1.6.8-1.2-.4-1.5-.2-1.2.8.3.8 1.3 1.3 2.2 1.3 1.2-.1 1.6.7 1.6 3.3 0 5.7-4 19.2-6.5 22.1-.5.6-4.1-1.6-8.3-5.1-2.3-1.9-3.8-3.8-3.4-4.2.4-.5.1-.5-.6-.1-.8.5-2.9-.3-5.1-1.9l-3.9-2.6 1.9-5c1.1-2.7 1.9-6.5 1.9-8.3 0-1.9.4-3.6 1-3.8.8-.2 20.9.7 21.8 1.1zM921 610.6c1.9.7 5.4 1.3 7.7 1.4 3.6 0 4.3.4 4.8 2.2.9 4.1 4.5 22.6 4.5 23.2 0 .3-3.3.6-7.4.6-13.7 0-29.6-6.3-38.3-15.2-4.4-4.5-4.8-3.9 7.9-13.3l8.3-6.2 4.5 3c2.4 1.7 6 3.6 8 4.3z" />
    <path
        d="M976 588.6c0 .8.5 1.2 1 .9.6-.3 1-1 1-1.6 0-.5-.4-.9-1-.9-.5 0-1 .7-1 1.6zm-10.8 3.4c.7 1 1.4 1.8 1.5 1.6.6-.6-.9-3.6-1.8-3.6-.5 0-.4.9.3 2zm-2.1 2.6c0 1.1.3 1.4.6.6.3-.7.2-1.6-.1-1.9-.3-.4-.6.2-.5 1.3zm12.9 0c0 .8.5 1.2 1 .9.6-.3 1-1 1-1.6 0-.5-.4-.9-1-.9-.5 0-1 .7-1 1.6zm-12.8 5c-1.3 1.4-.5 2 2.2 1.5.4-.1 1.6.4 2.5 1.1 1.4 1.1 1.4 1.1.4-.3-.7-.9-.9-2-.5-2.4.4-.5.1-.5-.7 0-.7.4-1.6.3-2-.3-.4-.6-1.1-.5-1.9.4zm13.9 2c0 1.1.3 1.4.6.6.3-.7.2-1.6-.1-1.9-.3-.4-.6.2-.5 1.3zm2.6-.9c-.4.3-.7 1.3-.7 2.2.1 1.3.3 1.3 1.1-.2 1.1-1.9.8-3.3-.4-2zm2.5 1.3c0 1.4.2 1.9.5 1.2.2-.6.2-1.8 0-2.5-.3-.6-.5-.1-.5 1.3zm-9.2 0c0 .5.5 1 1 1 .6 0 1-.5 1-1 0-.6-.4-1-1-1-.5 0-1 .4-1 1zm3 4c2.2 1.4.5 2.3-1.9 1-1.4-.7-2.1-.7-2.1-.1s1.1 1.3 2.4 1.7c1.3.3 2.9 1.5 3.5 2.7 1.1 2.1 1.1 2.1.5-.2-.5-1.8-.3-2.3.8-1.9.9.4 1.4-.2 1.5-1.6 0-1.1-.1-1.5-.4-.9-.3 1-.8.9-2-.2-.8-.8-2-1.5-2.6-1.5-.7 0-.6.4.3 1zm-55.2-58.3c1.2.2 3 .2 4 0 .9-.3-.1-.5-2.3-.4-2.2 0-3 .2-1.7.4zm9.9 0c1.8.2 5 .2 7 0 2.1-.2.7-.4-3.2-.4-3.8 0-5.5.2-3.8.4zm35.5 5.2c-1 .6-1 1.1.3 2.1.8.7 1.5 1.9 1.5 2.6 0 .8.6 1.1 1.7.7 1.1-.5 1.4-.3.8.6-.6 1-.3 1.1 1.4.2 2.5-1.4 2.8-2.6.5-1.7-1.1.4-1.5.2-1.1-.8.3-.8-.1-2-.9-2.6-.8-.7-1.4-.9-1.4-.4s-.4.4-.8-.3-1.3-.9-2-.4zm-7.8 4.4c-3.5 3.5-5.2 4.7-7.1 4.7-1.7.1-1.7.2.1 1.5 2.3 1.8 3.6 1.9 3.6.5 0-1.3 4.6-6.1 5.7-6 .5.1.9-.6 1.1-1.4.5-2.2-.9-1.9-3.4.7zm9.6 8.7c0 1.1.7 2 1.5 2 1.3 0 1.4-.4.5-2-.6-1.1-1.3-2-1.5-2-.3 0-.5.9-.5 2zm9 0c0 .5.5 1 1.1 1 .5 0 .7.6.3 1.2-.4.7-.4 1 .1.6.4-.4 1.4-.3 2.2.3.7.6 1.3.8 1.3.3-.1-1.3-5-4.7-5-3.4zm-789 26-16.5.5-7 4.6c-3.8 2.5-10.6 6.5-15 8.9-7.9 4.3-27.4 15.2-72.5 40.6-49.1 27.7-47.6 26.5-47.4 36.8.2 13.4 11.6 27.6 22.3 27.6 3.6 0 6.2-1 12.1-4.4 11.8-6.8 27.2-15.6 43.5-24.6 42.5-23.7 78-44 80.9-46.4 3.4-2.9 20.6-36.6 20.6-40.4 0-3.8-.3-3.8-21-3.2zm3.7 9c.2 1.9.9 3.9 1.6 4.5 4.1 3.3 4.1 4.1-.5 12.2-2.3 4.3-4.6 8.6-5 9.5-1 2.5-2.6 2.3-8.8-1.5-3.7-2.1-6.1-4.4-7.3-6.9l-1.9-3.8-3.1 2.4c-1.8 1.2-6.2 3.9-9.9 6-3.7 2-7.4 4.3-8.2 5.2-1.5 1.4-1.6 1.3-1.6-.8 0-1.3 1.2-5.7 2.7-9.9l2.7-7.6 8-4.8c4.5-2.7 9.2-5.7 10.5-6.7 2.1-1.6 3.9-1.8 11.5-1.6l9.1.3.2 3.5zm-48 16.2c-2.2 8.5-4.3 15.5-5 16.6-1.1 1.6-7.8 5.9-14.2 9-5.1 2.5-32.7 18.8-37.8 22.4l-2.8 1.9-4.1-3.5c-2.2-2-5.6-4-7.4-4.6-1.9-.7-3.4-1.5-3.4-1.9 0-.5 6.4-4.3 14.3-8.6 7.8-4.4 24.3-13.6 36.6-20.7 12.4-7 22.9-12.8 23.4-12.8s.7 1 .4 2.2zm-77.8 47.2c7.7 4 12.9 11 11.9 16.3-.4 2.4-14 9.6-15 8-.5-.8-.8-.5-.8.8-.1 1.9-.1 1.9-1.4.2-1.2-1.6-1.4-1.6-2-.2-1 2.7-2.9 1.4-9.4-6.1-3.6-4.3-7.2-7.4-8.8-7.8-2.5-.7-2.6-.8-.8-2 3.5-2.4 19.8-11.6 20.6-11.6.5 0 3 1.1 5.7 2.4z" />
    <path
        d="M79 657.7c-1.9.8-3 1.7-2.4 2 .7.2 2.7-.5 4.5-1.6 4-2.5 2.9-2.7-2.1-.4zm764.8-54.8c-8 2.6-13.9 8.1-16.8 15.6-1.4 3.4-.6 35.1 1 44.5.6 3 1.3 7.3 1.6 9.5 1.2 7.8 11.7 14.5 22.8 14.5 9.8 0 21.6-7.4 21.6-13.6 0-1.7.4-5.3.9-8 1.2-6.1 2.6-29.8 2.4-38.1-.3-10.3-5.5-18.7-14.1-22.9-4.1-2-15.1-2.8-19.4-1.5zm15.9 5.6c7.5 3.2 11.9 10.1 10.9 16.9-1.2 7.2-7.5 14.5-13 15.1-1.1.2-4.1.8-6.5 1.5-5.2 1.4-7.7.5-13.1-5-1.9-1.9-3.8-3.4-4.2-3.2-.5.1-.8-3.6-.8-8.2 0-7.7.2-8.7 2.7-11.7 5.4-6.3 16-8.7 24-5.4zm-19.2 35.9c.6.5-.5.1-2.4-1-1.8-1-4.1-3-4.9-4.4-1.5-2.4 0-1.3 7.3 5.4zm-2.7 8.4c.6 1.4.9 3 .5 3.6-.3.6-.3.8.2.4 1.1-1 6.5 3 6.5 4.8 0 1.6-.2 1.6-2.4.8-.9-.3-1.4-1-1.1-1.4.3-.4-.2-1.3-1-2-1.1-.9-1.3-.7-1.1 1.7.2 2 1.2 3.3 3.7 4.6l3.4 1.8-3.5-.6c-5.1-1-9.3-3.7-10.1-6.5-.4-1.4-.7-4.9-.8-7.8l-.1-5.3 2.3 1.8c1.3.9 2.9 2.8 3.5 4.1z" />
    <path
        d="M865.5 616c-.3.5-.1 1 .4 1 .6 0 1.1-.5 1.1-1 0-.6-.2-1-.4-1-.3 0-.8.4-1.1 1zm-17.8 2.1c.6 2.2 3.3 2.6 3.3.5 0-.7-.8-1.6-1.9-1.9-1.4-.3-1.7 0-1.4 1.4zm16.4 1.5c0 1.1.3 1.4.6.6.3-.7.2-1.6-.1-1.9-.3-.4-.6.2-.5 1.3zm2 0c0 1.1.3 1.4.6.6.3-.7.2-1.6-.1-1.9-.3-.4-.6.2-.5 1.3zm1.9-.1c0 .5.5 1.7 1 2.5s1 1 1 .5c0-.6-.5-1.7-1-2.5s-1-1.1-1-.5zm-28 2.6c0 .5.5.7 1 .4.6-.3 1-.8 1-1.1 0-.2-.4-.4-1-.4-.5 0-1 .5-1 1.1zm1.5 1.8c-.3.5-.1 1.2.4 1.5.5.3 1.1-.1 1.5-.9.6-1.6-.9-2.1-1.9-.6zm26.2.2c.7.7 1.5 1 1.8.7.3-.3-.2-.9-1.2-1.2-1.4-.6-1.5-.5-.6.5zm-25.7 6.3c0 .8.4 1.7.9 2 .5.4.7-.3.4-1.4-.6-2.3-1.3-2.6-1.3-.6zm25.1.2c0 1.1.3 1.4.6.6.3-.7.2-1.6-.1-1.9-.3-.4-.6.2-.5 1.3zm54.1 24.6c-1.8 1.8-1.6 2.2 3.8 5.9 2.7 1.9 5 3.7 5 4 0 .4-7.3 5-16.2 10.4-24.9 14.9-35.4 21.4-47.4 29.1-6 3.9-11.4 7.4-12.1 7.7-.6.4-8.7-4.1-18-9.9-27.2-17.2-32.4-20.5-39.8-24.9-3.8-2.3-9.6-5.8-12.8-7.8l-5.7-3.5 3.2-2.7c1.8-1.5 4.3-3.2 5.5-3.8 1.8-.8 2-1.3 1.2-2.4-1.8-2.1-4-1.5-10.4 2.7-3.3 2.2-6.3 4-6.7 4-.5 0-.8.6-.8 1.3 0 1.3.1 1.4 14.5 10.2 12.1 7.4 25.6 15.8 47 29.2 8.8 5.5 17.4 10.8 19.1 11.8l3.2 1.8 20.8-13c24.4-15.2 49-30.3 58.8-36.1l6.9-4-8.7-5.6c-4.8-3.1-8.8-5.6-8.9-5.6-.2 0-.8.5-1.5 1.2zm-169.3 10.6c.7 1.4.7 3.2-.2 6.3l-1.3 4.4-2.3-2.7c-1.2-1.4-2.8-2.5-3.5-2.4-1.3.2-15.6 8.5-16.6 9.6-.3.3-9.4 5.9-20.2 12.4-10.9 6.4-19.8 12.2-19.8 12.7 0 .6.5 2 1.1 3.1.6 1.2 1.3 3.5 1.4 5.3.3 2.6 0 3.1-1.6 3-1.1-.1-2.8-1.5-3.8-3.1s-3-4-4.4-5.2c-2.3-2.2-2.6-2.3-3.2-.5-.3 1-3.3 4-6.6 6.8-3.2 2.7-5.5 5.1-5 5.3.5.2 3.6-.4 6.9-1.2 12.1-3.2 16.1-1.5 11.7 4.9-1.8 2.7-2.5 5.1-2.5 8.5 0 5.4.4 5.9 10.5 11.9 3.9 2.3 18.5 11.6 32.5 20.7 14 9 26.5 16.7 27.6 17 1.5.4 5.7-1.8 15-7.7 7.1-4.5 22.8-14.3 34.9-21.7 12.1-7.4 25.7-15.8 30.3-18.6 4.5-2.8 8.2-5.3 8.2-5.7 0-1.4-19.4-14.2-53-34.9-7.4-4.6-14.6-9.3-16-10.5-2.1-1.9-2.8-2-4.8-1-1.3.7-2.4 1.6-2.4 2.1-.1.5-.9.8-2 .6-3-.5-2 .7 1.5 1.7 2.5.7 2.7.9.9 1-1.3.1-2 .5-1.7 1.1.4.6 1.5.8 2.6.5 1.8-.6 2.4.4 2 2.9-.1.4.3 1.4.9 2.1.8 1 .4 1.4-1.7 2-1.6.3-3 .7-3.3.7-.3 0-1.1.9-1.8 1.9-.7 1-2.3 2.4-3.5 2.9-2.2 1-2.2 1 .1-.6 2.5-1.9 3-4.7.7-3.8-.9.4-1.5 0-1.5-1 0-.9-.5-1.6-1.2-1.6-.6 0-.8-.3-.4-.7.4-.5 1.3-.1 1.9.7 1.6 2 6.4 2.2 7.2.2.4-1.1-.1-1.3-1.8-1-1.8.4-2.3 0-2.3-1.6.1-2.3-3.2-3.5-4.4-1.7-.3.6-2.1 1.3-4 1.6-3 .4-6.8 2.5-4.4 2.5.6 0 1.5-.5 2.1-1.1.7-.7 1.5-.5 2.7.7.9.9 1.4 1.9 1.1 2.2-.3.3-1.1-.3-1.9-1.3-.9-1.3-1.5-1.5-2-.6-.4.6-1.6.9-2.6.6-1-.3-2.5.1-3.3 1-.9.8-2.1 1.5-2.7 1.5-.6 0-.8.4-.5 1 .3.6-.1.7-.9.4-.9-.3-1.6-.1-1.6.5 0 .7 1 1.6 2.3 2.1 1.5.6 1.7.9.5.9-1.1.1-1.5.7-1.1 2.1.3 1.1.1 2-.4 2-.6 0-.9-1.1-.8-2.5.3-2-.1-2.5-2-2.5s-2.2.4-1.7 2.2c.5 2.1.4 2.2-1.1.9-1.5-1.2-1.7-1.1-1.7.2 0 .9-.5 1.9-1.2 2.3-.8.5-.9.2-.5-.9.9-2.3-.6-2.1-4 .5-1.5 1.3-4.4 3.1-6.4 4.1-4.4 2.3-8.9 6.1-8.9 7.6 0 .6-.5 1.1-1.1 1.1-.6 0-.9.7-.5 1.5.3.8 0 1.4-.7 1.2-.7-.1-1.1.6-1.1 1.5.1 1-.2 1.5-.7 1.2-1.2-.7-1.1-.1.4 3 .8 1.4 1.7 2.3 2 1.9.4-.3.7.1.7 1 0 1 .5 1.7 1.1 1.7.6 0 2.4.9 4 2.1 1.6 1.1 3.5 1.9 4.3 1.7.8-.2 4.5-4.1 8.3-8.8 6.2-7.6 7.7-8.9 15.1-12.5 4.5-2.3 10.8-6.3 14-9.1 8.3-7.3 16.9-13.4 18.8-13.4.9 0 8.7 4.4 17.3 9.9 33.2 20.9 38.6 24.3 39 24.7.7.6-4.3 4.2-14.9 10.6-12.1 7.2-51 31.4-58.7 36.4-2.8 1.9-5.4 3.4-5.8 3.4-1 0-61.7-39-64.2-41.3-3.8-3.4-3-7 2.4-11.4 2.5-2.1 7.6-6.4 11.2-9.6 6.3-5.7 18.7-14.2 43.7-30 6.7-4.3 12.4-8.4 12.8-9.2 1-2.7-2.8-9.6-6.5-11.6-1.8-.9-1.9-.8-1 .9zm19.5 23.1c-.4 1.4-.6 3.4-.6 4.4 0 .9-.3 1.5-.8 1.2-.5-.3-.8-1.3-.8-2.3 0-.9-.3-2.6-.7-3.7-.5-1.4-.4-1.6.3-.6 1.2 1.6 2.7-.3 1.6-2.1-.5-.7-.3-.8.5-.3.8.4 1 1.6.5 3.4zM757 704.4c0 .2-.8 1-1.7 1.7-1.6 1.3-1.7 1.2-.4-.4 1.3-1.6 2.1-2.1 2.1-1.3zm-4 2.5c0 .5-1.1 1.6-2.4 2.5-3.4 2.1-15.6 6.7-15.6 5.8 0-1.4 2.4-3.2 4.2-3.2 1.1 0 1.8-.7 1.8-1.9 0-2.4 1.8-3.1 7.2-2.6 3 .3 3.8.2 2.8-.5-1.3-.8-1.2-1 .3-1 .9 0 1.7.4 1.7.9zm-24.7 1.6c-.3.9-.8 1.4-1 1.1-.3-.3-.2-.9.2-1.5.9-1.6 1.5-1.3.8.4z" />
    <path
        d="M744.8 709.2c.5.5 1.6.8 2.3.6.8-.3.3-.7-1-1.1-1.7-.4-2.1-.3-1.3.5zm182.7-24.7c-.5.2-2.9.9-5.3 1.5-4.8 1.2-10.5 5.8-13 10.4-1.3 2.6-1.6 6.1-1.6 19.9.1 15.2.3 17 2.1 19.5 4.9 6.7 12.7 9.6 24.3 9 6.4-.2 8.4-.8 12.5-3.3 8-5 8.7-7.1 8.3-27.2l-.3-17.1-3.1-3.9c-1.6-2.1-5.1-4.8-7.6-6.1-4.2-2.1-13.9-3.8-16.3-2.7zm13.4 6.3c1.9.9 4.4 2.9 5.4 4.4 2.7 3.6 1.3 5.3-6.2 7.4-3.1.9-8.9 3-12.8 4.6-8.6 3.6-11.8 3.3-13.7-1.4-2.9-6.8 2.6-14.5 11.9-16.9 4.1-1.1 11.2-.2 15.4 1.9zm-24.7 26.1c4.5 2.6 14.2 4.4 19.2 3.7l4.1-.7-3.5 3.1c-3.2 2.8-4 3.1-9 2.8-7.9-.5-13.3-3.4-14.1-7.6-.4-1.7-.5-3.2-.3-3.2.1 0 1.8.9 3.6 1.9zM759 688.1c0 .5.5.7 1 .4.6-.3 1-.8 1-1.1 0-.2-.4-.4-1-.4-.5 0-1 .5-1 1.1zm-5 1.9c-.8.5-1.2 1.2-.9 1.5.4.3 1.2-.1 1.9-1 1.4-1.7 1.1-1.9-1-.5zm-632.5 20.8c-3.7 2-5.2 3.5-5.9 5.8-.9 2.9-1.2 3.1-4.6 2.7-10.3-1.4-15.9 9.1-8.3 15.7 3.2 2.8 4.1 3.2 7.7 2.7 4.3-.6 9.6-5.2 9.6-8.3 0-.8.6-1.4 1.3-1.2 3 .8 16.7 6.4 16.7 6.8 0 .4-6.3 4.2-30.3 18.2-5.9 3.5-6.6 4.1-5.7 5.8.6 1.1 1.3 2 1.6 2 .4 0 5.2-2.6 10.8-5.8 5.5-3.3 14.6-8.5 20.1-11.6 11.4-6.6 13-7.9 12.2-9.9-.3-.8-5.9-3.5-12.4-6.1-6.5-2.6-12.3-5.3-13-5.9-.9-.9-.8-1.9.2-4.5 1.6-3.6 3-3.9 6.3-1.6 2 1.4 2.4 1.3 4.9-1.2l2.6-2.6-2.4-1.9c-3.3-2.5-5.5-2.3-11.4.9zm-7.6 15c2.2 4.2-3.8 9.2-7.5 6.2-1.7-1.5-1.8-5.2-.2-6.8 1.8-1.8 6.6-1.5 7.7.6zM794 714.6c-1.3 1.5-.6 1.7 2.4.5 1.7-.6 1.7-.8.3-1.4-.8-.3-2.1.1-2.7.9zm10.2 6.3c-1.1.7-1.1.9 0 1.4.9.3 1.5-.1 1.5-.9s-.1-1.4-.1-1.4c-.1 0-.7.4-1.4.9zM771 727c-1.3.8-1.2 1 .3 1 .9 0 1.7-.5 1.7-1 0-1.2-.1-1.2-2 0zm-702.9 2.2c-5.6 2.9-8.1 7.4-8.1 14.5 0 4.2-.4 5.4-2 6.3-2.3 1.2-5 6-5 8.9 0 3 4.6 7.8 8.1 8.5 6 1.2 11.9-3.6 11.9-9.6 0-1.1-1.8-4-4-6.4-4.7-5.1-5.3-7.7-1-4 11 9.2 27.4-.9 21-12.9-1.9-3.5-6.8-6.4-12.1-7.1-3.4-.4-5.4 0-8.8 1.8zm12.4 4.2c1.9.8 4 2.7 4.7 4.1 1 2.2.8 3-.9 5.3-2.7 3.6-10.2 4.2-15 1.2-6.4-3.9-2.4-11.1 6.5-11.9.7 0 2.8.6 4.7 1.3zm-13.5 22c1.6 2.1-.8 7-3.7 7.4-3.1.5-5.5-3.3-4.1-6.4 1.3-2.8 5.8-3.3 7.8-1zm529-27.1c-6.8 3.6-14.1 9-17.3 12.8-5.7 6.6-16.9 29.4-13.4 27.2.6-.4-.4.9-2.4 2.9-3.5 3.5-5.4 7.4-4.1 8.2 1.3.8 16.5-5.9 34.9-15.3 20.6-10.5 24.3-13.5 24.3-20.2 0-11.2-13-20.4-22-15.6zm11.8 5.9c1.2 1.2 2.2 2.5 2.2 2.8 0 .4-2.6 1-5.7 1.4-7 .8-9.3 2-7.5 3.8 2.2 2.2 1.3 3.5-4.5 7.4-3.2 2.1-9.5 6.7-14 10.1-4.6 3.5-8.7 6.3-9.3 6.3-.5 0-1 .5-1 1.1 0 .5-.4.8-1 .4-.7-.5 11.1-19.2 16.2-25.6 1.3-1.6 12.7-8.9 15.8-10.2 2.3-.9 6.3.2 8.8 2.5zm182.9-5.5c-1 .3-1.6 1.1-1.4 1.8.3.7 0 1.8-.6 2.4-.7.7.3.5 2-.4 3.5-1.7 5.6-3.9 2.7-2.8-1.2.4-1.5.3-1-.5.4-.7.6-1.1.4-1.1-.2.1-1.1.3-2.1.6zm-95.8 2.4c-.6 1.3-.7 2.4-.2 2.8.5.3 4.5 2.8 8.9 5.6 4.3 2.7 16.3 10.2 26.6 16.7 17.6 11 21.8 12.9 21.8 9.4 0-.6-3.9-3.6-8.6-6.6-4.7-3-10.7-6.9-13.4-8.7-2.8-1.7-9.4-5.7-14.7-8.9-5.4-3.1-11.9-7.2-14.5-9-4.7-3.3-4.8-3.3-5.9-1.3zm149.5 9.7c-18.5 11.6-45.3 28.7-57.4 36.7-6.9 4.5-13.9 8.9-15.5 9.8-4 2-7.1 5.5-5.9 6.6 1.2 1.1 22.8 15.2 42.4 27.6 8.5 5.4 18.3 11.8 21.8 14.2 3.5 2.4 6.8 4.3 7.4 4.3.6 0 9.7-5.3 20.1-11.8 10.4-6.4 25.9-16 34.3-21.2 8.5-5.2 20.3-12.6 26.4-16.3 6-3.8 11-7.3 11-7.8 0-.9-8.7-6.7-41-27.4-7.8-5-17.7-11.4-22.2-14.3-4.4-2.9-9-5.4-10.2-5.7-1.4-.2-5.3 1.6-11.2 5.3zm28.9 10.9c10 6.4 22.5 14.3 27.7 17.6 22.1 14 20.4 12.7 18.4 14.3-1.1.8-14.7 9.4-30.4 19.2-15.7 9.8-32 20.1-36.3 22.8-4.3 2.7-9.5 5.9-11.6 7.1l-3.7 2.2-27-17.3c-37.2-24-37.9-24.5-36.3-26.1.8-.7 15.6-10.4 32.9-21.5 17.3-11.1 34.9-22.4 39-25.1 4.1-2.7 7.8-4.9 8.3-4.9.4 0 9 5.2 19 11.7z" />
    <path
        d="M845.3 752.8c-4 2.6-13.2 8.5-20.5 13.1-7.3 4.6-19.4 12.5-27.1 17.5l-13.8 9.1 2.8 2.3c1.5 1.2 6.2 4.3 10.3 6.8 8.4 5.2 21.6 13.6 32.3 20.6 4 2.6 7.6 4.8 8 4.8.5 0 6.8-3.7 14-8.2 7.3-4.4 17-10.5 21.7-13.3 17.9-11 31.6-19.6 33.9-21.3l2.3-1.9-14.8-9.3c-8.2-5.2-20.3-12.9-26.9-17.2-6.6-4.3-12.7-7.8-13.5-7.7-.8 0-4.7 2.2-8.7 4.7zm18.2 6.8 8.3 5.6-5.2 4.3c-2.9 2.3-10.4 7.8-16.7 12-6.3 4.3-12.8 8.9-14.5 10.2-1.7 1.2-3.4 2.3-3.8 2.3-.4 0-1.9.8-3.4 1.8-1.5 1.1-5.4 3.7-8.7 5.9l-6.1 4-9.7-6.1c-5.3-3.4-9.7-6.4-9.7-6.8 0-.4 4.1-3.3 9.1-6.5s13.3-8.6 18.6-12.1c5.2-3.5 10.2-6.6 11.1-7 .9-.4 5.1-2.9 9.2-5.6 4.1-2.7 8.4-5.5 9.5-6.2 1.1-.7 2.4-1.3 2.8-1.3.5-.1 4.6 2.4 9.2 5.5zm18.5 11.1c1.4.9 2.7 1.8 3 2 .2.2-.2.9-1 1.4-1.2.9-1.2 1 .3.5 1.9-.6 11.3 4.9 12.2 7.3.8 2-.9 3.5-9.3 8.6-4.3 2.6-10.2 6.1-13.2 8-3 1.9-8.3 5.1-11.8 7.2-3.4 2.1-10.3 6.4-15.3 9.6l-9.1 5.9-9.4-5.7c-5.2-3.2-9.4-6-9.4-6.4 0-.9 5.6-5.1 13.5-10 3.9-2.4 8.6-5.5 10.5-6.8 18-12.1 28-18.9 30.5-20.9 3.6-2.8 5.2-3 8.5-.7zm-111.2-34c.7.3 1.6.2 1.9-.1.4-.3-.2-.6-1.3-.5-1.1 0-1.4.3-.6.6zm9.7.3c-.4.6-1 .8-1.5.5-.4-.3-1.5-.2-2.4.1-1.3.5-1.4.9-.5 2 .9 1.1.7 1.4-.9 1.4-1.2 0-2.4.5-2.8 1.1-1.1 1.8 3.7-.1 7.4-2.9 1.7-1.3 3.2-2.6 3.2-2.8 0-.8-1.9-.3-2.5.6zM657 742.6c-3.6 2-22 12.7-41 23.7s-40.1 23-47 26.5c-15.6 8.1-17 9.3-17 14.7 0 3.2.6 4.7 2.8 6.7 1.5 1.4 16 10.9 32.2 21.1 16.2 10.1 36.7 23 45.5 28.7 8.8 5.6 19.2 12.3 23 14.7 3.9 2.4 12.2 7.8 18.5 11.9 6.3 4.1 19.2 12.3 28.5 18.1 9.4 5.9 20.7 13 25.1 15.9 9.3 6.1 12.3 7.1 15.6 5.3 3.1-1.6 57.7-35.1 65.8-40.4 3.6-2.3 12.5-7.9 19.7-12.4 7.3-4.5 13.8-9.1 14.3-10.2 2.5-4.6-1.4-8.4-21.5-20.9-8.2-5.1-26.7-17-41-26.5s-34.5-22.6-44.8-29.1c-12.2-7.7-19.2-12.7-19.8-14.2-.5-1.3-.9-4.1-.9-6.3 0-5-2-7.1-12-12.8-4.1-2.4-11.2-6.7-15.7-9.7-15-9.8-19.8-10.6-30.3-4.8zm23.4 6.6c4.8 2.9 10.2 6.5 11.9 8l3.2 2.8-3.4 3c-1.9 1.6-3.7 2.8-3.9 2.5-.7-.7-6.2 2.5-6.2 3.6 0 .6-.4.8-.9.4-.5-.3-1.2-.1-1.6.5-.3.5-.1 1 .5 1s.2.9-.9 2.1c-1.1 1.2-2.4 1.8-3 1.4-.6-.3-1.1-.1-1.1.4 0 .6-.8 1.1-1.7 1.1-1.5 0-1.6-.2-.3-1 .8-.5 1-1 .4-1-1.8 0-2.4 1.3-1.3 2.7.9 1 .8 1.3-.5 1.3-.9 0-1.6-.5-1.6-1 0-.6-1.3-.4-3 .5-1.8.9-2.8 2.1-2.4 2.7.5.7.2.8-.6.3s-2 .1-3.2 1.6c-1.1 1.3-1.6 1.8-1.2 1 .4-.9.2-1.2-.7-.9-.8.3-1.5 1.5-1.7 2.9-.4 2.5-2.7 4.9-4.9 4.9-.7 0-1-.6-.7-1.5.4-.8.1-1.5-.6-1.5-.6 0-1.4.9-1.7 2-.3 1.1-1 1.7-1.7 1.3-.6-.4-.4.2.4 1.2s1 1.6.4 1.2c-.7-.4-1.7 0-2.4.8s-1.6 1.2-2.1.9c-1.7-1-7.1.7-6.5 2.1.5 1.3-2.2 3-3.2 2-.3-.3.1-.5.8-.5.7 0 1.1-.3.8-.6-1-1-6.9 2.6-6.2 3.8.4.7.3.8-.4.4-.6-.4-3 .5-5.2 1.9-3.3 2.1-3.9 2.9-3 4 .8 1 .8 1.5-.1 2.1-.7.4-.9.3-.5-.4.9-1.5-1-2.4-3.6-1.6l-2.1.6 2.2 1.2c2.2 1.2 2.1 1.3-1.6 3.2-2.1 1-4.4 2.5-5.2 3.2-2 1.9-5.8 3.2-7.5 2.6-1.5-.6-4.6.7-6.8 2.9-.7.7-2.2 1.8-3.2 2.4-2 1.1-3 5.3-1.3 5.3.6 0 .8.2.5.5-.9 1-3.8-.7-3.1-1.8.4-.6 0-.8-.9-.5-1.5.6-4.6-1-17.8-9.3-16.6-10.4-16.7-11.2-2-18.9 5.8-3.1 12.8-6.8 15.5-8.4 13.6-7.7 27.4-15.7 40.5-23.4 29.6-17.6 40.3-23.2 44.1-23.2 2.5 0 6.1 1.5 12.3 5.2zm18.4 32.4c-2.1 1.5-3.5 3.1-3.2 3.6.3.5 1.1.5 1.7.1 2.2-1.6 8.7-3.4 9.7-2.8.5.3 1 .1 1-.4 0-.6-.5-1.1-1.1-1.1-.5 0-.7-.5-.4-1 1-1.6 2.1-1.2 4.6 1.5 1.3 1.3 3 2.5 3.6 2.5 2.2 0 43.3 26.8 43.3 28.2 0 .5.6.6 1.3.2.9-.6.9-.4-.1.8-1.1 1.4-1 1.7.7 2.3 1.2.3 2.5.3 3.1 0 .6-.3 3.2.8 6 2.6l4.9 3.2-3.2 1.8c-1.8 1-5.2 2.8-7.7 4-4.2 2.1-19.4 11.3-30.5 18.4-10.3 6.7-13.5 8.5-15.1 8.5-1 0-1.5.3-1.1.6.7.7-6.1 5.7-14.3 10.4-7.9 4.7-13.1 8.2-16 10.7-1.4 1.3-3.2 2.3-4 2.3-.8 0-5.3-2.6-10-5.7-4.7-3.2-13-8.5-18.5-11.8-28.8-17.6-41.2-26.8-38.4-28.6.7-.4 1.9-.3 2.6.3.9.7 1.7.5 2.9-.7.9-.9 2.3-1.4 3.1-1.1.8.3 1.1.1.8-.4-.3-.6.5-1.4 1.8-1.9 2.4-.9 4.5-4.1 2.8-4.1-.5 0-1.1.4-1.3.8-.4.9-7.8 5.4-7.8 4.7 0-.6 19.4-13.2 26.2-17 2.9-1.6 5.8-2.9 6.5-2.9.7.1 1.1-.2 1-.7-.1-.5 1.8-2.1 4.3-3.6s3.9-2 3.2-1.1c-1 1.3-.9 1.6.7 2.1 1.5.3 1.8.1 1.4-1.2-.4-1.2-.1-1.2 1.1.3 1.5 1.8 1.6 1.8 4.3.1 1.6-1.1 2.3-2 1.5-2.3-2.3-.7-1.2-3.3 1.8-3.9 1.7-.3 3-.9 3-1.4 0-.5-.2-.9-.5-.9-1.3 0-6.2 3-7.4 4.4-.8.9-2.1 1.6-3 1.6-2.2-.1 0-1.7 12.9-9.5 5.8-3.4 13.4-8.1 17-10.3 7.3-4.6 10.4-5.6 4.8-1.6zM669 803.4c0 .3-.4.8-1 1.1-.5.3-1 .1-1-.4 0-.6.5-1.1 1-1.1.6 0 1 .2 1 .4zm-70.7 19.4c-1 1-2 1.7-2.2 1.6-.6-.5 2-3.4 3-3.4.5 0 .1.8-.8 1.8zm-4.1 7.4c-.6.6-.7 0-.4-1.9.5-2.1.7-2.3 1-.9.2 1 0 2.2-.6 2.8zm203.7 7.7 2.5 1.9-6.3 4.1c-3.5 2.2-6.9 3.8-7.5 3.4-3.3-1.9-12.6-8.7-12.6-9.2 0-.8 7.9-5.4 10.5-6.2 2.1-.6 9.1 2.5 13.4 6zm-22.7 9.1c3.7 2.3 6.8 4.2 6.8 4.4 0 .8-12.8 8.6-14.1 8.6-.7 0-4.2-1.9-7.6-4.2-5.9-4-7.6-5.8-5.4-5.8.5 0 3.3-1.6 6.2-3.5 3-1.9 5.8-3.5 6.3-3.5s4 1.8 7.8 4zm41.1 1.2c12.3 7.5 21.9 14.7 21.2 15.8-.4.6-3.9 3.2-7.9 5.8l-7.3 4.8-1.7-4.7c-.9-2.8-2.8-5.6-4.4-6.7-4.3-3.1-18.3-11.2-19.2-11.2-.5 0-1.1-.4-1.5-1-.6-.9 9.1-8 11.1-8 .6 0 5 2.4 9.7 5.2zm-14.5 10.2c12 7.7 14.4 10.5 14 16-.3 4-.6 4.3-9.5 10.1-9 5.9-21.2 13.7-22.4 14.3-.4.1-.9-1.5-1.3-3.6-.8-5.3-4.5-8.6-16-14.7-5.3-2.8-9.4-5.4-9.3-6 .3-.7 33.4-22.5 34.4-22.5.1 0 4.7 2.9 10.1 6.4zm-50.7-1.5c1.3 1 4.3 2.8 6.7 4 2.3 1.2 4.2 2.5 4.2 2.9 0 .4-2.9 2.5-6.4 4.5l-6.5 3.8-7-4.7-7-4.6 5.7-3.8c6.7-4.5 7.2-4.6 10.3-2.1zm-14 14.3c3.8 2.4 6.9 4.5 6.9 4.8-.1.8-11.9 8-13.2 8-1.3 0-13.8-8.9-13.8-9.8 0-1 10.2-7.2 11.9-7.2.8 0 4.5 1.9 8.2 4.2zm18.4 5.9c.4.6 3.9 3.1 7.9 5.6 9.1 5.8 12.3 8.8 13.6 12.9 2.1 6.2 2.3 6-26.7 23.8-5 3.1-9.8 5.6-10.7 5.6-.9 0-5.6-2.6-10.4-5.9-4.8-3.2-11.3-7.5-14.4-9.4-3.2-2-5.8-4.1-5.8-4.7 0-.6 2.1-2.3 4.6-3.8 2.5-1.5 12.5-7.7 22.2-13.9 9.7-6.1 18-11.2 18.4-11.2.4-.1 1 .4 1.3 1zm-43 1.8c.3.6 3.2 2.5 6.5 4.3 3.3 1.8 6 3.5 6 3.8-.1 1.1-10.5 8-12.3 8-1.8 0-13.7-7.8-13.7-9 0-.4 1-1.2 2.3-1.9 1.2-.6 3.7-2.3 5.6-3.6 3.7-2.7 4.7-3 5.6-1.6zm-7.7 18.4c1.1.8 1 1.3-.2 2.5-1.9 1.9-4.3.9-10.4-4.1-3.6-3.1-4-3.7-2.6-4.5 1.3-.7 3.1-.2 6.8 2 2.8 1.7 5.7 3.5 6.4 4.1z" />
    <path
        d="M654.3 784.7c-1.7.6-1.7 2 0 2.6.8.3 1.3-.3 1.3-1.4 0-1.1 0-1.9-.1-1.8l-1.2.6zm42.3 2.8c-1.1.8-1.5 1.5-.9 1.5s1.6-.7 2.3-1.5c1.6-1.9 1.1-1.9-1.4 0zm-7.8.9c-1.3 1-1.5 1.5-.6 2.4 1.6 1.6 3.3 1.5 4.8-.3s-.1-2-1.9-.3c-1.1 1.1-1.2.9-.6-1 .7-2.5.6-2.6-1.7-.8zm-6.8 3.1c-1.4.8-2 1.5-1.5 1.5.6 0-.1.6-1.4 1.3-1.3.6-2.2 1.5-2 1.8.7 1.1-2.3 3.9-4.3 3.9-1.2 0-1.8.5-1.5 1.2.6 1.8 1.6 1.4 10.2-3.4 4.1-2.3 7.4-4.7 7.1-5.3-.2-.5-.9-.9-1.5-.8-.6.2-1.1-.2-1.1-.7 0-1.3-1-1.2-4 .5zM655.5 808c-.4.6.5 1 1.9 1s2.6.5 2.6 1.1c0 .8.5.7 1.5-.1 1.3-1.1 1.3-1.5.3-2.1-1.8-1.2-5.6-1.1-6.3.1zm-4.1 4.5c1 .7 1.5 1.8 1.1 2.4-.9 1.6.4 1.3 2.1-.4 1.4-1.3 1.4-1.5 0-1.5-.9 0-1.6-.5-1.6-1 0-.6-.8-1-1.7-1-1.7.1-1.7.2.1 1.5zm-4.2 1.4c-.8.4-1.3 1.2-1.2 1.7.1.5-.4 1-1.1 1.3-.7.2-.9-.1-.5-.8.5-.7.1-.9-.9-.4-1.2.4-1.3.8-.5 1.3.7.4-.3 1-2.5 1.4-2.6.5-3.5 1.1-3.1 2.1.3.9 0 1.2-1 .8-.7-.3-1.4 0-1.4.6s.8 1.1 1.8 1.1c1.4 0 1.5.2.2 1-2.7 1.7 0 1.1 4.1-1 2.2-1.2 3.7-2.5 3.4-2.9-.2-.5.2-1.5 1.1-2.2 1.3-1 1.7-1 2.4 0 .5.9 1 1 1.4.3.3-.6.2-1.3-.4-1.7-.5-.3-1-1.1-1-1.6 0-.6.5-.7 1.2-.3.7.4.8.3.4-.4-.8-1.4-.7-1.4-2.4-.3zm98.4 5.4c.3 1 .9 1.5 1.2 1.2.3-.3 0-1.1-.7-1.8-1-.9-1.1-.8-.5.6zm22.6 2.3c-1.4 1.6-.5 1.8 1.7.5.7-.5.9-1.1.5-1.4-.5-.3-1.5.1-2.2.9zM631 823c-1 .6-1.1 1-.3 1 .7 0 1 .7.7 1.7-.4 1.1-.2 1.4.3.8.4-.6 1.1-1.2 1.5-1.5 1.4-1.1-.7-2.9-2.2-2zm123 6.1c0 .5.5.7 1 .4.6-.3 1-.8 1-1.1 0-.2-.4-.4-1-.4-.5 0-1 .5-1 1.1zm-31 3.3c0 .2.7.7 1.6 1 .8.3 1.2.2.9-.4-.6-1-2.5-1.4-2.5-.6zm40.5 13.9c-3.7 2-6.8 4.8-6 5.5.5.5 5.7-2.5 8.4-4.8 3.3-2.9 2.3-3.1-2.4-.7zm6.1-106.4c-.4.7-.5 1.5-.2 1.8.9.9 1.9-.4 1.4-1.8-.4-1.1-.6-1.1-1.2 0zm-3.1 4.8c-1.6 1.3-1.7 1.5-.2 1 .9-.4 1.7-.2 1.7.4 0 .6.5.7 1.1.3.8-.5.8-.9-.1-1.4-.9-.6-.9-.9.1-1.3.8-.3 1-.6.4-.6-.5 0-1.9.7-3 1.6zm-624.8 9.7c-6.7 3.5-18.1 9.7-25.2 13.8-7.2 4.1-16.2 9.1-20.1 11.2-3.9 2-8.4 5.1-10 6.7l-2.9 3v14.2c0 13.3.2 14.4 2.3 17.5 1.5 2 12.2 9.8 27.5 19.9 13.9 9.2 47.9 31.7 75.7 50.1 27.8 18.4 52.3 34.3 54.5 35.3 7.9 3.7 12.5 2.5 28.4-7 5.3-3.2 15-8.9 21.6-12.6 21.9-12.5 29.4-17.5 31.3-20.8 1.3-2.5 1.7-5.7 1.7-14.9 0-10.3-.3-12-2.1-14.5-1.1-1.5-24.3-17.7-51.5-35.8-50.1-33.5-81.2-54.5-95.1-64.2-15.3-10.7-18.9-10.9-36.1-1.9zm26 .8c4 2.4 14.1 9.2 44.3 29.7 38.1 25.9 38.2 25.9 36.3 32.5-1 3.5-4.8 6.3-21.8 15.8-18.8 10.6-23.5 12.8-27.4 12.8-4.2 0-5.8-.9-32.1-18-9.6-6.2-26-16.8-36.5-23.6-22.7-14.6-25.5-16.8-25.5-19.9 0-3.1 1.7-4.7 10.3-9.6 4-2.3 8.9-5.2 10.9-6.5 2-1.3 9.3-5.3 16.2-8.9 14.3-7.4 18.7-8.2 25.3-4.3zM94 789.1c-.7 1.1-1 2.2-.8 2.3 5 3.1 13.1 10.6 12.3 11.4-1 1-16.5-9.9-16.5-11.6 0-.6 4.8-4.1 5.8-4.2.1 0-.2.9-.8 2.1zm69.5 64c40.5 27 75.6 50 78 51.2l4.4 2.2.1 6.7c0 5.4-.3 6.8-1.5 6.8-.8 0-20.6-12.7-44-28.3-23.4-15.5-57.4-38.1-75.6-50.1-18.2-12.1-33.7-22.9-34.4-24-1.6-2.5-2.4-13.6-1.1-13.6.3 0 33.6 22.1 74.1 49.1zm106.5-11c12 2.8 20 10.8 20 20.3 0 11.8-19.9 21.2-37 17.5-3-.6-6.5-1.2-7.7-1.3-1.1 0-1.9-.4-1.7-.8.3-.4-.9-1.4-2.5-2.3-4.2-2.1-7.9-7.3-8.6-12-2.4-15.1 17-26.1 37.5-21.4zm15 33.4c-.7.8-1.7 1.5-2.3 1.5-.6 0-.2-.7.9-1.5 2.5-1.9 3-1.9 1.4 0z" />
    <path
        d="M170 771.4c0 .3.9 1 2 1.6 1.1.6 2 .8 2 .6 0-.3-.9-1-2-1.6-1.1-.6-2-.8-2-.6zm-29.6 5c-6.4 3-9.4 6.7-9.4 11.7 0 5.6 1.5 8.5 6 11.8 5.8 4.2 13.6 5.8 20.8 4.3 14.5-3 20.3-14 12.5-23.3-6-7.1-19.8-9.2-29.9-4.5zm15.7 2.6c5.3 2.9-.2 10-7.7 10-7.8 0-10.3-6.2-3.9-9.8 2.5-1.4 9-1.5 11.6-.2zm8.3 2c3.5 3.1 3.5 3.1 2.1 7-.8 2.2-1.1 4-.7 4 .4 0-.1.7-1.1 1.4-1.2.9-1.4 1.6-.8 2.1.6.3 1.1.1 1.1-.4 0-.6.5-1.1 1.2-1.1 3 0-2.2 3.1-7.5 4.5-8 2.1-12.5 1.9-17.2-.8-5.3-3-7-6.2-6-11.3l.8-3.9.7 3.7c1 5.3 3.4 7.5 9.6 8.8 5.5 1.2 10.2.7 13.9-1.3 1.1-.6 2.5-1 3-.8.6.1.7 0 .3-.4-.4-.4-.3-1.8.3-3.2.6-1.6.5-3.1-.2-4.5-.8-1.5-.8-1.9 0-1.4.6.4 1.1.3 1.1-.3s-1.3-1.7-3-2.6c-3-1.6-3.8-2.5-2-2.5.5 0 2.5 1.4 4.4 3z" />
    <path
        d="M165 785.1c0 .5.5.7 1 .4.6-.3 1-.8 1-1.1 0-.2-.4-.4-1-.4-.5 0-1 .5-1 1.1zm10.1-9.8c3.2 2.6 6.9 4.7 6.9 4 0-.9-5.2-4.3-6.6-4.3-.4 0-.5.1-.3.3zm2.1 27.9c-5 2.9-9.2 5.8-9.2 6.4 0 .6 3.7 3.7 8.3 6.9 4.5 3.3 10.9 7.9 14.2 10.3 9.7 7.2 9.3 7.1 18.2 1.8 9.2-5.5 11.3-7 11.3-8.3 0-1.6-30.4-22.3-32.8-22.3-.4 0-4.9 2.4-10 5.2zm14.4 3.8c2.4 1.7 4.4 3.3 4.4 3.5 0 .8-8.9 6.5-10.2 6.5-1.9 0-9.5-7-8.2-7.6.6-.3 2.6-1.6 4.4-2.9 1.9-1.4 3.8-2.5 4.3-2.5.4 0 2.8 1.4 5.3 3zm14.1 9.3c1.5 1.3 3.6 2.8 4.7 3.4 1.6.9 1.1 1.4-3.9 4.6l-5.8 3.6-4.3-3.1c-2.4-1.7-4.4-3.5-4.4-4 0-1.1 8-6.8 9.6-6.8.7 0 2.5 1.1 4.1 2.3zm4.3-17.5c0 .8 10 7.5 10 6.6 0-1-2.8-3.4-3.9-3.4-.6 0-1.1-.4-1.1-.8 0-.5-1.1-1.4-2.5-2-1.4-.6-2.5-.8-2.5-.4zm14.3 9.7c0 .8.4 1.2.9.9.5-.3.6-1 .3-1.5-.9-1.3-1.2-1.1-1.2.6zm2.2 1.4c-.3.6-.2 1.1.4 1.1.5 0 3 1.6 5.5 3.5 4.8 3.6 5.6 4 5.6 2.7 0-.4-1.5-1.6-3.2-2.6-1.8-1.1-4.3-2.8-5.4-3.8-1.4-1.3-2.4-1.6-2.9-.9zm44.4 45.2c-.8 1.7-.8 2 .1 1.4.8-.5 1.1-.3.8.6-.3.8-1.2 1.4-2 1.3-.9-.1-1.4.9-1.4 3 .1 2.7-.2 3.1-2.4 2.8-1.4-.2-5.6-.5-9.5-.7-6.5-.5-6.8-.4-3.6.8l3.3 1.3-2.3 1.2c-2.4 1.2-2.4 1.2-.1.8 2.7-.5 2.8.2.5 2.1-1 .8-1.3 1.2-.7.9.5-.2 2.9 0 5.3.5 7 1.6 19.1-3.1 17.7-6.8-.3-.8-.1-1.1.4-.8.6.4 1-.8 1-2.7 0-2.5-.3-2.9-1-1.8-.8 1.3-1 1.2-1-.4 0-1.5-.3-1.6-1.5-.6-1.3 1.1-1.4 1-.9-.4.3-.9.1-1.6-.5-1.6s-1.1-.5-1.1-1.1c0-.5.5-.7 1.2-.3.7.4.8.3.4-.4-1-1.6-1.4-1.5-2.7.9zm.1 6.9c0 .5-.4 1-1 1-.5 0-1-.5-1-1 0-.6.5-1 1-1 .6 0 1 .4 1 1zm-22-2.1c0 .5.7 1.2 1.6 1.5 1.4.5 1.5.4.4-.9-1.4-1.7-2-1.9-2-.6z" />
    <path
        d="M249.6 865.9c-.4.5.3.7 1.4.4 2.3-.6 2.6-1.3.6-1.3-.8 0-1.7.4-2 .9zM453 822.1c-15.1 8.9-31.5 18.5-36.5 21.4-14.9 8.8-30.3 17.7-44.1 25.8-7.2 4.2-13.8 8.5-14.8 9.6-2.3 2.6-3.2 10.2-1.6 13.8.6 1.6 2.6 4 4.3 5.4 5.8 4.7 105.5 70.9 109.1 72.4 5 2.1 7.9 1.9 13.7-1.1 2.8-1.4 23-13.3 44.8-26.4 58.8-35.3 61.9-37.2 65.8-40.4 8.5-7 8.4-18.9-.3-24.7-4.6-3.1-51-33-87.4-56.4-3.6-2.3-10.4-6.7-15.2-9.8-4.8-3.2-9.1-5.7-9.5-5.7-.5 0-13.2 7.3-28.3 16.1zm34.4-6.8c15.2 10 26.7 17.4 40.6 26.2 15.3 9.7 26.6 17 50.8 32.8 6.7 4.4 12.1 8.5 11.9 9-.5 1.7-14.5 10.9-29.1 19.3-20.1 11.5-21.1 12.1-32.1 18.9l-9.9 6.3-11.1-7.4c-6-4-12.8-8.7-15.1-10.4-2.3-1.6-4.4-3-4.8-3-.3 0-3.9-2.2-7.9-4.9-3.9-2.7-15.7-10.6-26.2-17.6-10.4-6.9-21.1-14.1-23.7-15.8-2.6-1.8-8.6-5.7-13.3-8.7-4.7-3-8.5-5.8-8.5-6.2 0-.4 1-1.3 2.3-1.9 3.3-1.7 45.6-26.3 57.7-33.5 5.8-3.5 11.1-6.3 11.9-6.4.8 0 3.7 1.5 6.5 3.3zm-33.5 74.8c63.4 42.4 62.1 41.4 62.3 44.7.3 5.4-.4 7.7-2.5 9.5-4 3.1-21.8 13.9-22.3 13.5-.2-.3-.6-2.7-.8-5.3l-.4-4.8-15.8-11c-8.8-6-25.3-17.3-36.9-25-11.5-7.8-21.2-14.4-21.5-14.7-.3-.3-7.5-5.2-16-10.9-15.8-10.6-21.3-15-19.5-15.7.6-.2 5.7-3.3 11.5-6.8s10.9-6.5 11.4-6.5c.4-.1 23.1 14.8 50.5 33zm-89-7.4c-1.2 1.4-1.2 1.6.1 1.1.9-.3 2.1.4 2.8 1.6.8 1.2 1.1 1.4.8.5-.3-1.3 0-1.5 1.5-1.2 1 .3 1.9.9 1.9 1.3 0 .5 1 1.2 2.2 1.6 1.2.3 3.1 1.5 4.2 2.6 1.1 1 5.5 4 9.6 6.5 11.8 7.3 41.5 26.9 43.1 28.5.8.8 3 2.2 4.9 3.1 2 1 4.7 2.8 6.1 4.1 1.4 1.3 3.4 2.7 4.5 3 2.5.9 10.1 7.6 8.6 7.6-.7 0-1.2.5-1.2 1.1 0 .8.4.8 1.4 0 1.4-1.2 4.1-.6 6.3 1.3 3.1 2.8 4.1 3.4 8.1 5.1 7.3 3.3 4.8 7.5-4.5 7.5-3.5 0-5.9-.8-8.9-2.8-2.3-1.5-7.1-4.7-10.8-7-4-2.7-6.3-4.8-5.9-5.5.3-.7.2-.9-.2-.5-1.5 1.4-16.3-8.4-15.8-10.3.2-.5-.3-.6-1-.4-.6.3-5.2-2.2-10.2-5.5-4.9-3.3-11.5-7.7-14.5-9.7-13.7-8.9-26.4-18-22.2-15.8.6.3 1.2.1 1.2-.5 0-.7-.7-.9-1.6-.6-1.8.7-6.3-1.8-7.7-4.1-.4-.7-1.4-1.3-2.1-1.3-1.8 0-5.6-4.7-5.6-6.8 0-1 .9-2.8 2-4 2.4-2.6 4.9-3 2.9-.5z" />
    <path
        d="M477.2 923.2c.2.7 1 1.8 1.8 2.4 1.8 1.3 5.2 1.5 4.4.2-.3-.5-1.3-.7-2.2-.6-.9.2-1.7-.3-1.7-1.1s-.6-1.6-1.3-1.9c-.7-.2-1.1.2-1 1zm-114.1-36c0 .7.4 2.2.9 3.3.7 1.6.9 1.7.9.3.1-.9.4-2.3.7-3.2.4-1.1.1-1.6-1-1.6-.9 0-1.6.6-1.5 1.2zm23 17.7c-.8.5-.9 1.1-.3 1.5.5.3 1.2-.1 1.6-.9.6-1.7.6-1.8-1.3-.6zM432 937c0 .5.5 1 1.1 1 .5 0 .7-.5.4-1-.3-.6-.8-1-1.1-1-.2 0-.4.4-.4 1zm472.9-99.2c2.7 5.1-.2 12.7-6 15.6-3.8 1.9-9 2.1-10.7.4-.6-.6-1.4-.9-1.8-.5-1 .9 5.8 4.7 8.4 4.7 5.9 0 12.1-5.2 13.6-11.2.7-2.9-1.3-9-3.4-10.3-.9-.6-.9-.3-.1 1.3zm-588.3 71.5c-5.4 5.4-2 13.7 5.5 13.7 4.7 0 7.9-3.4 7.9-8.2 0-4.2-2.4-6.7-7.3-7.5-2.9-.4-4-.1-6.1 2zm7.9 3.3c0 2.3-.5 3-2.3 3.2-4.4.6-6.7-3.2-3.7-6.2 2.4-2.4 6-.6 6 3zm303.2 5.6c-.4 4.6-.7 9.9-.7 11.9 0 3.4.1 3.6 3.8 3.7 6.9.2 21.7 1.3 23.4 1.8 1.8.5 2.3-1.5 3.4-15.2l.6-8.2-11.4-.6c-6.2-.4-12.9-.9-14.9-1.2l-3.6-.5-.6 8.3zm26.3-2.6c0 .5-10.4 6.4-11.4 6.4-.7 0-2.7-1.6-4.6-3.5l-3.4-3.5 9.7.3c5.3.1 9.7.2 9.7.3z" />
</svg>