<svg version="1.0" xmlns="http://www.w3.org/2000/svg" width="1365.333" height="1365.333"
    viewBox="0 0 1024 1024">
    <path
        d="M501 209.7c-12 1.1-34.9 5.7-41.8 8.4-1.5.6-9.5 1-18.7 1-38.9-.3-71 10.7-92.8 31.8-6 5.8-7.5 6.7-12.7 7.7-6.1 1.3-14.7 6.1-18.9 10.7-1.3 1.4-3.7 4.7-5.5 7.4-2.5 3.9-3.8 4.9-6.7 5.4-9.6 1.5-26.1 14.3-35.5 27.4-9.7 13.7-16.4 32.4-16.4 46.4l-.1 7.6-5.6 3.5c-7.1 4.4-19.5 16.7-25.5 25.1-17.4 24.4-26.1 55.4-24.5 87.4C198 513 209.4 540.2 231 562c32.2 32.5 80.6 42.8 133.6 28.5 5.1-1.4 9.4-2.5 9.8-2.5.3 0 .6 1.1.6 2.4 0 4.1 4.9 18.5 9.3 27.1 10.9 21.7 24.9 36 52.2 53 29.6 18.4 44.6 34.6 58 62.7 12.8 27 20.5 54.9 23.7 86.1.8 8.1 1.7 11.7 3.2 14 3.9 5.7 4.4 5.8 35.8 5.5l28.7-.3 2.9-2.8c1.7-1.6 3.2-4.1 3.5-5.5.7-3.7-1-30.2-2.8-43.7-.8-6-1.5-11.4-1.5-12.1 0-.8 1.5-.7 5.3.3 2.8.8 10.2 1.9 16.3 2.5 33.9 3.5 69.3-11.7 89.1-38.2 5.7-7.5 11.1-18.8 13.1-27 1.7-6.7 1.7-6.8 5.5-7.4 7.4-1.2 11.6-6.3 10.2-12.5-.8-3.5-6.7-9.1-9.7-9.1-1.7 0-1.8-.2-.8-1.5 1-1.2 1-1.5-.1-1.5-1-.1-.8-.5.4-1.5 1.8-1.3 1.7-1.4-.5-1.8-1.8-.4-1.7-.5.7-.5 4.9 0 5.6-.1 5.1-1.1-.4-.5.2-.7 1.2-.4.9.2 3.1-.3 4.7-1.1 1.7-.9 4.2-1.6 5.6-1.6 9.4 0 35-10.9 47-20 20.4-15.3 37.3-39.6 45.8-65.8 12-36.5 8-82.2-9.4-108.6-3.7-5.6-4.5-7.8-4.5-11.5-.1-9.7-2.8-20.4-7.6-30-3.9-7.8-6.1-10.9-13.4-18.1l-8.8-8.7 1-5.4c1.3-6.9.3-24.6-1.8-32.4-2.2-8.4-6.6-17.7-11.8-24.8-4.5-6.4-13.7-15.7-15.5-15.7-.5 0-2.4-2.7-4.1-5.9-9-16.8-28.6-30.1-51-34.7-6.4-1.3-11.6-1.6-22-1.2l-13.5.5-2.7-7.1c-5.4-14.1-19.5-32.2-33.8-43.1-20.7-15.8-48.3-26.1-79.2-29.4-8.8-1-39.2-1.3-47.8-.4zm46 29.7c47 5.7 81 29.2 89.5 62.1.8 3.2 1.5 8.3 1.5 11.1 0 5 .2 5.4 5.1 9.4l5 4.3 6.7-2.6c13.3-5.1 24.4-6.6 36-4.8 16 2.5 24.5 7.1 30 16.4 2.1 3.4 7.6 10 12.3 14.7 14.9 14.8 20 22.8 21.8 34.1 1.8 10.8-1.4 23.9-9.1 37.6-2.8 4.9-2.8 5.3-1.1 5.3 3 0 16.1 4.7 20.8 7.5 6.3 3.6 13.7 12.3 16 18.6 2.3 6.3 2.4 16.3.2 22.5-1.4 3.9-1.4 4.1 1.5 7.5 1.6 1.8 5.1 6.6 7.7 10.5 19.5 29.2 16.8 77.4-6.2 111.9-4.7 7-22.3 24.8-23.7 24-.6-.4-1-.2-1 .3 0 2.6-24.1 11.9-28.1 10.9-1-.3-1.7-.2-1.4.3.7 1.1-8.8 2-20 1.8l-10-.2 11.5-.6 11.5-.6-9-.3c-11.1-.5-16.3-.4-19.5.2-1.4.2-1.7.2-.7 0 3.3-.8 1.7-2.3-2.5-2.2-3.5 0-3.9.2-2.3 1 1.4.6.6.7-2.5.3-2.5-.3-5.2-1.2-6.1-2-.8-.8-2-1.4-2.5-1.4s-.2.5.6 1.1c1.2.8 1.1.9-.5.5-8.6-2.1-14.8-2.8-21-2.2-9.2.9-41.5.9-53.5 0-8.1-.6-10.7-.3-17.5 1.5-4.4 1.2-11.2 3.9-15.1 6l-7.1 3.7-9.8-3.3-9.9-3.3-11 5.5c-15 7.4-27.4 10.5-42.2 10.5-15 0-19.9-1.1-29.7-6.7-10-5.7-24.6-15.4-30.6-20.2-11.3-9.2-22.6-27.7-26.7-43.8-4.1-16.1-3.1-36.1 2.4-48.6 1.2-2.6 2.1-5 2.1-5.4 0-.3.3-.9.8-1.2.5-.3 2.6-2.9 4.6-5.8 8.7-11.9 19.6-18.8 34.7-21.9 10.7-2.1 21.5-1.5 36.5 2.2 10.1 2.4 11.5 2.5 17.6 1.5 3.6-.7 8-2.1 9.7-3.1l3.2-1.9 7.4 9.7c4.1 5.3 9.9 12.4 12.9 15.7l5.4 6 1.2-6.9c.7-3.8 1.8-8.1 2.6-9.5 4.1-7.9 16.7-14.1 30.8-15.4 2.5-.2 3.2-1.1 5.8-7 1.7-3.7 3.3-8.9 3.6-11.5l.5-4.8 6.4.9c3.5.5 7.4.7 8.7.3 1.3-.3 5.7-3.3 9.8-6.6 6.3-5.2 16.1-11 18.5-11 .7 0 0 5.7-1.1 9.5-.5 1.6 1.4 4 8.4 10.9l9 9 7.8-1.9c4.9-1.3 11.7-2 18.2-2.1l10.3-.1 6.8-7.3c5.8-6.2 7.1-7.1 9.1-6.5 4.2 1.3 10.3 4.1 14.7 6.9 3.8 2.4 4.2 3 4.2 6.6 0 2.2-.7 5.8-1.6 8l-1.6 4 6.7 13.4 6.6 13.4 5.2.6c6.7.9 9.2 2.6 10.7 7.2 1.7 5 .7 18.2-1.7 23.1l-1.8 3.8-7.8.1c-4.3.1-7.9.3-8.1.5-2.3 3.3-7.9 10.4-10.9 13.7-3.8 4.2-3.8 4.4-3.1 10 1.1 8.2.9 10.1-1.7 12.8-2.3 2.4-9.9 5.7-17 7.3-4.4 1-4.9.6-11.2-9.4l-3.2-5-9.3-1.1c-5.1-.7-12.4-2-16.2-2.9l-7-1.7-5.5 3.7c-9.1 6.3-9.1 6.2-5.2 13.6 1.9 3.5 4.2 8.6 5.2 11.3l1.9 4.8 6-.6c18-1.8 25.6-1.9 27.4-.4 8.1 7.2 26.7 6.1 40.5-2.3 2.7-1.7 4.6-2.5 4.2-1.9-1 1.7 2.2 1.1 3.6-.7 1.2-1.5 1.2-1.6-.5-.9-1.9.7-1.9.6-.1-1.4 1-1.1 2.3-2 2.9-2 .6 0 .4.5-.4 1-1.3.9-1.3 1.1 0 2 1 .6 1.1 1 .3 1-2.3 0-1.4 1.8 1.2 2.4 1.4.4 2.5 1.1 2.5 1.6s2.1.8 4.8.5c3.7-.3 4.1-.3 1.7.4-3 .9-3 .9-.4 1 9.8.4 27.3-12.7 37.3-27.9 8-12.2 13.5-31.2 13.6-46.6 0-9.3-2.5-23.3-5.5-30.8-1.4-3.3-4.8-9.5-7.7-13.8l-5.3-7.7-7.7.6c-7.3.6-8.1.4-14.3-2.6-4.9-2.5-7.5-4.6-10.6-8.6-3.9-5.2-6.9-12.5-6.9-17 0-4.6 3.3-12.9 6.1-15.6l3-2.8-7.3-3.4c-6-2.9-8.8-3.6-16-4l-8.6-.5-1.3 4.5c-2.4 8.9-14.9 18-26 19-11.2 1.1-23.4-5.6-28.4-15.3-1.1-2.1-4.1-5.9-6.6-8.4-4.9-4.9-10-13-17.5-28.2l-4.8-9.7 3.4-10.6c3-9.8 3.2-11.4 2.7-19.2l-.6-8.6 4.4-6.4c2.5-3.5 4.5-7.5 4.5-8.9 0-6.4-7-14.7-15.6-18.6-6.7-2.9-19-2.5-27.1.9-4.2 1.7-5.3 1.7-5.3-.2 0-2.2-3.4-8.7-6.6-12.4-3.2-3.9-9.3-7.1-13.3-7.1-1.6 0-6.2-1.6-10.2-3.5-4.1-1.9-8.7-3.5-10.4-3.5-5.7 0-13.1 2.9-17.6 6.8l-4.3 3.9-2.2-2.6c-4-4.7-11.1-7.6-18.9-7.6-6.1 0-7.8.4-12.7 3.2-3.2 1.8-6.7 3.3-7.9 3.3-5.3 0-10.1 2.5-14.9 7.7-5.5 6.1-8 12.5-8 20.8 0 4.6-.2 5.2-2.7 6.1-2 .7-4 .6-6.8-.2-6.2-1.9-10.9-1.7-13.9.7l-2.6 2V341c0-2.2.7-7.5 1.5-11.6l1.6-7.5-2.9-3.7c-1.7-2-5.5-6.1-8.6-9-5.4-5.2-5.6-5.5-5.6-10.5 0-2.9.4-5.8.8-6.5 1.4-2.1 8.4-5.2 11.8-5.2 6.1 0 8.1 1.5 9.9 7.2 1.9 5.9 5.4 9.8 8.9 9.8 1.2 0 3.8-1.2 5.7-2.6 1.9-1.5 6.9-4.3 11.2-6.3l7.7-3.7-2.2-2c-1.3-1.1-4.9-3.9-8-6.2-6.8-5-8.1-7.1-7.3-11.6l.7-3.3-9.4-.6c-15.1-1.1-29.9.8-46.6 6l-5.2 1.7-3.3-3.2c-1.7-1.7-5.3-4-7.9-5.2-2.7-1.1-4.8-2.3-4.8-2.6 0-1.5 11.1-7 20.2-9.9 15.2-4.8 23.7-5.9 44.6-5.8 16.9.1 18.7 0 24-2.2 17.6-7.1 51-10.2 77.2-7.1zM341.2 282l5.7 6h17.8l5.6-5.6c6.3-6.3 8.2-6.6 14.6-1.7 3.6 2.8 3.6 2.3 1.5 14.8-.5 3.5-.1 5 3.1 10.8 3.5 6.4 3.9 6.8 9.1 8.3 7.8 2.2 9.8 5.1 9.1 13.3-.6 7.5-1.7 8.7-8.6 9.6-6.7.9-6.5.8-10.4 7.7-3.2 5.8-3.5 6.8-2.7 10.4.5 2.1 1 6.2 1 9 0 4.9-.2 5.3-3.2 6.7-6.9 3.2-8.2 3.1-11.9-1-1.9-2.1-4.3-5-5.4-6.5-1.9-2.5-2.5-2.7-11.2-3-5-.2-9.3-.1-9.6.2-.2.3-1.6 2.2-3.1 4.2-1.6 2.1-4.3 4.7-6.2 5.9l-3.4 2.1-4.2-2.4c-3.9-2.1-4.3-2.7-4.6-6.5-.2-2.3.3-6.4 1.1-9.1 1.5-4.9 1.5-4.9-2.1-12.2-3.5-6.7-4.1-7.4-9.9-10.3-7-3.5-8-5.5-6.9-13.2.8-5.2 1.5-5.8 8.6-8.2 4.9-1.6 5.7-2.4 8.7-7.5l3.4-5.8-1.6-5.5c-2.5-8.4-1.8-11.5 3-14.2 2.2-1.3 4.7-2.3 5.5-2.3.8 0 4 2.7 7.2 6zm162.4 43.8c1.8 2.6 4.2 6.6 5.5 8.9l2.3 4.3H534l2.8-4.5c1.5-2.4 3.9-6.5 5.5-9.1 2.6-4.4 2.9-4.6 6.2-4 1.9.4 6.5 1.9 10.2 3.4 6.4 2.6 6.8 2.9 7.1 6.2.2 1.9-.4 6.6-1.2 10.5l-1.5 7 9 9.1 9 9.1 8-2.9c10.9-3.8 12.4-3.7 14.8 1 3.3 6.6 5.4 14.9 4.1 17.1-1.4 2.8-6.7 6.6-12.3 9.1l-4.6 2.1.6 11.7c.4 8.9.9 11.9 2.1 12.7.8.5 4.1 2.7 7.4 4.9 8.8 5.7 9.4 7 6.8 14.6-1.1 3.3-3.1 7.7-4.3 9.6-2.1 3.4-2.4 3.5-6.8 3-2.5-.2-7.1-1.4-10.2-2.4l-5.6-2-9 9.4-8.9 9.4 1.2 4.2c.7 2.4 1.6 6.9 2 10 .8 7-.1 8-9.3 10.8-11 3.3-11.1 3.2-17.6-6.6-4-6.1-6.1-8.4-7.1-8-.9.3-5.9.6-11.3.6h-9.7l-5.2 8c-3.9 6.2-5.7 8-7.4 8-4.2 0-17.8-5.1-18.8-7.1-1.1-1.9.1-12.4 1.9-17.1.7-2-.3-3.5-8-11.7l-8.9-9.4-8.8 2.1c-10.9 2.7-11.6 2.7-13.4-.1-2.4-3.6-6.8-15.3-6.8-18 0-3.1 1.8-4.7 10.7-9.1l7.2-3.7.3-11.5.3-11.6-6-2.7c-3.3-1.5-7.5-4.4-9.3-6.5-3.7-4.3-3.7-5.4 1.1-15.9 3.6-7.9 4.1-8.1 16.1-4.1l7.8 2.6 9.5-9.4 9.4-9.4-1.6-5.9c-1.9-7.4-1.9-13.9-.1-15.4 1.7-1.5 14.4-5.9 17.1-6 1.3-.1 3.1 1.5 5.1 4.7zm-209.1 5.3c.4 1.6 2.2 5 4.1 7.4l3.4 4.5-1.7 7.1c-3.1 13.9 1.6 26.8 13 35.6l5.7 4.4 11.8-1.1c6.4-.6 13.9-1.8 16.6-2.7 5.7-1.8 14.5-1.4 22.2 1.2 5 1.7 5.5 1.7 15-.4 17.2-3.8 16.9-3.6 18.9-8.2 1.7-3.7 2.1-4 4.9-3.5 1.7.4 4.6 1.4 6.6 2.4 3 1.4 3.6 2.4 4.6 6.7 1.4 6.7 3.6 10.6 7.8 14.2l3.4 3.1-3.6 3.5-3.7 3.6-6.8-4.6-6.8-4.5-4.7 1.9c-8.2 3.5-22.1 6.3-31 6.3-3.7 0-4.4.3-5.3 2.7-.6 1.6-1.1 4.4-1.1 6.3 0 1.9-2 8.2-4.4 13.9l-4.4 10.3 3.5 3.9c1.9 2.1 4.8 6.6 6.5 9.9l3 6h31.8l2.1 3.3 2 3.3-2.2 5.6c-2.2 5.6-2.2 5.6-7.2 6.2-2.7.3-9.7.6-15.5.6h-10.6l-2.7 5.7c-1.5 3.2-4.5 7.7-6.7 10.1-4.2 4.5-4.5 5.2-3.1 6.8.4.5 2.5 4.8 4.5 9.6 3 7.1 3.6 9.5 3 12.5-1.2 6.6-1.6 6.9-8.1 6.3l-5.8-.5-6-12.2-6-12.3h-5c-5.8 0-14.6-2.2-18-4.4-1.3-.9-3.1-1.6-3.9-1.6-.8 0-5.5 3-10.3 6.6-4.8 3.6-9.8 7-11 7.5-2.9 1.1-9.9-1.5-11.3-4.1-1.8-3.3 2.2-9.9 10.8-18.2l8-7.7-1-4.3c-.5-2.4-.7-7.1-.4-10.4l.6-6.2-7.9-5.3c-6.5-4.3-8.3-6.1-10.2-10.1l-2.3-4.8 2.9-3c2.5-2.6 3.3-2.9 6.9-2.4 2.3.3 8 2.4 12.7 4.6l8.5 4 6-4.1c6.1-4.2 14.9-7.1 21.5-7.1 3.2 0 3.7-.4 5.1-3.8.8-2.1 3.2-7.7 5.4-12.5 3.8-8.3 4.1-8.7 7.9-9.5 3.9-.8 3.8-.9-3.5-1.6-4.8-.4-12.3-.2-20.8.8-7.4.8-14.1 1.2-15 .9-.9-.3-3.8-2.1-6.3-4-5.2-3.7-7.8-4-20.5-2.2-10.8 1.5-17.4 4.7-24.8 12.2-12.8 12.7-19.9 32.4-20 55.7-.1 15.7 2 25.3 8.5 38.3 5.5 11 16.2 22.4 26 27.9 11.7 6.6 19.3 8.3 36.4 8.3 13.5 0 16.2-.3 27.5-3.2 6.9-1.7 13.4-3.5 14.5-3.8 1.6-.6 1.7-.5.5.4s-1.1 1.1.8 1.1c1.3 0 2.1-.4 1.8-.9-.5-.8.9-1.5 6.9-3.6 1.4-.4 1.3-.2-.4.8l-2.4 1.5 2.1.6c1.2.4 2.2 1.2 2.2 1.7 0 1.4-1.7 1.1-3.5-.7-.9-.9-1.9-1.3-2.3-.9-.4.3.1 1.1 1.1 1.6.9.6 1.4 1.5 1.1 2.1-.4.6-.1.9.7.6.7-.2 2.5.1 3.8.8 1.4.7 2.8 1.1 3.3.8.4-.3.8-.1.8.5 0 1.2-3.7 2.4-5 1.6-.5-.3-1 .3-1 1.4 0 1.2.7 2.1 1.6 2.1 1.8 0 4.6 2.5 3.7 3.4-1 1 1.4.7 5.7-.6 2.3-.8 4-1.9 4-2.8 0-1.2.2-1.2.9-.2.5.8 1.9 1.1 3.7.8 2.9-.6-9 3.3-18.1 5.9-2.7.8-8.3 2.4-12.4 3.6-4 1.1-8.2 1.8-9.2 1.6-1.1-.3-1.9-.2-1.9.2 0 1.4-12.3 2.8-21.5 2.6-8.3-.3-8.5-.2-3 .5 4.4.6 2.3.7-7.5.5-19.9-.6-37.4-5.5-49.4-13.9-25.5-17.7-39.6-46.2-39.6-80 0-43.7 23.6-81.3 55-87.8l5.7-1.1-2.1-5.6c-1.7-4.6-2-7.9-2.1-18.1 0-11.5.3-13.1 2.9-19.5 3.3-7.9 6.3-12.8 7.6-12 .5.3 1.1 1.9 1.5 3.6zm86.2 201.5c-.3.3-1.2.4-1.9.1-.8-.3-.5-.6.6-.6 1.1-.1 1.7.2 1.3.5zm-3.1 2.2c-1 .2-2.2 0-2.8-.6-.6-.6 0-.7 1.9-.4 2.1.5 2.3.7.9 1zm12.1 10.8c-.3.3-1.2.4-1.9.1-.8-.3-.5-.6.6-.6 1.1-.1 1.7.2 1.3.5zm3 1.8c0 .8-.6 1.2-1.5.9-1.1-.5-1.1-.7 0-1.4.7-.5 1.3-.9 1.4-.9 0 0 .1.6.1 1.4zm327.7 127.4c.2.4-1.1.6-3 .4-1.9-.2-3.4-.6-3.4-.8 0-.8 5.9-.4 6.4.4z" />
    <path
        d="M499 259.1c-7.8 1.4-19.3 4-20.8 4.8-2 1.1 4.3 7 12.7 12 6.3 3.7 10.1 7.6 11.4 11.6.2.6 3.2.3 7.8-.7 12.3-2.8 16.8-3 25.1-1.3 4.2.8 9.3 2.2 11.4 3.1 2 .8 3.9 1.2 4.3.9.3-.4.4-4.7.2-9.7-.3-8.7-.2-9.1 2.5-12 1.6-1.6 3.9-3.4 5.2-3.9 7.7-3-4.5-5.1-31.8-5.5-12.4-.1-25 .2-28 .7zM580 270.4c0 .7-1.8 3.4-4 5.9-2.2 2.5-4 5-4 5.6 0 .7.8 2.8 1.9 4.9 1 2 3.1 7.4 4.6 12 1.5 4.6 3.4 8.6 4.1 8.9.8.3 5.3-.3 10-1.2 5.5-1.1 11.8-1.6 17.5-1.3 4.9.1 8.9-.1 8.9-.5 0-2.1-5.5-11.2-10-16.6-8.9-10.7-29-23-29-17.7zM678 337.6c-13.6 2-22.5 6-29.4 13.4-6.9 7.3-7 11.3-.8 18.7l2.7 3.3 6.4-1.1c3.6-.5 6.8-1.2 7.2-1.5.4-.2 1.3-2.1 2-4.2 1.7-5.3 3.8-8.1 7.2-9.8 3.4-1.8 8.8-1.2 10.7 1.1 2 2.4 2.8 1.8 5.9-4.3 1.6-3.2 4.6-7.3 6.5-9 2-1.7 3.6-3.3 3.6-3.5 0-1.5-16.8-3.8-22-3.1zM705.7 358.8c-6.5 4.2-7.4 6.2-6.1 13.1 1.1 5.5 4.5 8.1 14.5 11.1 5.6 1.7 7.1 2.6 8.9 5.5 2 3.2 2 3.6.6 6.4-.9 1.6-2 3.2-2.6 3.6-.5.3-4.6-.1-9.1-1-11.6-2.2-15.1-2-18.3 1-2.2 2.1-2.6 3.2-2.6 8.3 0 5.1.4 6.2 2.8 8.4 2.6 2.6 3.2 2.7 15.9 2.9 15.1.2 14.7.4 20.4-8.4 4.4-6.7 7.6-18.4 6.5-23.9-.3-2-2.9-6.7-5.6-10.6-5.3-7.5-16.9-20.2-18.5-20.2-.6 0-3.6 1.7-6.8 3.8zM676.6 372.6c-6.8 6.7 1.9 18 10.4 13.4 2.5-1.3 4.1-6.5 3-9.4-1.9-5.1-10-7.5-13.4-4zM653 388.1c-2.5.5-5.2.8-6.2.5-1.2-.3-2.2 1.1-3.7 5.1-1.2 3-2.1 6.1-2.1 6.9 0 1.7 3.7 7.6 9.8 15.7l4.4 5.8 1.6-2.3c3.4-5.2 7.8-8.8 12.4-10.4 8-2.6 10.4-7.7 6-12.7-2.8-3.2-13.4-9.7-15.6-9.6-1.1.1-4.1.5-6.6 1zM668.8 426.7c-6.6 7.2-2.4 16.3 7.5 16.3 6.5 0 11.2-7 8.7-13-2.7-6.4-11.6-8.2-16.2-3.3zM748.5 455.5c-3.5 3.4-3.5 10.2-.1 14.2 3.3 3.8 10.2 4 14 .4 4.8-4.5 4-13.2-1.3-16.1-3.7-1.9-10-1.2-12.6 1.5zM596.5 508.2l-3.5 3.3 1.6 5c1.1 3.6 1.4 7.5 1.1 13.6-.5 9.8-2.6 14.9-8.2 19.7-6.2 5.5-9.3 6.7-17.5 6.7-8.4 0-13.9-2.2-19.7-7.8-3-2.8-3.7-3-9.7-2.8l-6.5.2-10.2-10.6c-5.6-5.8-12.5-12-15.3-13.8-4.9-3.1-5.4-3.2-15.1-3.1-5.5 0-13.4.8-17.5 1.7-4.1.9-12.2 2.1-17.8 2.7-12.5 1.2-16 2.7-23.5 10.1-10 10-14.3 22.3-13.4 38.4 1.1 20.7 12 37.3 34.5 52.7 13.8 9.4 23 12.7 35.3 12.8 10.5 0 18.7-2.3 29-8.1 7.5-4.3 16.5-6.4 23.9-5.7l3.8.3.7-4.9c.8-6.6 3.4-11.4 8.8-16.3 4.7-4.3 12.2-7.3 18.2-7.3 9.4 0 19.9 6.6 24.5 15.3l2.4 4.5 6.5.4c3.6.3 7.4.8 8.4 1.3 2.6 1.1 2.2-1.1-1.6-8.6-3.9-7.6-9.5-15.1-19.6-26.2-7.7-8.4-8.7-11.4-5.5-16.2 2.9-4.5 10.3-2.7 17.7 4.3l2.8 2.6 2.6-2.8 2.6-2.8-1.4-7.6c-2.1-11.6-1.7-24.3.9-32.7 2.2-6.9 2.2-7.1.4-14l-1.7-7-7.2-.3c-7-.3-7.4-.2-10.8 3zm-113.1 21.3c.8.8 2 4.1 2.6 7.3 1.7 8.7 2.2 9.4 7.1 10.7l4.4 1.1 7.1-6.3c4-3.5 7.7-6.3 8.3-6.3.6 0 2 .9 3.1 2 1.9 1.9 2 2.2.4 5.3-.9 1.7-2.8 4.6-4 6.3-3 3.9-3 4.7.1 10.1l2.6 4.3h8c8.5 0 10.9 1.1 10.9 4.8 0 3.1-3.6 5.5-9 6-5.8.5-6.7 1.4-7.5 6.7-.7 4.7-.4 5.2 5.5 9.2 2.5 1.7 5.3 4 6.4 5.2 1.8 1.9 1.8 2.2.2 4.6-.9 1.4-2 2.5-2.4 2.5-.5 0-4.2-1.1-8.2-2.5-9.1-3.1-10.1-3.1-13.5.1-2.5 2.3-2.7 3-2.2 7.2.3 2.6.9 6.1 1.3 7.9.5 2.8.3 3.3-2.4 4.7-1.7.9-3.5 1.6-4 1.6-.4 0-2.5-3.6-4.5-7.9l-3.7-7.9-5.2-.4c-5.7-.3-5.4-.5-14 9.6-1.8 2.2-2.9 2.7-4.6 2.2-4.1-1.3-4.5-4-1.6-10.7 2.9-7.1 2.6-8.3-3.2-14l-3.4-3.3-7.2 1.1c-8.5 1.2-9.1 1-10.7-2.4-1.6-3.6.5-5.7 8.4-8.3 6.9-2.3 7.2-2.7 8.1-10.5l.6-5.3-6.1-4.3c-6.4-4.5-7.6-7.2-4.6-10.3 1.6-1.6 2.2-1.5 13 2.3l5.9 2.1 4.1-2.9c5.4-3.9 6.5-6.3 6.5-14.8 0-6 .3-7.2 1.8-7.6 3.1-.8 4-.7 5.6.8z" />
    <path
        d="M476.9 558.3c-10 5.3-13.3 17.6-7.4 27.3 4.2 6.6 9.1 9.4 17.3 9.4 12.3 0 20.2-7.4 20.2-18.7-.1-15.3-16.5-25.1-30.1-18zM682.1 507.1c-1.4.5-4.5 2.9-7.1 5.3-6.1 5.7-9.7 6.7-24.1 6.9l-12.1.2-3.3 3.7c-6.8 7.3-7.3 20-1.3 31 4.9 8.9 9.8 12.4 18.5 13.3 3.7.4 10.1 1.8 14.2 3.2 5.8 2 8.7 2.4 12.8 2 12-1.2 24.7-10.6 29.8-21.9 2.5-5.5 2.7-6.8 2.3-15.2-.6-10.3-2.6-16-7.9-22.1-5.7-6.4-14.9-9.2-21.8-6.4zm-6.7 23.4c3.6 3.7 2.3 9.5-2.4 11-2.4.8-6.4-1.5-8-4.5-1.1-2.1.1-5.7 2.4-7.2 1.9-1.3 6.4-.9 8 .7zM562.9 521.9c-5.8 5.9-2.8 15.5 5.3 16.8 5.2.8 10.5-2.6 11.4-7.3 1.9-10-9.6-16.5-16.7-9.5zM568.8 615c-3.2 2.4-4 6.5-2.3 10.7 1.6 3.8 4.2 5.3 9 5.3 5 0 9.5-4.4 9.5-9.3 0-7.5-10-11.6-16.2-6.7zM720.3 614.8c-.8.5.2.8 2.5.9 2.8 0 3.2-.1 1.7-.7-2.6-1.1-2.8-1.1-4.2-.2zM675.8 635.7c.6.2 1.8.2 2.5 0 .6-.3.1-.5-1.3-.5-1.4 0-1.9.2-1.2.5zM684.5 638c.3.5 1 1 1.6 1 .5 0 .9-.5.9-1 0-.6-.7-1-1.6-1-.8 0-1.2.4-.9 1zM351.6 303.2c-13.1 1.9-21.4 15.7-17.5 28.9 4 13.2 20.4 19.5 33.4 12.9 9-4.6 14.1-15.4 11.6-24.7-3.3-12.1-14.5-19.1-27.5-17.1zM511.6 353.2c-19.9 3.8-37.8 21.8-42.1 42.3-5.8 27.6 8.7 53.8 34.8 63.1 7.1 2.5 9.6 2.9 18.7 2.9 11.5-.1 17.2-1.5 27.2-6.7 11-5.8 20.7-17.5 24.8-29.7 13.3-40-21.9-79.9-63.4-71.9zm38.8 17.4c7.3 7.4-.9 20.3-10.5 16.4-10.8-4.5-8.2-19 3.4-19 3.5 0 5 .6 7.1 2.6zM529 394.5c3.6 1.9 6 6.2 6 11 0 10.1-10.1 15.8-18.8 10.5-7-4.3-7.8-13.6-1.7-19.7 2.7-2.7 4.1-3.3 7.4-3.3 2.3 0 5.5.7 7.1 1.5zM327.5 452.8c-14.8 6.9-15.3 28.3-.9 35.3 17.4 8.4 35-8.2 27.4-25.8-3.1-7.2-8.2-10.6-16.4-11-4.4-.3-7.2.2-10.1 1.5zM356.9 541.3c.5.5 2.4.7 4.2.5 3.3-.3 3.3-.4-.8-.8-2.3-.3-3.9-.2-3.4.3zM361.8 543.7c.6.2 1.8.2 2.5 0 .6-.3.1-.5-1.3-.5-1.4 0-1.9.2-1.2.5zM369.5 554c2.7 1.2 4.3 1.2 2.5 0-.8-.5-2.2-.9-3-.9-1 0-.8.3.5.9zM361.5 555c-1.3.5-1.4.9-.5.9.8 0 2.4-.4 3.5-.9 1.3-.5 1.4-.9.5-.9-.8 0-2.4.4-3.5.9zM367 556c-.8.5-1 1-.5 1 .6 0 1.7-.5 2.5-1s1.1-1 .5-1c-.5 0-1.7.5-2.5 1zM359.8 557.7c.6.2 1.8.2 2.5 0 .6-.3.1-.5-1.3-.5-1.4 0-1.9.2-1.2.5zM350.5 560l-2 .9h2c1.1 0 2.7-.4 3.5-.9 1.3-.9 1.3-1 0-.9-.8 0-2.4.4-3.5.9zM342 561c-2.1.7-2.1.8-.5.9 1.1 0 2.7-.4 3.5-.9 1.8-1.1.5-1.1-3 0zM334.5 563c-1.3.6-1.5.9-.5.9.8 0 2.2-.4 3-.9 1.8-1.2.2-1.2-2.5 0zM391 867c-31.6.3-57.6.6-57.7.8-.1.1-1 1.6-1.8 3.3-2.1 3.9-1.2 8.2 2.2 10.9 2.4 1.9 4 2 30.9 2 27.5 0 28.3.1 28.9 2 .4 1.1 1.8 2.8 3.3 3.8 2.4 1.6 10.4 1.7 110.7 2 59.4.2 115.3.1 124.3-.3l16.4-.7 3.3-3.4 3.3-3.3 21.7-.3c21.4-.3 21.7-.3 23.6-2.7 2.6-3.2 2.5-8.6-.4-11.5l-2.3-2.3-79.9-.6c-81.4-.7-124.4-.6-226.5.3z" />
</svg>