<svg version="1.0" xmlns="http://www.w3.org/2000/svg" width="1365.333" height="1365.333"
    viewBox="0 0 1024 1024">
    <path
        d="M500.8 87.6c-7.8 4.2-7.6 17.8.2 21.9 4 2 8.9 1.9 12.4-.4 4-2.7 5.5-5.7 5.6-11.5 0-4.2-.5-5.3-3.4-8.2-2.8-2.8-4.1-3.4-7.7-3.4-2.4.1-5.6.7-7.1 1.6zm26.8 1.5c-6 5.2-6.1 12.6-.1 18.6 2.5 2.5 4.1 3.3 6.9 3.3 9.6 0 15.9-8.8 12.6-17.5-3-7.9-12.9-10.2-19.4-4.4zm-121 .1c-1.2 1.6-1.6 4.7-1.6 11.6 0 8.6.2 9.5 2.5 11.8 2.7 2.7 5.5 2.6 8.5-.2 1.6-1.6 2.7-15.4 1.6-19.8-1.4-5.7-8-7.7-11-3.4zm205.1 7.9c-8.1 1.9-14.2 7.3-17.9 15.6-2.4 5.4-2.6 16.9-.4 23.1 4.4 12.4 15.8 27.3 22.1 28.8 8.4 2.1 28-6.1 37.5-15.6 18.1-18.1 10.1-44.9-13.4-45-5.2 0-6.5-.4-8.4-2.5-2.3-2.4-10.8-5.6-14.1-5.4-.9.1-3.3.5-5.4 1zm9.7 20.3c1.7 1.8 3.8 4.4 4.7 5.6l1.5 2.3 5.1-1.8c5.9-2.1 9.4-1.5 11.2 1.9 3.4 6.2-4 14.2-18 19.4l-5.5 2-2.8-3.4c-4-5-8.6-15.4-8.6-19.4 0-4 2.2-7.7 5.4-9 3.3-1.3 3.6-1.2 7 2.4zm-188.1 7c-5.3 2.4-6.8 7.8-3.8 13.6 2.1 4.1 4.3 5 12.5 5 6.6 0 7.4-.2 10.1-2.9 2.3-2.4 2.9-3.8 2.9-7.3 0-6.7-3.1-9.2-11.8-9.5-4.3-.2-7.9.2-9.9 1.1zm-45.6 9.8c-.9.7-1.9 2.5-2.2 4-.5 2.1-.1 3.3 1.9 5.2 2.1 2.2 3.4 2.6 8 2.6 5.3 0 5.5.1 6.1 3.2 1.4 6.6 6.5 8.8 10.5 4.8 1.6-1.6 2-3.3 2-9.3 0-10.8-1.1-11.7-14.3-11.7-6.7 0-10.9.4-12 1.2zm98.5 2.3c-3.9 3.2-4.8 7.2-2.8 11.9 2.8 6.8 11.3 8.1 16.1 2.4 5.6-6.7.9-16.8-7.9-16.8-1.3 0-3.8 1.1-5.4 2.5zm201.7-1c-5.5 3-6.2 11.9-1.3 16.6 3.9 3.7 9.8 3.3 13.5-.9 7.8-8.8-1.9-21.3-12.2-15.7zm-478 7.9c-10.7 2.9-19.7 11.3-23.5 22.1-2.3 6.8-2.4 18.5-.1 25.2 2.6 7.5 8.5 16 17.4 25.4 7.8 8.2 19.8 18.5 24.1 20.8 3.1 1.7 8.9-.3 21.7-7.5 19.6-11 29.8-20.2 35.8-32.4 2.9-5.8 3.2-7.3 3.2-15.5 0-7.7-.4-9.8-2.7-14.7-3.2-6.9-9.7-13.6-16.3-16.9-4.2-2-6.5-2.4-14-2.4-6.6 0-9.8.5-12.2 1.7-3.1 1.8-3.2 1.8-8.2-1.6-7.7-5.2-16.3-6.6-25.2-4.2zm19.2 23.5c4.8 5.2 6.1 6.1 9.1 6.1 2.4 0 4.2-.8 5.9-2.6 1.3-1.4 3.7-3.2 5.4-4 4.3-2 12.5-1.5 12.5.9 0 .8-.3.8-1.2-.1-.7-.7-1.9-1.2-2.7-1.2-1.4 0-1.4.1-.1 1 .8.5 1 1 .4 1-.5 0-1.5-.5-2.2-1.2-.9-.9-1.2-.9-1.2.1 0 .8-.7 1-2.2.5-2-.6-2.1-.5-1 .8 1 1.3.9 1.6-.7 2.1-1.1.2-2.5 0-3.2-.7-.9-.8-1-.7-.6.7.4 1.1.3 1.6-.3 1.2-.6-.4-1.7.1-2.6.9-.8.9-2.2 1.6-3 1.6-.8 0-1.3.4-1 .9.6.9-1.1.5-6.6-1.5-1-.4-1.8-1-1.8-1.5s-.4-.9-1-.9c-.5 0-.7.7-.4 1.5.4.9 0 1.5-.8 1.5-.7 0-1.4.9-1.5 2-.1 1.1.2 1.8.8 1.5 2.4-1.6.5 4.1-2.6 7.3-5 5.3-6.2 7.9-4.7 10.2 1.6 2.6 1.6 2.7-.9 3.3-1.5.4-2 1.1-1.6 2.2.6 1.3.3 1.4-1.6.4-1.3-.7-.1 1.1 2.8 4.2 6 6.4.8 2.2-7.3-5.9-5.9-5.9-11.2-15.8-11.2-20.8 0-10.3 8.5-19 17.5-18 3.3.4 4.9 1.5 9.6 6.5zm38 4.8c1.3 1.6 1.2 1.7-.3.4-1-.7-1.8-1.5-1.8-1.7 0-.8.8-.3 2.1 1.3zm-2 3.6c-1 .9-1.1.8-.5-.6.3-1 .9-1.5 1.2-1.2.3.3 0 1.1-.7 1.8zm-19.6-.3c-.3.5-1 1-1.6 1-.5 0-.9-.5-.9-1 0-.6.7-1 1.6-1 .8 0 1.2.4.9 1zm-22 26c.3.6-.1.7-.9.4-1.8-.7-2.1-1.4-.7-1.4.6 0 1.3.4 1.6 1zm4.6 8.3c-.6.8-.8 1.7-.4 2 .3.4.1.7-.5.7-1.5 0-1.5-1.3 0-2.8 1.6-1.6 2.3-1.5.9.1z" />
    <path
        d="M212.8 193.1c-1 .5-1.8 1.6-1.8 2.3 0 1.7 3.5 4.8 4.3 3.9 1.2-1.1.8-2.4-.6-2.1-.7.2-1.2-.2-1.2-.7 0-.6.3-.9.7-.8.4.2.4-.5.1-1.4-.5-1.2-.3-1.4.7-.8.9.5 1.1.4.6-.3-.8-1.4-.7-1.4-2.8-.1zm551.1-46.7c-17.5 6.2-23 28.5-12.4 50.2 3 6.1 10.5 16 14.3 18.9 3.6 2.7 11.5 2.2 21.8-1.4 16-5.5 27.2-14.6 31.3-25.6 6.6-17.7-4.5-35.1-21.9-34.4-5.3.2-6.3-.1-8.8-2.4-6.2-5.9-16.3-8.2-24.3-5.3zm13 20.2c1.2 1.5 2.1 3.1 2.1 3.7 0 4 7.7 6.2 11.6 3.2 2.1-1.6 7-2 7.8-.7.3.5-1.1 1.4-3 2.1-1.8.7-3.4 1.6-3.4 2.1 0 1.1-12.4 9.2-17.8 11.5-4.2 1.8-4.2 1.8-2.6 4.3.9 1.3 1.1 2.1.4 1.7-2.5-1.5-8-14.9-8-19.3 0-4.5 2.1-9.7 4.2-10.5 3.3-1.4 6.7-.6 8.7 1.9zM354 167.7c-4.7 2.4-7.4 7.9-6.4 13 1.7 9.1 11.7 12.5 18.8 6.3 4-3.6 5.2-7.6 3.6-12.3-2.3-7.3-9.5-10.4-16-7zm-31.1 4.2c-4 4-4.1 9.8-.1 14.2 6.8 7.6 18.7.9 16.8-9.5-1.4-7.6-11.1-10.3-16.7-4.7zm150 26.1c-74.3 9.8-144.7 44.9-195.9 97.7-78.3 80.4-109.4 190.7-84.5 299.3 8.5 37.2 25.2 75.7 47.1 108.5 26.6 39.8 64.5 74.9 107.9 99.7 35.2 20.2 70.5 32.9 108.6 39.2 21.9 3.6 33.5 4.6 55 4.6 91.7 0 177.1-36.3 240.7-102.4 50-52 81.6-123.5 87.3-197.6 7.4-97-28.6-190.2-100.2-259.6-51.5-49.8-118.9-81.5-190.9-89.8-18.9-2.2-57-2-75.1.4zm75.6 34.5c48.6 6.4 102.2 27.5 132 51.9 2.8 2.3 5.5 4.4 6 4.9 13.6 10.3 32.7 27.6 31.8 29-.3.5-.2.7.4.4 1.3-.8 12.7 10.8 11.9 12.1-.3.6-.1 1.4.5 1.8.8.5.9.3.4-.7-.4-.8.8.1 2.8 2 3.3 3.1 4.3 6.8 2.4 8.7-.3.3-.3 1.2 0 2 .4 1.2.8 1.1 1.8-.3 1-1.3 1-2.3.3-3.8-1.1-2-1.1-2 1.1-.1 1.1 1.1 2.1 2.7 2.1 3.8 0 1 .7 1.8 1.6 1.8 1 0 1.4.5 1 1.6-.3.8-.2 1.3.3.9 1.4-.8 5.4 5.3 4.7 7.1-.4 1-.1 1.4.6 1.1.7-.2 2.2 1 3.4 2.7 4.7 7 5.8 9 4.7 8.3-.7-.5-2.5-2.8-3.9-5.3-1.5-2.5-3.1-4.3-3.7-4.1-1.7.5-3.5-1.5-2.9-3.5.5-2-1.3-2.5-2.2-.6-.3.7-.3 0-.1-1.5.3-2.2.1-2.6-.9-1.8s-1.6.5-2.6-1.4c-.7-1.4-2-2.5-2.7-2.5-1 0-1.1.5-.3 1.9 1.5 2.9 1.2 3.6-.8 1.8-1-1-2.2-1.4-2.5-1-.4.3-.7-.1-.7-1 0-1.3-.9-1.7-3.6-1.7-3 0-3.5-.3-3.2-1.8.4-1.5-.1-1.7-3.9-1.3l-4.3.3v7c0 4.3-.4 6.7-1 6.3-.5-.3-1 .3-1 1.4 0 1.1.5 2.3 1 2.6.6.3 1 1.9 1 3.6 0 2.2.5 2.9 2 2.9 1.1 0 2 .4 2 1 0 .5-.5 1-1 1-1.4 0-.8 5.9.7 7.2.7.6 1.3 2 1.3 3.2 0 1.2.6 2.8 1.3 3.5 1 1.1.9 1.3-.5.8-1.6-.6-1.6-.4 0 2.8.9 1.8 1.9 3.3 2.2 3.3 1.9-.1 2.3.4 1 1.2-1 .6-1.1 1-.2 1 .6 0 1.2.6 1.2 1.3 0 .8.9 2.2 2 3.2s1.7 2.2 1.4 2.6c-.5.9 2.6 7.2 3.9 7.7.4.2.7 1.1.7 2.1 0 .9.4 2.1.8 2.6.5.6 1.9 3.8 3.2 7.3 1.2 3.4 2.7 6.5 3.1 6.8.5.3.9 1.6.9 3 0 1.3.4 2.4 1 2.4.5 0 .6.7.3 1.7-.4 1-.2 1.4.4 1 .7-.5.9.1.5 1.5-.4 1.6-.2 1.9.8 1.3.8-.5 1.1-.4.7.2-.4.6.4 4.4 1.7 8.4 13.3 42.3 14.8 93.7 4.1 138.9-2.5 10.4-9.1 31.6-10.4 33.5-.4.5-1.6 3.2-2.6 6-2.8 7.6-12.7 27-18.7 36.5-12.9 20.4-35.7 47-50.8 59.3-12.3 10-18.8 15-22 16.8-4.6 2.5-7.4 4.3-8 5-.3.3-1.2.8-2.1 1.1-1.2.5-1.8 2.3-2.1 7.2-.4 7-2.1 10.2-7.2 14-2.1 1.6-4.3 2.1-10.1 2.2-4.1 0-7.3-.2-7.2-.6.3-1-6.2-6.9-6.5-6-.7 1.8-37.4 14-46.4 15.5-2.2.4-4.8 1-5.9 1.5-2.2.9-10.4 2.6-20 4-7.4 1.1-13.4 2.6-14.3 3.6-.4.4.9.5 2.8.2 5-.7 6-.1 6 3.8v3.4h-11v3.5c0 2.6-.4 3.5-1.7 3.6-1.1 0-1.3.3-.5.6.6.2 1 .9.6 1.4-.3.5 0 .9.5.9.6 0 1.1 1 1.1 2.3 0 1.9-.8 2.6-3.7 3.4-3.7 1-3.6 1.1 3.2 1.3 5.8.2 6.5.4 4 1.1-2.7.8-2.6.8 1 .5 2.2-.2 4.9 0 6 .5 3.6 1.4-38.8 1-52.7-.6-36.6-4-63.2-12.2-99.3-30.5-72.2-36.5-124.8-99.8-147-176.9-8-28-11.5-52.5-11.5-81.2 0-22.5 1.2-35.8 5-54.9 14.9-75.1 60.4-143.2 124-186 40.7-27.4 89.9-45.1 139-49.9 13-1.3 47-.5 61.5 1.4zm219.6 150c.8 1.6.6 1.5-1-.4-1.2-1.3-2.1-2.8-2.1-3.5 0-1.2 1.4.5 3.1 3.9zM535.7 782.6c-.3.3-1.2.4-1.9.1-.8-.3-.5-.6.6-.6 1.1-.1 1.7.2 1.3.5zM535 805c-2 1.3-7 1.3-7 0 0-.6 1.9-1 4.3-1 3.1 0 3.8.3 2.7 1zm34 0c-1.2.8-1.2 1-.1 1 .8 0 1.2.3.8.6-.9.9-2.8-.6-2.2-1.7.4-.5 1.2-.9 1.8-.9.7 0 .6.4-.3 1zm5.3.7c-.7.2-1.9.2-2.5 0-.7-.3-.2-.5 1.2-.5s1.9.2 1.3.5zm-20.4 3.7c-.2.2-4.9.6-10.3.9-6.2.3-9.4.2-8.5-.4 1.3-.8 19.8-1.4 18.8-.5z" />
    <path
        d="M720.5 326c-.3.5.1 1 1 1s1.3-.5 1-1c-.3-.6-.8-1-1-1-.2 0-.7.4-1 1zm8.2 8.2c-.3.9.3 1.4 1.9 1.3 2.4 0 3.2-1.1 1.8-2.3-.4-.4-.4-.1 0 .5.9 1.6-.6 1.7-2.1.2-.7-.7-1.2-.6-1.6.3zm-8.7.8c0 .5.5 1 1 1 .6 0 1-.5 1-1 0-.6-.4-1-1-1-.5 0-1 .4-1 1zm-1.4 38.7c-.4.9-.3 2 .1 2.4.4.4.9-.3.9-1.7.2-2.8-.1-3.1-1-.7zM381.5 464c-14.5 2.3-31 9.2-43 18-7.1 5.2-17.3 16.5-21.8 24.1-4.5 7.6-8.1 18.7-8.1 24.9.1 9.9 6.7 17.1 16.4 17.8 10.1.7 15.2-3.5 20.5-17.3 8.4-21.5 26-32.9 51-32.9 14.2 0 24.3 3.2 34.6 11 8 6.2 12.2 12.3 16 23.3 1.1 3 2.9 7 4.2 8.8 8.7 12.8 29.6 7.8 32.2-7.7 1.4-8.1-5.2-24.9-14.6-37.4-10.3-13.5-27.3-24.8-45.5-30.1-7.2-2.1-11.5-2.7-22.4-3-7.4-.2-16.2 0-19.5.5zm229 .4c-31.7 6.2-57.2 27.4-66 54.9-1.4 4.3-2.5 9.3-2.5 11.1 0 14.4 14.7 23.4 27 16.5 4.7-2.7 6.7-5.6 10.4-15.6 6.3-16.7 16.1-25.5 34.3-30.9 9.2-2.8 23.9-2.3 33.6 1 17 5.7 25.7 14.4 32.6 32.2 4.5 11.6 9 15.4 18.6 15.4 6.4 0 10.2-1.6 13.9-6 6.2-7.4 5.7-16.3-1.9-31.7-8.6-17.4-20.8-29.5-39-38.3-14.9-7.3-22.3-9.1-39.5-9.6-9.6-.2-16.8.1-21.5 1zm-277 123.5c-8.3 3.7-12.4 12-10.5 20.7 1.5 6.7 7.8 19.8 14.2 29.6 23.2 35.6 58 61.1 104.3 76.6 46.3 15.5 103.4 14.2 151.2-3.3 20-7.4 42.6-20 58.8-32.9 9.2-7.3 26.3-25.3 32.8-34.3 11.2-15.7 18.7-31.7 18.7-40 0-14.6-16.6-23.1-28.9-15-3.2 2.1-4.9 4.5-8.1 11.4-8.7 18.6-13.3 25.5-25 37.7-14.4 15-28.1 24.9-46.3 33.7-51.3 24.4-120.7 23.5-169.7-2.4-30.5-16-53.2-39.3-64.1-65.6-3.9-9.5-6.9-13.6-11.9-16.1-4.9-2.5-10.3-2.5-15.5-.1zm179.8 222.8c.9.2 2.3.2 3 0 .6-.3-.1-.5-1.8-.5-1.6 0-2.2.2-1.2.5zm176.8-610.1c-2.7 2.2-3.1 3.2-3.1 7.4 0 6.4 3.4 10 9.4 10 7.7 0 11.9-5.7 9.7-13-2.1-7-10.3-9.2-16-4.4zm159.1 6.9c-4.6 2-6.8 7.5-5.3 12.7 1.7 5.4 5 7.3 12.8 7.1 7.9-.1 12-1.7 13.8-5.4 3-5.8 1.2-11.4-4.5-14.4-3.6-1.9-12.5-1.9-16.8 0zm-688.8 26.2c-5.5 1-8.8 10.3-7 19.8 1.6 8.4 9.9 11.3 15.7 5.6 2.8-2.8 2.9-3.4 2.9-11.5 0-7.4-.3-8.8-2.2-10.9-2.4-2.6-5.8-3.7-9.4-3zm35.5 9.2c-2.7 2.7-2.9 3.5-2.9 10.1s.2 7.4 2.9 10.1c4 3.9 8.9 4 13.2.1 2.7-2.4 3.3-3.7 3.7-8.5.5-6.9-1.1-11.3-4.9-13.2-4.5-2.4-8.7-1.9-12 1.4zm574.6 7.3c-5.3 2.9-7.2 10.6-4.1 16.6 1.8 3.5 17.1 18.2 18.9 18.2 4.1 0 19.7-15.4 21.6-21.3 2.4-7.3-2.5-14.7-9.8-14.7-3.8 0-10.1 3.2-10.1 5.1 0 .6-1.6-.3-3.5-2-3.8-3.3-9.1-4.1-13-1.9zm79.7 7.2c-13.8 4.5-22.8 18-22.6 34.1.1 13.2 5.7 24.6 20 40.4 9.6 10.6 16.2 16.1 19.5 16.1 4.1 0 22.3-6.6 32.1-11.7 11.1-5.7 20.8-14.5 25.1-22.7 3-5.7 3.2-6.8 3.2-16.1 0-9.5-.2-10.3-3.4-16.3-7.7-14.2-22.2-20.6-36.7-16.2-3.8 1.1-4.1 1-7.2-1.8-1.7-1.6-4.8-3.8-6.9-4.8-4.9-2.4-17.2-2.9-23.1-1zm17.2 18.7c2.7 2.1 7.8 10.8 5.5 9.4-.7-.5-1-.3-.7.6.3.8-.2 2-.9 2.8-.8.8-1.2 2.2-1 3.3.3 1.1 0 1.8-.6 1.6-1.6-.3-5.7 2.4-5.7 3.7 0 .5-2.3 3.2-5.2 5.8-2.9 2.6-4.3 4.2-3 3.5 1.2-.7 2.2-1.6 2.2-2 0-.5.4-.8.9-.8s.4 1.1-.2 2.5c-.7 1.4-2 2.5-2.9 2.5-1 0-1.8.5-1.8 1.1 0 .5.5.7 1 .4.6-.4.9-.1.8.6-.2.7.3 1.3 1.1 1.4 1.6 0 2.8 2.5 1.3 2.5-1.7 0-7-7.1-10.2-13.4-5-9.9-3.6-18.5 3.9-24.6 4.5-3.8 11.3-4.2 15.5-.9zm23.6 8.3c-2.5 1.2-5.8 3-7.4 3.9-1.6.8-3.5 1.3-4.3 1-1-.4-.4-1 1.9-1.8 1.8-.6 5.1-2.1 7.3-3.3 2.2-1.2 4.7-2.1 5.5-2.1.8 0-.5 1-3 2.3zm14 1.6c.6 1.1.9 2 .8 2-.2 0-1.1-.9-2.1-2-.9-1.1-1.3-2-.7-2 .5 0 1.4.9 2 2zm-43.9 28.9c-.6 1-.7 2.2-.3 2.6.4.5.1.5-.6.1-.9-.5-.9-1.2-.2-2.7.6-1 1.3-1.9 1.6-1.9.2 0 0 .8-.5 1.9zM235.4 270c-6.6 2.7-8.5 12-3.5 17.1 6.2 6.1 17.1 2 17.1-6.5 0-8.4-6.5-13.5-13.6-10.6zm-93.9 15.4c-6.5 2.1-10.1 4.3-13.3 8.1-2.8 3.5-3.1 3.6-10.8 3.8-11.4.4-18.7 4.9-23 14.2-5.5 11.8-1.9 26.3 9 36.3 8.9 8.1 27.5 15.8 42.7 17.7 5 .6 5.8.4 8.6-1.9 1.6-1.4 5.3-5.8 8-9.8 16.4-23.8 18.8-44.7 6.9-59.3-6.5-7.8-19.3-12-28.1-9.1zm13.9 21.5c4.2 4.2 4.5 9.7 1.1 19.1-3 8.1-10 21-11.5 21-.6 0-5.1-1.3-10.2-3-16.5-5.2-24.8-11.9-24.8-19.9 0-4.7 2.1-7.7 6.4-9.1 3-.9 4.2-.8 9.6 1.5 3.4 1.4 6.9 2.3 7.9 2 .9-.3 3-3.3 4.6-6.7 1.8-3.8 4-6.8 5.5-7.6 3.5-1.7 8-.7 11.4 2.7zm-62.8 62.7c-4.1 4.2-3.9 10.6.6 14.8 2.6 2.4 3.7 2.7 7 2.3 7.6-1 11.7-8.2 8.4-14.5-2-3.9-4.4-5.2-9.4-5.2-2.9 0-4.6.7-6.6 2.6zm762.8 6.9c-5.6 3.8-5.3 13.4.5 16.8 7.2 4.3 15.1-.2 15.1-8.6 0-6.2-3.3-9.7-9.2-9.7-2.4 0-5.3.7-6.4 1.5zm49.9 28.6c-2.9 1.1-7.4 4-10.2 6.5-17.5 15.7-13.5 44.2 7.6 54.6 6.1 3 7.6 3.3 15.3 3.3 11.2 0 17-2.6 24.4-10.6 6.6-7.1 9.1-13.5 9-23.5 0-6-.5-8.2-3.2-13.7-3.9-7.9-10.2-13.8-17.8-16.7-7.2-2.7-18-2.6-25.1.1zm19 17.4c1.8.8 4.3 3.1 5.6 5 2.2 3.2 2.2 3.7.9 5.3-.9.9-1.9 2.7-2.2 3.9-1 3.3-7.1 8.1-11.2 8.9-2 .4-5.2.2-7.1-.4-3-.9-3.4-.9-2.8.6.5 1.3.2 1.3-1.5-.3-1.1-1-2.5-3.6-3.2-5.7-1.6-5.6.2-10.8 5.4-15.2 3.4-3 5-3.6 8.6-3.6 2.4 0 5.8.7 7.5 1.5zM911 448c0 .5-.5 1-1.1 1-.5 0-.7-.5-.4-1 .3-.6.8-1 1.1-1 .2 0 .4.4.4 1zm-810.3-27.9c-6.1 1.4-10.9 4.4-15.9 9.6-5.8 6.3-7.4 9.3-8.8 17.1-2.2 12.1 2.3 24 11.9 31.9 13.1 10.8 33.4 9.3 45.1-3.3 6.6-7.2 8.5-12.3 8.5-22.9 0-7.8-.4-9.7-2.8-14.7-6.8-13.9-22.7-21.3-38-17.7zm16.1 20.5c4.2 3.2 6.2 7.3 6.2 12.4 0 6-2 9.3-8.2 13.3-6.4 4-16.1.3-20-7.7-3.6-7.4-.3-16.1 7.5-19.7 5.1-2.3 9.8-1.8 14.5 1.7zM871 500.7c-3.9 2.7-4.9 4.5-5 9 0 6.2 3.7 10.3 9.6 10.3 6.3 0 10.5-3.9 10.6-9.7 0-2.4-.7-5.4-1.6-6.8-3-4.5-9.3-5.8-13.6-2.8zm43.4 17.7c-4.7 2.1-7.4 6.1-7.4 11.3 0 8.4 4.4 13.3 12 13.3 13.6 0 18.5-16.2 7.1-23.7-3.8-2.6-7.2-2.8-11.7-.9zm-816.1 5.3c-3.2.6-8 5.7-8.8 9.3-.9 4.2 1.1 9.5 4.8 12.6 2.7 2.3 3.8 2.6 8.1 2.1 8.3-.8 13.1-7.8 10.7-15.7-1.7-5.9-8.4-9.6-14.8-8.3zm28 .4c-4.9 1.4-8.3 6.2-8.3 11.6 0 8.1 4.1 12.3 12.2 12.3 3.4 0 4.7-.6 7.9-3.9 3.2-3.2 3.9-4.6 3.9-7.7 0-8.9-7.4-14.6-15.7-12.3zm20.1 35.9c-7.9 3.2-8.5 16.4-.9 19.8 7.4 3.4 16.5-2 16.5-9.8 0-7.4-8.5-12.9-15.6-10zm725.8 24.4c-3.2 1.7-6.2 6.5-6.2 9.9 0 4.3 2.4 9.1 7.1 14.2 5.3 5.8 13.1 11.5 15.6 11.5 2.7 0 15.6-11.2 19.2-16.7 1.9-2.9 3.1-5.9 3.1-8 0-10.7-11.6-16.1-19.5-9.2-1.9 1.7-3.5 2.6-3.5 2.1 0-1.8-6.6-5.2-10.1-5.2-1.9.1-4.4.6-5.7 1.4zM92 596.7c-8.5 4.4-7.6 16.3 1.5 19.3 10.1 3.3 18-9.1 10.8-17-3.6-3.8-7.7-4.6-12.3-2.3zm828.9 24.2c-5.8 5.8-2.7 16.4 5.1 17.2 3.9.4 6-.3 8.9-3 6.7-6.3 2.3-17.1-6.9-17.1-3.3 0-4.8.6-7.1 2.9zm-785.2 9.5c-5.7 1.7-12 5.7-14.2 9-1.3 1.9-2.6 2.4-7.4 2.8-14.6 1-26.6 12.4-29 27.4-2.5 15.9 6.1 31.4 21.9 39.4 8.9 4.5 22.1 7.6 37.1 8.7l8.5.6 4.6-5.4c10.1-12 17.3-25 20.3-36.4 6-23.5-8.2-45.4-30.7-47-3.7-.3-8.3.1-11.1.9zm15.5 19.2c1.5.8 4 3.1 5.5 5.1 2.5 3.3 2.8 4.4 2.8 11.8 0 7.7-.3 8.8-4.3 16.7-2.3 4.6-5.7 10.1-7.4 12.2l-3.1 3.8-7.6-.6c-9.6-.9-15.4-2.3-21.2-5.2-4.9-2.4-10.4-8-12-12.1-1.6-4.4-1.1-10.8 1.4-14.3 3.9-5.8 7-7.4 15-7.8 7.1-.4 7.3-.5 11.8-5.3 6.5-6.7 11.9-7.9 19.1-4.3zM862 664.1c-20 3.3-34 20.8-34 42.4 0 11.6 3.3 21.2 11.7 33.8 8.9 13.3 31.2 33.7 36.9 33.7 4.7 0 24.9-7.3 36.5-13.2 25-12.7 36-28.6 34.6-50.4-.4-7.2-1.1-9.8-4-15.7-9.1-18.3-27.3-27.5-44.1-22.2l-5.5 1.7-3.3-2.7c-7.4-6.3-18.3-9.1-28.8-7.4zm13 18.5c1.4 1 4.9 4 7.7 6.7 4.4 4.3 5.8 5.1 8.8 5 1.9-.1 5.1-1 7-2.2 6.3-3.7 11.2-4.5 16.1-2.6 5.6 2.1 11.7 9 13.5 15.2 4.4 15.3-2.2 28.7-18.8 38-7.9 4.4-26.1 12.3-28.5 12.3-.9 0-3-1.1-4.5-2.5l-2.8-2.4 2.9.2c1.7.1 3-.3 3.2-1.1.1-.7 0-.8-.3-.2-.2.5-1.2 1-2.1 1-1.3 0-1.4-.2-.3-.9.9-.6 1-1.1.2-1.5-.6-.4-1.1-.2-1.1.3 0 .6-1.1 1.1-2.4 1.1-3 0-17.1-14.5-21.5-22.1-3.6-6.3-7.1-16.7-7.1-21.3 0-8.2 6.4-18.7 13.9-22.6 4.6-2.4 12.7-2.6 16.1-.4z" />
    <path
        d="M911.8 736.7c1 .4 1 .8 0 2.1-1.2 1.5-1.1 1.6.4.3 1.9-1.4 1.5-3.2-.5-3-.8 0-.8.2.1.6zm-7.3 4.4c-.4.6-.4 1.3-.1 1.6.3.4.6.1.6-.6 0-.8.6-1.1 1.6-.7.8.3 1.2.2.9-.4-.8-1.3-2.2-1.3-3 .1zm-6.7 2.8c1.1.7 1.1.9-.1 1.4-.7.3-2 .1-2.8-.4-.8-.5-2.1-.8-2.9-.8-.8 0-.3.6 1.3 1.3 1.5.7 2.4 1.6 2 2-.5.4.6 0 2.4-1 2.9-1.7 2.8-3.4-.2-3.4-.5 0-.4.4.3.9zm-9 2.3c.5.5 1.6.8 2.3.6.8-.3.3-.7-1-1.1-1.7-.4-2.1-.3-1.3.5zm-684.4-12.3c-6 3.7-6.6 12.1-1.2 16.6 4.4 3.7 9.1 3.4 13.4-.9 4.4-4.4 4.6-9.2.7-13.6-3.6-4-8.6-4.8-12.9-2.1zm-81.1 17.6c-3.2 3.2-3.5 4-3 7.7.3 2.6 1.5 5.1 3.2 6.7 2.3 2.4 3.2 2.6 11 2.6 7.9 0 8.5-.2 11.4-2.9 2.4-2.3 3.1-3.8 3.1-6.9 0-7.8-4-10.7-15.1-10.7-6.8 0-7.2.1-10.6 3.5zm661.2 26.4c-12.7 3.3-21.5 13-23.5 25.8-.6 3.5-1.6 6.2-2.6 6.8-9.7 5.9-13.8 9.1-16.8 13.2-11.8 16-8.2 37.8 8.2 49.8 9.9 7.3 23.5 10.5 44 10.5 15.8-.1 28-1.4 30-3.3.7-.8 2.4-7.2 3.8-14.3 3.3-17.2 4.3-43.6 2.1-54.1-4.4-20.5-17.8-33.8-35.3-34.8-3.8-.2-8.2-.1-9.9.4zm6 19.1c-2.1.5-2.4.8-1 .9 1.3.1.6.7-2 1.6-2.2.8-4.1 1.5-4.2 1.5-.1 0 0 1.5.1 3.4.2 1.9-.1 4-.6 4.8-.6.8-.8-.1-.4-2.7.4-3.2.3-3.6-.6-2.1-.6 1-1.2 3.5-1.5 5.5-.3 2.8-.2 3.3.7 2.1.9-1.2 1.1-1 .7 1.2-.2 1.7 0 2.8.7 2.8.8 0 .8.3 0 .8-1.4.9-1.1 6.2.4 7.1.6.4-.8 1.3-3.4 2-3.4 1-4.2 1.6-3.4 2.6.6.7 1.8 1.2 2.8 1.1 4.7-.7 6 8.4 1.7 12.4-1.4 1.3-2.5 2.9-2.5 3.7 0 .7-.6 1.3-1.3 1.3-1.7 0-3.9 5.3-3.1 7.6.4 1.5.4 1.6-.4.5-.8-1.2-1.4-1.1-3.6.6-1.4 1.1-2.3 2.3-2.1 2.7.3.3.2.4-.1.1-.4-.2-1.6.1-2.7.6-1.5.8-2.2.8-2.8-.2-.5-.8-.9-1.1-.9-.7 0 .5-.9-.1-2-1.2-11.9-11.9-5.1-27 14-31.1 2.7-.6 5-1.5 5-2 0-.6.4-.8.9-.4.6.3.8-3.1.5-8.7-.2-5.1.1-10.4.6-11.8 1.4-3.4 6.8-6.9 10.5-6.8h3l-3 .8zm7 0c-.3.5-1.4 1-2.3 1-1.5 0-1.5-.2-.2-1 2-1.3 3.3-1.3 2.5 0zm5.1 3.2c3.6 4.2 4.7 6.3 1.3 2.7-1.9-2-4.1-3.9-4.9-4.2-1.3-.5-1.3-.6.1-.6.8-.1 2.4.9 3.5 2.1zM784 827.4c0 .3-.4.8-1 1.1-.5.3-1 .1-1-.4 0-.6.5-1.1 1-1.1.6 0 1 .2 1 .4z" />
    <path
        d="M778.6 831.7c-.3.4-.6 1.3-.5 2.2 0 1.2.3 1.1.9-.4.7-1.5.9-1 .9 2.2.1 2.4.6 4.3 1.1 4.3 1.6 0 1.2-7.7-.4-8.3-.8-.3-1.7-.3-2 0zm-1 6.8c-.3.8-.1 1.5.4 1.5.6 0 1-.7 1-1.5s-.2-1.5-.4-1.5-.6.7-1 1.5zm-584.3-48.6c-6.3 1.6-14.3 6.3-17.9 10.4-2 2.3-5.1 7.1-6.8 10.7-2.9 6-3.1 7.3-3.1 17s.2 11 3.1 17c4.6 9.6 11.6 18.3 20.8 25.7 10.1 8.1 26.1 17.6 29.7 17.6 3.7 0 19.6-8.2 29.3-15.1 24.6-17.7 33.3-40.4 23.6-61.7-3.4-7.4-13.2-16.7-20.5-19.4-8.2-3.1-19.1-2.6-26.4 1.2-2.8 1.4-5.3 2.2-5.6 1.8-.2-.5-2.6-1.9-5.1-3.1-5.1-2.4-15.9-3.4-21.1-2.1zm15.4 19.1c1.7 1 3.7 2.8 4.2 3.9 1.2 2.2 7.3 4.3 9.9 3.4.9-.4 3.6-2.2 5.9-4.1 7-5.6 14.4-5.6 20.8 0 7.2 6.3 9.6 15.9 5.5 22.5-1 1.8-4.1 5.5-6.8 8.3-2.7 2.7-4.7 5.2-4.5 5.4.2.2-.3.6-1.2 1-1.1.4-1.4.2-1-.7.4-.6.1-.5-.7.3-1.6 1.9-14.5 10-15.9 10-.5 0-.9.4-.9.8 0 .9-5.9 4.6-7.5 4.7-.5.1-.9.7-.7 1.4.3 1.4 0 1.3-8.3-4.3-18.1-12.1-27.1-26.3-24.4-38.6 2.7-12.6 16-19.9 25.6-14zM317 856c-1.5 1.5-2 3.3-2 7.8 0 4.9-.5 6.6-3.1 10.5-4.6 6.9-6.1 7.7-15.4 7.7-9.8 0-12.5 1.4-12.5 6.6 0 3.1.4 3.7 3.7 5.1 2.5 1 5.2 1.3 8.3.9 6.1-.8 10.5.6 13.8 4.5 4.2 4.9 5.1 7 5.2 11.7 0 6.6 2.3 10.2 6.7 10.2 3.4 0 6.3-4.5 6.3-9.9 0-3.5.8-5.9 2.8-9.2 4.2-6.5 5.1-6.9 14.7-7.4 6.4-.3 9.2-.8 10.6-2.1 2.3-2.1 2.4-5.2.3-8.2-1.4-2-2.4-2.2-10.3-2.2-8.2 0-8.9-.2-11.3-2.8-4.9-5.2-6.8-9.4-6.8-15.2 0-6.8-1.9-10-6.1-10-1.6 0-3.8.9-4.9 2zm11.3 30.7c1.7 1.9 1.6 2.1-2.8 6.5l-4.5 4.6-4.1-4.9-4.1-4.9 4.3-4.5 4.3-4.5 2.6 2.8c1.4 1.6 3.3 3.8 4.3 4.9zm357.2-16c-5.2 1.4-9.5 7.1-9.5 12.8 0 7 6.2 13.5 12.8 13.5 13.8 0 18.2-18.9 5.8-25-4.3-2-5.5-2.2-9.1-1.3zm-100.1 12.9c-2.1.8-4 1.4-4.1 1.4-.1 0-1.1 1.5-2.2 3.4-2.4 3.9-2.7 8.3-.7 12.9 3.6 8.8 16.4 9 21.6.4 6.2-10.1-3.4-22-14.6-18.1zm-165.7 2.8c-3.3 3.1-4.2 6.6-2.7 11 1.4 4.2 4.4 6.6 8.3 6.6 6.1 0 10.6-4.4 10.7-10.3 0-8.4-10.2-12.9-16.3-7.3zm84.7 1.7c-6.5 1.5-14.4 6.9-18 12.2-6.2 9-6.8 20.4-1.7 30.6 9.2 18 32.9 21.6 47.3 7.1 11.9-11.8 11.8-30.5-.3-42.2-6.8-6.6-18.3-9.9-27.3-7.7zm15.8 22.2c4.6 5.8 2.4 13.7-4.7 16.8-3.3 1.5-4.9 1.6-7.8.8-3.8-1-7.4-4.7-8.3-8.5-.8-3 1.1-8.7 3.6-10.9 4.5-4.1 13.4-3.2 17.2 1.8zm-142 1.7c-6.7 4.2-7.8 13.6-2.3 19.1 8.2 8.1 21.9 1.5 20.8-10-1-8.9-10.9-13.9-18.5-9.1zm244.7 3.5c-1.5.8-3.4 3.1-4.4 5.1-5.6 11.8 7.3 22.8 18.3 15.6 6.9-4.5 6.8-16-.2-20.6-3.1-2-10.2-2-13.7-.1z" />
</svg>