<svg xmlns="http://www.w3.org/2000/svg" xml:space="preserve" width="150mm" height="100mm"
    style="shape-rendering:geometricPrecision;text-rendering:geometricPrecision;image-rendering:optimizeQuality;fill-rule:evenodd;clip-rule:evenodd"
    viewBox="0 0 150 100"><defs><style>.fil3{fill:#eac102}.fil1{fill:#f0b20a}.fil2{fill:#000;fill-rule:nonzero}</style></defs><g id="Capa_x0020_1"><g id="_54225272"><path id="_53680280" style="fill:#171a63" d="M0 0h150v100H0z"/><path id="_53939176" class="fil1" d="m10.732 20.375.043 3.57 4.063-.076-.017-2.648 1.332-.024.016 2.648 1.804-.033.012 1.946-1.804.036.017 2.646-1.331.026-.017-2.648-4.064.076.004 3.572 2.132-.041.012 1.949-2.131.041.02 3.323 4.083-.076-.02-3.12 1.332-.026.019 3.12 3.901-.073-.124-19.631-3.872.073.016 2.704-1.366.026-.017-2.704-4.076.078.022 3.317 2.131-.039.013 1.947z"/><path id="_539391761" class="fil2" d="m10.775 24.152-.098-.202-.042-3.57.194-.01.043 3.57-.097.212zm0 0-.095.002-.003-.204.098.202zm4.16-.286-.097.21-4.063.076-.001-.413 4.063-.077.098.204zm0 0 .001.208-.098.001.097-.209zm-.115-2.852.098.204.017 2.648-.195.005-.017-2.648.097-.209zm-.097.21v-.208l.097-.002-.097.21zm1.527-.03-.097.21-1.332.023-.001-.413 1.332-.024.098.204zm-.098-.204.096-.002.002.206-.098-.204zm.017 3.062-.098-.204-.016-2.649.195-.005.016 2.649-.097.209zm0 0-.096.002-.002-.206.098.204zm1.9-.243-.095.21-1.805.033-.001-.414 1.804-.033.098.204zm-.097-.204.097-.002v.206l-.097-.204zm.014 2.36-.098-.204-.012-1.947.194-.005.012 1.947-.096.209zm.096-.21.002.208-.098.002.096-.21zm-1.998.041.096-.209 1.804-.035.002.413-1.804.036-.098-.205zm0 0-.001-.207.097-.002-.096.21zm.115 2.85-.098-.204-.017-2.646.194-.004.017 2.646-.096.209zm.096-.208.002.207-.098.002.096-.21zm-1.526.03.097-.209 1.331-.026.002.414-1.332.026-.098-.205zm.098.205-.096.002-.002-.207.098.205zm-.018-3.062.098.204.017 2.649-.195.004-.016-2.648.096-.21zm0 0 .097-.002.001.206-.098-.204zm-4.16.283.096-.207 4.064-.076.002.413-4.064.076-.098-.206zm0 0v-.205l.096-.002-.096.207zm.102 3.779-.098-.207-.004-3.572h.194l.004 3.572-.096.207zm0 0-.098.001v-.208l.098.207zm2.228-.25-.096.208-2.132.042-.002-.414 2.132-.041.098.204zm-.098-.205.097-.002.001.206-.098-.204zm.014 2.363-.098-.205-.012-1.949.194-.005.012 1.95-.096.209zm.096-.21.002.208-.098.002.096-.21zm-2.326.046.097-.21 2.131-.04.002.414-2.132.04-.098-.204zm0 0v-.207l.097-.002-.097.209zm.119 3.528-.098-.205-.02-3.323.194-.005.02 3.324-.096.209zm0 0-.097.002-.001-.207.098.205zm4.18-.286-.097.21-4.083.076-.002-.414 4.083-.076.098.204zm0 0v.207l-.097.002.096-.209zm-.119-3.323.098.204.02 3.12-.194.004-.02-3.12.096-.208zm-.096.209-.001-.208.097-.001-.096.209zm1.526-.031-.097.21-1.331.025-.002-.413 1.332-.026.098.204zm-.098-.204.096-.002.002.206-.098-.204zm.021 3.532-.098-.204-.02-3.12.195-.004.02 3.12-.097.208zm0 0-.097.002-.001-.206.098.204zm3.998-.281-.097.209-3.901.072-.002-.413 3.902-.072.098.204zm0 0v.207l-.097.002.097-.21zm-.223-19.835.098.204.125 19.63-.195.006-.125-19.631.097-.21zm0 0 .096-.002.002.206-.098-.204zm-3.968.281.096-.209 3.872-.072.001.413-3.871.073-.098-.205zm0 0-.001-.207.097-.002-.096.21zm.114 2.908-.098-.204-.016-2.704.194-.005.016 2.704-.096.21zm.096-.209.002.208-.098.001.096-.209zm-1.56.031.096-.209 1.366-.026.002.413-1.367.027-.098-.205zm.097.205-.096.001-.002-.206.098.205zm-.018-3.117.098.204.017 2.703-.194.005-.017-2.703.096-.21zm0 0 .097-.002.001.206-.098-.204zm-4.173.286.097-.209 4.076-.077.002.413-4.077.078-.098-.205zm0 0v-.207l.097-.002-.097.21zm.12 3.522-.098-.205-.022-3.317.195-.005.022 3.318-.097.209zm0 0-.096.001-.002-.206.098.205zm2.228-.248-.096.209-2.132.039-.001-.414 2.131-.038.098.204zm-.098-.204.097-.002.001.206-.098-.204zm.014 2.36-.098-.204-.012-1.947.194-.005.013 1.947-.097.21zm.097-.209.001.207-.098.002.097-.209zm-2.327.048.096-.212 2.133-.04.001.413-2.132.04-.098-.201zm0 0-.002-.21.098-.002-.096.212z"/><path id="_54327424" class="fil1" d="m23.269 67.235-4.586.126 1.922-4.57-.288-49.79 1.22-.025.288 49.791z"/><path id="_543274241" class="fil2" d="m18.641 67.266.041-.04 4.587-.126.001.27-4.586.126-.043-.23zm.043.23-.14.004.097-.234.043.23zm1.979-4.706-.017.095-1.921 4.57-.084-.189 1.922-4.57.1.093zm0 0v.055l-.017.04.017-.095zm-.347-49.925.059.134.288 49.79-.116.004-.289-49.79.058-.138zm-.058.137v-.135l.058-.002-.058.137zm1.337-.028-.058.137-1.22.025-.001-.27 1.22-.026.059.134zm-.059-.134h.058v.134l-.058-.134zm.242 50.008-.012-.08-.288-49.79.117-.004.288 49.791-.105.083zm0 0-.011-.035v-.045l.011.08zm1.492 4.522-.047-.054-1.445-4.468.093-.162 1.445 4.468-.046.216zm.046-.216.069.213-.115.003.046-.216z"/><path id="_54377528" class="fil1" d="M21.327 7.976c-.163-.337-.712-.261-.827.015-.122.291-.275.844-.482 2.366-.203 1.499-.224 2.834-.224 2.834l2.392-.046s-.043-1.414-.29-2.823c-.248-1.41-.419-2.034-.569-2.346z"/><path id="_543775281" class="fil2" d="m20.428 7.854.02-.043.022-.038.024-.032.025-.029.026-.025.027-.023.028-.02.03-.018.03-.017.03-.015.033-.012.033-.01.033-.01.034-.007.035-.005.034-.003.035-.001h.035l.035.003.035.004.034.007.034.01.033.012.033.014.032.016.032.02.03.022.03.026.028.03.027.034.026.04.024.044-.136.297-.008-.016-.012-.018-.013-.016-.017-.017-.018-.017-.02-.015-.023-.014L21.124 8l-.025-.01-.027-.01-.027-.007-.029-.005-.028-.005-.03-.002h-.06l-.03.003-.029.005-.028.006-.028.007-.028.01-.026.01-.025.011-.024.012-.021.015-.02.014-.018.015-.016.015-.013.014-.01.014-.006.01-.003.007v.001l-.145-.275zm.145.274v.001l.004-.012-.004.011zm-.648 2.172.02-.141.019-.136.018-.13.019-.125.018-.12.018-.115.018-.11.017-.106.017-.101.017-.096.017-.093.016-.088.016-.084.016-.08.016-.077.015-.072.016-.07.015-.066.015-.062.015-.06.014-.056.015-.054.014-.051.014-.048.014-.046.014-.043.013-.041.014-.04.014-.036.013-.035.013-.033.013-.031.144.275-.01.025-.01.027-.011.028-.01.03-.012.031-.011.035-.012.037-.012.038-.012.042-.013.045-.012.047-.013.05-.013.054-.014.057-.014.06-.014.064-.014.068-.015.072-.015.075-.015.08-.016.084-.016.087-.016.093-.017.097-.017.102-.017.107-.017.112-.018.117-.018.122-.018.128-.019.133-.02.138-.186-.114zm.187.114-.057.416.057-.416zm-.317 2.984-.098-.214V13.147l.001-.026v-.036l.002-.04.002-.047.001-.054.002-.06.003-.066.003-.071.004-.077.003-.083.005-.087.005-.092.005-.097.007-.102.006-.105.008-.11.008-.113.009-.117.01-.12.01-.124.01-.127.013-.13.013-.13.014-.135.014-.136.016-.138.017-.14.018-.142.019-.142.187.115-.018.137-.018.136-.016.135-.015.134-.014.132-.014.13-.012.127-.012.125-.011.123-.01.12-.01.116-.008.114-.008.11-.007.107-.007.102-.005.098-.006.094-.005.09-.004.085-.004.079-.003.075-.003.07-.002.062-.002.058-.002.051-.002.046v.039l-.002.03V13.197l-.099-.213.002.414zm0 0-.101.002.003-.216.098.214zm2.489-.266-.097.22-2.392.046-.002-.414 2.393-.046.098.194zm0 0 .006.217-.103.002.096-.22zm-.297-2.882.023.135.022.135.02.134.02.134.019.132.017.13.016.13.016.127.014.126.013.123.013.12.012.117.01.115.01.11.01.107.008.103.007.099.007.094.006.09.006.085.005.08.004.073.004.068.003.062.003.057.002.05.002.042.002.035.001.03v.02l.001.012v.007l-.194.026v-.013l-.001-.02-.001-.026-.001-.034-.002-.04-.002-.047-.003-.053-.003-.06-.004-.066-.004-.072-.005-.076-.005-.082-.007-.086-.006-.091-.007-.096-.009-.1-.008-.103-.01-.107-.01-.11-.012-.113-.011-.116-.014-.119-.013-.12-.015-.123-.015-.124-.017-.126-.018-.127-.019-.127-.02-.13-.02-.128-.022-.129.182-.144zm0 0zm-.592-2.422.016.034.016.036.016.038.016.04.016.042.016.044.017.047.016.049.017.05.016.054.017.057.017.058.017.062.018.064.017.068.018.07.018.074.018.076.019.08.018.083.02.087.019.09.02.094.02.098.02.102.021.104.021.11.022.113.022.119.022.121.023.127.023.131-.182.144-.023-.129-.023-.124-.022-.12-.021-.115-.021-.111-.02-.107-.021-.103-.02-.098-.02-.095-.019-.09-.018-.088-.019-.083-.018-.079-.017-.076-.017-.073-.017-.069-.017-.066-.016-.062-.016-.06-.016-.055-.015-.054-.015-.05-.015-.047-.014-.045-.014-.043-.014-.039-.014-.037-.013-.035-.013-.032-.013-.03-.012-.028-.013-.026.136-.297zm0 0z"/><path class="fil1" d="m21.474 34.51-.005-.815-1.773.034.005.814z"/><path id="1" class="fil2" d="m21.465 33.566.158.13.005.814h-.307l-.006-.815.15-.129zm0 0 .157-.003v.133l-.157-.13zm-1.922.163.15-.13 1.772-.033.008.258-1.773.034-.157-.13zm0 0-.001-.126.15-.003-.15.129zm.162.943-.157-.13-.005-.813h.307l.005.814-.15.13zm0 0-.156.003-.001-.132.157.13zm1.923-.162-.15.129-1.773.033-.008-.258 1.773-.034.158.13zm0 0v.126l-.15.003.15-.13z"/><path class="fil1" d="m21.355 15.695-.006-.815-1.772.034.005.814z"/><path class="fil2" d="m21.345 14.751.158.13.005.814h-.307l-.005-.815.15-.129zm0 0 .157-.003.001.133-.158-.13zm-1.922.163.15-.129 1.772-.034.008.259-1.772.033-.158-.129zm0 0v-.126l.15-.003-.15.129zm.163.943-.157-.13-.006-.813h.308l.005.814-.15.13zm0 0-.156.003-.001-.132.157.13zm1.922-.162-.15.129-1.772.033-.008-.258 1.773-.034.157.13zm0 0 .001.126-.15.003.15-.13z"/><path class="fil1" d="m21.394 21.966-.005-.814-1.771.033.005.815z"/><path class="fil2" d="m21.385 21.023.158.13.005.813h-.307l-.006-.814.15-.129zm0 0 .157-.003v.132l-.157-.129zm-1.921.162.15-.129 1.771-.033.008.258-1.772.033-.157-.129zm0 0v-.126l.15-.003-.15.13zm.163.944-.158-.13-.005-.814h.307l.005.815-.15.13zm0 0-.157.003-.001-.132.158.13zm1.92-.163-.149.13-1.771.033-.008-.258 1.771-.034.158.13zm0 0 .001.126-.15.003.15-.129z"/><path class="fil1" d="m21.435 28.238-.006-.814-1.772.033.005.815z"/><path class="fil2" d="m21.425 27.295.158.129.005.814h-.307l-.005-.814.15-.13zm0 0 .157-.003v.132l-.157-.13zm-1.922.162.15-.129 1.772-.033.008.258-1.772.033-.158-.129zm0 0v-.126l.15-.003-.15.13zm.163.944-.158-.13-.005-.814h.308l.005.815-.15.129zm0 0-.157.003v-.133l.157.13zm1.922-.163-.15.129-1.772.034-.008-.259 1.772-.033.158.129zm0 0v.126l-.15.003.15-.13z"/><path class="fil1" d="m43.366 20.434-.042 3.57-4.063-.076.017-2.648-1.332-.024-.016 2.648-1.804-.033-.012 1.946 1.803.036-.016 2.646 1.331.026.016-2.648 4.064.076-.003 3.572-2.132-.041-.013 1.948 2.132.041-.021 3.324-4.082-.077.02-3.119-1.332-.025-.02 3.119-3.901-.073.125-19.63 3.872.072-.017 2.704 1.367.025.016-2.703 4.076.078-.021 3.317-2.131-.039-.013 1.948z"/><path class="fil2" d="m43.323 24.211-.097-.212.043-3.57.195.01-.043 3.57-.098.202zm.098-.202-.003.204-.095-.002.098-.202zm-4.257-.084.098-.204 4.062.077-.001.413-4.063-.077-.096-.209zm.096.21-.097-.003v-.207l.097.21zm.019-3.062.096.209-.017 2.648-.194-.005.017-2.648.098-.204zm0 0 .097.002-.001.207-.096-.21zm-1.43.18.098-.204 1.332.024-.002.413-1.332-.024-.096-.209zm0 0v-.206l.098.002-.098.204zm.08 2.857-.096-.209.016-2.648.194.005-.016 2.648-.098.204zm.098-.204-.001.206-.097-.002.098-.204zm-1.998-.038.098-.204 1.804.033-.002.413-1.804-.033-.096-.209zm0 0 .001-.206.097.002-.098.204zm.084 2.156-.097-.21.013-1.946.194.005-.012 1.947-.098.204zm0 0-.098-.002.001-.207.097.209zm1.901-.169-.098.204-1.803-.035.001-.414 1.804.036.096.21zm-.096-.209.098.002-.002.207-.096-.209zm-.018 3.06-.097-.21.017-2.646.194.005-.016 2.646-.098.205zm0 0-.098-.002.001-.207.097.209zm1.43-.179-.099.205-1.331-.026.001-.414 1.332.026.096.21zm0 0-.002.207-.097-.002.098-.205zm-.08-2.856.096.209-.017 2.647-.194-.004.016-2.648.098-.204zm-.099.204.001-.206.097.002-.098.204zm4.259.078-.098.206-4.064-.075.001-.413 4.064.075.097.207zm-.097-.207.097.002v.205l-.097-.207zm-.005 3.985-.097-.207.004-3.571h.195l-.004 3.571-.098.207zm.098-.207v.209l-.098-.002.098-.207zm-2.326-.043.098-.204 2.131.04-.001.414-2.132-.04-.096-.21zm0 0v-.206l.098.002-.098.204zm.084 2.158-.097-.21.013-1.948.194.005-.012 1.949-.098.204zm0 0-.098-.002.001-.207.097.209zm2.23-.163-.099.204-2.131-.041.001-.414 2.132.042.096.209zm-.097-.21.098.002-.002.208-.096-.21zm-.023 3.737-.096-.209.02-3.323.195.005-.02 3.323-.099.204zm.098-.204-.001.206-.097-.002.098-.204zm-4.277-.081.098-.205 4.083.077-.002.413-4.082-.076-.097-.21zm.097.209-.098-.002.001-.207.097.209zm.021-3.533.097.21-.02 3.118-.195-.004.02-3.12.098-.204zm0 0 .098.002-.001.207-.097-.209zm-1.43.18.099-.205 1.331.025-.001.414-1.332-.026-.096-.209zm0 0 .002-.207.097.002-.098.204zm.078 3.327-.097-.209.02-3.119.194.005-.02 3.12-.097.203zm.098-.204-.002.206-.096-.002.098-.204zm-4.096-.077.098-.205 3.901.073-.002.413-3.9-.072-.097-.21zm.096.209-.097-.002.001-.207.096.209zm.127-20.044.096.209-.125 19.63-.194-.004.125-19.63.098-.205zm-.098.204.001-.206.097.002-.098.204zm4.066.077-.098.205-3.872-.073.002-.413 3.872.072.096.21zm-.096-.209.097.002-.001.207-.096-.209zm-.019 3.117-.096-.209.016-2.704.195.005-.017 2.704-.098.204zm0 0-.097-.002v-.207l.097.21zm1.465-.178-.098.204-1.367-.026.002-.413 1.366.026.097.209zm0 0-.002.206-.096-.002.098-.204zm-.08-2.913.097.21-.017 2.703-.195-.005.017-2.703.098-.205zm-.098.205.001-.207.097.002-.098.205zm4.27.082-.097.205-4.076-.078.001-.414 4.076.078.097.21zm-.096-.209.098.002-.001.207-.097-.209zm-.023 3.73-.097-.208.022-3.317.195.004-.022 3.317-.098.205zm.098-.204-.001.206-.097-.001.098-.205zm-2.326-.043.098-.205 2.131.04-.001.413-2.131-.04-.097-.208zm0 0 .002-.206.096.001-.098.205zm.084 2.156-.096-.209.012-1.947.195.005-.013 1.947-.098.204zm0 0-.098-.002.002-.207.096.21zm2.23-.161-.097.202-2.133-.04.002-.414 2.132.04.097.212zm-.096-.212.1.002-.003.21-.097-.212z"/><path class="fil1" d="m30.829 67.294 4.586.126-1.921-4.57.288-49.79-1.22-.025-.288 49.791z"/><path class="fil2" d="m35.457 67.326-.042.23-4.586-.127.001-.27 4.586.126.041.04zm0 0 .098.233-.14-.004.042-.23zm-2.022-4.477.1-.093 1.922 4.57-.083.188-1.922-4.57-.017-.096zm.017.095-.017-.04v-.056l.017.096zm.33-50.02.058.137-.288 49.79-.117-.003.289-49.79.058-.134zm0 0 .059.002-.001.135-.058-.137zm-1.278.109.059-.134 1.22.025-.002.27-1.22-.024-.057-.137zm0 0v-.135l.059.001-.059.134zm-.184 49.874-.105-.083.289-49.791.116.003-.288 49.791-.012.08zm.012-.08v.044l-.012.036.012-.08zm-1.503 4.602-.046-.216 1.444-4.469.093.163-1.444 4.468-.047.054zm0 0-.115-.003.069-.213.046.216z"/><path class="fil1" d="M32.771 8.035c.163-.338.713-.261.828.015.122.291.275.844.481 2.366a26.78 26.78 0 0 1 .224 2.833l-2.392-.046s.044-1.412.29-2.822c.249-1.41.419-2.034.57-2.346z"/><path class="fil2" d="m33.671 7.912-.145.276v-.001l-.003-.007-.007-.01-.01-.014-.012-.014-.016-.016-.018-.014-.02-.015-.022-.014-.023-.012-.025-.011-.026-.011-.028-.009-.028-.007-.029-.006-.03-.005-.029-.003-.03-.001h-.03l-.03.003-.028.004-.028.006-.028.007-.027.01-.025.01-.024.013-.022.014-.02.015-.02.016-.015.017-.014.017-.011.018-.009.016-.136-.297.024-.045.026-.039.027-.034.029-.03.03-.026.03-.022.031-.02.032-.016.033-.015.034-.012.033-.009.035-.007.035-.004.034-.003h.07l.034.004.035.004.034.008.034.009.032.01.033.013.03.014.031.017.03.018.028.02.027.023.026.026.025.028.024.033.022.037.02.044v-.001zm-.145.276v-.001l-.01-.026.01.027zm.648 2.17-.187.116v-.001l-.02-.139-.018-.132-.019-.128-.017-.122-.018-.117-.018-.112-.017-.107-.017-.102-.016-.097-.016-.093-.016-.087-.016-.085-.015-.08-.015-.074-.015-.072-.015-.068-.013-.064-.015-.06-.013-.057-.013-.054-.013-.05-.013-.048-.013-.044-.012-.042-.012-.039-.011-.037-.012-.033-.01-.033-.012-.03-.01-.028-.01-.026-.01-.025.144-.276.013.031.013.033.013.035.014.038.013.038.014.041.014.044.014.046.014.048.014.051.014.054.015.056.015.06.015.063.015.066.015.069.016.072.016.077.015.08.017.084.016.088.017.092.017.097.017.101.017.106.018.11.018.115.018.12.018.125.019.13.02.136.018.141zm-.187.116v-.001l.124.915-.124-.914zm.316 2.982.002-.413-.098.213v-.031l-.001-.026-.001-.031-.001-.039-.002-.045-.001-.052-.003-.057-.002-.064-.003-.069-.003-.074-.004-.08-.004-.084-.005-.09-.005-.094-.006-.098-.007-.103-.007-.106-.008-.11-.008-.114-.01-.117-.01-.12-.01-.122-.012-.125-.013-.128-.013-.13-.015-.131-.015-.134-.016-.135-.017-.137-.018-.136.187-.116.018.144.018.14.017.14.016.138.015.137.014.134.012.131.013.13.01.126.011.124.01.12.008.118.009.113.007.11.007.105.006.102.006.097.005.091.004.088.004.083.003.076.003.072.003.066.002.06.002.053.001.047.001.042.001.034v.027l.001.02v.017l-.098.213zm.098-.213.004.215-.102-.002.098-.213zm-2.586-.053.098-.194 2.392.047-.002.413-2.391-.046-.097-.22zm.097.22-.103-.002.006-.218.097.22zm.2-3.1.182.143-.022.13-.02.128-.02.129-.02.127-.017.127-.017.125-.015.126-.015.122-.014.12-.013.119-.012.115-.011.114-.01.11-.01.107-.009.103-.008.1-.007.095-.007.091-.006.087-.005.082-.005.076-.004.07-.004.067-.003.06-.003.053-.002.047-.002.04-.001.035-.001.026v.02l-.001.009v.003l-.195-.026v-.019l.002-.02v-.029l.002-.035.002-.043.003-.05.002-.056.004-.062.003-.068.005-.074.005-.08.005-.084.006-.09.008-.095.007-.098.008-.103.01-.107.01-.111.01-.114.012-.117.012-.12.013-.123.015-.125.015-.128.017-.128.017-.132.018-.132.02-.134.02-.133.022-.136.024-.135zm0 0zm.591-2.423.136.297-.012.026-.013.028-.012.03-.013.033-.014.034-.013.037-.014.04-.015.042-.014.044-.014.047-.015.051-.016.054-.015.055-.016.06-.017.062-.016.066-.017.069-.017.073-.018.075-.018.08-.018.083-.019.087-.019.091-.02.095-.02.098-.02.103-.02.107-.021.111-.022.115-.022.12-.022.124-.023.13-.182-.145.023-.13.023-.128.022-.121.022-.119.021-.113.022-.11.02-.104.021-.102.02-.098.02-.094.019-.09.02-.087.018-.083.018-.08.019-.076.018-.074.017-.07.018-.068.017-.064.017-.062.017-.059.017-.055.017-.054.016-.052.017-.048.016-.047.016-.044.016-.042.016-.04.016-.038.016-.036.016-.034zm0 0z"/><path class="fil1" d="m32.625 34.569.005-.814 1.772.033-.005.814z"/><path class="fil2" d="m32.633 33.626.15.13-.005.814-.307-.002.005-.815.157-.127zm-.157.127.001-.13.156.003-.157.127zm2.08.036-.156.128-1.773-.034.006-.257 1.772.033.15.13zm-.151-.13.151.003v.127l-.151-.13zm-.01 1.072-.152-.13.006-.814.307.002-.005.814-.157.128zm.156-.128-.001.13-.156-.002.157-.128zm-2.08-.035.156-.128 1.773.033-.006.258-1.772-.033-.15-.13zm.151.13-.152-.003.001-.127.151.13z"/><path class="fil1" d="m32.744 15.754.005-.814 1.773.033-.006.815z"/><path class="fil2" d="m32.752 14.81.15.13-.004.815-.308-.002.005-.815.157-.128zm-.156.128v-.13l.156.003-.156.127zm2.08.036-.157.128-1.773-.033.006-.259 1.772.034.151.13zm-.152-.13.152.003v.127l-.152-.13zm-.01 1.073-.151-.13.005-.815.307.002-.005.815-.156.127zm.156-.128v.13l-.156-.003.156-.127zm-2.08-.036.157-.128 1.772.033-.005.258-1.773-.033-.15-.13zm.151.13-.151-.003v-.127l.151.13z"/><path class="fil1" d="m32.705 22.025.005-.814 1.771.034-.005.814z"/><path class="fil2" d="m32.712 21.082.151.13-.005.814-.307-.002.005-.814.156-.128zm-.156.128v-.13l.156.002-.156.128zm2.079.036-.156.128-1.772-.034.005-.258 1.772.034.15.13zm-.151-.13.152.002-.001.128-.151-.13zm-.01 1.072-.152-.131.006-.814.307.003-.006.814-.156.127zm.155-.128v.13l-.156-.003.156-.127zm-2.078-.036.156-.128 1.772.033-.006.258-1.771-.033-.151-.13zm.15.13-.15-.003v-.127l.15.13z"/><path class="fil1" d="m32.664 28.297.005-.814 1.773.033-.005.815z"/><path class="fil2" d="m32.672 27.354.15.13-.004.814-.308-.002.005-.815.157-.127zm-.156.128v-.131l.156.003-.156.128zm2.08.036-.157.127-1.773-.033.006-.258 1.772.033.151.13zm-.152-.13.152.002v.128l-.152-.13zm-.01 1.072-.151-.13.005-.815.307.003-.005.814-.156.128zm.156-.128v.13l-.156-.002.156-.128zm-2.08-.036.157-.128 1.772.034-.005.258-1.773-.034-.15-.13zm.151.13-.151-.003v-.127l.151.13z"/><path class="fil1" d="M9.1 75.974 20.487 84.9l11.95-8.678-11.388-8.926L9.1 75.974zm3.582-.013 8.214-5.965 7.963 6.241-8.215 5.965-7.962-6.241z"/><path class="fil2" d="m20.542 84.986-.112-.002-11.388-8.926.115-.169 11.388 8.927-.003.17zm0 0-.057.041-.055-.043.112.002zm11.954-8.848-.003.17-11.95 8.678-.11-.172 11.951-8.678.112.002zm0 0 .112.087-.115.084.003-.17zm-11.5-8.929.112.002 11.388 8.927-.115.169-11.388-8.927.003-.17zm0 0 .057-.04.055.042-.112-.002zM9.042 76.058l.003-.17 11.95-8.679.11.173L9.154 76.06l-.112-.002zm0 0-.111-.087.114-.083-.003.17zm11.911-6.146-.003.17-8.214 5.965-.109-.172 8.214-5.965.112.002zm-.112-.002.057-.041.055.043-.112-.002zm8.072 6.414-.112-.002-7.963-6.242.115-.168 7.963 6.241-.003.17zm.003-.17.111.087-.114.083.003-.17zm-8.33 6.132.004-.17 8.214-5.965.109.173-8.214 5.964-.112-.002zm.113.002-.057.042-.055-.044.112.002zm-8.072-6.413.112.002 7.963 6.24-.115.17-7.963-6.242.003-.17zm-.003.17-.111-.087.114-.083-.003.17z"/><path class="fil1" d="m21.07 75.817 11.389 8.928 11.95-8.679-11.388-8.926-11.951 8.677zm3.583-.013 8.213-5.964 7.963 6.242-8.213 5.964-7.964-6.242z"/><path class="fil2" d="m32.513 84.831-.112-.002-11.389-8.928.115-.168 11.39 8.928-.004.17zm0 0-.056.041-.056-.043.112.002zm11.954-8.849-.003.17-11.95 8.68-.11-.173 11.95-8.679.113.002zm0 0 .111.087-.114.083.003-.17zm-11.5-8.928.111.002 11.389 8.926-.115.168-11.388-8.926.002-.17zm0 0 .056-.042.055.044-.112-.002zM21.011 75.9l.003-.17 11.951-8.677.11.173-11.952 8.677-.112-.003zm0 0-.111-.087.114-.083-.003.17zm11.912-6.145-.003.171-8.214 5.964-.109-.174 8.214-5.963.112.002zm-.112-.002.056-.041.056.043-.112-.002zm8.072 6.414-.112-.002-7.963-6.241.115-.169 7.963 6.242-.003.17zm.003-.17.111.087-.114.083.003-.17zm-8.329 6.132.003-.17 8.214-5.964.109.172-8.214 5.964-.112-.002zm.112.002-.057.041-.055-.043.112.002zm-8.072-6.415.112.003 7.963 6.242-.115.168-7.963-6.242.003-.17zm-.003.171-.112-.087.115-.084-.003.171z"/><path class="fil3" d="m26.53 74.446 1.866-1.359m-1.715-1.343L24.814 73.1l1.867-1.356z"/><path class="fil2" d="m28.45 73.173-1.866 1.36-.109-.173L28.341 73l.11.172zm-3.69-.16 1.867-1.355.109.173-1.867 1.355-.11-.173z"/><path class="fil3" d="M11.863 75.975c0 1.02-1.134 1.85-2.533 1.85s-2.533-.83-2.533-1.85c0-1.021 1.134-1.85 2.533-1.85s2.533.829 2.533 1.85z"/><path class="fil1" d="M11.863 75.975c0 1.02-1.134 1.849-2.533 1.849s-2.533-.828-2.533-1.85c0-1.02 1.134-1.849 2.533-1.849s2.533.828 2.533 1.85z"/><path class="fil2" d="M9.33 77.929v-.21l.127-.002.125-.007.124-.011.121-.016.119-.02.117-.024.114-.029.112-.032.109-.036.106-.04.102-.042.1-.047.095-.05.092-.052.089-.056.084-.059.08-.061.077-.065.071-.066.067-.07.063-.07.057-.073.053-.075.047-.077.042-.078.038-.08.031-.081.026-.082.02-.085.015-.084.01-.087.002-.087h.195l-.003.102-.01.102-.018.1-.024.098-.03.097-.038.094-.042.092-.049.09-.054.086-.059.085-.065.082-.069.08-.074.075-.079.073-.083.07-.087.067-.092.064-.095.06-.1.058-.103.053-.106.05-.11.046-.112.042-.116.038-.118.034-.12.03-.124.026-.126.02-.129.018-.13.012-.132.007-.133.003zm0 0zM6.7 75.975h.194l.003.087.01.087.014.084.02.084.027.083.03.081.038.08.042.078.048.077.053.075.057.073.062.07.067.07.072.066.076.065.08.061.085.059.088.055.092.053.096.05.1.047.102.043.106.04.109.035.111.032.115.029.117.024.119.02.121.016.123.011.125.007.128.002v.21l-.134-.003-.132-.007-.13-.012-.128-.017-.126-.021-.124-.026-.12-.03-.119-.034-.115-.038-.113-.042-.11-.046-.106-.05-.103-.053-.099-.057-.096-.06-.091-.065-.088-.067-.083-.07-.079-.073-.074-.076-.069-.079-.065-.082-.059-.085-.054-.086-.048-.09-.043-.092-.037-.094-.03-.097-.024-.098-.018-.1-.01-.102-.004-.102zm0 0zm2.63-1.954v.209l-.127.002-.126.007-.123.011-.121.016-.12.02-.116.025-.115.028-.111.032-.11.036-.105.04-.103.042-.099.047-.095.05-.093.053-.088.055-.084.06-.08.06-.077.065-.072.066-.067.07-.062.07-.057.073-.053.075-.048.077-.042.078-.037.08-.031.081-.026.083-.021.084-.015.085-.009.086-.003.088h-.195l.004-.103.01-.102.018-.1.024-.098.03-.096.037-.095.043-.092.048-.09.054-.086.06-.085.064-.082.07-.079.073-.076.08-.073.083-.07.087-.067.092-.064.095-.06.1-.058.102-.053.106-.05.11-.046.113-.042.115-.038.119-.034.12-.03.124-.026.126-.02.128-.017.13-.012.133-.008.133-.002zm0 0zm2.63 1.954h-.195l-.003-.088-.009-.086-.014-.085-.021-.084-.026-.083-.031-.08-.037-.08-.043-.079-.048-.077-.052-.075-.057-.073-.063-.07-.067-.07-.071-.066-.077-.064-.08-.062-.084-.059-.088-.055-.093-.053-.095-.05-.1-.046-.102-.043-.106-.04-.109-.036-.111-.032-.115-.028-.117-.025-.119-.02-.121-.016-.124-.011-.125-.007-.127-.002v-.21l.133.003.132.008.13.012.129.016.126.021.123.026.121.03.119.035.115.037.113.042.11.047.106.05.103.053.099.057.095.06.092.064.087.067.083.07.08.073.073.076.07.08.064.081.06.085.054.087.048.09.042.092.037.094.03.096.025.098.017.1.01.102.004.103zm0 0z"/><path class="fil3" d="M11.291 74.098c.382 0 .69.26.69.584v2.708c0 .324-.308.585-.69.585-.383 0-.69-.261-.69-.585v-2.708c0-.323.307-.584.69-.584z"/><path class="fil2" d="M12.079 74.682h-.195v-.023l-.003-.023-.003-.023-.005-.022-.006-.023-.007-.022-.009-.021-.01-.021-.01-.02-.013-.021-.014-.02-.014-.02-.016-.019-.017-.018-.018-.018-.02-.017-.02-.016-.021-.016-.023-.015-.023-.014-.024-.014-.026-.012-.026-.01-.026-.011-.028-.01-.028-.007-.03-.007-.029-.006-.03-.005-.03-.003-.032-.002h-.032v-.21l.04.002.039.002.038.004.038.006.037.007.037.009.036.01.035.012.034.013.034.014.032.016.032.018.031.018.03.02.028.02.028.023.026.023.025.025.024.025.023.027.021.029.02.028.018.03.016.032.015.031.013.033.011.034.01.034.007.036.005.035.004.037.001.036zm0 0zm-.195 2.708v-2.708h.195v2.708h-.195zm.195 0zm-.788.69v-.21h.032l.031-.002.031-.004.03-.004.03-.006.029-.007.028-.008.028-.009.027-.01.025-.012.026-.012.024-.013.023-.014.023-.015.02-.016.021-.016.02-.017.018-.018.017-.019.016-.018.014-.02.014-.02.012-.02.012-.021.01-.021.008-.022.007-.022.006-.022.005-.022.004-.023.001-.023.001-.024h.195l-.001.037-.004.036-.005.036-.007.035-.01.035-.01.033-.014.033-.015.032-.016.031-.019.03-.019.029-.021.028-.023.027-.024.026-.025.024-.026.024-.028.022-.028.021-.03.02-.03.018-.033.017-.032.016-.034.015-.034.013-.035.012-.036.01-.037.009-.037.007-.038.006-.039.004-.038.002-.04.001zm0 0zm-.787-.69h.195v.024l.002.023.004.023.004.023.006.022.008.021.008.022.01.021.011.02.012.021.014.02.015.02.016.019.016.018.019.018.02.017.02.017.02.015.023.015.023.014.025.013.025.012.026.012.027.01.027.01.028.007.03.007.029.006.03.004.031.004.031.002h.032v.21l-.04-.002-.038-.002-.039-.004-.037-.006-.038-.007-.037-.009-.035-.01-.035-.012-.035-.013-.034-.015-.032-.016-.032-.017-.03-.018-.03-.02-.03-.021-.027-.022-.026-.024-.025-.024-.024-.026-.022-.027-.022-.028-.019-.029-.018-.03-.017-.031-.015-.032-.013-.033-.01-.034-.01-.034-.008-.035-.005-.036-.003-.037-.001-.036zm0 0zm.195-2.708v2.708h-.195v-2.708h.195zm-.195 0zm.787-.689v.21h-.032l-.031.002-.03.004-.031.004-.03.006-.028.007-.029.008-.028.009-.026.01-.026.011-.025.013-.025.013-.023.014-.022.015-.022.016-.02.016-.02.017-.017.018-.017.018-.017.02-.014.019-.014.02-.012.02-.011.02-.01.022-.008.021-.008.022-.006.022-.004.023-.004.023-.002.022v.024h-.195v-.036l.004-.037.005-.035.008-.035.01-.035.01-.034.013-.032.015-.032.017-.032.018-.03.02-.029.02-.027.023-.027.024-.026.025-.025.027-.023.027-.022.029-.021.03-.02.03-.018.032-.017.033-.017.033-.014.034-.013.036-.012.035-.01.037-.009.037-.007.038-.006.039-.004.039-.002.04-.001zm0 0h.765-.765z"/><path class="fil3" d="M41.89 75.975c0 1.02 1.134 1.85 2.533 1.85s2.533-.83 2.533-1.85c0-1.021-1.134-1.85-2.533-1.85s-2.532.829-2.532 1.85z"/><path class="fil1" d="M41.89 75.975c0 1.02 1.134 1.849 2.533 1.849s2.533-.828 2.533-1.85c0-1.02-1.134-1.849-2.533-1.849s-2.532.828-2.532 1.85z"/><path class="fil2" d="M44.423 77.72v.209l-.133-.003-.133-.007-.13-.012-.128-.017-.126-.021-.123-.026-.121-.03-.119-.034-.115-.038-.113-.042-.11-.046-.106-.05-.103-.053-.099-.057-.095-.06-.092-.065-.087-.067-.083-.07-.079-.073-.074-.076-.07-.079-.064-.082-.06-.085-.053-.086-.048-.09-.043-.092-.037-.094-.03-.097-.024-.098-.018-.1-.01-.102-.004-.102h.195l.003.087.01.087.014.085.02.084.026.082.032.081.037.08.042.078.048.077.052.075.058.073.062.07.067.07.071.066.077.065.08.061.084.059.089.055.092.053.095.05.1.047.102.043.106.04.109.035.111.032.115.029.117.024.119.02.121.016.123.011.126.007.127.002zm0 0zm2.436-1.745h.194l-.003.102-.01.102-.018.1-.024.098-.03.097-.037.094-.043.092-.048.09-.054.086-.06.085-.064.082-.07.08-.074.075-.079.073-.083.07-.087.067-.092.064-.095.06-.1.058-.102.053-.107.05-.11.046-.112.042-.115.038-.119.034-.12.03-.124.026-.126.02-.128.017-.13.013-.133.007-.133.003v-.21l.127-.002.125-.007.124-.011.121-.016.12-.02.116-.024.115-.029.111-.032.109-.036.106-.04.102-.042.1-.047.095-.05.093-.053.088-.055.084-.059.08-.061.077-.065.071-.066.068-.07.062-.07.057-.073.053-.075.047-.077.043-.078.037-.08.031-.081.026-.083.021-.084.015-.084.009-.087.003-.087zm0 0zm-2.436-1.745v-.21l.133.003.132.008.13.012.129.016.126.021.123.026.121.03.119.035.115.037.113.042.11.046.106.05.103.053.099.058.095.06.092.064.087.067.083.07.08.073.074.076.07.08.064.081.059.085.054.087.048.09.043.091.036.095.031.096.024.098.017.1.011.102.003.103h-.194l-.003-.088-.01-.086-.014-.085-.02-.084-.027-.083-.031-.08-.037-.08-.043-.079-.047-.077-.053-.075-.058-.073-.062-.07-.067-.07-.071-.066-.076-.064-.08-.062-.085-.059-.088-.055-.093-.053-.095-.05-.1-.046-.102-.043-.106-.04-.109-.036-.111-.032-.115-.028-.117-.025-.119-.02-.121-.016-.124-.011-.125-.007-.127-.002zm0 0zm-2.435 1.745h-.195l.004-.103.01-.101.018-.1.024-.099.03-.096.037-.095.043-.092.048-.09.054-.086.059-.085.064-.082.07-.079.074-.076.08-.073.082-.07.087-.067.092-.064.095-.06.1-.057.103-.054.106-.05.11-.046.112-.042.115-.038.119-.034.12-.03.124-.026.126-.02.128-.017.13-.012.133-.008.133-.002v.209l-.127.002-.126.007-.123.011-.121.016-.12.02-.116.025-.115.028-.111.032-.109.036-.106.04-.102.042-.1.047-.095.05-.092.053-.089.055-.084.06-.08.06-.076.065-.072.066-.067.07-.062.07-.058.073-.052.075-.048.077-.042.078-.037.08-.032.081-.026.083-.02.084L42 75.8l-.009.086-.003.088zm0 0z"/><path class="fil3" d="M42.463 74.098c-.383 0-.69.26-.69.584v2.708c0 .324.307.585.69.585.382 0 .69-.261.69-.585v-2.708c0-.323-.308-.584-.69-.584z"/><path class="fil2" d="M41.87 74.682h-.195v-.036l.004-.037.005-.035.008-.035.01-.035.01-.034.013-.033.015-.031.017-.032.018-.03.02-.028.02-.028.023-.027.024-.026.025-.025.026-.023.028-.022.029-.021.03-.02.03-.018.032-.018.033-.016.033-.014.035-.013.035-.012.036-.01.036-.009.038-.007.038-.006.038-.004.04-.002.039-.002v.21h-.032l-.032.002-.03.003-.03.005-.03.006-.03.007-.028.008-.027.009-.027.01-.026.011-.025.012-.025.014-.023.014-.022.015-.022.016-.02.016-.02.017-.017.018-.018.018-.016.02-.014.018-.013.02-.013.021-.011.02-.01.022-.008.021-.008.022-.006.022-.004.023-.004.023-.002.022v.024zm0 0zm-.195 2.708v-2.708h.195v2.708h-.195zm.195 0zm.593.48v.21l-.04-.002-.039-.002-.038-.004-.038-.006-.038-.007-.036-.009-.036-.01-.035-.012-.035-.013-.033-.015-.033-.016-.032-.017-.03-.018-.03-.02-.03-.02-.026-.023-.027-.024-.025-.024-.024-.026-.022-.027-.022-.028-.02-.029-.017-.03-.016-.031-.015-.032-.014-.033-.01-.034-.01-.034-.007-.035-.006-.036-.003-.037-.001-.036h.195v.024l.002.023.004.023.004.023.006.022.008.021.008.022.01.021.011.02.013.021.013.02.015.02.015.018.017.019.019.018.019.017.02.016.022.016.022.015.024.014.024.013.025.012.026.012.027.01.027.009.029.008.029.007.03.006.03.004.03.004.032.002h.032zm0 0zm.592-.48h.195l-.001.036-.004.037-.005.036-.008.035-.009.034-.01.034-.014.033-.015.032-.016.031-.019.03-.019.029-.021.028-.022.027-.025.026-.024.024-.027.023-.027.023-.03.021-.029.02-.03.018-.032.017-.033.016-.033.015-.035.013-.035.011-.036.011-.037.009-.037.007-.038.006-.038.004-.039.002-.04.001v-.209h.032l.032-.002.03-.004.03-.004.03-.006.03-.007.027-.008.028-.009.026-.01.026-.012.026-.012.024-.013.023-.014.023-.015.021-.015.02-.017.02-.017.018-.018.017-.018.016-.019.014-.02.014-.02.012-.02.012-.021.01-.021.008-.022.007-.021.006-.022.005-.023.003-.023.002-.023v-.024zm0 0zm.195-2.708v2.708h-.195v-2.708h.195zm-.195 0zm-.592-.48v-.209l.04.002.038.002.038.004.038.006.037.007.037.009.036.01.035.012.035.013.033.014.033.016.031.018.031.018.03.02.029.02.027.023.026.023.026.025.024.026.022.027.02.027.02.03.019.03.016.03.015.032.013.033.011.034.01.035.007.035.005.035.004.037v.036h-.194v-.024l-.003-.022-.003-.023-.005-.023-.006-.022-.007-.022-.009-.021-.01-.021-.01-.02-.013-.021-.013-.02-.015-.02-.016-.019-.017-.018-.018-.018-.02-.017-.02-.016-.021-.016-.023-.015-.023-.014-.024-.014-.026-.012-.026-.01-.026-.011-.028-.01-.028-.007-.029-.008-.03-.005-.03-.005-.03-.003-.032-.002h-.031zm0-.209h-.764.764z"/><path class="fil3" d="M32.453 82.847c1.354 0 2.451.856 2.451 1.912 0 1.054-1.097 1.91-2.45 1.91-1.355 0-2.452-.856-2.452-1.91 0-1.056 1.097-1.912 2.451-1.912z"/><path class="fil1" d="M32.453 82.847c1.354 0 2.451.856 2.451 1.912 0 1.054-1.098 1.91-2.45 1.91-1.355 0-2.452-.856-2.452-1.91 0-1.056 1.097-1.912 2.451-1.912z"/><path class="fil2" d="M35.059 84.759h-.309l-.002-.092-.01-.09-.014-.089-.02-.087-.025-.086-.03-.084-.037-.083-.04-.08-.046-.079-.05-.076-.055-.075-.06-.072-.063-.07-.068-.067-.072-.065-.076-.062-.08-.06-.083-.056-.087-.053-.09-.05-.093-.047-.097-.043-.099-.04-.102-.035-.104-.032-.107-.029-.11-.024-.111-.02-.114-.016-.115-.011-.118-.007-.119-.002v-.26l.134.004.13.008.13.012.129.018.125.023.123.027.121.032.118.036.115.04.113.045.108.05.106.052.102.057.099.06.095.064.09.067.086.07.083.075.077.077.073.08.068.083.063.085.058.089.053.09.047.093.041.095.036.098.03.099.022.1.017.104.01.104.003.105zm0 0zm-2.606 2.039v-.258l.12-.003.117-.007.115-.011.114-.016.111-.02.11-.024.106-.028.105-.033.102-.035.1-.04.096-.043.093-.047.09-.05.087-.053.083-.056.08-.06.076-.062.072-.064.067-.067.065-.07.059-.073.055-.074.05-.077.046-.078.04-.08.036-.083.031-.084.025-.086.02-.087.015-.089.009-.09.002-.091h.309l-.004.105-.01.104-.017.102-.023.101-.03.1-.035.097-.04.095-.049.093-.052.09-.058.088-.063.086-.068.083-.073.08-.077.077-.083.074-.086.07-.09.067-.095.064-.1.06-.101.057-.106.053-.108.049-.113.044-.115.041-.118.036-.12.032-.124.027-.126.023-.128.018-.13.012-.13.008-.134.003zm0 0zm-2.604-2.04h.307l.003.092.009.09.014.089.02.087.026.086.03.084.036.082.04.08.047.08.05.076.055.074.059.073.064.07.068.067.072.064.076.063.08.059.083.056.086.053.09.05.094.046.096.044.1.04.101.035.105.033.107.027.11.025.11.02.114.016.116.011.117.007.12.003v.258l-.134-.003-.131-.008-.13-.012-.128-.018-.126-.023-.123-.027-.121-.032-.118-.036-.115-.04-.112-.045-.11-.049-.105-.053-.102-.056-.098-.06-.095-.065-.09-.067-.087-.07-.082-.074-.078-.078-.072-.08-.069-.082-.062-.086-.059-.088-.052-.09-.047-.094-.041-.094-.036-.098-.03-.099-.022-.1-.017-.103-.01-.104-.004-.105zm0 0zm2.604-2.04v.259l-.119.002-.117.007-.116.011-.113.016-.112.02-.11.024-.106.029-.105.032-.102.036-.099.04-.097.042-.092.047-.091.05-.087.053-.082.056-.08.06-.077.062-.071.064-.068.068-.064.07-.06.072-.054.075-.05.076-.046.08-.04.08-.037.082-.03.084-.025.086-.02.087-.015.089-.009.09-.003.092h-.307l.003-.105.01-.104.017-.103.023-.101.03-.1.035-.097.04-.095.048-.093.052-.09.058-.089.063-.085.069-.083.072-.08.078-.077.082-.074.086-.07.09-.068.096-.064.098-.06.102-.057.106-.052.109-.05.112-.044.115-.04.118-.037.121-.032.123-.027.126-.023.128-.018.13-.012.13-.008.134-.003zm0 0z"/><path class="fil3" d="M29.966 83.28c0-.29.345-.521.774-.521h3.59c.43 0 .775.231.775.52 0 .288-.346.52-.775.52h-3.59c-.428 0-.774-.232-.774-.52z"/><path class="fil2" d="M30.74 82.63v.258h-.034l-.033.003-.033.002-.032.004-.031.005-.031.006-.03.006-.03.008-.027.008-.027.01-.027.01-.026.011-.024.012-.024.012-.022.013-.021.013-.02.015-.019.014-.017.015-.017.016-.015.016-.014.016-.012.016-.012.017-.01.017-.008.018-.008.017-.005.018-.005.018-.004.018-.002.019v.018h-.309l.002-.035.004-.034.006-.034.009-.033.012-.033.013-.032.016-.032.017-.03.02-.03.022-.028.023-.027.025-.027.027-.025.028-.024.03-.023.031-.022.033-.021.034-.02.034-.018.037-.017.037-.016.038-.015.04-.013.04-.013.041-.01.043-.01.042-.008.044-.007.045-.005.044-.004.046-.002.046-.001zm3.59 0v.258h-3.59v-.258h3.59zm.93.65h-.31v-.02l-.002-.018-.003-.018-.005-.019-.006-.017-.007-.018-.009-.017-.01-.017-.011-.017-.012-.016-.015-.016-.015-.016-.016-.016-.018-.015-.018-.014-.02-.014-.022-.014-.023-.013-.023-.013-.024-.01-.026-.012-.026-.01-.028-.01-.028-.008-.03-.008-.03-.007-.03-.006-.032-.004-.031-.004-.033-.003-.033-.002h-.034v-.259l.046.001.045.002.045.004.045.006.043.006.043.008.042.01.042.011.04.012.04.014.038.014.038.016.036.018.035.018.034.02.032.02.031.023.03.023.029.024.026.026.026.026.023.027.022.029.02.029.017.03.016.031.013.033.012.033.008.033.006.034.005.034.001.035zm0 0zm-.93.649v-.26h.034l.033-.002.033-.002.031-.004.032-.005.03-.006.03-.006.03-.008.028-.008.028-.01.026-.01.026-.011.024-.012.024-.012.022-.013.021-.014.02-.014.02-.014.017-.015.016-.016.016-.016.013-.016.013-.016.011-.017.01-.017.009-.017.007-.017.006-.019.005-.017.003-.019.002-.018v-.019h.31l-.003.035-.004.035-.006.034-.008.033-.012.033-.013.032-.016.031-.018.03-.02.03-.021.028-.024.028-.025.026-.026.025-.029.024-.03.023-.03.022-.033.021-.034.02-.035.018-.036.017-.038.017-.039.014-.039.013-.04.013-.042.01-.042.01-.043.008-.043.007-.045.006-.045.003-.045.002-.046.002zm0 0zm-3.59-.26h3.59v.26h-3.59v-.26zm0 .26zm-.928-.65h.308v.02l.002.017.004.019.005.018.005.018.008.017.008.017.01.017.012.017.012.016.014.016.015.016.017.016.017.015.02.014.019.014.021.014.022.013.024.012.024.012.026.01.026.011.028.01.028.008.03.008.029.006.03.006.032.005.032.004.033.003.033.001h.034v.26l-.046-.001-.045-.002-.045-.004-.045-.006-.044-.007-.042-.008-.042-.01-.042-.01-.04-.012-.04-.014-.038-.014-.037-.016-.037-.018-.034-.018-.034-.02-.033-.02-.031-.023-.03-.023-.028-.024-.027-.026-.025-.026-.023-.027-.022-.028-.02-.03-.017-.03-.016-.031-.013-.032-.012-.033-.009-.033-.006-.034-.004-.035-.001-.035zm0 0z"/><path class="fil3" d="M20.28 82.97c1.353 0 2.45.856 2.45 1.912 0 1.055-1.097 1.91-2.45 1.91-1.355 0-2.452-.855-2.452-1.91 0-1.056 1.097-1.911 2.451-1.911z"/><path class="fil1" d="M20.28 82.97c1.353 0 2.45.856 2.45 1.912 0 1.055-1.097 1.91-2.45 1.91-1.355 0-2.452-.855-2.452-1.91 0-1.056 1.097-1.911 2.451-1.911z"/><path class="fil2" d="M22.885 84.882h-.309l-.002-.092-.01-.09-.014-.088-.02-.087-.025-.086-.03-.084-.037-.083-.04-.08-.046-.079-.05-.077-.055-.074-.06-.073-.063-.07-.068-.067-.072-.065-.076-.062-.08-.059-.083-.056-.087-.053-.09-.05-.093-.047-.097-.043-.099-.04-.102-.036-.104-.032-.107-.028-.11-.025-.111-.02-.114-.015-.115-.012-.118-.007-.119-.002v-.258l.134.002.13.008.13.013.128.018.126.023.123.027.121.031.118.037.115.04.113.045.108.049.106.053.102.056.099.06.095.065.09.067.086.07.083.074.077.077.073.08.069.083.062.086.059.088.052.09.047.094.041.095.036.097.03.099.022.101.017.103.01.104.004.105zm0 0zm-2.606 2.04v-.259l.12-.002.117-.007.115-.011.114-.016.111-.02.11-.024.106-.029.105-.032.102-.036.1-.04.096-.042.093-.047.09-.05.087-.053.083-.057.08-.059.076-.062.072-.065.068-.067.064-.07.059-.072.055-.075.05-.077.046-.078.04-.08.036-.083.031-.084.025-.086.02-.087.015-.088.009-.09.002-.092h.309l-.004.105-.01.104-.017.102-.023.102-.03.099-.035.097-.04.095-.048.093-.053.09-.058.089-.063.085-.068.083-.073.08-.077.077-.083.074-.086.07-.09.068-.095.064-.099.06-.102.056-.106.053-.108.05-.113.044-.115.04-.118.037-.12.032-.124.027-.126.023-.128.018-.13.012-.13.008-.134.003zm0 0zm-2.605-2.04h.308l.003.092.009.09.014.088.02.087.025.086.031.084.036.083.04.08.046.079.05.076.056.075.059.072.064.07.068.068.071.064.077.062.08.06.082.056.087.053.09.05.093.047.097.043.099.04.102.035.105.032.106.029.11.024.111.02.114.016.115.011.118.007.12.002v.26l-.134-.004-.131-.008-.13-.012-.128-.018-.126-.023-.123-.027-.121-.032-.118-.036-.115-.04-.113-.046-.108-.049-.106-.052-.102-.057-.099-.06-.095-.064-.09-.068-.086-.07-.082-.074-.078-.077-.073-.08-.068-.083-.063-.085-.058-.089-.052-.09-.048-.093-.04-.095-.036-.097-.03-.1-.023-.1-.016-.103-.01-.104-.004-.105zm0 0zm2.605-2.04v.258l-.119.002-.118.007-.115.012-.114.016-.111.02-.11.024-.106.028-.105.032-.102.036-.1.04-.096.043-.093.046-.09.05-.087.054-.083.056-.08.06-.076.061-.071.065-.068.067-.064.07-.06.073-.054.074-.05.077-.047.079-.04.08-.036.083-.03.084-.025.086-.02.087-.015.088-.01.09-.002.092h-.308l.004-.105.01-.104.017-.103.022-.101.03-.1.035-.096.041-.095.048-.094.052-.09.058-.088.063-.086.069-.082.072-.08.078-.077.082-.075.086-.07.09-.067.095-.065.1-.06.101-.056.106-.053.108-.049.113-.045.115-.04.118-.037.12-.031.124-.028.126-.022.128-.018.13-.013.13-.008.134-.003zm0 0z"/><path class="fil3" d="M17.79 83.402c0-.288.346-.521.776-.521h3.59c.428 0 .774.233.774.52 0 .29-.346.522-.774.522h-3.59c-.43 0-.775-.232-.775-.521z"/><path class="fil2" d="M18.566 82.751v.26h-.034l-.034.002-.032.002-.032.004-.032.005-.03.006-.03.007-.029.007-.028.009-.028.01-.026.01-.026.01-.025.012-.023.013-.022.013-.022.013-.02.015-.018.014-.019.015-.016.016-.014.015-.014.017-.013.016-.011.017-.01.017-.009.017-.007.017-.006.018-.005.018-.004.018-.001.019-.001.018h-.308l.001-.034.005-.035.006-.034.008-.033.012-.033.013-.032.016-.031.018-.03.02-.03.02-.028.024-.027.025-.027.027-.026.028-.023.03-.024.032-.021.032-.022.033-.019.036-.018.036-.018.037-.016.04-.015.038-.013.04-.012.042-.011.042-.01.043-.008.044-.007.044-.005.045-.004.046-.002.046-.001zm0 0zm3.59.26h-3.59v-.26h3.59v.26zm0-.26zm.928.65h-.308v-.018l-.003-.018-.003-.019-.005-.018-.006-.018-.007-.017-.009-.017-.01-.017-.011-.017-.012-.016-.014-.017-.016-.016-.016-.015-.018-.015-.019-.014-.02-.015-.02-.014-.023-.012-.024-.013-.024-.011-.026-.011-.026-.01-.028-.01-.028-.009-.029-.007-.03-.007-.03-.006-.032-.005-.032-.003-.032-.003-.034-.002h-.034v-.26l.046.002.046.002.045.004.045.005.043.007.043.008.042.01.042.01.04.013.04.013.038.015.037.016.036.018.035.018.034.02.032.02.032.022.03.024.028.024.026.025.025.027.024.027.022.028.02.03.017.03.016.031.013.032.012.033.008.033.006.034.004.035.001.034h.001zm0 0zm-.928.65v-.258h.033l.034-.002.033-.003.031-.004.032-.005.03-.005.03-.007.03-.008.027-.008.028-.01.027-.01.025-.011.024-.012.024-.012.022-.013.022-.013.02-.015.018-.014.018-.015.016-.016.016-.016.014-.016.012-.016.011-.017.01-.017.009-.018.007-.017.006-.018.005-.018.004-.018.001-.019v-.019h.31l-.003.035-.004.035-.006.034-.008.033-.012.033-.013.032-.016.032-.018.03-.02.03-.021.028-.024.027-.025.026-.026.026-.028.024-.03.023-.032.022-.032.02-.034.02-.035.019-.036.017-.038.017-.037.014-.04.014-.04.012-.042.01-.042.01-.043.008-.043.007-.045.006-.045.004-.046.002h-.046zm0 0zm-3.59-.258h3.59v.259h-3.59v-.26zm0 .259zm-.929-.65h.308v.018l.002.019.004.018.005.018.006.018.007.017.008.018.01.017.012.017.013.016.014.016.014.016.016.016.019.015.019.014.02.015.02.013.023.013.023.012.025.012.025.01.027.011.028.01.027.008.03.008.03.007.03.006.032.004.032.004.032.003.034.002h.034v.259l-.046-.001-.046-.002-.045-.004-.044-.006-.044-.006-.043-.008-.042-.01-.041-.011-.041-.012-.039-.014-.039-.014-.037-.016-.036-.018-.035-.018-.034-.02-.032-.021-.032-.022-.03-.023-.028-.024-.027-.025-.025-.027-.024-.027-.02-.029-.02-.029-.018-.03-.016-.032-.013-.032-.012-.033-.008-.033-.006-.034-.005-.034-.001-.035zm0 0z"/><path class="fil3" d="M29.553 76.098c0 1.021 1.134 1.849 2.533 1.849s2.532-.828 2.532-1.849c0-1.022-1.133-1.85-2.532-1.85s-2.533.828-2.533 1.85z"/><path class="fil1" d="M29.552 76.098c0 1.021 1.135 1.848 2.534 1.848 1.399 0 2.532-.827 2.532-1.848 0-1.022-1.133-1.85-2.532-1.85s-2.534.828-2.534 1.85z"/><path class="fil2" d="M32.086 77.842v.209l-.134-.003-.132-.007-.13-.012-.128-.017-.126-.02-.123-.026-.121-.03-.119-.034-.115-.038-.113-.043-.11-.046-.106-.05-.103-.053-.1-.057-.094-.06-.092-.064-.088-.067-.083-.07-.079-.073-.074-.076-.07-.079-.064-.082-.059-.084-.054-.087-.048-.09-.043-.092-.037-.094-.03-.097-.024-.098-.018-.1-.01-.102-.004-.102h.195l.003.088.009.086.015.085.02.084.026.082.032.081.037.08.042.078.048.077.052.075.058.073.062.07.067.07.072.066.076.065.08.06.085.06.088.055.092.053.096.05.1.046.102.043.106.04.108.036.112.032.114.028.117.024.12.02.12.016.124.012.125.007.128.002zm2.435-1.744h.195l-.004.102-.01.102-.018.1-.024.098-.03.097-.037.094-.043.092-.048.09-.054.087-.06.084-.064.082-.07.079-.073.076-.08.073-.082.07-.088.067-.091.064-.096.06-.099.057-.103.053-.106.05-.11.046-.112.042-.116.039-.118.034-.12.03-.124.025-.126.021-.129.017-.13.012-.132.007-.133.003v-.209l.127-.002.125-.007.124-.012.12-.016.12-.02.117-.024.114-.028.112-.032.109-.036.106-.04.102-.043.1-.046.095-.05.092-.053.089-.056.084-.058.08-.062.076-.064.072-.066.067-.07.062-.07.057-.073.053-.075.047-.077.043-.078.037-.08.031-.08.026-.083.021-.084.015-.085.009-.086.003-.088zm0 0zm-2.435-1.745v-.21l.133.004.132.007.13.012.129.017.126.02.123.026.12.03.12.034.115.038.113.042.109.046.106.05.103.053.1.057.095.06.091.065.088.067.083.07.079.073.074.076.07.08.064.081.059.085.054.087.048.09.043.091.037.095.03.096.024.099.017.1.011.101.004.103h-.195l-.003-.088-.01-.086-.014-.085-.02-.084-.027-.083-.031-.081-.037-.08-.043-.078-.047-.077-.053-.075-.057-.073-.062-.07-.067-.07-.072-.066-.076-.065-.08-.061-.085-.059-.088-.055-.092-.053-.096-.05-.099-.047-.103-.043-.105-.04-.11-.035-.11-.032-.115-.028-.117-.024-.12-.02-.12-.017-.124-.011-.125-.007-.127-.002zm0 0zm-2.436 1.745h-.195l.004-.103.01-.101.018-.1.024-.099.03-.096.037-.095.043-.092.048-.09.054-.086.06-.085.064-.082.07-.079.073-.076.08-.073.082-.07.088-.067.092-.064.095-.06.099-.058.103-.053.106-.05.11-.046.113-.042.115-.038.119-.034.12-.03.124-.025.126-.021.128-.017.13-.012.132-.007.134-.003v.209l-.128.002-.125.007-.123.011-.121.016-.12.02-.116.025-.115.028-.111.032-.11.036-.105.04-.103.043-.1.046-.095.05-.092.053-.088.055-.085.06-.08.06-.076.065-.072.066-.067.07-.062.07-.057.073-.053.075-.048.077-.042.078-.037.08-.032.081-.026.083-.02.084-.015.085-.009.086-.003.088zm0 0z"/><path class="fil3" d="M30.125 74.221c-.382 0-.69.26-.69.585v2.708c0 .323.308.584.69.584.383 0 .69-.26.69-.584v-2.708c0-.325-.307-.585-.69-.585z"/><path class="fil2" d="M29.532 74.806h-.195l.001-.037.004-.036.005-.036.007-.036.01-.034.01-.034.014-.033.015-.031.016-.032.018-.03.02-.028.021-.029.023-.027.024-.025.025-.025.026-.023.027-.022.03-.021.029-.02.03-.019.032-.017.033-.016.034-.014.034-.013.035-.012.036-.01.037-.009.037-.007.038-.006.038-.004.04-.002.039-.001v.209h-.032l-.031.002-.031.004-.03.004-.03.006-.03.007-.027.008-.028.009-.027.01-.026.011-.025.012-.024.014-.024.014-.022.015-.021.015-.02.017-.02.017-.018.018-.017.018-.016.019-.015.02-.013.02-.013.02-.01.02-.01.022-.009.021-.007.022-.006.023-.005.022-.004.023-.001.023-.001.024zm0 2.708h-.195v-2.708h.195v2.708zm.593.48v.21l-.04-.002-.039-.002-.038-.004-.038-.006-.037-.008-.037-.008-.036-.01-.035-.013-.035-.012-.033-.015-.033-.016-.031-.017-.031-.019-.03-.02-.029-.02-.027-.023-.027-.024-.025-.024-.023-.025-.023-.027-.021-.029-.02-.028-.018-.03-.016-.032-.015-.031-.013-.033-.011-.034-.01-.035-.007-.035-.005-.035-.004-.037v-.036h.194v.024l.003.022.003.023.005.023.006.022.007.022.009.021.01.021.01.021.013.02.014.02.014.02.016.019.017.019.018.018.02.017.02.016.021.016.023.015.023.014.024.013.026.012.026.011.026.01.028.01.028.008.029.007.03.006.03.004.03.003.032.002h.032zm0 0zm.592-.48h.195v.036l-.004.037-.005.035-.008.035-.01.035-.01.034-.013.033-.015.031-.017.031-.018.03-.02.03-.02.027-.023.027-.024.026-.025.025-.026.023-.028.022-.029.022-.029.02-.03.018-.033.017-.032.016-.034.015-.034.012-.035.012-.036.01-.037.01-.037.007-.038.006-.039.004-.039.002-.04.001v-.21h.033l.03-.002.032-.003.03-.004.03-.006.029-.007.028-.008.027-.01.027-.01.026-.011.025-.012.025-.013.023-.014.022-.015.022-.016.02-.016.02-.018.017-.017.017-.019.017-.019.014-.02.013-.02.013-.02.011-.02.01-.022.008-.021.008-.022.006-.022.004-.023.004-.023.002-.022v-.024zm0 0zm.195-2.708v2.708h-.195v-2.708h.195zm-.195 0zm-.592-.48v-.21l.04.002.038.002.039.004.038.006.037.007.037.009.035.01.036.012.034.013.034.014.032.016.032.018.03.018.03.02.03.02.027.023.026.023.025.025.024.026.022.026.022.029.02.029.017.03.017.03.015.032.013.033.01.034.01.035.008.035.005.036.003.036.001.037h-.195v-.024l-.002-.023-.004-.023-.004-.023-.006-.022-.008-.022-.008-.021-.01-.022-.011-.02-.013-.02-.013-.02-.014-.02-.017-.02-.016-.017-.018-.018-.02-.018-.02-.016-.022-.015-.022-.015-.023-.014-.025-.014-.025-.012-.026-.01-.026-.011-.028-.01-.028-.007-.03-.007-.029-.006-.03-.004-.031-.004-.031-.002h-.032zm0 0z"/><path class="fil3" d="M23.425 75.851c0 1.021-1.135 1.85-2.533 1.85-1.4 0-2.533-.829-2.533-1.85 0-1.021 1.134-1.85 2.533-1.85 1.398 0 2.533.829 2.533 1.85z"/><path class="fil1" d="M23.425 75.851c0 1.021-1.135 1.85-2.533 1.85-1.4 0-2.533-.828-2.533-1.85 0-1.021 1.134-1.85 2.533-1.85 1.398 0 2.533.829 2.533 1.85z"/><path class="fil2" d="M20.892 77.805v-.209l.127-.002.125-.007.124-.011.12-.016.12-.02.117-.025.114-.028.112-.032.109-.036.106-.04.102-.043.1-.046.095-.05.092-.053.089-.055.084-.06.08-.06.077-.065.07-.067.068-.068.063-.071.057-.073.053-.075.047-.077.042-.079.037-.08.032-.08.026-.083.02-.084.015-.085.01-.086.003-.088h.194l-.003.103-.011.101-.018.1-.023.098-.031.097-.037.094-.042.092-.049.09-.054.087-.059.085-.065.082-.069.079-.074.076-.08.073-.082.07-.087.067-.092.064-.096.06-.099.057-.103.054-.106.05-.11.046-.112.042-.116.038-.118.034-.12.03-.124.026-.126.02-.129.017-.13.012-.132.008-.133.002zm0 0zm-2.63-1.954h.194l.003.088.009.086.015.085.02.084.026.083.032.08.037.08.042.079.048.077.053.075.057.073.062.07.067.07.072.066.076.064.08.062.085.059.088.055.092.053.096.05.1.047.102.042.106.04.109.036.111.032.115.028.117.025.119.02.12.016.124.011.125.007.128.002v.21l-.134-.003-.132-.008-.13-.012-.128-.016-.126-.021-.124-.026-.12-.03-.119-.035-.115-.037-.113-.042-.11-.046-.106-.05-.103-.054-.1-.057-.095-.06-.091-.064-.088-.067-.083-.07-.079-.073-.074-.076-.07-.08-.064-.081-.059-.085-.054-.087-.049-.09-.042-.092-.037-.094-.03-.096-.024-.098-.018-.1-.01-.102-.004-.103zm0 0zm2.63-1.954v.21l-.128.001-.125.007-.123.012-.121.016-.12.02-.116.024-.115.028-.112.033-.108.035-.106.04-.103.043-.1.046-.095.05-.092.053-.088.056-.085.059-.08.061-.076.064-.072.067-.067.069-.062.07-.057.074-.053.074-.048.077-.042.079-.037.08-.032.08-.026.083-.02.084-.015.085-.009.086-.003.088h-.195l.004-.103.01-.101.018-.1.024-.099.03-.096.037-.094.042-.092.049-.09.054-.087.06-.084.064-.082.07-.08.073-.076.08-.073.082-.07.088-.067.091-.063.096-.061.099-.057.103-.053.106-.05.11-.046.113-.042.115-.038.119-.034.12-.03.124-.026.126-.021.128-.017.13-.012.132-.007.134-.003zm0 0zm2.63 1.954h-.194l-.004-.088-.009-.086-.014-.085-.021-.084-.026-.082-.032-.082-.037-.08-.042-.078-.047-.077-.053-.074-.058-.073-.062-.071-.067-.07-.072-.066-.076-.064-.08-.061-.084-.059-.089-.056-.092-.053-.096-.05-.099-.046-.103-.043-.105-.04-.11-.036-.11-.032-.115-.028-.117-.024-.12-.02-.12-.016-.124-.012-.125-.007-.127-.002v-.209l.133.003.132.007.13.012.128.017.126.021.124.026.12.03.12.034.115.038.112.042.11.046.106.05.103.053.1.057.095.06.091.064.088.067.083.07.079.073.074.077.07.079.064.082.06.084.053.087.049.09.042.092.037.094.03.097.024.097.018.1.01.102.004.103zm0 0z"/><path class="fil3" d="M22.853 73.974c.382 0 .69.261.69.585v2.708c0 .323-.308.584-.69.584-.383 0-.69-.26-.69-.584v-2.708c0-.324.307-.585.69-.585z"/><path class="fil2" d="M23.64 74.559h-.194l-.001-.024-.002-.023-.003-.023-.005-.022-.006-.022-.008-.022-.008-.022-.01-.021-.01-.02-.013-.021-.014-.02-.014-.02-.016-.018-.017-.019-.018-.017-.02-.018-.02-.016-.022-.016-.022-.015-.023-.014-.025-.013-.025-.012-.026-.011-.027-.01-.027-.01-.029-.008-.028-.007-.03-.006-.03-.004-.03-.003-.032-.002-.032-.001v-.209l.04.001.038.002.039.004.038.006.037.008.037.008.035.01.035.012.035.013.033.015.033.016.032.017.03.018.03.02.03.021.026.023.027.023.025.024.024.026.022.027.022.028.019.03.018.029.017.031.015.032.013.033.011.033.01.035.007.035.005.036.003.036.002.037zm0 0zm-.194 2.708V74.56h.195v2.708h-.195zm.195 0zm-.788.689v-.21h.032l.031-.002.03-.003.031-.005.03-.005.029-.008.028-.007.027-.01.027-.01.026-.011.025-.012.024-.013.024-.015.022-.015.021-.015.021-.016.02-.018.018-.018.017-.018.016-.019.014-.02.014-.02.012-.02.011-.02.01-.021.008-.022.008-.022.006-.022.005-.022.003-.023.002-.023v-.024h.196l-.002.037-.003.036-.005.036-.008.035-.009.035-.011.033-.013.033-.015.032-.017.031-.018.03-.02.029-.02.028-.023.027-.024.026-.025.024-.027.023-.027.023-.029.02-.03.02-.03.018-.032.018-.033.016-.033.014-.035.013-.035.012-.036.01-.036.009-.038.007-.037.006-.039.004-.039.002-.039.001zm0 0zm-.788-.689h.195v.024l.003.023.003.023.005.022.006.022.007.022.009.021.01.022.01.02.013.02.013.02.015.02.016.02.017.017.018.018.02.018.02.016.021.015.023.015.023.014.024.014.025.012.026.01.027.011.028.01.028.007.03.007.029.006.03.004.03.004.032.002h.032v.21l-.04-.002-.038-.002-.039-.004-.038-.006-.037-.007-.037-.009-.036-.01-.035-.012-.034-.013-.034-.014-.033-.016-.031-.018-.031-.018-.03-.02-.029-.02-.027-.023-.026-.023-.025-.025-.025-.026-.022-.026-.02-.028-.02-.03-.019-.03-.016-.03-.015-.032-.013-.033-.011-.033-.01-.035-.007-.035-.005-.036-.004-.037v-.036zm0 0zm.195-2.708v2.708h-.195V74.56h.195zm-.195 0zm.788-.689v.209h-.032l-.031.003-.031.003-.03.004-.03.006-.029.007-.028.008-.028.01-.027.01-.026.01-.025.013-.024.013-.023.014-.023.015-.021.016-.02.016-.02.018-.018.017-.017.018-.016.02-.014.019-.014.02-.012.02-.012.021-.01.021-.008.022-.007.022-.006.021-.005.023-.003.023-.002.023v.024h-.196l.001-.036.004-.037.005-.036.008-.035.009-.035.011-.033.013-.033.015-.032.016-.03.018-.03.02-.03.021-.028.022-.027.025-.026.025-.024.026-.023.027-.022.03-.022.029-.02.03-.018.032-.017.033-.016.034-.015.034-.012.035-.012.036-.01.037-.01.037-.007.038-.005.039-.005.039-.002.04-.001zm0 0z"/><path class="fil3" d="M21.096 69.533c-1.354 0-2.451-.856-2.451-1.91 0-1.056 1.097-1.912 2.45-1.912 1.354 0 2.452.856 2.452 1.912 0 1.054-1.098 1.91-2.451 1.91z"/><path class="fil1" d="M21.096 69.533c-1.354 0-2.451-.856-2.451-1.91 0-1.056 1.097-1.912 2.45-1.912 1.354 0 2.452.856 2.452 1.912 0 1.054-1.098 1.91-2.451 1.91z"/><path class="fil2" d="M18.491 67.623h.308l.003.091.009.09.014.089.02.087.025.086.03.084.037.082.04.08.046.08.05.076.055.074.06.073.064.07.067.067.072.064.076.063.08.059.083.056.086.053.09.05.094.047.097.043.099.04.102.036.104.032.107.028.11.025.111.02.114.015.115.012.118.007.119.002v.259l-.134-.003-.13-.008-.13-.013-.129-.018-.125-.023-.123-.027-.121-.031-.118-.037-.116-.04-.112-.045-.109-.049-.105-.053-.102-.056-.099-.06-.095-.065-.09-.067-.086-.07-.083-.074-.077-.078-.073-.08-.068-.082-.063-.086-.058-.088-.052-.09-.048-.094-.04-.094-.036-.098-.03-.099-.023-.1-.017-.103-.01-.104-.003-.105zm0 0zm2.605-2.041v.259l-.12.002-.117.007-.115.011-.114.016-.111.02-.11.024-.107.029-.104.032-.102.036-.1.04-.096.043-.093.046-.09.05-.087.053-.083.056-.08.06-.076.062-.072.065-.067.067-.064.07-.06.072-.055.075-.05.076-.045.08-.041.08-.036.082-.03.084-.026.086-.02.087-.014.089-.01.09-.002.092h-.308l.004-.105.01-.104.016-.103.023-.101.03-.1.035-.097.041-.095.047-.093.053-.09.058-.089.063-.085.068-.083.073-.08.077-.077.083-.074.086-.07.09-.068.095-.064.099-.06.102-.057.106-.053.108-.048.113-.045.115-.04.118-.037.12-.032.124-.027.126-.023.127-.018.13-.012.132-.008.133-.003zm0 0zm2.606 2.04h-.309l-.003-.091-.008-.09-.015-.089-.02-.087-.025-.086-.03-.084-.037-.083-.04-.08-.046-.078-.05-.077-.056-.075-.059-.072-.064-.07-.068-.067-.071-.065-.077-.062-.08-.06-.082-.056-.087-.053-.09-.05-.093-.046-.097-.044-.1-.04-.101-.035-.105-.032-.106-.029-.11-.024-.111-.02-.114-.016-.115-.011-.118-.007-.12-.002v-.26l.134.004.131.008.13.012.128.018.126.023.123.027.12.032.119.036.115.04.112.046.11.048.105.053.102.057.098.06.095.064.09.067.087.07.082.075.078.077.073.08.068.083.063.085.058.088.052.091.048.093.04.095.036.097.03.1.023.1.017.103.01.105.004.105zm0 0zm-2.606 2.04v-.258l.119-.002.118-.007.115-.012.114-.016.11-.02.11-.024.107-.028.105-.032.102-.036.099-.04.097-.043.093-.046.09-.05.087-.054.082-.056.08-.06.077-.062.071-.064.068-.067.064-.07.06-.073.055-.074.05-.077.046-.079.04-.08.036-.082.03-.084.026-.086.02-.087.015-.089.008-.09.003-.091h.308l-.003.104-.01.105-.017.102-.023.101-.03.1-.035.097-.041.094-.048.094-.052.09-.058.088-.063.086-.068.082-.073.08-.078.078-.082.074-.086.07-.09.067-.096.064-.098.06-.102.057-.106.053-.109.049-.112.045-.115.04-.118.037-.121.031-.123.027-.126.023-.128.018-.13.013-.13.008-.134.003zm0 0z"/><path class="fil3" d="M23.584 69.102c0 .288-.346.52-.776.52H19.22c-.43 0-.775-.232-.775-.52 0-.289.345-.521.775-.521h3.589c.43 0 .775.232.775.52z"/><path class="fil2" d="M22.808 69.752v-.259h.034l.034-.002.033-.003.031-.003.032-.005.03-.006.03-.007.03-.008.028-.008.028-.01.026-.01.026-.01.024-.012.023-.013.023-.013.021-.013.02-.015.019-.014.018-.015.016-.016.015-.016.014-.016.013-.016.01-.017.011-.017.009-.018.007-.017.006-.018.005-.017.003-.019.002-.018v-.019h.309l-.002.035-.004.034-.006.034-.009.034-.011.032-.014.032-.016.032-.017.03-.02.03-.022.028-.022.027-.026.027-.027.025-.028.024-.03.023-.031.022-.032.021-.034.02-.035.018-.037.018-.037.016-.039.014-.04.014-.039.012-.042.011-.042.01-.043.008-.043.007-.045.005-.045.004-.046.002-.046.001zm0 0zm-3.588-.259h3.588v.26H19.22v-.26zm0 .26zm-.93-.651h.309v.019l.002.018.004.019.005.017.005.018.008.018.008.017.01.017.012.017.012.016.014.016.015.016.017.016.017.015.019.014.02.015.021.013.022.013.024.013.025.011.026.011.025.01.028.01.028.009.03.007.03.007.03.006.032.005.032.003.032.003.034.002h.034v.26l-.046-.002-.046-.002-.045-.004-.045-.005-.043-.007-.043-.008-.042-.01-.041-.01-.04-.013-.04-.014-.04-.014-.036-.016-.037-.018-.034-.018-.034-.02-.033-.02-.03-.022-.031-.024-.029-.024-.026-.025-.025-.027-.023-.027-.022-.029-.02-.029-.017-.03-.016-.031-.014-.033-.011-.032-.009-.034-.006-.033-.004-.035-.002-.035zm0 0zm.93-.65v.258h-.034l-.034.003-.032.002-.032.004-.032.005-.03.006-.03.006-.03.008-.028.009-.028.009-.026.01-.025.011-.025.012-.023.012-.023.014-.021.013-.02.014-.019.015-.017.015-.017.016-.015.015-.014.017-.012.016-.012.017-.01.017-.008.017-.008.017-.005.018-.005.018-.004.019-.002.018v.019h-.309l.002-.035.004-.035.006-.033.009-.034.011-.033.014-.032.016-.031.017-.03.02-.03.022-.028.022-.028.026-.026.026-.025.029-.024.03-.024.031-.021.033-.022.033-.02.035-.018.037-.017.037-.016.039-.015.04-.013.04-.013.04-.01.043-.01.043-.008.043-.007.045-.006.045-.003.046-.002.046-.002zm0 0zm3.588.258H19.22v-.259h3.588v.26zm0-.259zm.93.651h-.308v-.019l-.003-.018-.003-.019-.005-.018-.006-.018-.007-.017-.009-.017-.01-.017-.011-.017-.013-.016-.014-.017-.015-.015-.016-.016-.018-.015-.018-.015-.02-.014-.022-.013-.023-.014-.023-.012-.024-.012-.026-.01-.026-.011-.028-.01-.028-.008-.03-.008-.03-.006-.03-.006-.032-.005-.031-.004-.033-.002-.034-.002h-.034v-.26l.046.002.046.002.045.003.045.006.043.007.043.008.042.01.042.01.04.013.04.013.038.015.037.016.037.017.035.019.034.02.032.02.031.022.03.023.028.025.027.025.026.026.023.028.021.028.02.03.017.03.016.031.014.032.011.033.009.034.006.033.004.035.002.035zm0 0z"/><path class="fil3" d="M33.102 69.471c-1.353 0-2.451-.856-2.451-1.911 0-1.056 1.098-1.911 2.451-1.911 1.354 0 2.451.855 2.451 1.91 0 1.056-1.097 1.912-2.451 1.912z"/><path class="fil1" d="M33.102 69.47c-1.353 0-2.451-.854-2.451-1.91s1.098-1.911 2.451-1.911c1.354 0 2.45.855 2.45 1.91 0 1.057-1.096 1.912-2.45 1.912z"/><path class="fil2" d="M30.497 67.56h.308l.003.091.008.09.015.09.02.087.025.085.03.084.037.083.04.08.046.08.05.076.056.074.059.073.064.07.068.067.071.064.077.063.08.059.082.056.087.053.09.05.093.047.097.043.099.04.102.035.105.033.106.028.11.024.111.02.114.016.115.012.118.006.119.003v.258l-.133-.003-.132-.007-.13-.013-.127-.018-.126-.023-.123-.027-.121-.032-.118-.036-.115-.04-.113-.045-.108-.049-.106-.053-.102-.056-.099-.06-.094-.065-.091-.067-.086-.07-.082-.074-.078-.077-.073-.08-.068-.083-.063-.086-.058-.088-.052-.09-.048-.094-.04-.095-.036-.097-.03-.1-.023-.1-.017-.103-.01-.104-.004-.105zm0 0zm2.605-2.04v.258l-.119.002-.118.007-.115.012-.114.015-.111.02-.11.025-.106.028-.105.032-.102.036-.099.04-.097.043-.093.046-.09.05-.087.054-.083.056-.08.059-.076.062-.071.065-.068.067-.064.07-.06.072-.055.075-.05.076-.046.08-.04.08-.036.082-.03.084-.026.086-.02.087-.015.089-.008.09-.003.092h-.308l.003-.105.01-.104.017-.103.023-.101.03-.1.035-.097.041-.095.048-.093.052-.09.058-.089.063-.085.068-.083.073-.08.078-.077.082-.074.086-.07.09-.068.096-.064.098-.06.102-.056.106-.054.108-.048.113-.045.115-.04.118-.037.121-.032.123-.027.126-.023.128-.017.13-.013.13-.008.134-.002zm0 0zm2.605 2.04H35.4l-.003-.092-.009-.09-.014-.089-.02-.087-.025-.086-.031-.084-.036-.082-.04-.08-.046-.08-.05-.076-.056-.075-.059-.072-.064-.07-.068-.067-.071-.065-.077-.062-.08-.06-.082-.055-.087-.054-.09-.05-.093-.047-.097-.042-.099-.04-.102-.036-.104-.032-.107-.028-.11-.024-.111-.02-.114-.016-.115-.012-.118-.007-.119-.002v-.259l.133.003.132.008.13.013.127.017.126.023.123.027.121.032.118.036.115.041.113.045.108.049.106.053.103.056.098.06.095.064.09.068.086.07.083.074.077.077.073.08.068.083.063.085.058.089.052.09.048.093.04.095.036.098.03.099.023.1.016.103.01.105.004.105zm0 0zm-2.605 2.04v-.258l.119-.003.118-.006.115-.012.114-.016.111-.02.11-.024.107-.028L34 69.2l.102-.035.1-.04.096-.043.093-.047.09-.05.087-.053.083-.056.08-.06.076-.062.071-.064.068-.067.064-.07.06-.073.054-.074.05-.077.047-.079.04-.08.036-.083.03-.084.026-.085.02-.088.014-.089.01-.09.002-.091h.308l-.004.105-.01.104-.016.103-.023.1-.03.1-.035.097-.041.095-.048.094-.052.09-.058.088-.063.086-.068.082-.073.08-.078.078-.082.074-.086.07-.09.067-.095.064-.099.06-.102.057-.106.053-.108.049-.113.044-.115.041-.118.036-.12.032-.124.027-.126.023-.127.018-.13.012-.132.008-.133.003zm0 0z"/><path class="fil3" d="M35.59 69.04c0 .288-.345.52-.775.52h-3.59c-.428 0-.775-.232-.775-.52 0-.289.347-.522.776-.522h3.59c.429 0 .774.233.774.521z"/><path class="fil2" d="M34.815 69.69v-.26h.034l.034-.002.033-.003.031-.003.032-.005.03-.006.03-.006.03-.008.028-.009.027-.01.027-.01.025-.01.025-.012.023-.012.023-.014.021-.013.02-.014.019-.015.018-.015.016-.016.015-.015.014-.016.012-.017.012-.017.01-.017.008-.017.008-.018.005-.017.005-.018.003-.018.003-.02v-.018h.309l-.002.035-.004.034-.006.034-.009.034-.011.033-.014.032-.016.031-.017.03-.02.03-.022.028-.023.028-.025.026-.027.025-.028.025-.03.023-.031.022-.033.02-.033.02-.035.019-.037.017-.037.016-.039.015-.04.013-.04.013-.04.01-.043.01-.043.008-.043.007-.045.005-.045.004-.046.002-.046.001zm0 0zm-3.59-.26h3.59v.26h-3.59v-.26zm0 .26zm-.929-.65h.308v.018l.003.018.003.019.005.018.006.017.007.018.009.017.01.017.012.017.012.017.014.016.015.016.016.015.018.015.019.015.02.014.021.013.023.014.023.012.024.012.026.01.027.01.028.01.027.009.03.008.03.006.03.006.032.005.031.003.033.003.034.002h.034v.26l-.046-.002-.046-.002-.045-.004-.045-.005-.043-.007-.043-.008-.042-.01-.041-.01-.041-.013-.039-.013-.039-.015-.036-.016-.037-.017-.036-.019-.033-.02-.033-.02-.03-.022-.03-.023-.029-.024-.027-.025-.026-.027-.022-.028-.022-.028-.02-.03-.017-.03-.016-.03-.014-.033-.011-.033-.009-.033-.006-.034-.004-.035-.002-.035zm0 0zm.93-.651v.259h-.034l-.034.002-.033.003-.031.003-.032.005-.03.006-.03.007-.03.008-.027.008-.028.01-.027.01-.025.011-.025.011-.023.013-.023.013-.021.013-.02.015-.019.014-.018.015-.016.016-.015.016-.014.016-.012.016-.012.017-.01.018-.009.017-.007.017-.006.018-.005.018-.003.018-.002.019v.018h-.309l.002-.035.004-.034.006-.034.009-.034.011-.033.014-.031.016-.032.017-.03.02-.03.022-.028.022-.027.026-.027.027-.025.028-.024.03-.023.031-.022.033-.02.033-.02.036-.02.036-.017.037-.016.04-.014.038-.014.04-.012.042-.011.042-.01.043-.008.043-.007.045-.005.045-.004.046-.002.046-.001zm0 0zm3.59.259h-3.59v-.26h3.59v.26zm0-.26zm.929.651h-.309v-.019l-.002-.018-.004-.018-.005-.018-.005-.018-.008-.017-.008-.017-.01-.018-.012-.017-.012-.016-.014-.016-.015-.016-.016-.016-.018-.015-.02-.014-.019-.015-.021-.013-.023-.013-.023-.013-.025-.011-.026-.011-.026-.01-.027-.01-.028-.008-.03-.008-.03-.007-.03-.006-.032-.005-.031-.003-.033-.003-.034-.002h-.034v-.26l.046.002.046.002.045.004.045.005.043.007.043.008.042.01.041.01.04.013.04.014.04.014.036.016.036.018.036.018.033.02.033.021.031.022.03.023.028.024.027.025.025.027.023.027.022.029.02.029.017.03.016.032.014.031.011.033.009.034.006.033.004.035.002.035zm0 0z"/><path class="fil3" d="m26.804 80.289 1.931-1.406m-1.704-1.305-1.943 1.41 1.943-1.41z"/><path class="fil2" d="m28.79 78.969-1.932 1.406-.109-.172 1.931-1.407.11.173zm-3.756-.068 1.943-1.409.109.173-1.943 1.409-.109-.173z"/><path class="fil1" d="m27.307 77.472 1.455 1.311-2.289 1.649-1.454-1.311z"/></g></g></svg>