<svg
  version="1.1"
  id="Layer_1"
  xmlns="http://www.w3.org/2000/svg"
  x="0"
  y="0"
  viewBox="0 0 499.8 572.6"
  style={{ enableBackground: "new 0 0 499.8 572.6" }}
  xmlSpace="preserve"
>
  <style>{".st0{fill:#222660}"}</style><switch><g><path class="st0" d="M4.6 404.5c2.8-.3 5.7-.6 8.7-.8 3-.2 6.4-.3 10.1-.3 12.4 0 21.9 3.1 28.4 9.3 6.5 6.2 9.7 15.4 9.7 27.8s-3.3 21.6-9.9 27.4c-6.6 5.8-16.3 8.8-29.3 8.8-3.4 0-6.4-.1-9.3-.3-2.8-.2-5.6-.5-8.4-.8v-71.1zM19 463.9c.6.1 1.3.1 2.3.2.9.1 2 .1 3.4.1 3 0 5.8-.3 8.4-1 2.6-.7 4.8-2 6.8-3.8 1.9-1.8 3.4-4.3 4.5-7.4 1.1-3.1 1.7-7.1 1.7-11.9 0-4.7-.6-8.7-1.7-11.8-1.1-3.2-2.6-5.7-4.5-7.5-1.9-1.8-4.1-3.1-6.6-3.9-2.5-.8-5.1-1.1-7.8-1.1h-3.2c-1.2 0-2.3.1-3.2.2v47.9zM82.2 454.2c.3 3.9 1.6 6.8 4.1 8.6 2.5 1.8 5.8 2.7 9.9 2.7 2.2 0 4.5-.2 6.9-.6 2.3-.4 4.5-1 6.6-1.8.7 1.3 1.3 2.9 1.9 4.7.5 1.8.8 3.8.9 5.9-5.1 2-10.9 3-17.4 3-4.7 0-8.8-.7-12.2-2-3.4-1.3-6.1-3.1-8.3-5.5-2.1-2.3-3.7-5.1-4.7-8.3-1-3.2-1.5-6.7-1.5-10.5 0-3.7.5-7.3 1.6-10.6 1-3.3 2.6-6.1 4.7-8.6 2.1-2.4 4.6-4.4 7.7-5.8 3.1-1.4 6.6-2.1 10.7-2.1 3.5 0 6.7.6 9.5 1.9 2.8 1.2 5.1 3 7 5.1 1.9 2.2 3.4 4.7 4.4 7.7 1 3 1.5 6.2 1.5 9.6 0 1.2 0 2.5-.1 3.7-.1 1.2-.2 2.2-.3 2.9H82.2zm20-9.8c-.1-3.2-1-5.7-2.6-7.6-1.6-1.9-3.9-2.9-6.8-2.9-3.3 0-5.8.9-7.5 2.8-1.7 1.8-2.7 4.4-3.1 7.8h20zM124 424.3c.9-.2 1.8-.3 2.7-.4.9-.1 1.9-.1 3-.1 1.8 0 3.7.2 5.6.6.2.3.4.8.5 1.4.2.6.3 1.3.5 2s.3 1.4.4 2.1c.1.7.2 1.3.2 1.7.6-1.1 1.3-2.1 2.2-3.1.9-1 1.9-1.9 3.1-2.7 1.2-.8 2.6-1.4 4.1-1.9 1.5-.5 3.2-.7 5-.7 2.8 0 5.5.5 7.9 1.6 2.5 1.1 4.6 2.6 6.5 4.8 1.8 2.1 3.3 4.8 4.3 8s1.5 7 1.5 11.4c0 4.3-.6 8.1-1.9 11.5-1.3 3.4-3.1 6.3-5.4 8.6-2.4 2.4-5.3 4.2-8.7 5.5-3.4 1.3-7.3 1.9-11.6 1.9-1.1 0-2.2 0-3.3-.1-1.1-.1-2-.2-2.7-.3v22.7c-1.2.2-2.5.3-3.6.4-1.2.1-2.3.1-3.4.1s-2.3 0-3.4-.1c-1.2-.1-2.4-.2-3.6-.4v-74.5zm14 40.2c1.8.5 3.8.8 6.1.8 4.1 0 7.2-1.3 9.4-3.9 2.2-2.6 3.2-6.6 3.2-11.9 0-2-.2-3.9-.5-5.7-.3-1.7-.9-3.2-1.7-4.5-.8-1.2-1.8-2.2-3-3-1.2-.7-2.7-1.1-4.5-1.1-1.6 0-3 .3-4.2.9-1.2.6-2.1 1.5-2.8 2.6-.7 1.1-1.3 2.3-1.6 3.8-.3 1.4-.5 3-.5 4.6v17.4zM179.6 424.4c2.4-.4 4.7-.6 7-.6s4.6.2 7 .6v27c0 2.7.2 4.9.6 6.7.4 1.7 1.1 3.1 2 4.1.9 1 2 1.7 3.3 2.2 1.3.4 2.9.6 4.6.6 2.4 0 4.5-.2 6.1-.7v-39.9c2.4-.4 4.7-.6 6.9-.6 2.3 0 4.6.2 7 .6v49c-2.1.7-4.9 1.4-8.3 2.1-3.5.7-7 1-10.8 1-3.4 0-6.6-.3-9.7-.8-3.1-.5-5.8-1.6-8.1-3.4-2.3-1.7-4.2-4.2-5.6-7.5-1.4-3.3-2.1-7.7-2.1-13.1v-27.3zM236.6 435h-6.4l-.5-2 18.4-23.6h2.3v14.9h11.9c.2 1 .3 1.9.4 2.7.1.8.1 1.6.1 2.5 0 .9 0 1.8-.1 2.7-.1.9-.2 1.8-.4 2.9h-11.9v20c0 2 .2 3.7.5 4.9.3 1.3.8 2.2 1.4 3 .6.7 1.4 1.2 2.3 1.5.9.3 2 .4 3.3.4 1 0 2-.1 2.9-.2 1-.2 1.8-.3 2.5-.4.5 1.3.8 2.5 1 3.9.2 1.3.3 2.5.3 3.6 0 .7 0 1.3-.1 1.8 0 .5-.1 1-.2 1.4-3 .7-6.1 1.1-9.4 1.1-6 0-10.5-1.4-13.7-4.2-3.2-2.8-4.7-7.3-4.7-13.7V435zM297.3 441.8c0-1.6-.3-2.9-.8-3.8-.5-1-1.2-1.8-2.2-2.3-.9-.6-2.1-.9-3.4-1.1-1.3-.2-2.8-.3-4.5-.3-3.6 0-7.3.7-11.3 2.1-.9-1.7-1.6-3.3-2.1-4.8s-.7-3.3-.7-5.4c2.9-1 5.8-1.7 8.7-2.2 2.9-.5 5.6-.7 8.1-.7 6.8 0 12.2 1.6 16 4.9 3.8 3.3 5.8 8.5 5.8 15.8v29.6c-2.3.7-5.1 1.4-8.4 2.1-3.3.7-7 1-11.1 1-3.4 0-6.4-.3-9.2-.9-2.8-.6-5.2-1.6-7.2-3s-3.6-3.2-4.6-5.3c-1.1-2.2-1.6-4.8-1.6-8s.7-5.8 2-7.9c1.3-2.1 3.1-3.8 5.2-5.1 2.1-1.3 4.5-2.2 7.1-2.8 2.6-.6 5.3-.8 7.9-.8 1.9 0 4 .1 6.3.3v-1.4zm0 10.2c-.8-.1-1.6-.2-2.6-.4-.9-.1-1.7-.1-2.5-.1-3.2 0-5.8.6-7.6 1.7-1.9 1.2-2.8 3-2.8 5.6 0 1.7.4 3 1.1 3.9.7.9 1.6 1.6 2.6 2 1 .4 2.1.7 3.3.8 1.2.1 2.2.1 3 .1 1 0 2-.1 3-.2 1-.2 1.8-.3 2.6-.4v-13zM355.7 463.3c.8 1.3 1.4 2.8 2 4.6.5 1.7.8 3.8.8 6.2-2.6 1-5.1 1.7-7.4 2-2.3.3-4.7.4-7.2.4-4.3 0-8-.7-11.1-2-3.2-1.3-5.8-3.2-7.8-5.6-2.1-2.4-3.6-5.2-4.7-8.4-1.1-3.3-1.6-6.8-1.6-10.6s.5-7.2 1.5-10.5c1-3.2 2.6-6 4.6-8.5 2.1-2.4 4.6-4.3 7.7-5.7 3.1-1.4 6.7-2.1 10.7-2.1 1.4 0 2.8 0 4 .1 1.2.1 2.4.2 3.5.4s2.2.5 3.4.8c1.1.3 2.4.8 3.7 1.3 0 1.5-.2 3.2-.6 5.1-.4 1.9-1 3.7-1.9 5.4-2-.7-3.7-1.1-5.2-1.3-1.5-.2-3.2-.3-5.1-.3-4.1 0-7.1 1.3-9.2 4-2.1 2.7-3.1 6.5-3.1 11.4 0 5.3 1.1 9.2 3.4 11.6 2.2 2.4 5.3 3.7 9.1 3.7h2.7c.8 0 1.6-.1 2.4-.2.8-.1 1.6-.3 2.4-.6.9-.4 1.9-.8 3-1.2zM370.1 435h-6.6c-.2-.9-.3-1.8-.4-2.7-.1-1-.1-1.9-.1-2.7 0-1.8.2-3.5.6-5.2h20.3v51c-2.4.4-4.7.6-6.9.6s-4.4-.2-6.8-.6V435zm-2.1-19.2c-.4-2.2-.6-4.4-.6-6.6 0-2.1.2-4.3.6-6.6 1.1-.2 2.3-.3 3.6-.4 1.3-.1 2.5-.1 3.5-.1 1.1 0 2.3 0 3.7.1 1.3.1 2.5.2 3.6.4.2 1.1.3 2.2.4 3.3.1 1.1.1 2.2.1 3.3 0 1.1 0 2.1-.1 3.3-.1 1.1-.2 2.2-.4 3.4-1.1.2-2.3.3-3.6.4-1.3.1-2.5.1-3.6.1s-2.2 0-3.5-.1c-1.4-.2-2.6-.3-3.7-.5zM416.9 476.6c-4.1 0-7.7-.7-10.8-2-3.1-1.3-5.6-3.2-7.6-5.6-2-2.4-3.5-5.2-4.5-8.4s-1.5-6.7-1.5-10.5c0-3.7.5-7.3 1.5-10.5 1-3.3 2.5-6.1 4.5-8.5 2-2.4 4.5-4.3 7.6-5.7 3-1.4 6.7-2.1 10.8-2.1 4.1 0 7.8.7 10.8 2.1 3.1 1.4 5.7 3.3 7.7 5.7 2 2.4 3.5 5.2 4.5 8.5s1.5 6.8 1.5 10.5-.5 7.2-1.5 10.5c-1 3.2-2.5 6-4.5 8.4-2 2.4-4.6 4.3-7.7 5.6-3 1.3-6.6 2-10.8 2zm0-10.7c3.7 0 6.3-1.4 7.9-4.1 1.6-2.7 2.4-6.7 2.4-11.8 0-5.1-.8-9.1-2.4-11.8-1.6-2.7-4.3-4.1-7.9-4.1-3.6 0-6.2 1.4-7.8 4.1-1.6 2.7-2.4 6.7-2.4 11.8 0 5.1.8 9.1 2.4 11.8 1.6 2.7 4.2 4.1 7.8 4.1zm1-61.4c2.6-.4 5.6-.6 8.9-.6 1.7 0 3.2.1 4.4.1 1.2.1 2.5.2 3.8.4l-14.9 12.1c-.9.1-1.9.3-3.1.4-1.2.1-2.4.2-3.7.2-2.1 0-4.2-.2-6.4-.6l11-12zM450.1 424.4c.9-.2 1.8-.3 2.8-.4.9-.1 1.9-.1 3.1-.1 1.1 0 2.1 0 3 .1.9.1 1.7.2 2.7.4.2.3.4.8.5 1.4.2.6.3 1.3.4 2 .1.7.2 1.4.3 2 .1.7.2 1.2.2 1.7.7-1 1.4-2 2.4-3 .9-1 2-1.9 3.2-2.7 1.2-.8 2.6-1.4 4.1-1.9 1.5-.5 3.2-.7 5-.7 5.8 0 10.1 1.6 13.1 4.7 2.9 3.2 4.4 8.1 4.4 14.9v32.5c-2.4.4-4.7.6-7 .6s-4.6-.2-7-.6v-28.8c0-3.5-.5-6.3-1.6-8.2-1.1-1.9-3-2.9-5.7-2.9-1.1 0-2.3.2-3.5.5-1.2.3-2.3 1-3.2 1.9-1 .9-1.7 2.3-2.3 4-.6 1.7-.9 3.9-.9 6.7v26.7c-2.4.4-4.7.6-7 .6s-4.6-.2-7-.6v-50.8zM4.6 500.3c.9-.1 2-.3 3.3-.4 1.3-.1 2.7-.2 4.1-.3 1.5-.1 2.9-.2 4.4-.2 1.5-.1 2.8-.1 4-.1 6 0 11.1.8 15.5 2.4 4.4 1.6 8 3.9 10.9 6.9 2.9 3 5 6.7 6.4 11 1.4 4.3 2.1 9.2 2.1 14.7 0 23.6-11.7 35.5-35 35.5-1.3 0-2.8 0-4.3-.1s-3-.1-4.4-.2c-1.4-.1-2.8-.2-4-.4-1.2-.2-2.3-.3-3.1-.4v-68.4zm6.5 62.6c1.1.1 2.5.3 4 .4 1.6.1 3.1.2 4.8.2 4.4 0 8.3-.5 11.8-1.4 3.5-1 6.5-2.6 9-4.8 2.5-2.3 4.4-5.3 5.7-9.1 1.3-3.8 2-8.5 2-14.1 0-9.8-2.5-17-7.6-21.6-5-4.6-12-6.9-21-6.9-1.5 0-3 0-4.7.1-1.7.1-3.1.2-4.1.4v56.8zM82.9 500.3c.4-.1 1-.1 1.8-.1s1.5-.1 2.1-.1c.7 0 1.4 0 2.1.1.7 0 1.3.1 1.8.1l22.8 68.3c-.4.1-.9.1-1.6.1h-3.8c-.6 0-1.2-.1-1.6-.1l-5.7-17.4H72.7l-5.4 17.4c-.5.1-1.1.1-1.8.1h-3.8c-.7 0-1.2-.1-1.6-.1l22.8-68.3zm16 44.8-12.3-38-12.1 38h24.4zM191.4 560.8c.5 1 .9 1.9 1.3 2.8.4.9.7 1.8.9 2.8-2.2 1.1-4.7 1.9-7.7 2.5-3 .6-6.1.9-9.4.9-4.6 0-8.9-.8-12.7-2.3-3.8-1.5-7.1-3.7-9.8-6.7-2.7-2.9-4.8-6.5-6.4-10.8-1.5-4.3-2.3-9.3-2.3-14.8 0-5.7.7-10.8 2.2-15.3 1.5-4.5 3.6-8.2 6.3-11.3 2.7-3.1 6-5.4 9.8-7 3.8-1.6 8.1-2.4 12.9-2.4 4 0 7.3.3 10 .9 2.7.6 4.6 1 5.8 1.4-.1 1.1-.3 2.1-.5 2.8-.2.8-.6 1.7-1 2.8-.8-.2-1.7-.5-2.5-.8-.9-.3-1.8-.5-2.9-.7-1.1-.2-2.3-.4-3.8-.5-1.4-.1-3.1-.2-5-.2-3.7 0-7.1.7-10.1 2-3 1.4-5.5 3.3-7.6 5.9-2.1 2.6-3.7 5.8-4.8 9.5-1.1 3.7-1.7 8-1.7 12.7 0 4.9.6 9.1 1.9 12.7 1.3 3.6 3 6.6 5.3 9 2.3 2.4 4.9 4.1 7.9 5.3 3 1.1 6.3 1.7 9.7 1.7 3 0 5.7-.3 8.1-.9 2.4-.4 4.5-1.1 6.1-2zM227.4 569.8c-4.8 0-8.9-.9-12.5-2.6-3.6-1.7-6.5-4.2-8.8-7.3-2.3-3.1-4.1-6.9-5.2-11.2-1.2-4.3-1.8-9.1-1.8-14.2s.6-9.9 1.8-14.2c1.2-4.3 2.9-8 5.2-11.2 2.3-3.1 5.2-5.6 8.8-7.3 3.5-1.7 7.7-2.6 12.5-2.6s8.9.9 12.5 2.6c3.6 1.7 6.5 4.2 8.8 7.3 2.3 3.1 4.1 6.9 5.2 11.2 1.2 4.3 1.8 9 1.8 14.2 0 5.1-.6 9.9-1.8 14.2-1.2 4.3-2.9 8.1-5.2 11.2-2.3 3.1-5.2 5.6-8.8 7.3-3.6 1.7-7.7 2.6-12.5 2.6zm0-6c3.7 0 6.8-.7 9.5-2.1 2.7-1.4 4.9-3.4 6.7-6 1.8-2.6 3.1-5.7 4-9.3.9-3.6 1.3-7.6 1.3-11.9 0-4.3-.4-8.3-1.3-11.9-.9-3.6-2.2-6.7-4-9.3-1.8-2.6-4-4.6-6.7-6-2.7-1.4-5.8-2.1-9.5-2.1s-6.9.7-9.6 2.1c-2.7 1.4-4.9 3.4-6.7 6-1.7 2.6-3 5.7-3.9 9.3-.9 3.6-1.3 7.6-1.3 11.9 0 4.3.4 8.3 1.3 11.9.9 3.6 2.2 6.7 3.9 9.3 1.7 2.6 4 4.6 6.7 6 2.8 1.4 5.9 2.1 9.6 2.1zM269.6 500c1.4-.1 2.6-.2 3.7-.3 1-.1 2.1-.2 3-.3 1-.1 2-.2 3.1-.2s2.3-.1 3.8-.1c3 0 6 .3 9 1 2.9.6 5.6 1.7 7.9 3.3 2.3 1.6 4.2 3.6 5.7 6.3 1.4 2.6 2.1 5.9 2.1 9.9 0 2.5-.4 4.7-1.3 6.7s-2 3.9-3.5 5.5c-1.4 1.6-3.1 3-4.9 4.2-1.9 1.2-3.8 2.1-5.8 2.9l-.8.3 21.8 29.5c-.6.1-1.3.2-1.9.2h-3.8c-.6 0-1.2-.1-1.9-.2L282 537v-.4l2.1-.6c2.2-.6 4.2-1.3 6.3-2.2 2-.9 3.8-2 5.4-3.3 1.6-1.3 2.8-2.8 3.8-4.6.9-1.8 1.4-3.9 1.4-6.3 0-4.9-1.5-8.7-4.6-11.1-3-2.5-7.2-3.7-12.4-3.7-1.3 0-2.6 0-3.7.1s-2.5.2-4.1.4v63.4c-.4.1-1 .1-1.6.1h-3.4c-.6 0-1.1-.1-1.5-.1V500zM321.7 500.3c.4-.1 1-.1 1.6-.1.6 0 1.2-.1 1.7-.1.6 0 1.1 0 1.7.1.6 0 1.1.1 1.5.1v41.3c0 4 .3 7.4 1 10.1.7 2.8 1.7 5 3 6.8 1.4 1.8 3.1 3.1 5.2 3.9 2.1.8 4.6 1.2 7.5 1.2 5.8 0 10-1.7 12.7-5 2.7-3.4 4-9 4-16.9v-41.3c.4-.1.9-.1 1.5-.1s1.1-.1 1.7-.1c.5 0 1.1 0 1.7.1.6 0 1.2.1 1.6.1v42.1c0 9.1-1.9 16-5.6 20.5-3.7 4.6-9.6 6.8-17.7 6.8s-13.9-2.3-17.7-6.8c-3.7-4.6-5.6-11.4-5.6-20.5v-42.2zM384.8 500.3c.4-.1 1-.1 1.8-.1.7 0 1.3-.1 1.9-.1.5 0 1.1 0 1.8.1.7 0 1.3.1 1.7.1l32.7 57.2v-57.2c.4-.1.9-.1 1.5-.1.5 0 1.1-.1 1.7-.1.5 0 1.1 0 1.7.1.6 0 1.1.1 1.6.1v68.3c-.4.1-.9.1-1.7.1h-3.7c-.7 0-1.3-.1-1.7-.1l-32.7-56.8v56.8c-.4.1-.9.1-1.5.1h-3.5c-.6 0-1-.1-1.4-.1v-68.3zM400 490.4c-1.5 0-2.6.3-3.5.9-.9.6-1.9 1.3-2.9 2.3-1.1-1.3-1.9-2.7-2.4-4.2.9-1 2.2-2 3.7-3s3.2-1.5 5-1.5c1.4 0 2.8.3 4.2.9 1.4.6 2.8 1.2 4.2 1.9 1.4.7 2.7 1.3 4 1.8 1.3.5 2.6.8 3.8.8 1.3 0 2.3-.3 3.2-.8.9-.5 1.8-1.3 3-2.4.5.7 1 1.4 1.3 2.1.4.7.7 1.5 1 2.2-1 1-2.3 1.9-3.8 2.8-1.5.9-3.2 1.4-5.1 1.4-1.4 0-2.8-.3-4.1-.8-1.4-.5-2.7-1.1-4.1-1.8-1.4-.6-2.7-1.2-3.9-1.8-1.1-.6-2.4-.8-3.6-.8zM464.4 500.3c.4-.1 1-.1 1.8-.1s1.5-.1 2.1-.1c.7 0 1.4 0 2.1.1.7 0 1.3.1 1.8.1l22.8 68.3c-.4.1-.9.1-1.6.1h-3.8c-.6 0-1.2-.1-1.6-.1l-5.7-17.4h-28.1l-5.4 17.4c-.5.1-1.1.1-1.8.1h-3.8c-.7 0-1.2-.1-1.6-.1l22.8-68.3zm16 44.8-12.3-38-12.1 38h24.4zM152.4 91.6l14 27.5c1.6 3.1 4.7 4.8 7.9 4.8 1.3 0 2.7-.3 4-1 4.3-2.2 6.1-7.5 3.9-11.9L169 84.9c-.2-.9-.3-1.8-.3-2.7 0-6.4 5.2-11.6 11.6-11.6 4.5 0 8.7 2.7 10.6 6.8l5.3 11.7 9-9.2c.2-.2 17.4-17.3 42.6-16.3.8 0 1.5-.1 2.2-.2.7.2 1.5.3 2.2.2 25-1 42.5 16.2 42.6 16.3l9.1 9.2 5.3-11.8c1.9-4.2 6-6.8 10.6-6.8 6.4 0 11.6 5.2 11.6 11.6 0 .9-.1 1.8-.3 2.7l-13.2 26.1c-2.2 4.3-.5 9.7 3.9 11.9 1.3.6 2.6 1 4 1 3.2 0 6.3-1.8 7.9-4.8l13.9-27.5.2-.7c.8-2.7 1.3-5.6 1.3-8.5 0-16.1-13.1-29.2-29.2-29.2-7.7 0-14.9 3-20.2 8.1-8.3-6-22.8-13.9-41.3-14.9V37h9c4.8 0 8.7-3.9 8.7-8.7 0-4.8-3.9-8.7-8.7-8.7h-9V11c0-4.5-3.7-8.2-8.2-8.2-4.5 0-8.2 3.7-8.2 8.2v8.6h-9c-4.8 0-8.7 3.9-8.7 8.7 0 4.8 3.9 8.7 8.7 8.7h9v9.4c-18.5 1-32.9 9-41.3 14.9-5.3-5.1-12.6-8.1-20.2-8.1-16.1 0-29.2 13.1-29.2 29.2 0 2.9.4 5.7 1.2 8.5l-.1.7z"/><path class="st0" d="M251.4 97.2c-.5 0-1 0-1.5.1-.5-.1-1-.1-1.5-.1-.9 0-22 .1-51.8 6.8-4.3 1-6.7 4.3-5.4 7.5 1.1 2.6 4.3 4.3 7.7 4.3.8 0 1.6-.1 2.3-.3 27.3-6.1 46.8-6.3 47.2-6.3.5 0 1 0 1.5-.1.5.1 1 .1 1.5.1.2 0 19.6.1 47.2 6.3.8.2 1.6.3 2.3.3 3.5 0 6.7-1.7 7.7-4.3 1.3-3.2-1.1-6.5-5.4-7.5-29.8-6.8-50.9-6.8-51.8-6.8zM347.4 182.5s-18.9-1.4-25.1-18.4c0 0-6-15.3 6.2-27.3 0 0-75.4-38.5-156.9.2 0 0 13.2 13.4 4.8 30.9 0 0-5.5 13.1-23.9 14.6 0 0-8.4 56 23 112.2 0 0 15.3-7.7 23.9 4.1 0 0 11 13.1-3.3 25.3 0 0 19.4 26.3 54.5 32.1 0 0 37.8-7.4 53.8-32.1 0 0-13.4-10.3-5-23.2 0 0 8.8-14.6 25.1-6 0 0 31.3-52.1 22.9-112.4zm-79.1 102.9c-3.7-.7-8.5-1.3-12.3-1.5-3.8-.2-6.7-.2-6.7-.2s-3.4 0-7.7.4c-4.3.4-9.5 1.2-13.1 2-10.6 1.8-27 6.9-27 6.9 5.3-4.8 12.7-8.5 20.7-11-2.6-2.1-4.2-6.3-4.2-14.9v-.8l64.5-27-64.6 14.5v-23.4l64.6-24.3-64.7 11.9v-24l64.6-21-64.6 8.6c1.1-12.8 12-25.5 24.4-27.8 18.2-3.3 26.8 9.7 26.8 9.7v-17.1c0-4.4 2.1-8 8-8 4.4 0 5.4 2.2 5.4 8V173l.1 33.2v61c0 8.6-1.6 12.8-4.2 14.9 8 2.5 15.4 6.2 20.7 11-.1 0-16.6-5.7-30.7-7.7z"/><path class="st0" d="m270.5 199.8-10.1 1.9v-12l10.1-3.3zM270.5 233.5l-10.1 1.9v-12l10.1-3.3z"/></g></switch></svg>