


<svg version="1.1" xmlns="http://www.w3.org/2000/svg" viewBox="0 0 556 348" xml:space="preserve">
		<path class="st0" d="M181.3,135c0.4,0,1,0.1,1.6,0.1c0.7,0,1.5,0.1,2.4,0.1c2.2,0,4.2-0.2,6-0.7c1.9-0.5,3.5-1.4,4.8-2.7    c1.4-1.3,2.5-3.1,3.2-5.3c0.8-2.2,1.2-5.1,1.2-8.5c0-3.4-0.4-6.2-1.2-8.5c-0.8-2.3-1.9-4-3.2-5.4c-1.4-1.3-2.9-2.2-4.7-2.8    c-1.8-0.5-3.6-0.8-5.6-0.8c-0.7,0-1.4,0-2.3,0c-0.9,0-1.6,0.1-2.3,0.2V135 M170.9,92.4c2-0.2,4.1-0.4,6.2-0.6    c2.2-0.2,4.6-0.2,7.2-0.2c8.9,0,15.7,2.2,20.3,6.6c4.6,4.4,6.9,11.1,6.9,19.9c0,8.9-2.3,15.4-7.1,19.6c-4.7,4.2-11.7,6.3-21,6.3    c-2.4,0-4.6-0.1-6.6-0.2c-2-0.2-4-0.4-6-0.6V92.4z"/>
		<path class="st0" d="M240.8,121c-0.1-2.3-0.7-4.1-1.9-5.5c-1.2-1.4-2.8-2.1-4.8-2.1c-2.4,0-4.1,0.7-5.4,2c-1.2,1.3-2,3.2-2.2,5.6    H240.8 M226.5,128c0.2,2.8,1.2,4.9,3,6.1c1.8,1.3,4.1,1.9,7.1,1.9c1.6,0,3.2-0.2,4.9-0.5c1.7-0.3,3.3-0.7,4.8-1.3    c0.5,0.9,1,2.1,1.3,3.4c0.4,1.3,0.6,2.7,0.6,4.2c-3.7,1.4-7.8,2.1-12.4,2.1c-3.4,0-6.3-0.5-8.7-1.4c-2.4-0.9-4.4-2.2-5.9-3.9    c-1.5-1.7-2.7-3.7-3.4-6c-0.7-2.3-1.1-4.8-1.1-7.6c0-2.7,0.4-5.2,1.1-7.5c0.8-2.4,1.9-4.4,3.4-6.1c1.5-1.7,3.3-3.1,5.5-4.1    c2.2-1,4.7-1.5,7.7-1.5c2.5,0,4.8,0.5,6.8,1.3c2,0.9,3.7,2.1,5,3.7c1.4,1.6,2.4,3.4,3.1,5.5c0.7,2.1,1.1,4.4,1.1,6.9    c0,0.9,0,1.8-0.1,2.6c-0.1,0.9-0.2,1.6-0.2,2.1H226.5z"/>
		<path class="st0" d="M266.5,135.4c1.3,0.4,2.7,0.6,4.4,0.6c2.9,0,5.2-0.9,6.7-2.8s2.3-4.7,2.3-8.5c0-1.5-0.1-2.8-0.4-4.1    c-0.2-1.2-0.6-2.3-1.2-3.2c-0.6-0.9-1.3-1.6-2.1-2.1c-0.9-0.5-1.9-0.8-3.2-0.8c-1.2,0-2.2,0.2-3,0.7c-0.8,0.4-1.5,1.1-2,1.8    c-0.5,0.8-0.9,1.7-1.1,2.7c-0.2,1-0.3,2.1-0.3,3.3V135.4 M256.4,106.6c0.7-0.1,1.3-0.2,1.9-0.3c0.6,0,1.4-0.1,2.2-0.1    c1.3,0,2.7,0.1,4,0.4c0.1,0.2,0.3,0.6,0.4,1c0.1,0.5,0.2,0.9,0.4,1.4c0.1,0.5,0.2,1,0.3,1.5c0.1,0.5,0.1,0.9,0.2,1.2    c0.4-0.8,0.9-1.5,1.6-2.2c0.6-0.7,1.3-1.4,2.2-1.9c0.9-0.6,1.8-1,2.9-1.4c1.1-0.4,2.3-0.5,3.6-0.5c2,0,3.9,0.4,5.7,1.1    c1.8,0.8,3.3,1.9,4.6,3.4c1.3,1.5,2.3,3.4,3.1,5.8c0.7,2.3,1.1,5,1.1,8.2c0,3.1-0.4,5.8-1.3,8.2c-0.9,2.4-2.2,4.5-3.9,6.2    c-1.7,1.7-3.8,3-6.2,3.9c-2.4,0.9-5.2,1.4-8.3,1.4c-0.8,0-1.6,0-2.4-0.1c-0.8-0.1-1.4-0.2-1.9-0.3v16.2c-0.9,0.1-1.8,0.2-2.6,0.3    c-0.8,0-1.6,0.1-2.4,0.1c-0.8,0-1.6,0-2.4-0.1c-0.8,0-1.7-0.1-2.6-0.3V106.6z"/>
		<path class="st0" d="M296.2,106.7c1.7-0.3,3.4-0.4,5-0.4c1.6,0,3.3,0.1,5,0.4V126c0,1.9,0.2,3.5,0.5,4.8c0.3,1.2,0.8,2.2,1.4,3    c0.6,0.7,1.4,1.2,2.4,1.6c0.9,0.3,2,0.5,3.3,0.5c1.7,0,3.2-0.2,4.4-0.5v-28.6c1.7-0.3,3.3-0.4,4.9-0.4c1.6,0,3.3,0.1,5,0.4v35.1    c-1.5,0.5-3.5,1-6,1.5c-2.5,0.5-5,0.7-7.7,0.7c-2.4,0-4.7-0.2-6.9-0.6c-2.2-0.4-4.2-1.2-5.8-2.4c-1.7-1.2-3-3-4-5.4    c-1-2.4-1.5-5.5-1.5-9.4V106.7"/>
		<path class="st0" d="M337,114.3h-4.6l-0.3-1.4L345.2,96h1.6v10.7h8.5c0.1,0.7,0.2,1.3,0.3,1.9c0,0.6,0.1,1.2,0.1,1.8    c0,0.7,0,1.3-0.1,1.9c0,0.6-0.1,1.3-0.3,2h-8.5v14.3c0,1.5,0.1,2.6,0.3,3.5c0.2,0.9,0.6,1.6,1,2.1c0.4,0.5,1,0.9,1.7,1.1    c0.7,0.2,1.4,0.3,2.3,0.3c0.7,0,1.4-0.1,2.1-0.2c0.7-0.1,1.3-0.2,1.8-0.3c0.3,0.9,0.6,1.8,0.7,2.8c0.1,1,0.2,1.8,0.2,2.6    c0,0.5,0,1,0,1.3c0,0.4-0.1,0.7-0.1,1c-2.2,0.5-4.4,0.8-6.7,0.8c-4.3,0-7.6-1-9.8-3c-2.3-2-3.4-5.3-3.4-9.8V114.3"/>
		<path class="st0" d="M380.4,126.4c-0.6-0.1-1.2-0.2-1.8-0.2c-0.7-0.1-1.2-0.1-1.8-0.1c-2.3,0-4.1,0.4-5.5,1.2c-1.3,0.8-2,2.2-2,4    c0,1.2,0.3,2.2,0.8,2.8c0.5,0.7,1.1,1.1,1.9,1.4c0.7,0.3,1.5,0.5,2.3,0.6c0.8,0.1,1.5,0.1,2.2,0.1c0.7,0,1.4-0.1,2.1-0.2    c0.7-0.1,1.3-0.2,1.8-0.3V126.4 M380.4,119.2c0-1.1-0.2-2-0.6-2.8c-0.4-0.7-0.9-1.3-1.6-1.7c-0.7-0.4-1.5-0.7-2.4-0.8    c-1-0.1-2-0.2-3.2-0.2c-2.5,0-5.2,0.5-8.1,1.5c-0.7-1.2-1.2-2.4-1.5-3.5c-0.3-1.1-0.5-2.4-0.5-3.9c2.1-0.7,4.1-1.2,6.2-1.6    c2.1-0.3,4-0.5,5.8-0.5c4.9,0,8.7,1.2,11.5,3.5c2.7,2.4,4.1,6.1,4.1,11.3v21.2c-1.6,0.5-3.6,1-6,1.5c-2.4,0.5-5,0.7-8,0.7    c-2.4,0-4.6-0.2-6.6-0.6c-2-0.4-3.7-1.1-5.2-2.1c-1.4-1-2.5-2.2-3.3-3.8c-0.8-1.5-1.2-3.5-1.2-5.7c0-2.3,0.5-4.2,1.4-5.7    c1-1.5,2.2-2.8,3.7-3.7c1.5-0.9,3.2-1.6,5.1-2c1.9-0.4,3.8-0.6,5.6-0.6c1.4,0,2.9,0.1,4.5,0.2V119.2z"/>
		<path class="st0" d="M422.2,134.6c0.6,0.9,1,2,1.4,3.3c0.4,1.2,0.6,2.7,0.6,4.4c-1.9,0.8-3.6,1.2-5.3,1.4    c-1.6,0.2-3.4,0.3-5.1,0.3c-3.1,0-5.7-0.5-8-1.4c-2.2-1-4.1-2.3-5.6-4c-1.5-1.7-2.6-3.7-3.4-6c-0.8-2.3-1.1-4.9-1.1-7.6    c0-2.7,0.4-5.2,1.1-7.5c0.7-2.3,1.8-4.3,3.3-6.1c1.5-1.7,3.3-3.1,5.5-4.1c2.2-1,4.8-1.5,7.7-1.5c1,0,2,0,2.9,0.1    c0.9,0,1.7,0.1,2.5,0.3c0.8,0.1,1.6,0.3,2.4,0.6c0.8,0.2,1.7,0.5,2.7,0.9c0,1.1-0.1,2.3-0.4,3.6c-0.3,1.3-0.7,2.6-1.3,3.8    c-1.4-0.5-2.6-0.8-3.7-0.9c-1.1-0.2-2.3-0.2-3.6-0.2c-2.9,0-5.1,1-6.6,2.9c-1.5,1.9-2.2,4.6-2.2,8.2c0,3.8,0.8,6.6,2.4,8.3    c1.6,1.7,3.8,2.6,6.5,2.6c0.7,0,1.4,0,1.9,0c0.6,0,1.2-0.1,1.7-0.2c0.6-0.1,1.1-0.2,1.7-0.4C420.7,135.1,421.4,134.8,422.2,134.6"/>
		<path class="st0" d="M431,100.5c-0.3-1.6-0.4-3.2-0.4-4.7c0-1.5,0.1-3.1,0.4-4.7c0.8-0.1,1.7-0.2,2.6-0.3c0.9-0.1,1.8-0.1,2.5-0.1    c0.8,0,1.7,0,2.6,0.1c0.9,0.1,1.8,0.2,2.6,0.3c0.1,0.8,0.2,1.6,0.3,2.4c0,0.8,0.1,1.6,0.1,2.4c0,0.8,0,1.5-0.1,2.3    c-0.1,0.8-0.1,1.6-0.3,2.4c-0.8,0.1-1.7,0.2-2.6,0.3c-0.9,0-1.8,0.1-2.6,0.1c-0.8,0-1.6,0-2.5-0.1    C432.7,100.8,431.8,100.7,431,100.5 M432.5,114.3h-4.7c-0.1-0.6-0.2-1.3-0.3-1.9c-0.1-0.7-0.1-1.3-0.1-1.9c0-1.3,0.1-2.5,0.4-3.7    h14.5v36.5c-1.7,0.3-3.3,0.4-4.9,0.4c-1.6,0-3.2-0.1-4.9-0.4V114.3z"/>
		<path class="st0" d="M466.8,92.4c1.9-0.3,4-0.4,6.4-0.4c1.2,0,2.3,0,3.1,0.1c0.9,0.1,1.8,0.2,2.7,0.3l-10.7,8.7    c-0.6,0.1-1.3,0.2-2.2,0.3c-0.8,0.1-1.7,0.1-2.7,0.1c-1.5,0-3-0.1-4.6-0.4L466.8,92.4 M466.1,136.4c2.6,0,4.5-1,5.7-2.9    c1.2-2,1.7-4.8,1.7-8.4c0-3.7-0.6-6.5-1.7-8.4c-1.2-2-3-2.9-5.7-2.9c-2.6,0-4.5,1-5.6,2.9c-1.2,2-1.7,4.8-1.7,8.4    c0,3.7,0.6,6.5,1.7,8.4C461.6,135.4,463.5,136.4,466.1,136.4z M466.1,144c-3,0-5.5-0.5-7.7-1.4c-2.2-1-4-2.3-5.4-4    c-1.4-1.7-2.5-3.7-3.2-6c-0.7-2.3-1.1-4.8-1.1-7.5c0-2.7,0.4-5.2,1.1-7.6c0.7-2.4,1.8-4.4,3.2-6.1c1.4-1.7,3.2-3.1,5.4-4.1    c2.2-1,4.8-1.5,7.7-1.5c3,0,5.6,0.5,7.8,1.5c2.2,1,4,2.3,5.5,4.1c1.5,1.7,2.5,3.8,3.2,6.1c0.7,2.4,1.1,4.9,1.1,7.6    c0,2.7-0.4,5.2-1.1,7.5c-0.7,2.3-1.8,4.3-3.2,6c-1.5,1.7-3.3,3.1-5.5,4C471.6,143.5,469,144,466.1,144z"/>
		<path class="st0" d="M489.8,106.7c0.7-0.1,1.3-0.2,2-0.3c0.7-0.1,1.4-0.1,2.2-0.1c0.8,0,1.5,0,2.1,0.1c0.6,0.1,1.2,0.2,1.9,0.3    c0.1,0.2,0.3,0.6,0.4,1c0.1,0.5,0.2,0.9,0.3,1.4c0.1,0.5,0.2,1,0.2,1.5c0.1,0.5,0.1,0.9,0.2,1.2c0.5-0.7,1-1.4,1.7-2.1    c0.7-0.7,1.4-1.3,2.3-1.9c0.9-0.6,1.8-1,2.9-1.4c1.1-0.4,2.3-0.5,3.6-0.5c4.1,0,7.3,1.1,9.4,3.4c2.1,2.3,3.1,5.8,3.1,10.7v23.3    c-1.7,0.3-3.4,0.4-5,0.4c-1.6,0-3.3-0.1-5-0.4v-20.6c0-2.5-0.4-4.5-1.2-5.9c-0.8-1.4-2.1-2-4.1-2c-0.8,0-1.6,0.1-2.5,0.4    c-0.8,0.2-1.6,0.7-2.3,1.4c-0.7,0.7-1.2,1.6-1.7,2.9c-0.4,1.2-0.6,2.8-0.6,4.8v19.1c-1.7,0.3-3.4,0.4-5,0.4c-1.6,0-3.3-0.1-5-0.4    V106.7"/>
		<path class="st0" d="M175.6,205.8c0.8,0.1,1.8,0.2,2.9,0.3c1.1,0.1,2.3,0.1,3.4,0.1c3.1,0,6-0.3,8.5-1c2.5-0.7,4.7-1.8,6.4-3.5    c1.8-1.6,3.1-3.8,4.1-6.5c0.9-2.7,1.4-6.1,1.4-10.1c0-7-1.8-12.2-5.4-15.5c-3.6-3.3-8.6-4.9-15-4.9c-1,0-2.2,0-3.4,0.1    c-1.2,0-2.2,0.1-3,0.3V205.8 M170.9,161c0.6-0.1,1.4-0.2,2.3-0.3c0.9-0.1,1.9-0.2,3-0.2c1-0.1,2.1-0.1,3.1-0.2c1,0,2-0.1,2.9-0.1    c4.3,0,8,0.6,11.1,1.7c3.2,1.2,5.8,2.8,7.8,5c2.1,2.1,3.6,4.8,4.6,7.9c1,3.1,1.5,6.6,1.5,10.5c0,16.9-8.3,25.4-25,25.4    c-0.9,0-2,0-3.1-0.1c-1.1,0-2.1-0.1-3.2-0.2c-1-0.1-2-0.2-2.9-0.3c-0.9-0.1-1.6-0.2-2.2-0.3V161z"/>
		<path class="st0" d="M238.4,193.1l-8.8-27.2l-8.6,27.2H238.4 M227,161c0.3,0,0.8-0.1,1.3-0.1c0.5,0,1,0,1.5,0c0.5,0,1,0,1.5,0    c0.5,0,0.9,0.1,1.3,0.1l16.3,48.9c-0.3,0-0.7,0.1-1.2,0.1c-0.5,0-1,0-1.4,0c-0.4,0-0.8,0-1.3,0c-0.5,0-0.8-0.1-1.2-0.1l-4.1-12.4    h-20.1l-3.9,12.4c-0.4,0-0.8,0.1-1.3,0.1c-0.5,0-0.9,0-1.3,0c-0.4,0-0.9,0-1.4,0c-0.5,0-0.9-0.1-1.1-0.1L227,161z"/>
		<path class="st0" d="M304.6,204.3c0.4,0.7,0.7,1.3,1,2c0.3,0.6,0.5,1.3,0.6,2c-1.5,0.8-3.4,1.4-5.5,1.8c-2.1,0.4-4.4,0.6-6.7,0.6    c-3.3,0-6.3-0.5-9.1-1.6c-2.7-1.1-5.1-2.7-7-4.8c-2-2.1-3.5-4.7-4.6-7.8c-1.1-3.1-1.6-6.6-1.6-10.6c0-4.1,0.5-7.7,1.6-10.9    c1.1-3.2,2.6-5.9,4.5-8.1c1.9-2.2,4.3-3.9,7-5c2.7-1.2,5.8-1.7,9.2-1.7c2.9,0,5.2,0.2,7.1,0.6c1.9,0.4,3.3,0.7,4.1,1    c-0.1,0.8-0.2,1.5-0.4,2s-0.4,1.2-0.7,2c-0.6-0.2-1.2-0.4-1.8-0.5c-0.6-0.2-1.3-0.3-2.1-0.5c-0.8-0.1-1.7-0.2-2.7-0.3    c-1-0.1-2.2-0.1-3.6-0.1c-2.7,0-5.1,0.5-7.2,1.5c-2.1,1-3.9,2.4-5.4,4.3c-1.5,1.9-2.7,4.1-3.5,6.8c-0.8,2.7-1.2,5.7-1.2,9.1    c0,3.5,0.5,6.5,1.4,9.1c0.9,2.6,2.2,4.7,3.8,6.4c1.6,1.7,3.5,3,5.6,3.8c2.2,0.8,4.5,1.2,7,1.2c2.1,0,4.1-0.2,5.8-0.6    C302,205.5,303.5,205,304.6,204.3"/>
		<path class="st0" d="M330.4,206.4c2.6,0,4.9-0.5,6.8-1.5c1.9-1,3.5-2.5,4.8-4.3c1.3-1.9,2.2-4.1,2.8-6.7s0.9-5.4,0.9-8.5    s-0.3-5.9-0.9-8.5s-1.6-4.8-2.8-6.6c-1.3-1.8-2.9-3.3-4.8-4.3c-1.9-1-4.2-1.5-6.8-1.5c-2.6,0-4.9,0.5-6.8,1.5    c-1.9,1-3.5,2.4-4.8,4.3c-1.2,1.8-2.2,4.1-2.8,6.6c-0.6,2.6-0.9,5.4-0.9,8.5s0.3,5.9,0.9,8.5c0.6,2.6,1.5,4.8,2.8,6.7    c1.2,1.9,2.8,3.3,4.8,4.3C325.5,205.9,327.8,206.4,330.4,206.4 M330.4,210.7c-3.4,0-6.4-0.6-8.9-1.9c-2.5-1.2-4.6-3-6.3-5.2    c-1.7-2.2-2.9-4.9-3.7-8c-0.8-3.1-1.3-6.5-1.3-10.2c0-3.7,0.4-7.1,1.3-10.1c0.8-3.1,2.1-5.7,3.7-8c1.7-2.2,3.8-4,6.3-5.2    c2.5-1.2,5.5-1.9,8.9-1.9c3.4,0,6.4,0.6,8.9,1.9c2.5,1.2,4.6,3,6.3,5.2c1.7,2.2,2.9,4.9,3.7,8c0.8,3.1,1.3,6.5,1.3,10.1    c0,3.7-0.4,7.1-1.3,10.2c-0.8,3.1-2.1,5.8-3.7,8c-1.7,2.2-3.8,4-6.3,5.2C336.8,210.1,333.8,210.7,330.4,210.7z"/>
		<path class="st0" d="M360.6,160.8c1-0.1,1.9-0.2,2.6-0.2c0.7-0.1,1.5-0.1,2.2-0.2c0.7-0.1,1.4-0.1,2.2-0.1c0.8,0,1.7,0,2.7,0    c2.2,0,4.3,0.2,6.4,0.7c2.1,0.5,4,1.2,5.7,2.4c1.7,1.1,3,2.6,4,4.5c1,1.9,1.5,4.3,1.5,7.1c0,1.8-0.3,3.4-0.9,4.8    c-0.6,1.4-1.5,2.8-2.5,3.9c-1,1.2-2.2,2.2-3.5,3c-1.3,0.8-2.7,1.5-4.1,2.1l-0.6,0.2l15.6,21.1c-0.5,0.1-0.9,0.1-1.4,0.1H388    c-0.4,0-0.9-0.1-1.3-0.1l-17.1-22.7V187l1.5-0.4c1.5-0.4,3-0.9,4.5-1.6c1.5-0.7,2.7-1.5,3.8-2.4c1.1-0.9,2-2,2.7-3.3    c0.7-1.3,1-2.8,1-4.5c0-3.5-1.1-6.2-3.3-8c-2.2-1.8-5.1-2.7-8.8-2.7c-1,0-1.8,0-2.7,0.1s-1.8,0.1-2.9,0.3v45.4    c-0.3,0-0.7,0.1-1.2,0.1c-0.4,0-0.9,0-1.2,0c-0.4,0-0.8,0-1.2,0c-0.4,0-0.8-0.1-1.1-0.1V160.8"/>
		<path class="st0" d="M397.9,161c0.3,0,0.7-0.1,1.2-0.1c0.5,0,0.9,0,1.2,0c0.4,0,0.8,0,1.2,0c0.4,0,0.8,0.1,1.1,0.1v29.5    c0,2.9,0.2,5.3,0.7,7.2c0.5,2,1.2,3.6,2.2,4.9c1,1.3,2.2,2.2,3.7,2.8c1.5,0.6,3.3,0.8,5.4,0.8c4.1,0,7.2-1.2,9.1-3.6    c1.9-2.4,2.9-6.4,2.9-12.1V161c0.3,0,0.7-0.1,1.1-0.1c0.4,0,0.8,0,1.2,0c0.4,0,0.8,0,1.2,0c0.4,0,0.8,0.1,1.2,0.1v30.1    c0,6.5-1.3,11.4-4,14.7c-2.7,3.3-6.9,4.9-12.7,4.9s-10-1.6-12.7-4.9c-2.7-3.3-4-8.2-4-14.7V161"/>
		<path class="st0" d="M443.1,161c0.3,0,0.7-0.1,1.3-0.1c0.5,0,1,0,1.3,0s0.8,0,1.3,0c0.5,0,0.9,0.1,1.2,0.1l23.4,41v-41    c0.3,0,0.7-0.1,1.1-0.1c0.4,0,0.8,0,1.2,0c0.4,0,0.8,0,1.2,0c0.4,0,0.8,0.1,1.1,0.1v48.9c-0.3,0-0.7,0.1-1.2,0.1c-0.5,0-1,0-1.4,0    c-0.4,0-0.8,0-1.3,0c-0.5,0-0.9-0.1-1.2-0.1l-23.4-40.6v40.6c-0.3,0-0.7,0.1-1.1,0.1c-0.4,0-0.8,0-1.2,0c-0.4,0-0.9,0-1.3,0    c-0.4,0-0.8-0.1-1-0.1V161"/>
		<path class="st0" d="M454,153.9c-1,0-1.9,0.2-2.5,0.6c-0.6,0.4-1.3,1-2.1,1.6c-0.8-0.9-1.3-1.9-1.7-3c0.7-0.7,1.6-1.4,2.7-2.1    c1.1-0.7,2.3-1.1,3.6-1.1c1,0,2,0.2,3,0.6c1,0.4,2,0.9,3,1.3c1,0.5,1.9,0.9,2.9,1.3c0.9,0.4,1.8,0.6,2.8,0.6    c0.9,0,1.7-0.2,2.3-0.6c0.6-0.4,1.3-1,2.1-1.7c0.4,0.5,0.7,1,1,1.5c0.3,0.5,0.5,1.1,0.8,1.6c-0.7,0.7-1.6,1.4-2.7,2    c-1.1,0.7-2.3,1-3.6,1c-1,0-2-0.2-3-0.6c-1-0.4-1.9-0.8-2.9-1.3c-1-0.5-1.9-0.9-2.8-1.3C455.7,154.1,454.8,153.9,454,153.9"/>
		<path class="st0" d="M511.5,193.1l-8.8-27.2l-8.6,27.2H511.5 M500,161c0.3,0,0.8-0.1,1.3-0.1c0.5,0,1,0,1.5,0c0.5,0,1,0,1.5,0    c0.5,0,0.9,0.1,1.3,0.1l16.3,48.9c-0.3,0-0.7,0.1-1.2,0.1c-0.5,0-1,0-1.4,0c-0.4,0-0.8,0-1.3,0c-0.5,0-0.8-0.1-1.2-0.1l-4.1-12.4    h-20.1l-3.9,12.4c-0.4,0-0.8,0.1-1.3,0.1c-0.5,0-0.9,0-1.3,0c-0.4,0-0.9,0-1.4,0c-0.5,0-0.9-0.1-1.1-0.1L500,161z"/>
		<path class="st0" d="M1,58.6l9.2,18.2c1,2,3.1,3.2,5.2,3.2c0.9,0,1.8-0.2,2.6-0.6c2.9-1.5,4-5,2.6-7.8l-8.7-17.2    c-0.1-0.6-0.2-1.2-0.2-1.8c0-4.2,3.4-7.6,7.6-7.6c3,0,5.7,1.8,7,4.5l3.5,7.8l6-6c0.1-0.1,11.4-11.4,28.1-10.8c0.5,0,1,0,1.5-0.1    c0.5,0.1,1,0.2,1.5,0.1c16.5-0.7,28,10.7,28.1,10.8l6,6.1l3.5-7.8c1.2-2.7,4-4.5,7-4.5c4.2,0,7.6,3.4,7.6,7.6    c0,0.6-0.1,1.2-0.2,1.8l-8.7,17.2c-1.4,2.9-0.3,6.4,2.6,7.8c0.8,0.4,1.7,0.6,2.6,0.6c2.1,0,4.2-1.2,5.2-3.2l9.2-18.2l0.1-0.5    c0.6-1.8,0.8-3.7,0.8-5.6c0-10.6-8.6-19.3-19.3-19.3c-5.1,0-9.8,2-13.4,5.4c-5.5-3.9-15-9.2-27.2-9.9v-6.2h6    c3.2,0,5.7-2.6,5.7-5.7s-2.6-5.7-5.7-5.7h-6V5.4c0-3-2.4-5.4-5.4-5.4c-3,0-5.4,2.4-5.4,5.4v5.7h-6c-3.2,0-5.7,2.6-5.7,5.7    s2.6,5.7,5.7,5.7h6v6.2c-12.2,0.7-21.7,5.9-27.2,9.9c-3.5-3.4-8.3-5.4-13.3-5.4C8.6,33.2,0,41.9,0,52.5c0,1.9,0.3,3.8,0.8,5.6    L1,58.6"/>
		<path class="st0" d="M66.3,62.2c-0.3,0-0.7,0-1,0.1c-0.3,0-0.7-0.1-1-0.1c-0.6,0-14.5,0.1-34.2,4.5c-2.8,0.6-4.4,2.8-3.6,4.9    c0.7,1.7,2.8,2.8,5.1,2.8c0.5,0,1-0.1,1.5-0.2c18-4.1,30.9-4.1,31.1-4.1c0.3,0,0.7,0,1-0.1c0.3,0.1,0.7,0.1,1,0.1    c0.1,0,12.9,0.1,31.1,4.1c0.5,0.1,1,0.2,1.5,0.2c2.3,0,4.4-1.1,5.1-2.8c0.9-2.1-0.7-4.3-3.6-4.9C80.8,62.3,66.8,62.2,66.3,62.2"/>
		<path class="st0" d="M77.4,186.4c-2.5-0.4-5.6-0.8-8.1-1c-2.5-0.2-4.4-0.1-4.4-0.1s-2.2,0-5.1,0.2c-2.8,0.2-6.3,0.8-8.6,1.3    c-7,1.2-17.8,4.6-17.8,4.6c3.5-3.2,8.3-5.6,13.6-7.3c0,0,0,0,0,0c-1.7-1.4-2.8-4.2-2.8-9.8v-0.5L86.7,156l-42.6,9.6v-15.5l42.6-16    l-42.6,7.8v-15.8l42.6-13.8L44.1,118c0.7-8.5,7.9-16.8,16.1-18.4c12-2.2,17.7,6.4,17.7,6.4V94.7c0-2.9,1.4-5.3,5.3-5.3    c2.9,0,3.5,1.4,3.5,5.3v17.5l0,21.9v40.2c0,5.7-1.1,8.4-2.8,9.8c0,0,0,0,0,0c5.3,1.7,10.2,4.1,13.7,7.3    C97.6,191.4,86.7,187.7,77.4,186.4 M129.6,118.5c0,0-12.5-0.9-16.6-12.1c0,0-3.9-10.1,4.1-18c0,0-49.7-25.4-103.5,0.2    c0,0,8.7,8.8,3.2,20.4c0,0-3.6,8.7-15.8,9.6c0,0-5.5,36.9,15.1,74c0,0,10.1-5.1,15.8,2.7c0,0,7.3,8.7-2.2,16.7    c0,0,12.8,17.4,36,21.1c0,0,24.9-4.9,35.5-21.1c0,0-8.8-6.8-3.3-15.3c0,0,5.8-9.6,16.6-4C114.5,192.7,135.1,158.3,129.6,118.5z"/>
		<polyline class="st0" points="78.9,129.9 72.2,131.1 72.2,123.2 78.9,121.1 78.9,129.9   "/>
		<polyline class="st0" points="78.9,152.2 72.2,153.4 72.2,145.5 78.9,143.3 78.9,152.2   "/>
</svg>