<svg xmlns="http://www.w3.org/2000/svg" viewBox="0 0 556 348" xml:space="preserve"><path class="st0" d="M181.3 135c.4 0 1 .1 1.6.1.7 0 1.5.1 2.4.1 2.2 0 4.2-.2 6-.7 1.9-.5 3.5-1.4 4.8-2.7 1.4-1.3 2.5-3.1 3.2-5.3.8-2.2 1.2-5.1 1.2-8.5 0-3.4-.4-6.2-1.2-8.5-.8-2.3-1.9-4-3.2-5.4-1.4-1.3-2.9-2.2-4.7-2.8-1.8-.5-3.6-.8-5.6-.8h-2.3c-.9 0-1.6.1-2.3.2V135m-10.3-42.6c2-.2 4.1-.4 6.2-.6 2.2-.2 4.6-.2 7.2-.2 8.9 0 15.7 2.2 20.3 6.6 4.6 4.4 6.9 11.1 6.9 19.9 0 8.9-2.3 15.4-7.1 19.6-4.7 4.2-11.7 6.3-21 6.3-2.4 0-4.6-.1-6.6-.2l-6-.6V92.4zM240.8 121c-.1-2.3-.7-4.1-1.9-5.5-1.2-1.4-2.8-2.1-4.8-2.1-2.4 0-4.1.7-5.4 2-1.2 1.3-2 3.2-2.2 5.6h14.3m-14.3 7c.2 2.8 1.2 4.9 3 6.1 1.8 1.3 4.1 1.9 7.1 1.9 1.6 0 3.2-.2 4.9-.5 1.7-.3 3.3-.7 4.8-1.3.5.9 1 2.1 1.3 3.4.4 1.3.6 2.7.6 4.2-3.7 1.4-7.8 2.1-12.4 2.1-3.4 0-6.3-.5-8.7-1.4-2.4-.9-4.4-2.2-5.9-3.9-1.5-1.7-2.7-3.7-3.4-6-.7-2.3-1.1-4.8-1.1-7.6 0-2.7.4-5.2 1.1-7.5.8-2.4 1.9-4.4 3.4-6.1 1.5-1.7 3.3-3.1 5.5-4.1 2.2-1 4.7-1.5 7.7-1.5 2.5 0 4.8.5 6.8 1.3 2 .9 3.7 2.1 5 3.7 1.4 1.6 2.4 3.4 3.1 5.5.7 2.1 1.1 4.4 1.1 6.9 0 .9 0 1.8-.1 2.6-.1.9-.2 1.6-.2 2.1h-23.6zM266.5 135.4c1.3.4 2.7.6 4.4.6 2.9 0 5.2-.9 6.7-2.8s2.3-4.7 2.3-8.5c0-1.5-.1-2.8-.4-4.1-.2-1.2-.6-2.3-1.2-3.2-.6-.9-1.3-1.6-2.1-2.1-.9-.5-1.9-.8-3.2-.8-1.2 0-2.2.2-3 .7-.8.4-1.5 1.1-2 1.8-.5.8-.9 1.7-1.1 2.7-.2 1-.3 2.1-.3 3.3v12.4m-10.2-28.8c.7-.1 1.3-.2 1.9-.3.6 0 1.4-.1 2.2-.1 1.3 0 2.7.1 4 .4.1.2.3.6.4 1 .1.5.2.9.4 1.4l.3 1.5c.1.5.1.9.2 1.2.4-.8.9-1.5 1.6-2.2.6-.7 1.3-1.4 2.2-1.9.9-.6 1.8-1 2.9-1.4 1.1-.4 2.3-.5 3.6-.5 2 0 3.9.4 5.7 1.1 1.8.8 3.3 1.9 4.6 3.4 1.3 1.5 2.3 3.4 3.1 5.8.7 2.3 1.1 5 1.1 8.2 0 3.1-.4 5.8-1.3 8.2-.9 2.4-2.2 4.5-3.9 6.2-1.7 1.7-3.8 3-6.2 3.9-2.4.9-5.2 1.4-8.3 1.4-.8 0-1.6 0-2.4-.1-.8-.1-1.4-.2-1.9-.3v16.2c-.9.1-1.8.2-2.6.3-.8 0-1.6.1-2.4.1-.8 0-1.6 0-2.4-.1-.8 0-1.7-.1-2.6-.3v-53.1zM296.2 106.7c1.7-.3 3.4-.4 5-.4s3.3.1 5 .4V126c0 1.9.2 3.5.5 4.8.3 1.2.8 2.2 1.4 3 .6.7 1.4 1.2 2.4 1.6.9.3 2 .5 3.3.5 1.7 0 3.2-.2 4.4-.5v-28.6c1.7-.3 3.3-.4 4.9-.4 1.6 0 3.3.1 5 .4v35.1c-1.5.5-3.5 1-6 1.5s-5 .7-7.7.7c-2.4 0-4.7-.2-6.9-.6-2.2-.4-4.2-1.2-5.8-2.4-1.7-1.2-3-3-4-5.4-1-2.4-1.5-5.5-1.5-9.4v-19.6M337 114.3h-4.6l-.3-1.4L345.2 96h1.6v10.7h8.5c.1.7.2 1.3.3 1.9 0 .6.1 1.2.1 1.8 0 .7 0 1.3-.1 1.9 0 .6-.1 1.3-.3 2h-8.5v14.3c0 1.5.1 2.6.3 3.5.2.9.6 1.6 1 2.1s1 .9 1.7 1.1c.7.2 1.4.3 2.3.3.7 0 1.4-.1 2.1-.2.7-.1 1.3-.2 1.8-.3.3.9.6 1.8.7 2.8.1 1 .2 1.8.2 2.6v1.3c0 .4-.1.7-.1 1-2.2.5-4.4.8-6.7.8-4.3 0-7.6-1-9.8-3-2.3-2-3.4-5.3-3.4-9.8v-16.5M380.4 126.4c-.6-.1-1.2-.2-1.8-.2-.7-.1-1.2-.1-1.8-.1-2.3 0-4.1.4-5.5 1.2-1.3.8-2 2.2-2 4 0 1.2.3 2.2.8 2.8.5.7 1.1 1.1 1.9 1.4.7.3 1.5.5 2.3.6.8.1 1.5.1 2.2.1.7 0 1.4-.1 2.1-.2.7-.1 1.3-.2 1.8-.3v-9.3m0-7.2c0-1.1-.2-2-.6-2.8-.4-.7-.9-1.3-1.6-1.7-.7-.4-1.5-.7-2.4-.8-1-.1-2-.2-3.2-.2-2.5 0-5.2.5-8.1 1.5-.7-1.2-1.2-2.4-1.5-3.5-.3-1.1-.5-2.4-.5-3.9 2.1-.7 4.1-1.2 6.2-1.6 2.1-.3 4-.5 5.8-.5 4.9 0 8.7 1.2 11.5 3.5 2.7 2.4 4.1 6.1 4.1 11.3v21.2c-1.6.5-3.6 1-6 1.5s-5 .7-8 .7c-2.4 0-4.6-.2-6.6-.6-2-.4-3.7-1.1-5.2-2.1-1.4-1-2.5-2.2-3.3-3.8-.8-1.5-1.2-3.5-1.2-5.7 0-2.3.5-4.2 1.4-5.7 1-1.5 2.2-2.8 3.7-3.7 1.5-.9 3.2-1.6 5.1-2 1.9-.4 3.8-.6 5.6-.6 1.4 0 2.9.1 4.5.2v-.7zM422.2 134.6c.6.9 1 2 1.4 3.3.4 1.2.6 2.7.6 4.4-1.9.8-3.6 1.2-5.3 1.4-1.6.2-3.4.3-5.1.3-3.1 0-5.7-.5-8-1.4-2.2-1-4.1-2.3-5.6-4-1.5-1.7-2.6-3.7-3.4-6-.8-2.3-1.1-4.9-1.1-7.6 0-2.7.4-5.2 1.1-7.5.7-2.3 1.8-4.3 3.3-6.1 1.5-1.7 3.3-3.1 5.5-4.1 2.2-1 4.8-1.5 7.7-1.5 1 0 2 0 2.9.1.9 0 1.7.1 2.5.3.8.1 1.6.3 2.4.6.8.2 1.7.5 2.7.9 0 1.1-.1 2.3-.4 3.6-.3 1.3-.7 2.6-1.3 3.8-1.4-.5-2.6-.8-3.7-.9-1.1-.2-2.3-.2-3.6-.2-2.9 0-5.1 1-6.6 2.9s-2.2 4.6-2.2 8.2c0 3.8.8 6.6 2.4 8.3 1.6 1.7 3.8 2.6 6.5 2.6h1.9c.6 0 1.2-.1 1.7-.2.6-.1 1.1-.2 1.7-.4.5-.3 1.2-.6 2-.8M431 100.5c-.3-1.6-.4-3.2-.4-4.7s.1-3.1.4-4.7c.8-.1 1.7-.2 2.6-.3.9-.1 1.8-.1 2.5-.1.8 0 1.7 0 2.6.1.9.1 1.8.2 2.6.3l.3 2.4c0 .8.1 1.6.1 2.4 0 .8 0 1.5-.1 2.3-.1.8-.1 1.6-.3 2.4-.8.1-1.7.2-2.6.3-.9 0-1.8.1-2.6.1s-1.6 0-2.5-.1c-.9-.1-1.8-.2-2.6-.4m1.5 13.8h-4.7c-.1-.6-.2-1.3-.3-1.9-.1-.7-.1-1.3-.1-1.9 0-1.3.1-2.5.4-3.7h14.5v36.5c-1.7.3-3.3.4-4.9.4-1.6 0-3.2-.1-4.9-.4v-29zM466.8 92.4c1.9-.3 4-.4 6.4-.4 1.2 0 2.3 0 3.1.1l2.7.3-10.7 8.7c-.6.1-1.3.2-2.2.3-.8.1-1.7.1-2.7.1-1.5 0-3-.1-4.6-.4l8-8.7m-.7 44c2.6 0 4.5-1 5.7-2.9 1.2-2 1.7-4.8 1.7-8.4 0-3.7-.6-6.5-1.7-8.4-1.2-2-3-2.9-5.7-2.9-2.6 0-4.5 1-5.6 2.9-1.2 2-1.7 4.8-1.7 8.4 0 3.7.6 6.5 1.7 8.4 1.1 1.9 3 2.9 5.6 2.9zm0 7.6c-3 0-5.5-.5-7.7-1.4-2.2-1-4-2.3-5.4-4-1.4-1.7-2.5-3.7-3.2-6-.7-2.3-1.1-4.8-1.1-7.5s.4-5.2 1.1-7.6c.7-2.4 1.8-4.4 3.2-6.1 1.4-1.7 3.2-3.1 5.4-4.1 2.2-1 4.8-1.5 7.7-1.5 3 0 5.6.5 7.8 1.5s4 2.3 5.5 4.1c1.5 1.7 2.5 3.8 3.2 6.1.7 2.4 1.1 4.9 1.1 7.6 0 2.7-.4 5.2-1.1 7.5-.7 2.3-1.8 4.3-3.2 6-1.5 1.7-3.3 3.1-5.5 4-2.3.9-4.9 1.4-7.8 1.4zM489.8 106.7c.7-.1 1.3-.2 2-.3.7-.1 1.4-.1 2.2-.1.8 0 1.5 0 2.1.1.6.1 1.2.2 1.9.3.1.2.3.6.4 1 .1.5.2.9.3 1.4.1.5.2 1 .2 1.5.1.5.1.9.2 1.2.5-.7 1-1.4 1.7-2.1.7-.7 1.4-1.3 2.3-1.9.9-.6 1.8-1 2.9-1.4 1.1-.4 2.3-.5 3.6-.5 4.1 0 7.3 1.1 9.4 3.4 2.1 2.3 3.1 5.8 3.1 10.7v23.3c-1.7.3-3.4.4-5 .4s-3.3-.1-5-.4v-20.6c0-2.5-.4-4.5-1.2-5.9-.8-1.4-2.1-2-4.1-2-.8 0-1.6.1-2.5.4-.8.2-1.6.7-2.3 1.4-.7.7-1.2 1.6-1.7 2.9-.4 1.2-.6 2.8-.6 4.8v19.1c-1.7.3-3.4.4-5 .4s-3.3-.1-5-.4v-36.7M175.6 205.8c.8.1 1.8.2 2.9.3 1.1.1 2.3.1 3.4.1 3.1 0 6-.3 8.5-1s4.7-1.8 6.4-3.5c1.8-1.6 3.1-3.8 4.1-6.5.9-2.7 1.4-6.1 1.4-10.1 0-7-1.8-12.2-5.4-15.5-3.6-3.3-8.6-4.9-15-4.9-1 0-2.2 0-3.4.1-1.2 0-2.2.1-3 .3v40.7m-4.6-44.8c.6-.1 1.4-.2 2.3-.3.9-.1 1.9-.2 3-.2 1-.1 2.1-.1 3.1-.2 1 0 2-.1 2.9-.1 4.3 0 8 .6 11.1 1.7 3.2 1.2 5.8 2.8 7.8 5 2.1 2.1 3.6 4.8 4.6 7.9 1 3.1 1.5 6.6 1.5 10.5 0 16.9-8.3 25.4-25 25.4-.9 0-2 0-3.1-.1-1.1 0-2.1-.1-3.2-.2-1-.1-2-.2-2.9-.3-.9-.1-1.6-.2-2.2-.3V161zM238.4 193.1l-8.8-27.2-8.6 27.2h17.4M227 161c.3 0 .8-.1 1.3-.1h3c.5 0 .9.1 1.3.1l16.3 48.9c-.3 0-.7.1-1.2.1H245c-.5 0-.8-.1-1.2-.1l-4.1-12.4h-20.1l-3.9 12.4c-.4 0-.8.1-1.3.1h-2.7c-.5 0-.9-.1-1.1-.1L227 161zM304.6 204.3c.4.7.7 1.3 1 2 .3.6.5 1.3.6 2-1.5.8-3.4 1.4-5.5 1.8-2.1.4-4.4.6-6.7.6-3.3 0-6.3-.5-9.1-1.6-2.7-1.1-5.1-2.7-7-4.8-2-2.1-3.5-4.7-4.6-7.8-1.1-3.1-1.6-6.6-1.6-10.6 0-4.1.5-7.7 1.6-10.9s2.6-5.9 4.5-8.1c1.9-2.2 4.3-3.9 7-5 2.7-1.2 5.8-1.7 9.2-1.7 2.9 0 5.2.2 7.1.6 1.9.4 3.3.7 4.1 1-.1.8-.2 1.5-.4 2s-.4 1.2-.7 2c-.6-.2-1.2-.4-1.8-.5-.6-.2-1.3-.3-2.1-.5-.8-.1-1.7-.2-2.7-.3-1-.1-2.2-.1-3.6-.1-2.7 0-5.1.5-7.2 1.5-2.1 1-3.9 2.4-5.4 4.3-1.5 1.9-2.7 4.1-3.5 6.8-.8 2.7-1.2 5.7-1.2 9.1 0 3.5.5 6.5 1.4 9.1.9 2.6 2.2 4.7 3.8 6.4 1.6 1.7 3.5 3 5.6 3.8 2.2.8 4.5 1.2 7 1.2 2.1 0 4.1-.2 5.8-.6 1.8-.5 3.3-1 4.4-1.7M330.4 206.4c2.6 0 4.9-.5 6.8-1.5 1.9-1 3.5-2.5 4.8-4.3 1.3-1.9 2.2-4.1 2.8-6.7s.9-5.4.9-8.5-.3-5.9-.9-8.5-1.6-4.8-2.8-6.6c-1.3-1.8-2.9-3.3-4.8-4.3s-4.2-1.5-6.8-1.5c-2.6 0-4.9.5-6.8 1.5-1.9 1-3.5 2.4-4.8 4.3-1.2 1.8-2.2 4.1-2.8 6.6-.6 2.6-.9 5.4-.9 8.5s.3 5.9.9 8.5c.6 2.6 1.5 4.8 2.8 6.7 1.2 1.9 2.8 3.3 4.8 4.3 1.9 1 4.2 1.5 6.8 1.5m0 4.3c-3.4 0-6.4-.6-8.9-1.9-2.5-1.2-4.6-3-6.3-5.2-1.7-2.2-2.9-4.9-3.7-8-.8-3.1-1.3-6.5-1.3-10.2 0-3.7.4-7.1 1.3-10.1.8-3.1 2.1-5.7 3.7-8 1.7-2.2 3.8-4 6.3-5.2 2.5-1.2 5.5-1.9 8.9-1.9 3.4 0 6.4.6 8.9 1.9 2.5 1.2 4.6 3 6.3 5.2 1.7 2.2 2.9 4.9 3.7 8 .8 3.1 1.3 6.5 1.3 10.1 0 3.7-.4 7.1-1.3 10.2-.8 3.1-2.1 5.8-3.7 8-1.7 2.2-3.8 4-6.3 5.2-2.5 1.3-5.5 1.9-8.9 1.9zM360.6 160.8c1-.1 1.9-.2 2.6-.2.7-.1 1.5-.1 2.2-.2.7-.1 1.4-.1 2.2-.1h2.7c2.2 0 4.3.2 6.4.7 2.1.5 4 1.2 5.7 2.4 1.7 1.1 3 2.6 4 4.5s1.5 4.3 1.5 7.1c0 1.8-.3 3.4-.9 4.8-.6 1.4-1.5 2.8-2.5 3.9-1 1.2-2.2 2.2-3.5 3-1.3.8-2.7 1.5-4.1 2.1l-.6.2 15.6 21.1c-.5.1-.9.1-1.4.1H388c-.4 0-.9-.1-1.3-.1l-17.1-22.7v-.4l1.5-.4c1.5-.4 3-.9 4.5-1.6 1.5-.7 2.7-1.5 3.8-2.4 1.1-.9 2-2 2.7-3.3.7-1.3 1-2.8 1-4.5 0-3.5-1.1-6.2-3.3-8-2.2-1.8-5.1-2.7-8.8-2.7-1 0-1.8 0-2.7.1s-1.8.1-2.9.3v45.4c-.3 0-.7.1-1.2.1h-2.4c-.4 0-.8-.1-1.1-.1v-49.1M397.9 161c.3 0 .7-.1 1.2-.1h2.4c.4 0 .8.1 1.1.1v29.5c0 2.9.2 5.3.7 7.2.5 2 1.2 3.6 2.2 4.9 1 1.3 2.2 2.2 3.7 2.8 1.5.6 3.3.8 5.4.8 4.1 0 7.2-1.2 9.1-3.6 1.9-2.4 2.9-6.4 2.9-12.1V161c.3 0 .7-.1 1.1-.1h2.4c.4 0 .8.1 1.2.1v30.1c0 6.5-1.3 11.4-4 14.7-2.7 3.3-6.9 4.9-12.7 4.9s-10-1.6-12.7-4.9c-2.7-3.3-4-8.2-4-14.7V161M443.1 161c.3 0 .7-.1 1.3-.1h2.6c.5 0 .9.1 1.2.1l23.4 41v-41c.3 0 .7-.1 1.1-.1h2.4c.4 0 .8.1 1.1.1v48.9c-.3 0-.7.1-1.2.1h-2.7c-.5 0-.9-.1-1.2-.1l-23.4-40.6v40.6c-.3 0-.7.1-1.1.1h-2.5c-.4 0-.8-.1-1-.1V161M454 153.9c-1 0-1.9.2-2.5.6-.6.4-1.3 1-2.1 1.6-.8-.9-1.3-1.9-1.7-3 .7-.7 1.6-1.4 2.7-2.1 1.1-.7 2.3-1.1 3.6-1.1 1 0 2 .2 3 .6 1 .4 2 .9 3 1.3 1 .5 1.9.9 2.9 1.3.9.4 1.8.6 2.8.6.9 0 1.7-.2 2.3-.6.6-.4 1.3-1 2.1-1.7.4.5.7 1 1 1.5.3.5.5 1.1.8 1.6-.7.7-1.6 1.4-2.7 2-1.1.7-2.3 1-3.6 1-1 0-2-.2-3-.6-1-.4-1.9-.8-2.9-1.3s-1.9-.9-2.8-1.3c-1.2-.2-2.1-.4-2.9-.4M511.5 193.1l-8.8-27.2-8.6 27.2h17.4M500 161c.3 0 .8-.1 1.3-.1h3c.5 0 .9.1 1.3.1l16.3 48.9c-.3 0-.7.1-1.2.1H518c-.5 0-.8-.1-1.2-.1l-4.1-12.4h-20.1l-3.9 12.4c-.4 0-.8.1-1.3.1h-2.7c-.5 0-.9-.1-1.1-.1L500 161zM1 58.6l9.2 18.2c1 2 3.1 3.2 5.2 3.2.9 0 1.8-.2 2.6-.6 2.9-1.5 4-5 2.6-7.8l-8.7-17.2c-.1-.6-.2-1.2-.2-1.8 0-4.2 3.4-7.6 7.6-7.6 3 0 5.7 1.8 7 4.5l3.5 7.8 6-6c.1-.1 11.4-11.4 28.1-10.8.5 0 1 0 1.5-.1.5.1 1 .2 1.5.1 16.5-.7 28 10.7 28.1 10.8l6 6.1 3.5-7.8c1.2-2.7 4-4.5 7-4.5 4.2 0 7.6 3.4 7.6 7.6 0 .6-.1 1.2-.2 1.8l-8.7 17.2c-1.4 2.9-.3 6.4 2.6 7.8.8.4 1.7.6 2.6.6 2.1 0 4.2-1.2 5.2-3.2l9.2-18.2.1-.5c.6-1.8.8-3.7.8-5.6 0-10.6-8.6-19.3-19.3-19.3-5.1 0-9.8 2-13.4 5.4-5.5-3.9-15-9.2-27.2-9.9v-6.2h6c3.2 0 5.7-2.6 5.7-5.7s-2.6-5.7-5.7-5.7h-6V5.4c0-3-2.4-5.4-5.4-5.4-3 0-5.4 2.4-5.4 5.4v5.7h-6c-3.2 0-5.7 2.6-5.7 5.7s2.6 5.7 5.7 5.7h6v6.2c-12.2.7-21.7 5.9-27.2 9.9-3.5-3.4-8.3-5.4-13.3-5.4C8.6 33.2 0 41.9 0 52.5c0 1.9.3 3.8.8 5.6l.2.5"/><path class="st0" d="M66.3 62.2c-.3 0-.7 0-1 .1-.3 0-.7-.1-1-.1-.6 0-14.5.1-34.2 4.5-2.8.6-4.4 2.8-3.6 4.9.7 1.7 2.8 2.8 5.1 2.8.5 0 1-.1 1.5-.2 18-4.1 30.9-4.1 31.1-4.1.3 0 .7 0 1-.1.3.1.7.1 1 .1.1 0 12.9.1 31.1 4.1.5.1 1 .2 1.5.2 2.3 0 4.4-1.1 5.1-2.8.9-2.1-.7-4.3-3.6-4.9-19.5-4.4-33.5-4.5-34-4.5M77.4 186.4c-2.5-.4-5.6-.8-8.1-1-2.5-.2-4.4-.1-4.4-.1s-2.2 0-5.1.2c-2.8.2-6.3.8-8.6 1.3-7 1.2-17.8 4.6-17.8 4.6 3.5-3.2 8.3-5.6 13.6-7.3-1.7-1.4-2.8-4.2-2.8-9.8v-.5L86.7 156l-42.6 9.6v-15.5l42.6-16-42.6 7.8v-15.8l42.6-13.8-42.6 5.7c.7-8.5 7.9-16.8 16.1-18.4 12-2.2 17.7 6.4 17.7 6.4V94.7c0-2.9 1.4-5.3 5.3-5.3 2.9 0 3.5 1.4 3.5 5.3v79.6c0 5.7-1.1 8.4-2.8 9.8 5.3 1.7 10.2 4.1 13.7 7.3 0 0-10.9-3.7-20.2-5m52.2-67.9s-12.5-.9-16.6-12.1c0 0-3.9-10.1 4.1-18 0 0-49.7-25.4-103.5.2 0 0 8.7 8.8 3.2 20.4 0 0-3.6 8.7-15.8 9.6 0 0-5.5 36.9 15.1 74 0 0 10.1-5.1 15.8 2.7 0 0 7.3 8.7-2.2 16.7 0 0 12.8 17.4 36 21.1 0 0 24.9-4.9 35.5-21.1 0 0-8.8-6.8-3.3-15.3 0 0 5.8-9.6 16.6-4 0 0 20.6-34.4 15.1-74.2z"/><path class="st0" d="m78.9 129.9-6.7 1.2v-7.9l6.7-2.1v8.8M78.9 152.2l-6.7 1.2v-7.9l6.7-2.2v8.9"/></svg>