    <svg
      xmlns="http://www.w3.org/2000/svg"
      width="453.782"
      height="188.581"
      version="1.1"
      viewBox="0 0 453.782 188.581"
    >
      <defs>
        <clipPath id="clipPath5055" clipPathUnits="userSpaceOnUse">
          <path d="M0 0h841.89v595.276H0z"></path>
        </clipPath>
      </defs>
      <g transform="matrix(1.25 0 0 -1.25 -484.829 349.971)">
        <g>
          <g clipPath="url(#clipPath5055)">
            <g transform="translate(709.383 205.803) scale(6.39881)">
              <path
                fill="#ffffff"
                fillOpacity="1"
                fillRule="nonzero"
                stroke="none"
                d="M0 0c-1.001 0-1.714.807-1.714 1.786V1.8c0 .98.698 1.78 1.7 1.78 1.001 0 1.713-.814 1.713-1.794v-.014C1.699.792 1.001 0 0 0m-.014-.82c1.548 0 2.641 1.188 2.641 2.606V1.8c0 1.419-1.079 2.592-2.627 2.592-1.549 0-2.642-1.187-2.642-2.606v-.014C-2.642.353-1.563-.82-.014-.82m-5.66 0c.757 0 1.362.259 1.793.547a.61.61 0 01.309.561v1.347a.439.439 0 01-.446.446h-1.404a.393.393 0 01-.396-.388c0-.216.18-.381.396-.381h.994V.368a2.051 2.051 0 00-1.217-.382c-1.03 0-1.714.763-1.714 1.8V1.8c0 .965.706 1.78 1.635 1.78.547 0 .9-.159 1.225-.397a.457.457 0 01.273-.1.44.44 0 01.259.798c-.461.331-.965.511-1.721.511-1.519 0-2.598-1.194-2.598-2.606v-.015C-8.286.303-7.251-.82-5.674-.82m-6.767.087h2.966c.216 0 .396.172.396.395a.4.4 0 01-.396.396h-2.528v1.354h2.168c.216 0 .396.173.396.388a.4.4 0 01-.396.403h-2.168v1.312h2.491a.395.395 0 110 .791h-2.929a.44.44 0 01-.446-.446V-.287c0-.252.194-.446.446-.446m-4.903.446c0-.252.194-.446.446-.446h2.721a.402.402 0 110 .805h-2.282v3.831a.436.436 0 01-.439.438.437.437 0 01-.446-.438zm-4.327 1.554l.885 2.038.886-2.038zm-1.584-1.626c0-.23.18-.41.41-.41.188 0 .339.101.411.28l.424.973h2.448l.41-.944c.08-.187.224-.309.432-.309a.415.415 0 01.368.612l-1.872 4.175c-.101.223-.274.359-.526.359h-.043c-.252 0-.432-.136-.533-.359l-1.871-4.175a.455.455 0 01-.058-.202m-2.909-.461a3.21 3.21 0 011.793.547.611.611 0 01.309.561v1.347a.439.439 0 01-.446.446h-1.404a.393.393 0 01-.396-.388c0-.216.18-.381.396-.381h.994V.368a2.051 2.051 0 00-1.217-.382c-1.03 0-1.714.763-1.714 1.8V1.8c0 .965.706 1.78 1.635 1.78.547 0 .9-.159 1.224-.397a.46.46 0 01.273-.1.44.44 0 01.259.798c-.46.331-.964.511-1.72.511-1.52 0-2.599-1.194-2.599-2.606v-.015c0-1.468 1.036-2.591 2.613-2.591"
              ></path>
            </g>
            <g transform="translate(729.376 247.182) scale(6.39881)">
              <path
                fill="#ffffff"
                fillOpacity="1"
                fillRule="nonzero"
                stroke="none"
                d="M0 0h2.966a.395.395 0 110 .791H.439v1.355h2.167c.216 0 .396.172.396.388a.4.4 0 01-.396.402H.439v1.312H2.93c.216 0 .396.172.396.395a.4.4 0 01-.396.396H0a.44.44 0 01-.446-.446V.446C-.446.194-.252 0 0 0m-3.873.403c0-.245.201-.439.446-.439s.446.194.446.439v3.816h1.231c.224 0 .403.187.403.41 0 .223-.179.41-.403.41h-3.347a.41.41 0 110-.82h1.224zM-9.411 2.54v1.693h1.29c.655 0 1.044-.295 1.044-.835v-.015c0-.511-.403-.843-1.037-.843zm-.884-2.137c0-.245.194-.439.446-.439.245 0 .438.194.438.439v1.354h1.117L-7.069.195c.1-.138.23-.231.431-.231.216 0 .424.166.424.41 0 .137-.057.23-.143.339l-.965 1.216c.677.209 1.145.698 1.145 1.505v.014c0 .44-.151.814-.418 1.087-.324.317-.82.504-1.454.504h-1.8a.44.44 0 01-.446-.446zm-3.701.33c-1.001 0-1.714.807-1.714 1.787v.014c0 .979.699 1.779 1.7 1.779s1.714-.814 1.714-1.793v-.015c0-.979-.699-1.772-1.7-1.772m-.014-.82c1.548 0 2.641 1.188 2.641 2.607v.014c0 1.418-1.079 2.591-2.627 2.591-1.548 0-2.642-1.187-2.642-2.605v-.015c0-1.419 1.079-2.592 2.628-2.592m-6.329 2.505v1.815h1.029c.663 0 1.088-.309 1.088-.9v-.014c0-.526-.418-.901-1.088-.901zm-.885-2.015c0-.245.194-.439.446-.439.245 0 .439.194.439.439V1.62h1.001c1.109 0 2.015.59 2.015 1.72v.014c0 1.016-.733 1.685-1.914 1.685h-1.541a.44.44 0 01-.446-.446zM-25.602 0h2.966a.395.395 0 110 .791h-2.527v1.355h2.167c.216 0 .396.172.396.388a.4.4 0 01-.396.402h-2.167v1.312h2.491c.216 0 .396.172.396.395a.4.4 0 01-.396.396h-2.93a.44.44 0 01-.446-.446V.446c0-.252.194-.446.446-.446m-5.191.805v3.428h.993c1.059 0 1.751-.727 1.751-1.713v-.015c0-.986-.692-1.7-1.751-1.7zm-.885-.359c0-.252.194-.446.446-.446h1.432c1.585 0 2.679 1.101 2.679 2.52v.014c0 1.419-1.094 2.505-2.679 2.505h-1.432a.44.44 0 01-.446-.446z"
              ></path>
            </g>
            <g transform="translate(393.622 279.977) scale(6.39881)">
              <path
                fill="#009fe3"
                fillOpacity="1"
                fillRule="nonzero"
                stroke="none"
                d="M0 0a.9.9 0 01-.9-.899v-2.968l15.699-14.898c1.036 1.322 1.765 2.925 1.765 4.817v.78L2.689 0zm-.9-13.948c0-6.549 8.732-9.629 8.732-9.629s1.529.54 3.308 1.647L-.9-10.504zM15.665 0H9.683l6.881-6.531v5.632a.9.9 0 01-.899.899"
              ></path>
            </g>
          </g>
        </g>
        <path
          fill="#fff"
          fillOpacity="0"
          strokeWidth="0.091"
          d="M217.053 97.616c-.564-.563-1.025-1.333-1.025-1.71s3.553-8.628 7.895-18.336c8.707-19.466 8.773-19.577 11.592-19.577 2.308 0 3.51.854 4.684 3.329 4.081 8.6 15.075 33.68 15.075 34.39 0 1.248-1.778 2.929-3.1 2.929-1.781 0-2.885-1.33-4.766-5.743l-1.733-4.069h-20.056l-1.68 3.942c-.994 2.33-2.098 4.337-2.7 4.906-1.375 1.302-2.845 1.281-4.186-.06zm25.899-15.052c-.768-2.026-7.17-16.498-7.3-16.5-.13-.003-6.445 14.275-7.3 16.504-.065.167 3.22.304 7.3.304 4.124 0 7.365-.137 7.3-.308z"
          transform="matrix(.8 0 0 -.8 387.863 279.977)"
        ></path>
        <path
          fill="#fff"
          fillOpacity="0"
          strokeWidth="0.091"
          d="M264.492 97.445l-.983-.846-.097-18.094-.097-18.095 1.034-1.033c1.478-1.478 3.47-1.46 4.736.045l.907 1.078v31.833h9.66c6.239 0 9.908.134 10.365.378 1.059.567 1.695 2.337 1.273 3.545-.708 2.031-.729 2.034-13.823 2.034h-11.992z"
          transform="matrix(.8 0 0 -.8 387.863 279.977)"
        ></path>
        <path
          fill="#fff"
          fillOpacity="0"
          strokeWidth="0.091"
          d="M264.492 97.445l-.983-.846-.097-18.094-.097-18.095 1.034-1.033c1.478-1.478 3.47-1.46 4.736.045l.907 1.078v31.833h9.66c6.239 0 9.908.134 10.365.378 1.059.567 1.695 2.337 1.273 3.545-.708 2.031-.729 2.034-13.823 2.034h-11.992z"
          transform="matrix(.8 0 0 -.8 387.863 279.977)"
        ></path>
        <path
          fill="#fff"
          fillOpacity="0"
          strokeWidth="0.091"
          d="M264.492 97.445l-.983-.846-.097-18.094-.097-18.095 1.034-1.033c1.478-1.478 3.47-1.46 4.736.045l.907 1.078v31.833h9.66c6.239 0 9.908.134 10.365.378 1.059.567 1.695 2.337 1.273 3.545-.708 2.031-.729 2.034-13.823 2.034h-11.992z"
          transform="matrix(.8 0 0 -.8 387.863 279.977)"
        ></path>
        <path
          fill="#fff"
          fillOpacity="0"
          strokeWidth="0.091"
          d="M264.492 97.445l-.983-.846-.097-18.094-.097-18.095 1.034-1.033c1.478-1.478 3.47-1.46 4.736.045l.907 1.078v31.833h9.66c6.239 0 9.908.134 10.365.378 1.059.567 1.695 2.337 1.273 3.545-.708 2.031-.729 2.034-13.823 2.034h-11.992z"
          transform="matrix(.8 0 0 -.8 387.863 279.977)"
        ></path>
        <path
          fill="#a8cbfe"
          fillOpacity="0"
          strokeWidth="0.091"
          d="M264.492 97.445l-.983-.846-.097-18.094-.097-18.095 1.034-1.033c1.478-1.478 3.47-1.46 4.736.045l.907 1.078v31.833h9.66c6.239 0 9.908.134 10.365.378 1.059.567 1.695 2.337 1.273 3.545-.708 2.031-.729 2.034-13.823 2.034h-11.992z"
          transform="matrix(.8 0 0 -.8 387.863 279.977)"
        ></path>
        <path
          fill="#a8cbfe"
          fillOpacity="0"
          strokeWidth="0.091"
          d="M217.053 97.616c-.564-.563-1.025-1.333-1.025-1.71s3.553-8.628 7.895-18.336c8.707-19.466 8.773-19.577 11.592-19.577 2.308 0 3.51.854 4.684 3.329 4.081 8.6 15.075 33.68 15.075 34.39 0 1.248-1.778 2.929-3.1 2.929-1.781 0-2.885-1.33-4.766-5.743l-1.733-4.069h-20.056l-1.68 3.942c-.994 2.33-2.098 4.337-2.7 4.906-1.375 1.302-2.845 1.281-4.186-.06zm25.899-15.052c-.768-2.026-7.17-16.498-7.3-16.5-.13-.003-6.445 14.275-7.3 16.504-.065.167 3.22.304 7.3.304 4.124 0 7.365-.137 7.3-.308z"
          transform="matrix(.8 0 0 -.8 387.863 279.977)"
        ></path>
        <path
          fill="#a8cbfe"
          fillOpacity="0"
          strokeWidth="0.091"
          d="M217.053 97.616c-.564-.563-1.025-1.333-1.025-1.71s3.553-8.628 7.895-18.336c8.707-19.466 8.773-19.577 11.592-19.577 2.308 0 3.51.854 4.684 3.329 4.081 8.6 15.075 33.68 15.075 34.39 0 1.248-1.778 2.929-3.1 2.929-1.781 0-2.885-1.33-4.766-5.743l-1.733-4.069h-20.056l-1.68 3.942c-.994 2.33-2.098 4.337-2.7 4.906-1.375 1.302-2.845 1.281-4.186-.06zm25.899-15.052c-.768-2.026-7.17-16.498-7.3-16.5-.13-.003-6.445 14.275-7.3 16.504-.065.167 3.22.304 7.3.304 4.124 0 7.365-.137 7.3-.308z"
          transform="matrix(.8 0 0 -.8 387.863 279.977)"
        ></path>
        <path
          fill="#a8cbfe"
          fillOpacity="0"
          strokeWidth="0.091"
          d="M217.053 97.616c-.564-.563-1.025-1.333-1.025-1.71s3.553-8.628 7.895-18.336c8.707-19.466 8.773-19.577 11.592-19.577 2.308 0 3.51.854 4.684 3.329 4.081 8.6 15.075 33.68 15.075 34.39 0 1.248-1.778 2.929-3.1 2.929-1.781 0-2.885-1.33-4.766-5.743l-1.733-4.069h-20.056l-1.68 3.942c-.994 2.33-2.098 4.337-2.7 4.906-1.375 1.302-2.845 1.281-4.186-.06zm25.899-15.052c-.768-2.026-7.17-16.498-7.3-16.5-.13-.003-6.445 14.275-7.3 16.504-.065.167 3.22.304 7.3.304 4.124 0 7.365-.137 7.3-.308z"
          transform="matrix(.8 0 0 -.8 387.863 279.977)"
        ></path>
      </g>
    </svg>