<svg
   version="1.1"
   xmlns="http://www.w3.org/2000/svg"
   xml:space="preserve">
  <defs id="defs6" />
  <g transform="matrix(2.9,0,0,-2.333333,0,82.461385)" id="g10">
    <g transform="scale(0.1)" id="g12">
      <path id="path14" d="m 360.977,167.383 c 11.339,0 20.402,3.867 26.875,8.183 3.125,1.934 4.64,4.637 4.64,8.426 v 20.168 c 0,3.778 -2.922,6.699 -6.699,6.699 h -21.035 c -3.242,0 -5.93,-2.609 -5.93,-5.828 0,-3.234 2.688,-5.695 5.93,-5.695 h 14.902 v -14.16 c -4.648,-3.457 -11.125,-5.731 -18.242,-5.731 -15.441,0 -25.695,11.446 -25.695,26.993 v 0.222 c 0,14.442 10.578,26.653 24.504,26.653 8.203,0 13.496,-2.383 18.347,-5.938 1.086,-0.766 2.383,-1.516 4.102,-1.516 3.672,0 6.574,3.028 6.574,6.602 0,2.578 -1.398,4.406 -2.687,5.383 -6.903,4.949 -14.461,7.664 -25.79,7.664 -22.785,0 -38.976,-17.922 -38.976,-39.07 v -0.219 c 0,-22.02 15.539,-38.836 39.18,-38.836 m 43.613,6.894 c 0,-3.449 2.695,-6.144 6.144,-6.144 2.813,0 5.067,1.515 6.141,4.211 l 6.379,14.562 h 36.687 l 6.145,-14.133 c 1.18,-2.804 3.348,-4.64 6.484,-4.64 3.543,0 6.25,2.797 6.25,6.359 0,0.867 -0.215,1.828 -0.754,2.813 l -28.046,62.57 c -1.524,3.348 -4.102,5.391 -7.891,5.391 h -0.645 c -3.769,0 -6.464,-2.043 -7.976,-5.391 l -28.059,-62.57 c -0.547,-1.086 -0.859,-2.051 -0.859,-3.028 z m 23.73,24.375 13.282,30.547 13.261,-30.547 z m 64.864,-23.3 c 0,-3.77 2.921,-6.68 6.691,-6.68 h 40.789 c 3.34,0 6.047,2.695 6.047,6.035 0,3.348 -2.707,6.043 -6.047,6.043 h -34.226 v 57.414 c 0,3.652 -2.903,6.57 -6.563,6.57 -3.77,0 -6.691,-2.918 -6.691,-6.57 z m 73.496,-6.68 h 44.465 c 3.222,0 5.918,2.598 5.918,5.93 0,3.23 -2.696,5.925 -5.918,5.925 h -37.891 v 20.313 h 32.469 c 3.254,0 5.937,2.566 5.937,5.82 0,3.332 -2.683,6.028 -5.937,6.028 h -32.469 v 19.648 h 37.332 c 3.242,0 5.937,2.586 5.937,5.926 0,3.242 -2.695,5.937 -5.937,5.937 H 566.68 c -3.77,0 -6.688,-2.91 -6.688,-6.691 v -62.156 c 0,-3.77 2.918,-6.68 6.688,-6.68 z m 101.437,-1.289 c 11.336,0 20.41,3.867 26.883,8.183 3.105,1.934 4.629,4.637 4.629,8.426 v 20.168 c 0,3.778 -2.918,6.699 -6.688,6.699 h -21.035 c -3.242,0 -5.949,-2.609 -5.949,-5.828 0,-3.234 2.707,-5.695 5.949,-5.695 h 14.871 v -14.16 c -4.629,-3.457 -11.101,-5.731 -18.222,-5.731 -15.45,0 -25.703,11.446 -25.703,26.993 v 0.222 c 0,14.442 10.586,26.653 24.503,26.653 8.204,0 13.516,-2.383 18.348,-5.938 1.074,-0.766 2.395,-1.516 4.102,-1.516 3.672,0 6.593,3.028 6.593,6.602 0,2.578 -1.398,4.406 -2.707,5.383 -6.914,4.949 -14.453,7.664 -25.781,7.664 -22.793,0 -38.965,-17.922 -38.965,-39.07 v -0.219 c 0,-22.02 15.52,-38.836 39.172,-38.836 z m 84.824,0 c 23.211,0 39.598,17.793 39.598,39.055 v 0.222 c 0,21.25 -16.16,38.848 -39.375,38.848 -23.211,0 -39.598,-17.805 -39.598,-39.07 v -0.219 c 0,-21.266 16.161,-38.836 39.375,-38.836 z m 0.223,12.273 c -15.008,0 -25.703,12.094 -25.703,26.782 v 0.222 c 0,14.676 10.48,26.653 25.48,26.653 15.008,0 25.692,-12.211 25.692,-26.875 v -0.219 c 0,-14.688 -10.469,-26.563 -25.469,-26.563" />
      <path id="path16" d="m 325.156,283.273 c 0,-3.773 2.922,-6.691 6.692,-6.691 h 21.465 c 23.738,0 40.156,16.496 40.156,37.773 v 0.215 c 0,21.258 -16.418,37.563 -40.156,37.563 h -21.465 c -3.77,0 -6.692,-2.934 -6.692,-6.695 z m 13.262,5.379 v 51.407 h 14.895 c 15.878,0 26.238,-10.926 26.238,-25.704 v -0.214 c 0,-14.813 -10.36,-25.489 -26.238,-25.489 z m 73.309,-6.668 c 0,-3.773 2.922,-6.691 6.691,-6.691 h 47.305 c 3.27,0 6.09,2.68 6.09,5.949 0,3.266 -2.82,5.949 -6.09,5.949 h -40.742 v 16.063 h 35.144 c 3.277,0 5.945,2.578 5.945,5.926 0,3.348 -2.668,5.938 -5.945,5.938 h -35.144 v 17.043 h 40.195 c 3.27,0 6.09,2.68 6.09,5.949 0,3.27 -2.82,5.949 -6.09,5.949 h -47.348 c -3.77,0 -6.691,-2.922 -6.691,-6.688 z m 64.977,-0.289 c 0,-3.773 2.922,-6.691 6.691,-6.691 h 21.465 c 23.738,0 40.156,16.496 40.156,37.773 v 0.215 c 0,21.258 -16.418,37.563 -40.156,37.563 h -21.465 c -3.77,0 -6.691,-2.934 -6.691,-6.695 z m 13.262,5.379 v 51.407 h 14.895 c 15.879,0 26.238,-10.926 26.238,-25.704 v -0.214 c 0,-14.813 -10.359,-25.489 -26.238,-25.489 z m 73.309,-6.668 c 0,-3.773 2.922,-6.691 6.691,-6.691 h 47.305 c 3.27,0 6.09,2.68 6.09,5.949 0,3.266 -2.82,5.949 -6.09,5.949 h -40.742 v 16.063 h 35.144 c 3.277,0 5.945,2.578 5.945,5.926 0,3.348 -2.668,5.938 -5.945,5.938 h -35.144 v 17.043 h 40.195 c 3.27,0 6.09,2.68 6.09,5.949 0,3.27 -2.82,5.949 -6.09,5.949 h -47.348 c -3.77,0 -6.691,-2.922 -6.691,-6.688 z m 96.008,-0.379 c 0,-3.773 2.922,-6.691 6.691,-6.691 h 21.465 c 23.738,0 40.156,16.496 40.156,37.773 v 0.215 c 0,21.258 -16.418,37.563 -40.156,37.563 h -21.465 c -3.77,0 -6.691,-2.934 -6.691,-6.695 z m 13.262,5.379 v 51.407 h 14.895 c 15.879,0 26.238,-10.926 26.238,-25.704 v -0.214 c 0,-14.813 -10.359,-25.489 -26.238,-25.489 z m 92.309,-56.613 c 11.339,0 20.406,3.867 26.887,8.183 3.109,1.934 4.629,4.637 4.629,8.426 v 20.168 c 0,3.778 -2.918,6.699 -6.688,6.699 h -21.035 c -3.242,0 -5.949,-2.609 -5.949,-5.828 0,-3.234 2.707,-5.695 5.949,-5.695 h 14.871 v -14.16 c -4.629,-3.457 -11.101,-5.731 -18.219,-5.731 -15.45,0 -25.703,11.446 -25.703,26.993 v 0.222 c 0,14.442 10.586,26.653 24.504,26.653 8.203,0 13.516,-2.383 18.348,-5.938 1.074,-0.766 2.395,-1.516 4.102,-1.516 3.672,0 6.593,3.028 6.593,6.602 0,2.578 -1.398,4.406 -2.707,5.383 -6.918,4.949 -14.453,7.664 -25.781,7.664 -22.793,0 -38.965,-17.922 -38.965,-39.07 v -0.219 c 0,-22.02 15.52,-38.836 39.172,-38.836 z m 84.824,0 c 23.211,0 39.598,17.793 39.598,39.055 v 0.222 c 0,21.25 -16.16,38.848 -39.375,38.848 -23.211,0 -39.598,-17.805 -39.598,-39.07 v -0.219 c 0,-21.266 16.161,-38.836 39.375,-38.836 z m 0.223,12.273 c -15.008,0 -25.703,12.094 -25.703,26.782 v 0.222 c 0,14.676 10.48,26.653 25.48,26.653 15.008,0 25.692,-12.211 25.692,-26.875 v -0.219 c 0,-14.688 -10.469,-26.563 -25.469,-26.563 z" />
    </g>
  </g>
</svg>
