<?xml version="1.0" encoding="UTF-8" ?>
<svg
   version="1.1"><defs
     id="defs6" /><g
     transform="matrix(2.9,0,0,-2.333333,0,148.12)"
     id="g10"><g
       transform="scale(0.1)"
       id="g12"><path
         id="path14"
         
         d="m 360.977,167.383 c 11.339,0 20.402,3.867 26.875,8.183 3.125,1.934 4.64,4.637 4.64,8.426 v 20.168 c 0,3.778 -2.922,6.699 -6.699,6.699 h -21.035 c -3.242,0 -5.93,-2.609 -5.93,-5.828 0,-3.234 2.688,-5.695 5.93,-5.695 h 14.902 v -14.16 c -4.648,-3.457 -11.125,-5.731 -18.242,-5.731 -15.441,0 -25.695,11.446 -25.695,26.993 v 0.222 c 0,14.442 10.578,26.653 24.504,26.653 8.203,0 13.496,-2.383 18.347,-5.938 1.086,-0.766 2.383,-1.516 4.102,-1.516 3.672,0 6.574,3.028 6.574,6.602 0,2.578 -1.398,4.406 -2.687,5.383 -6.903,4.949 -14.461,7.664 -25.79,7.664 -22.785,0 -38.976,-17.922 -38.976,-39.07 v -0.219 c 0,-22.02 15.539,-38.836 39.18,-38.836 m 43.613,6.894 c 0,-3.449 2.695,-6.144 6.144,-6.144 2.813,0 5.067,1.515 6.141,4.211 l 6.379,14.562 h 36.687 l 6.145,-14.133 c 1.18,-2.804 3.348,-4.64 6.484,-4.64 3.543,0 6.25,2.797 6.25,6.359 0,0.867 -0.215,1.828 -0.754,2.813 l -28.046,62.57 c -1.524,3.348 -4.102,5.391 -7.891,5.391 h -0.645 c -3.769,0 -6.464,-2.043 -7.976,-5.391 l -28.059,-62.57 c -0.547,-1.086 -0.859,-2.051 -0.859,-3.028 z m 23.73,24.375 13.282,30.547 13.261,-30.547 z m 64.864,-23.3 c 0,-3.77 2.921,-6.68 6.691,-6.68 h 40.789 c 3.34,0 6.047,2.695 6.047,6.035 0,3.348 -2.707,6.043 -6.047,6.043 h -34.226 v 57.414 c 0,3.652 -2.903,6.57 -6.563,6.57 -3.77,0 -6.691,-2.918 -6.691,-6.57 z m 73.496,-6.68 h 44.465 c 3.222,0 5.918,2.598 5.918,5.93 0,3.23 -2.696,5.925 -5.918,5.925 h -37.891 v 20.313 h 32.469 c 3.254,0 5.937,2.566 5.937,5.82 0,3.332 -2.683,6.028 -5.937,6.028 h -32.469 v 19.648 h 37.332 c 3.242,0 5.937,2.586 5.937,5.926 0,3.242 -2.695,5.937 -5.937,5.937 H 566.68 c -3.77,0 -6.688,-2.91 -6.688,-6.691 v -62.156 c 0,-3.77 2.918,-6.68 6.688,-6.68 z m 101.437,-1.289 c 11.336,0 20.41,3.867 26.883,8.183 3.105,1.934 4.629,4.637 4.629,8.426 v 20.168 c 0,3.778 -2.918,6.699 -6.688,6.699 h -21.035 c -3.242,0 -5.949,-2.609 -5.949,-5.828 0,-3.234 2.707,-5.695 5.949,-5.695 h 14.871 v -14.16 c -4.629,-3.457 -11.101,-5.731 -18.222,-5.731 -15.45,0 -25.703,11.446 -25.703,26.993 v 0.222 c 0,14.442 10.586,26.653 24.503,26.653 8.204,0 13.516,-2.383 18.348,-5.938 1.074,-0.766 2.395,-1.516 4.102,-1.516 3.672,0 6.593,3.028 6.593,6.602 0,2.578 -1.398,4.406 -2.707,5.383 -6.914,4.949 -14.453,7.664 -25.781,7.664 -22.793,0 -38.965,-17.922 -38.965,-39.07 v -0.219 c 0,-22.02 15.52,-38.836 39.172,-38.836 z m 84.824,0 c 23.211,0 39.598,17.793 39.598,39.055 v 0.222 c 0,21.25 -16.16,38.848 -39.375,38.848 -23.211,0 -39.598,-17.805 -39.598,-39.07 v -0.219 c 0,-21.266 16.161,-38.836 39.375,-38.836 z m 0.223,12.273 c -15.008,0 -25.703,12.094 -25.703,26.782 v 0.222 c 0,14.676 10.48,26.653 25.48,26.653 15.008,0 25.692,-12.211 25.692,-26.875 v -0.219 c 0,-14.688 -10.469,-26.563 -25.469,-26.563" /><path
         id="path16"
         
         d="m 325.156,283.273 c 0,-3.773 2.922,-6.691 6.692,-6.691 h 21.465 c 23.738,0 40.156,16.496 40.156,37.773 v 0.215 c 0,21.258 -16.418,37.563 -40.156,37.563 h -21.465 c -3.77,0 -6.692,-2.934 -6.692,-6.695 z m 13.262,5.379 v 51.407 h 14.895 c 15.878,0 26.238,-10.926 26.238,-25.704 v -0.214 c 0,-14.797 -10.36,-25.489 -26.238,-25.489 z m 77.824,-12.07 h 44.453 c 3.223,0 5.938,2.598 5.938,5.938 0,3.23 -2.715,5.925 -5.938,5.925 h -37.882 v 20.313 h 32.492 c 3.23,0 5.925,2.578 5.925,5.812 0,3.34 -2.695,6.035 -5.925,6.035 h -32.492 v 19.649 h 37.343 c 3.235,0 5.93,2.59 5.93,5.949 0,3.231 -2.695,5.93 -5.93,5.93 h -43.914 c -3.781,0 -6.699,-2.934 -6.699,-6.695 v -62.165 c 0,-3.773 2.918,-6.691 6.699,-6.691 z m 65.613,6.043 c 0,-3.672 2.922,-6.57 6.68,-6.57 3.684,0 6.574,2.898 6.574,6.57 v 18.242 h 15.02 c 16.621,0 30.203,8.84 30.203,25.793 v 0.215 c 0,15.227 -10.984,25.258 -28.68,25.258 h -23.117 c -3.758,0 -6.68,-2.934 -6.68,-6.695 z m 13.254,30.219 v 27.215 h 15.45 c 9.929,0 16.308,-4.661 16.308,-13.504 v -0.235 c 0,-7.863 -6.281,-13.476 -16.308,-13.476 z m 94.883,-37.539 c 23.211,0 39.59,17.773 39.59,39.05 v 0.215 c 0,21.258 -16.172,38.836 -39.387,38.836 -23.191,0 -39.597,-17.789 -39.597,-39.051 v -0.214 c 0,-21.27 16.172,-38.836 39.394,-38.836 z m 0.203,12.281 c -15,0 -25.683,12.082 -25.683,26.769 v 0.215 c 0,14.68 10.468,26.66 25.48,26.66 14.988,0 25.692,-12.199 25.692,-26.875 v -0.214 c 0,-14.696 -10.477,-26.555 -25.489,-26.555 z m 55.481,-4.961 c 0,-3.672 2.918,-6.57 6.687,-6.57 3.653,0 6.582,2.898 6.582,6.57 v 20.305 h 16.731 l 18.359,-23.43 c 1.504,-2.047 3.445,-3.445 6.453,-3.445 3.242,0 6.379,2.468 6.379,6.14 0,2.043 -0.879,3.461 -2.179,5.078 l -14.434,18.235 c 10.129,3.125 17.141,10.469 17.141,22.558 v 0.196 c 0,6.601 -2.266,12.207 -6.243,16.308 -4.863,4.746 -12.304,7.563 -21.804,7.563 h -26.985 c -3.769,0 -6.687,-2.934 -6.687,-6.695 z m 13.269,32.043 v 25.391 h 19.317 c 9.836,0 15.656,-4.442 15.656,-12.539 v -0.215 c 0,-7.664 -6.047,-12.637 -15.539,-12.637 z m 83,-32.043 c 0,-3.672 3.028,-6.57 6.688,-6.57 3.664,0 6.68,2.898 6.68,6.57 v 57.199 h 18.457 c 3.351,0 6.035,2.824 6.035,6.145 0,3.347 -2.684,6.164 -6.035,6.164 h -50.176 c -3.446,0 -6.153,-2.817 -6.153,-6.164 0,-3.321 2.707,-6.145 6.153,-6.145 h 18.351 z m 58.067,-6.043 h 44.453 c 3.23,0 5.937,2.598 5.937,5.938 0,3.23 -2.707,5.925 -5.937,5.925 h -37.891 v 20.313 h 32.481 c 3.242,0 5.937,2.578 5.937,5.812 0,3.34 -2.695,6.035 -5.937,6.035 h -32.481 v 19.649 h 37.344 c 3.23,0 5.937,2.59 5.937,5.949 0,3.231 -2.707,5.93 -5.937,5.93 h -43.906 c -3.782,0 -6.699,-2.934 -6.699,-6.695 v -62.165 c 0,-3.773 2.917,-6.691 6.699,-6.691" /><path
         id="path18"
         
         d="m 248.281,353.406 h -89.656 l 103.145,-97.89 v 84.425 c 0,7.434 -6.036,13.465 -13.489,13.465 M 0,144.344 C 0,46.1797 130.891,0 130.891,0 c 0,0 22.898,8.09375 49.558,24.6953 L 0,195.957 Z M 13.4766,353.406 C 6.03516,353.406 0,347.375 0,339.941 v -44.48 L 235.305,72.1289 c 15.535,19.8242 26.465,43.8551 26.465,72.2151 v 11.679 L 53.7891,353.406 H 13.4766" /></g></g></svg>