<svg version="1.1" id="Layer_1" xmlns="http://www.w3.org/2000/svg" xmlns:xlink="http://www.w3.org/1999/xlink" x="0px" y="0px" width="100%" viewBox="0 0 656 448" enable-background="new 0 0 656 448" xml:space="preserve">
<path fill="#000000" opacity="1.000000" stroke="none" d=" M341.589355,377.388794   C322.066559,354.127563 302.772095,331.137268 283.239624,307.863403   C280.455780,311.283508 280.343170,314.094696 280.345154,316.914185   C280.361664,340.410645 280.175781,363.910522 280.542450,387.401703   C280.666046,395.319672 280.991669,403.340179 283.288666,411.105621   C285.077667,417.153809 288.621857,420.853546 295.019104,421.805786   C297.954468,422.242737 300.853516,423.092712 303.681702,424.021423   C305.615753,424.656494 306.556152,426.256470 306.179474,428.371460   C305.783417,430.595337 304.170227,431.144897 302.162628,431.325684   C297.615417,431.735168 293.173187,430.708832 288.774475,430.050110   C279.061584,428.595673 269.524872,429.683197 259.940674,430.864960   C258.129242,431.088348 256.299713,431.224823 254.475372,431.267822   C252.198395,431.321503 250.678375,430.134705 249.995728,428.000122   C249.310181,425.856476 249.763687,423.819244 251.820251,422.818176   C264.418823,416.685547 265.119080,404.559052 266.596008,393.074341   C270.264282,364.549530 268.316742,335.856018 268.518555,307.233887   C268.562592,300.986115 267.506622,294.668793 265.367157,288.616272   C263.681976,283.848907 260.473114,281.230469 255.629974,280.413025   C252.679352,279.915039 249.671631,279.682251 246.769241,278.994232   C244.371246,278.425781 242.391922,277.053864 242.848984,274.093231   C243.260483,271.427643 245.366547,270.185516 247.587616,270.776550   C258.849457,273.773590 270.015045,271.364227 281.245239,270.790314   C287.614502,270.464844 292.096619,274.910919 295.841705,279.377472   C322.920746,311.673065 349.835999,344.105957 376.839233,376.465179   C378.580933,378.552307 380.200806,382.205139 383.180481,381.098511   C385.836853,380.112000 385.621429,376.323547 385.625336,373.514099   C385.656555,351.017303 385.695343,328.520111 385.584473,306.023804   C385.566498,302.387207 385.025452,298.716461 384.367493,295.127228   C382.901947,287.132385 378.293915,282.012451 370.160004,280.284302   C367.730347,279.768066 365.320496,279.098907 362.965485,278.309204   C360.908356,277.619415 359.406799,276.232300 359.910950,273.826508   C360.400208,271.491516 362.270813,270.603882 364.427338,270.736847   C368.404694,270.982025 372.427216,271.155823 376.324280,271.910309   C385.689423,273.723358 394.894409,271.791718 404.158966,271.172211   C406.480408,271.016998 408.798279,270.773895 411.121979,270.696838   C413.392303,270.621490 415.600067,270.948883 416.147095,273.693634   C416.662567,276.280365 415.015167,277.687073 412.988586,278.781769   C412.842102,278.860901 412.711670,278.982025 412.557098,279.032166   C399.631958,283.223816 397.388428,293.604797 397.352417,305.264679   C397.300903,321.928619 397.636108,338.604828 397.107330,355.253571   C396.372253,378.396912 396.430389,401.538696 396.260071,424.682861   C396.240692,427.321014 396.479004,430.442169 393.699493,431.794708   C390.636169,433.285400 388.279999,430.937622 386.246948,429.041473   C375.117310,418.661316 366.341278,406.210205 356.362549,394.814117   C351.424469,389.174591 346.660431,383.382690 341.589355,377.388794  M285.806671,300.718475   C318.795288,340.839386 351.783875,380.960297 385.028473,421.392548   C387.533966,418.040894 385.970245,416.133881 384.927612,414.429413   C383.546722,412.171967 381.783539,410.136139 380.087341,408.085571   C357.795135,381.135742 335.604095,354.100861 313.128418,327.304779   C302.645447,314.806732 292.896942,301.676941 281.479797,289.971588   C277.821930,286.221405 273.666504,283.234680 268.523590,281.855652   C275.232025,286.987976 280.090332,293.765442 285.806671,300.718475  M264.932159,419.695953   C264.674744,420.523224 263.517334,421.241608 264.590485,422.249908   C272.039948,418.829163 274.431763,409.804443 270.489838,399.959290   C269.355927,406.546692 268.296021,413.102966 264.932159,419.695953  M382.451660,281.379028   C386.058258,285.204620 387.140533,290.338043 389.370361,295.337585   C390.779266,283.544525 388.696411,280.089508 379.763977,278.929352   C380.555176,279.610565 381.298553,280.250641 382.451660,281.379028  z"/>
<path fill="#000000" opacity="1.000000" stroke="none" d=" M262.562439,176.167755   C259.883972,167.813751 259.853088,159.557907 261.000977,151.521500   C263.321411,135.276337 278.702393,126.083588 295.517334,130.194153   C301.740295,131.715408 307.264130,134.732330 312.962799,138.332947   C314.332703,133.822250 313.484589,129.523438 313.638733,125.314552   C313.948059,116.867401 315.484100,115.026917 323.910400,113.629608   C328.420563,112.881721 332.870087,113.241699 337.256439,114.401695   C344.547791,116.329941 345.094330,116.996048 345.292999,124.652878   C345.404358,128.944260 345.313049,133.240891 345.313049,138.192520   C351.530243,135.517426 356.513702,131.898071 362.526855,130.419632   C383.090454,125.363724 398.804626,137.869308 398.762543,159.000015   C398.729034,175.817368 392.568268,190.125778 382.335815,203.002625   C380.694885,205.067581 379.530579,206.776993 381.242126,209.554626   C382.794586,212.074097 381.318604,214.395065 379.309448,216.150375   C373.963196,220.821152 372.979736,226.595047 375.423096,232.909088   C379.848999,244.346268 377.316315,249.828751 364.506165,255.172958   C352.954834,259.992004 340.669037,260.844147 328.266541,260.627289   C316.734772,260.425659 305.319794,259.590729 294.478577,255.230804   C292.180542,254.306610 289.897064,253.176529 287.880615,251.753433   C281.656403,247.360794 280.580750,244.092972 282.575531,236.737152   C283.141663,234.649490 283.873596,232.601425 284.341125,230.493439   C285.505524,225.243713 284.441772,220.560776 280.375305,216.832672   C277.647064,214.331390 276.172058,211.610458 278.414886,208.071060   C279.681427,206.072403 278.064911,204.985138 277.134796,203.723358   C270.981873,195.376114 265.260681,186.805679 262.562439,176.167755  M381.043365,155.495972   C386.740845,162.491333 386.371918,170.213104 383.534973,178.096573   C381.219849,184.530029 377.709320,190.394882 374.356445,196.330582   C373.424316,197.980774 370.648163,200.031418 373.532562,201.772873   C376.381866,203.493118 376.800171,199.948318 378.029205,198.514618   C379.646118,196.628540 381.002167,194.514282 382.422180,192.464737   C390.392120,180.961472 393.836487,168.222610 392.605438,154.285538   C391.780090,144.942123 385.395844,137.764069 376.364410,135.729691   C365.858032,133.363068 351.934387,138.951523 346.098297,147.856812   C344.701660,149.987900 343.638367,152.145508 345.037506,155.171921   C356.845367,148.731613 368.719055,146.342285 381.043365,155.495972  M311.080322,145.477921   C306.278351,139.952682 299.933990,137.060043 293.009216,135.599167   C278.238007,132.482971 266.935242,142.197983 266.180481,157.284790   C265.340820,174.069153 272.533813,187.486298 282.109009,200.209396   C283.509705,202.070618 284.946289,203.057983 286.923370,200.802155   C286.666077,198.356445 284.937164,196.651978 283.791748,194.679733   C279.863098,187.915192 275.912170,181.164932 274.135498,173.432281   C271.726959,162.949509 275.957153,153.955765 284.963806,151.112534   C292.816132,148.633698 300.653717,148.829300 308.279572,152.393661   C310.159210,153.272202 311.818054,154.908325 314.203613,154.637207   C315.599915,150.995316 313.307251,148.594299 311.080322,145.477921  M341.373077,179.650345   C341.081360,181.782959 340.471710,183.934174 340.595062,186.042496   C340.700165,187.838547 338.482452,190.047440 340.952240,191.599625   C342.022064,191.241516 342.355011,190.674896 342.265808,189.967697   C341.510376,183.978119 341.623322,178.554718 349.203522,176.858398   C350.206879,176.633865 350.841553,174.878647 351.702667,173.880371   C354.646698,170.467514 359.127197,169.587219 362.439209,171.740631   C366.062897,174.096664 370.024170,187.701019 368.222961,191.706345   C367.466644,193.388107 366.617889,195.028290 365.811157,196.687378   C371.585693,189.238174 376.581207,181.431824 379.103760,172.351074   C380.710449,166.567169 379.374420,160.987686 375.301056,158.376450   C367.817780,153.579239 360.055695,154.818924 352.416687,158.140228   C346.031311,160.916489 341.420868,164.941956 342.203735,172.848572   C342.394165,174.771851 341.686035,176.784119 341.373077,179.650345  M293.670990,155.332596   C281.306580,156.343506 276.572174,163.523651 280.712097,175.145432   C283.508240,182.994858 287.677002,190.110016 292.612823,197.101822   C293.301270,195.415161 292.180267,194.616028 291.708313,193.658249   C289.802643,189.791245 287.998047,186.000229 292.349915,182.474091   C293.593445,181.466522 292.822327,179.973221 292.937103,178.694977   C293.256866,175.134399 294.561340,172.097778 298.250153,171.028259   C301.938171,169.958939 305.179962,170.885498 307.396210,174.280899   C308.222382,175.546692 309.099609,176.582382 310.636627,177.190292   C315.999390,179.311264 317.552094,182.036453 317.119873,187.866623   C317.024109,189.158218 315.722076,190.836029 318.026184,191.508224   C319.817413,190.944794 319.096832,189.745270 318.939911,188.637634   C318.171356,183.212677 316.806427,177.774170 316.867889,172.354233   C316.946198,165.448654 313.627380,161.454163 307.932373,158.751205   C303.703613,156.744186 299.311523,155.232224 293.670990,155.332596  M297.093292,249.805222   C319.558075,256.944458 341.826050,256.665009 364.589569,248.956848   C363.694916,247.774216 363.558044,247.410233 363.306488,247.293640   C362.406769,246.876633 361.476379,246.520813 360.542999,246.182037   C347.806091,241.558960 334.572083,240.603256 321.233093,241.512283   C313.133392,242.064255 305.047180,243.390228 297.454529,246.585220   C296.334717,247.056458 293.243286,247.411362 297.093292,249.805222  M308.711731,199.275299   C299.544647,201.302826 290.840851,204.278992 283.919800,210.936035   C285.112366,214.449371 286.871094,214.370163 289.323242,212.726013   C294.931458,208.965775 301.227203,207.004501 307.780548,205.474121   C317.164673,203.282684 326.642059,203.523056 336.112274,203.735703   C348.070312,204.004211 359.628815,206.198105 369.875305,212.852386   C372.614777,214.631454 374.004517,213.938980 375.335541,210.587250   C355.192291,195.901749 332.751312,195.424881 308.711731,199.275299  M310.419800,231.038147   C304.291687,231.924240 298.270416,233.307419 292.895691,236.455948   C290.581787,237.811432 287.515350,239.284271 288.831482,243.304352   C316.154602,232.472946 343.297668,232.841354 371.020538,243.508026   C370.111694,237.362076 365.790192,235.843811 361.905609,234.482651   C345.387970,228.694778 328.430817,227.991608 310.419800,231.038147  M332.619049,163.430466   C329.045227,164.217102 325.535248,162.681488 321.379395,162.804413   C322.518005,171.039261 323.549194,178.881134 324.714172,186.703064   C325.093506,189.250031 325.903137,191.497040 329.276978,191.540543   C332.797180,191.585907 333.918488,189.420090 334.325256,186.590210   C335.472504,178.609314 336.507843,170.612366 337.645203,162.192993   C335.816925,162.676468 334.573944,163.005173 332.619049,163.430466  M335.109009,155.765717   C338.589752,152.453140 339.184174,148.598679 336.902954,144.456635   C335.005829,141.012039 331.844269,139.782516 328.015533,140.334579   C323.774384,140.946106 321.793823,143.895432 320.887115,147.699310   C320.114075,150.942490 321.501160,153.700287 323.816742,155.730621   C327.117859,158.625076 330.852234,158.125595 335.109009,155.765717  M345.148926,224.086884   C349.636780,224.890579 354.124634,225.694275 359.095459,226.584457   C357.961853,223.112854 354.961029,221.766602 353.389008,219.337631   C356.220520,217.640793 359.565704,218.252808 362.285767,215.707382   C354.312317,211.105988 345.907135,210.221741 336.786316,209.632767   C339.375488,212.776718 342.066254,214.629089 344.673035,216.526321   C342.989441,219.523300 339.300323,219.824615 338.034149,222.864304   C340.024872,224.328781 342.315674,223.315979 345.148926,224.086884  M298.128418,214.982971   C296.070465,216.327271 297.773132,216.802841 298.735504,217.165405   C300.828461,217.953934 302.988068,218.565445 305.380066,219.332596   C303.772583,222.022263 300.732086,223.179672 300.244965,226.426086   C307.281586,225.263672 314.045166,224.146378 320.907471,223.012772   C319.686554,219.789383 315.858917,219.517349 314.479370,216.514893   C316.789093,214.218796 320.145782,213.092865 322.035065,209.787338   C313.732910,210.059250 305.942291,211.042145 298.128418,214.982971  M332.309448,128.545425   C334.023712,126.729630 337.302429,125.714157 336.179138,122.351044   C335.229645,119.508240 332.611145,119.234909 330.002106,119.340759   C329.671936,119.354164 329.340424,119.336113 329.009552,119.331123   C326.473175,119.292976 323.950134,119.275429 322.764313,122.193497   C321.994324,124.088264 322.873627,125.531067 324.312103,126.469826   C326.545837,127.927551 328.105591,131.759232 332.309448,128.545425  M302.016113,175.645264   C298.437836,175.189301 296.808502,177.057968 297.695862,180.261780   C299.002075,184.977676 301.142181,189.388199 305.598206,193.351044   C306.510895,186.700867 306.862823,180.997116 302.016113,175.645264  M353.570282,181.227966   C353.283356,185.030060 351.518127,188.881119 354.077972,193.074005   C357.400787,189.246399 359.889923,185.311615 361.276733,180.686005   C361.927917,178.514053 361.617004,176.682602 359.361725,175.758728   C356.973907,174.780563 355.654968,176.208267 354.740417,178.194778   C354.396332,178.942200 354.116760,179.719330 353.570282,181.227966  M328.277008,220.087830   C331.668365,221.058197 332.751373,218.562485 334.205505,216.533401   C329.321930,211.180038 328.542480,211.247238 324.760437,217.245148   C325.741760,218.056488 326.743591,218.884781 328.277008,220.087830  M319.788910,136.749725   C321.751312,137.294861 322.766388,136.020386 323.874237,134.761383   C322.999481,132.975204 321.902832,131.675003 319.883942,131.345230   C318.991302,132.986404 319.428284,134.626663 319.788910,136.749725  M335.669647,135.483139   C336.880524,135.742630 337.756500,137.126846 339.291626,136.557861   C339.620728,134.981461 340.051971,133.420410 338.820343,131.821411   C337.035034,132.281830 335.389343,132.781021 335.669647,135.483139  z"/>
<path fill="#000000" opacity="1.000000" stroke="none" d=" M470.837158,377.697388   C473.229156,375.071625 475.811432,374.801941 478.837677,375.291016   C488.636292,376.874756 498.467590,378.255951 508.553650,379.194183   C502.398163,374.991150 496.319733,370.821930 490.367004,366.476837   C488.215240,364.906189 485.899139,363.551941 483.812317,361.903687   C481.981049,360.457306 479.620178,358.422729 481.869385,356.188110   C483.988403,354.082825 486.443237,350.720398 490.292084,352.840942   C494.368958,355.087036 498.338837,357.582214 502.125488,360.290192   C514.180664,368.911316 526.171143,377.624969 538.073486,386.455383   C539.889221,387.802490 543.309631,388.877594 542.056091,391.983887   C540.856201,394.957184 538.106506,396.889587 534.717468,397.294891   C532.728088,397.532776 530.765198,397.178864 528.794128,396.681305   C518.824463,394.164520 508.934662,391.296448 497.311462,389.437622   C503.303162,393.753876 508.272034,397.305908 513.211060,400.898926   C518.329590,404.622498 523.347778,408.488983 528.550232,412.090179   C531.333130,414.016541 531.896423,416.011444 529.841003,418.714325   C527.900513,421.266144 525.808899,423.438110 522.373901,421.065826   C505.245331,409.236481 488.114929,397.409576 471.035828,385.509094   C467.915955,383.335205 466.868500,380.715637 470.837158,377.697388  z"/>
<path fill="#000000" opacity="1.000000" stroke="none" d=" M552.401978,174.508850   C537.147400,181.654068 522.261047,188.702866 507.300629,195.590775   C505.071594,196.617050 502.175964,198.847412 500.107971,195.969879   C497.834808,192.806900 496.777771,189.112274 499.826904,185.428329   C506.612366,177.230164 513.282776,168.936722 519.846863,160.351730   C512.277527,164.165115 504.716370,167.995590 496.949005,171.382828   C495.882782,171.847778 494.897217,172.507721 493.815613,172.925400   C491.105743,173.971893 488.067688,176.020187 485.994934,172.257233   C484.108307,168.832245 485.623657,164.486115 488.853760,162.703278   C505.353271,153.596573 522.918762,146.787506 540.058716,139.066238   C542.085632,138.153137 544.772156,135.618576 546.799683,138.278732   C548.978577,141.137497 549.247742,144.899857 547.496216,148.214005   C546.433899,150.224045 544.717773,151.937759 543.103149,153.597610   C537.763855,159.086441 532.318665,164.472061 526.959167,169.941483   C525.832703,171.091110 524.345825,172.047089 524.066772,174.596603   C534.986084,169.744995 545.541626,165.037003 556.113464,160.365707   C561.102234,158.161362 563.601562,159.634552 564.219055,164.940308   C564.486633,167.239120 563.643005,168.830841 561.653381,169.855972   C558.695923,171.379883 555.716431,172.860962 552.401978,174.508850  z"/>
<path fill="#000000" opacity="1.000000" stroke="none" d=" M374.267639,61.316494   C372.670258,66.251984 371.271759,70.867989 369.637939,75.399147   C368.936707,77.343803 369.273315,80.621193 365.663177,79.932579   C361.498657,79.138229 358.314392,75.391586 359.081085,72.069107   C360.461670,66.086479 361.854736,60.083241 363.718964,54.240597   C367.657959,41.895256 370.494171,29.207241 375.206818,17.107864   C377.306702,11.716546 378.109497,11.796688 383.586670,13.876739   C386.893860,15.132677 390.729523,14.948263 394.300842,15.566339   C405.869965,17.568588 410.286530,24.951208 411.297333,36.360790   C411.611694,39.909317 410.086700,42.844467 407.660248,45.331955   C403.546173,49.549580 398.940796,53.183472 393.277222,54.931576   C389.762482,56.016430 389.450439,57.646191 390.508606,60.786160   C392.682159,67.236008 394.311462,73.871750 396.555695,80.294373   C397.881989,84.090012 396.086426,86.249893 393.254456,87.517456   C390.299347,88.840118 388.645721,86.117401 387.411133,84.088776   C383.586212,77.803711 381.182678,70.871513 378.846619,63.928501   C378.107635,61.732254 377.316406,59.553593 376.462921,57.121307   C374.766418,58.093693 375.126434,59.841816 374.267639,61.316494  M394.320587,39.870415   C395.644989,38.632957 397.200500,37.560658 398.233643,36.115044   C399.447144,34.416988 400.959076,32.494278 400.126129,30.217386   C398.794922,26.578445 386.542297,24.742796 384.928040,28.182199   C382.455963,33.449219 381.060364,39.221485 378.880127,45.762505   C385.056396,44.805809 389.393768,42.553295 394.320587,39.870415  z"/>
<path fill="#000000" opacity="1.000000" stroke="none" d=" M118.238701,335.375488   C110.620644,337.401947 103.502998,339.725952 95.998741,340.466736   C92.420372,340.820007 90.478745,339.610016 90.675171,335.862946   C90.845970,332.604675 88.710434,330.272430 87.481827,327.591980   C83.115356,318.065643 84.276184,310.312683 90.643555,303.663208   C96.308090,297.747681 102.565842,296.260162 110.064041,299.622437   C113.717667,301.260742 117.525726,302.653076 120.472130,305.439789   C123.293625,308.108368 125.057701,307.322906 127.292770,304.531036   C131.137085,299.729004 135.507416,295.352020 139.474548,290.642975   C142.019379,287.622223 145.032303,286.492493 148.107422,288.991425   C151.046494,291.379791 149.315384,294.484924 147.805771,297.071808   C143.586990,304.301208 138.021469,310.520874 132.672943,316.899109   C132.163284,317.506866 131.738815,318.186127 131.057098,319.135345   C137.888321,318.718506 143.774643,316.117981 150.019745,315.315216   C152.171082,315.038696 155.164932,313.299744 155.905594,316.589508   C156.619217,319.759155 157.706909,323.949585 153.206711,325.644531   C148.394150,327.457123 143.437836,328.926666 138.473587,330.288300   C131.899872,332.091370 125.257576,333.644409 118.238701,335.375488  M109.639168,324.885651   C112.808586,324.217438 116.146957,324.079803 119.507103,321.861847   C113.919479,316.281250 108.636696,311.113403 100.434875,311.100677   C96.581238,311.094727 94.399529,312.763733 95.757675,317.084534   C98.966377,327.292572 100.975426,328.084961 109.639168,324.885651  z"/>
<path fill="#000000" opacity="1.000000" stroke="none" d=" M523.570679,256.524628   C540.604614,257.499817 557.184753,258.520752 573.668823,260.658203   C579.752197,261.447021 579.940735,262.321960 578.919739,268.262451   C578.350647,271.573944 579.352905,275.128540 579.392578,278.576508   C579.519714,289.628967 574.665100,296.085114 564.213806,299.164124   C554.957458,301.891113 549.607727,295.786865 544.138367,290.219391   C542.085571,288.129730 540.635925,285.447449 538.681458,282.713867   C532.379700,286.051422 526.253967,289.331360 520.090027,292.537842   C518.325317,293.455811 516.480957,294.243439 514.618103,294.944519   C511.909882,295.963684 510.071045,294.191895 508.587646,292.469482   C506.879456,290.486053 508.420868,288.616516 509.763763,287.197021   C513.926147,282.797211 519.176270,279.834015 524.267395,276.686493   C527.916443,274.430481 531.625366,272.271179 535.961060,269.677856   C529.322388,267.971832 523.215515,268.008820 517.241272,267.133606   C514.820557,266.778931 510.901184,267.924744 510.412292,263.969238   C509.873016,259.606049 513.272583,256.491150 518.146179,256.245697   C519.796875,256.162567 521.463318,256.392303 523.570679,256.524628  M552.558655,270.335083   C550.982422,270.428680 549.234253,269.615723 547.487122,271.649780   C550.487549,276.987396 553.294312,282.659607 558.788269,286.201233   C561.378540,287.871002 564.871399,289.888702 567.353394,286.697998   C570.120422,283.140869 568.699646,278.779938 567.660645,274.734253   C566.768738,271.261108 564.031555,271.450348 561.316223,271.297394   C558.667847,271.148254 556.035400,270.714264 552.558655,270.335083  z"/>
<path fill="#000000" opacity="1.000000" stroke="none" d=" M140.919220,128.020874   C136.980133,122.577171 133.894241,117.095467 132.215790,110.911362   C130.614502,105.011581 132.820801,100.898415 137.559021,97.227867   C148.011536,89.130638 158.393127,90.971596 168.685013,96.824883   C181.585541,104.161797 190.800720,114.873116 195.310745,129.129974   C198.996643,140.781723 191.824036,149.806747 179.614243,150.436172   C166.035538,151.136154 156.124115,144.624420 147.283600,135.511185   C145.089432,133.249329 143.170547,130.720413 140.919220,128.020874  M169.302536,113.198647   C164.344833,108.065483 158.447174,104.440407 151.679337,102.209496   C149.678085,101.549812 147.640549,101.352333 146.093079,103.011627   C144.774063,104.425941 145.555496,106.090225 146.037079,107.715836   C150.737625,123.583153 161.575699,133.712952 176.362473,140.077988   C178.192947,140.865952 180.439316,142.540817 182.360123,140.514786   C184.282684,138.486893 183.797653,135.939728 182.966278,133.448868   C180.367004,125.661232 175.658295,119.301239 169.302536,113.198647  z"/>
<path fill="#000000" opacity="1.000000" stroke="none" d=" M503.858521,314.744629   C516.973877,306.684784 529.987061,308.934906 542.892151,314.085907   C551.140686,317.378265 558.562561,322.145660 564.716370,328.644379   C570.568787,334.824799 569.964844,339.539886 565.630005,346.803741   C558.051147,359.503479 546.190857,358.450195 534.789124,356.886993   C522.735046,355.234344 512.140808,349.317596 503.552368,340.455261   C494.831940,331.456726 494.932007,324.274078 503.858521,314.744629  M527.178406,340.271973   C528.398254,340.802551 529.601624,341.375549 530.840698,341.856567   C537.257324,344.347595 543.909729,345.675781 550.796143,345.596771   C553.144653,345.569855 555.789856,345.175293 556.819275,342.851074   C557.775757,340.691498 555.508057,339.272980 554.253723,337.854645   C543.523682,325.721649 529.549805,320.968719 513.823914,320.385834   C511.683136,320.306519 509.153625,320.382690 508.190491,322.696777   C507.243256,324.972748 508.959045,326.805298 510.371918,328.434998   C514.816895,333.562103 520.392883,337.129517 527.178406,340.271973  z"/>
<path fill="#000000" opacity="1.000000" stroke="none" d=" M328.623718,6.854482   C341.113586,11.974080 346.909424,21.379190 347.544128,34.120522   C348.419006,51.682549 342.307190,66.103104 327.439941,76.085144   C321.029297,80.389320 311.827057,75.646477 311.628235,68.046402   C311.172333,50.616768 310.913635,33.181316 310.677948,15.746830   C310.541962,5.687735 310.633423,5.633177 320.811096,5.856490   C323.288513,5.910847 325.755402,6.441758 328.623718,6.854482  M334.434357,42.743240   C334.503998,39.082394 334.911407,35.388889 334.561340,31.768631   C334.079651,26.787628 333.303741,21.701210 327.947662,19.188864   C325.338196,17.964855 323.316864,17.972422 323.360809,21.683062   C323.523346,35.402443 322.686829,49.149071 324.206238,63.568657   C329.740234,57.426067 332.431152,50.732666 334.434357,42.743240  z"/>
<path fill="#000000" opacity="1.000000" stroke="none" d=" M518.721069,244.914307   C517.562195,245.293976 516.768555,245.539185 515.971985,245.774567   C513.895264,246.388229 511.396912,248.488007 510.115265,245.052338   C509.064941,242.236877 507.523712,239.112488 511.165436,236.582565   C514.481995,234.278610 518.068115,232.553345 521.777161,231.104813   C524.988159,229.850784 525.736328,228.321350 524.907410,224.675537   C523.420471,218.135376 520.305176,214.867416 513.362305,215.541061   C510.409058,215.827606 507.381531,215.244415 504.398071,215.349533   C500.577911,215.484146 498.883057,213.650223 498.757111,210.024170   C498.619202,206.052658 501.072540,204.750336 504.483856,204.750565   C515.130432,204.751312 525.783203,204.645706 536.421875,204.968323   C547.216187,205.295654 557.999390,206.036804 568.781189,206.699417   C571.807495,206.885406 575.415405,206.335403 576.244202,210.723923   C577.764893,218.775162 576.248047,223.089020 571.266113,224.978165   C553.871277,231.574265 536.478516,238.175858 518.721069,244.914307  M550.149902,217.311249   C546.696045,217.018143 543.245239,216.677475 539.786865,216.454758   C538.356201,216.362625 536.562317,215.878937 535.766907,217.529755   C534.719482,219.703690 535.936340,221.777557 536.915283,223.612335   C537.799011,225.268753 539.454224,224.686737 540.886353,224.089767   C545.689697,222.087448 550.495728,220.091690 556.465820,217.608932   C553.831726,217.467789 552.410950,217.391663 550.149902,217.311249  z"/>
<path fill="#000000" opacity="1.000000" stroke="none" d=" M300.910339,73.253403   C302.079620,75.257980 303.018311,77.102196 300.587463,78.187187   C297.987274,79.347763 295.346893,81.466324 292.389893,78.560013   C289.473541,75.693695 287.731140,72.109039 285.705994,68.670006   C284.435455,66.512436 283.501434,62.913662 279.985291,64.873291   C276.318115,66.917107 269.944397,66.158730 270.359833,73.051140   C270.629486,77.525032 270.891022,82.002586 271.320648,86.462654   C271.660400,89.989876 270.594208,92.340393 266.810944,92.855453   C262.950714,93.381012 261.233490,91.161453 260.838348,87.784622   C260.046967,81.020866 259.223297,74.246643 258.837494,67.452637   C258.026611,53.172703 257.370605,38.880867 256.931274,24.585308   C256.831329,21.332520 256.272736,17.290262 260.895599,15.951646   C267.390411,14.070975 273.226410,15.556754 275.271393,19.801891   C283.792145,37.490036 292.247009,55.209919 300.910339,73.253403  M271.192383,56.021061   C273.668243,55.283710 276.475525,55.219677 278.244690,52.576996   C275.297516,46.837227 272.365112,41.126217 269.351074,35.256210   C269.351074,39.762955 269.159027,43.924862 269.419922,48.058182   C269.588440,50.728092 268.187286,53.679401 271.192383,56.021061  z"/>
<path fill="#000000" opacity="1.000000" stroke="none" d=" M142.606232,212.441132   C135.122314,206.509338 126.111397,205.704559 117.677444,203.459473   C108.861740,201.112778 99.866379,199.439514 90.945602,197.489975   C88.483345,196.951874 86.007530,196.126465 87.241554,192.981476   C88.475922,189.835571 88.717445,184.513611 93.781204,185.767044   C110.225746,189.837509 127.168121,191.846817 143.214203,197.518005   C149.910629,199.884720 154.893021,204.013138 155.340897,211.760818   C155.881454,221.111694 146.671661,230.828934 137.153839,231.372513   C129.174332,231.828232 121.659760,229.599442 114.104691,227.715302   C105.724243,225.625336 97.408127,223.247803 89.149216,220.717316   C86.493736,219.903702 82.189857,220.048080 83.705925,214.947800   C85.240433,209.785446 87.767326,208.116257 92.876747,209.392059   C99.971313,211.163498 107.051193,213.005493 114.089310,214.987869   C121.143074,216.974655 128.243805,218.736801 135.528854,219.535767   C141.591293,220.200653 144.107635,217.712509 142.606232,212.441132  z"/>
<path fill="#000000" opacity="1.000000" stroke="none" d=" M211.994980,52.936184   C213.812515,54.047539 214.891846,55.712841 217.607300,56.063145   C217.159714,50.706413 216.739975,45.535309 216.288101,40.367012   C216.158020,38.879128 215.809433,37.401814 215.780273,35.915348   C215.710541,32.362339 215.346313,28.624300 220.748184,28.650183   C226.091690,28.675785 228.132767,30.308069 228.193100,35.543171   C228.298645,44.703598 229.672363,53.715328 230.903656,62.758862   C231.371475,66.194870 233.103210,68.501343 235.675964,70.534103   C241.548004,75.173660 247.400162,79.841492 253.153381,84.626518   C255.018188,86.177475 257.675781,88.220901 255.603027,90.800041   C253.709808,93.155754 250.872116,95.048340 247.255554,93.505363   C243.992752,92.113327 241.364975,89.784042 238.444321,87.885788   C236.846878,86.847542 235.692963,84.918365 233.164642,85.064873   C232.949066,90.442986 234.038193,95.583183 234.963058,100.760574   C235.442169,103.442680 236.436691,106.663033 232.128647,107.402527   C226.501068,108.368523 223.362488,106.564064 222.779968,102.110260   C221.812500,94.713188 220.712921,87.330833 219.903152,79.916702   C219.447403,75.743980 217.258682,72.912216 214.091751,70.480202   C207.490143,65.410530 201.163574,59.999371 195.268127,54.127338   C191.385437,50.260056 192.006607,48.716579 197.170975,47.204960   C203.511887,45.348957 207.596436,48.975574 211.994980,52.936184  z"/>
<path fill="#000000" opacity="1.000000" stroke="none" d=" M77.545807,264.350800   C77.332794,251.413300 90.676353,241.819046 102.485176,245.997925   C105.026573,246.897293 106.058960,248.950729 106.174019,251.407822   C106.291168,253.909683 105.289238,256.101562 102.827026,257.010193   C100.350952,257.923950 97.717621,258.405121 95.168152,259.128540   C93.314972,259.654388 91.205452,259.699554 90.031403,261.524719   C90.156609,262.674805 91.011238,263.038330 91.754166,263.255646   C106.272095,267.502167 120.989120,269.265381 136.034912,266.644714   C137.845627,266.329315 139.903976,266.056610 140.449173,263.997284   C141.100281,261.537842 138.957428,260.540344 137.338043,259.433167   C133.972641,257.132294 130.122864,256.100739 126.177254,255.385559   C122.575684,254.732697 119.509438,253.163223 119.911263,249.056915   C120.307808,245.004532 123.779640,243.695297 127.264458,243.806274   C133.686584,244.010834 139.821350,245.652283 144.802139,249.976624   C153.978745,257.943726 150.673187,273.717438 138.746399,278.071625   C128.514771,281.806885 117.880661,281.745026 107.247551,279.928833   C100.033722,278.696594 92.830055,277.327911 86.288116,273.811646   C82.436356,271.741364 78.803017,269.377625 77.545807,264.350800  z"/>
<path fill="#000000" opacity="1.000000" stroke="none" d=" M174.122971,374.310730   C169.275009,373.862244 165.206924,375.136292 161.237946,377.054230   C157.876770,378.678497 154.152832,379.460999 151.934006,375.686310   C149.515396,371.571838 152.419220,368.862366 155.647629,366.669922   C159.882614,363.793884 164.622360,362.181000 169.678970,361.955780   C175.653351,361.689667 180.992050,363.357391 184.089081,369.014069   C187.288391,374.857544 188.433075,380.976318 184.528488,386.941010   C177.379242,397.862244 166.445847,403.915863 154.960266,409.042633   C148.589706,411.886230 142.026596,414.343658 134.847000,414.348480   C126.102127,414.354401 123.171120,411.129944 122.467079,402.497681   C121.716644,393.296326 125.978661,387.689728 133.680328,383.840698   C136.864502,382.249359 139.808640,382.049469 142.062180,385.283844   C144.216827,388.376221 143.439835,391.211273 141.052994,393.874878   C138.677185,396.526154 135.458954,398.529785 133.951675,402.575531   C135.249771,402.575531 136.124115,402.799896 136.820312,402.542450   C150.821335,397.365326 164.039200,390.813110 174.768005,380.128418   C176.514587,378.389008 179.407669,376.037689 174.122971,374.310730  z"/>
<path fill="#000000" opacity="1.000000" stroke="none" d=" M409.802032,79.932167   C418.079620,65.444305 426.112396,51.246159 435.295715,37.739185   C437.533478,34.447819 439.434631,33.397537 443.332550,36.151535   C447.046967,38.775898 451.755981,40.002464 456.047272,41.796913   C458.843323,42.966125 460.058380,45.161522 460.245117,48.037422   C460.600800,53.514256 458.223389,55.367268 452.936432,53.749676   C451.983887,53.458237 451.048462,53.101418 450.124695,52.726639   C441.228424,49.117382 441.001190,49.262627 436.370941,57.783081   C434.978333,60.345737 435.503448,61.732548 438.103302,62.763893   C440.265411,63.621597 442.422668,64.550079 444.444092,65.691551   C448.531525,67.999680 449.123352,70.955994 447.130371,75.390839   C445.116882,79.871223 442.175598,78.159401 439.270294,76.914841   C428.080017,72.121170 428.084930,72.101074 421.853363,82.387596   C421.005035,83.787971 420.203064,85.216461 419.302246,86.765007   C421.994171,89.952728 425.858887,90.247948 429.062561,91.769791   C433.341064,93.802238 434.721832,96.799103 433.224609,101.032181   C432.054199,104.341301 430.447968,106.001694 426.576233,104.163040   C422.383636,102.171989 417.850403,100.912682 413.546906,99.137527   C405.518341,95.825813 404.028137,91.732132 407.796234,83.812683   C408.368011,82.610954 409.016449,81.445709 409.802032,79.932167  z"/>
<path fill="#000000" opacity="1.000000" stroke="none" d=" M447.921783,100.728012   C463.123108,95.807312 477.945679,90.996758 493.352356,85.996620   C490.697174,81.550652 487.306519,78.658585 484.137238,75.702393   C480.186890,72.017662 483.211578,69.393555 485.111664,66.704292   C487.327545,63.568054 489.726166,65.107094 491.828064,67.047150   C497.684814,72.452957 503.610809,77.792145 509.275177,83.394554   C512.268372,86.354996 509.752136,93.033524 505.201904,94.569870   C491.506622,99.193970 477.775085,103.710754 464.080963,108.338303   C461.926971,109.066177 459.558136,109.431297 457.630951,111.306503   C459.078217,115.372932 462.854828,117.614487 465.231842,120.916344   C466.776886,123.062508 467.860413,125.157318 467.167816,127.813286   C465.995117,132.310013 462.166046,133.603195 458.717102,130.630661   C452.180603,124.997055 447.071716,117.850464 439.688599,113.061058   C437.420593,111.589821 440.077362,104.271370 443.370087,102.463501   C444.667450,101.751190 446.146606,101.370079 447.921783,100.728012  z"/>
<path fill="#000000" opacity="1.000000" stroke="none" d=" M115.368874,164.683105   C111.565826,162.556168 108.134781,160.508453 104.570694,158.726868   C101.927994,157.405884 99.978416,156.136993 101.708694,152.717270   C103.391617,149.391144 105.913925,147.765579 109.385254,149.216736   C115.048134,151.584091 120.587868,154.268860 126.076820,157.024353   C135.546097,161.777954 144.936508,166.688599 154.296097,171.500488   C156.985748,169.406265 157.377899,166.417480 158.753265,164.015854   C160.111511,161.644135 161.553650,159.425812 164.470886,158.887863   C166.836288,158.451691 169.240814,158.596344 171.077057,160.272903   C172.978989,162.009445 171.460175,163.992538 170.959930,165.832443   C169.785172,170.153290 168.460648,174.435303 167.366806,178.775879   C165.494720,186.204575 161.116165,188.428604 154.162064,184.896255   C141.272110,178.348709 128.503143,171.563019 115.368874,164.683105  z"/>
<path fill="#000000" opacity="1.000000" stroke="none" d=" M138.435516,361.537476   C129.079727,365.988251 120.077621,370.313324 111.043709,374.570892   C108.024323,375.993896 104.850464,377.906952 102.650612,373.315613   C100.650368,369.140869 101.610558,366.242981 105.966133,364.120880   C123.315384,355.667908 140.663437,347.211731 158.072556,338.883453   C160.479980,337.731750 163.335403,334.681915 165.800095,338.762054   C167.781845,342.042694 165.985626,347.735504 162.442841,349.555267   C154.598312,353.584595 146.670578,357.451965 138.435516,361.537476  z"/>
<path fill="#000000" opacity="1.000000" stroke="none" d=" M575.757690,363.232239   C571.353882,362.901917 571.627686,359.672577 571.945129,357.264862   C572.580139,352.448334 569.020874,346.859741 574.047607,342.878601   C576.718506,340.763214 578.881897,341.846252 579.204346,345.236908   C579.490417,348.244995 580.295288,351.087189 581.036682,353.976013   C582.601501,360.072968 582.180542,360.807404 575.757690,363.232239  z"/>
<path fill="#000000" opacity="1.000000" stroke="none" d=" M84.797951,363.791382   C89.211304,362.918976 100.389282,372.605408 100.276741,376.663300   C100.232750,378.249695 99.717171,379.713776 98.449188,380.588165   C96.885475,381.666504 95.692665,380.392822 94.483841,379.517975   C92.196068,377.862122 89.907928,376.202881 87.559647,374.635376   C82.103317,370.993134 81.927101,370.454224 84.797951,363.791382  z"/>
</svg>