<svg width="514" height="448" enable-background="new 0 0 656 448" version="1.1" viewBox="0 0 514 448" xmlns="http://www.w3.org/2000/svg">
 <g>
  <path d="m270.11 380.12c-19.523-23.261-38.817-46.252-58.35-69.525-2.7838 3.4201-2.8964 6.2313-2.8945 9.0508 0.0165 23.496-0.16937 46.996 0.1973 70.488 0.1236 7.918 0.44922 15.938 2.7462 23.704 1.789 6.0482 5.3332 9.7479 11.73 10.7 2.9354 0.43695 5.8344 1.2869 8.6626 2.2156 1.934 0.63507 2.8744 2.235 2.4978 4.35-0.39605 2.2239-2.0092 2.7734-4.0168 2.9542-4.5472 0.40949-8.9894-0.61685-13.388-1.2756-9.7129-1.4544-19.25-0.36691-28.834 0.81485-1.8114 0.22339-3.641 0.35986-5.4653 0.40286-2.277 0.0537-3.797-1.1331-4.4796-3.2677-0.68555-2.1436-0.23204-4.1809 1.8245-5.1819 12.599-6.1326 13.299-18.259 14.776-29.744 3.6683-28.525 1.7207-57.218 1.9225-85.84 0.044-6.2478-1.0119-12.565-3.1514-18.618-1.6852-4.7674-4.894-7.3858-9.7372-8.2032-2.9506-0.49798-5.9583-0.73077-8.8607-1.4188-2.398-0.56845-4.3773-1.9404-3.9203-4.901 0.4115-2.6656 2.5176-3.9077 4.7386-3.3167 11.262 2.997 22.427 0.58768 33.658 0.0138 6.3693-0.32547 10.851 4.1206 14.596 8.5872 27.079 32.296 53.994 64.728 80.998 97.088 1.7417 2.0871 3.3616 5.74 6.3412 4.6333 2.6564-0.98651 2.441-4.775 2.4449-7.5844 0.0312-22.497 0.07-44.994-0.0409-67.49-0.018-3.6366-0.55902-7.3073-1.217-10.897-1.4655-7.9948-6.0736-13.115-14.207-14.843-2.4296-0.51623-4.8395-1.1854-7.1945-1.9751-2.0571-0.68979-3.5587-2.0769-3.0545-4.4827 0.48926-2.335 2.3599-3.2226 4.5164-3.0897 3.9774 0.24518 7.9999 0.41897 11.897 1.1735 9.3651 1.813 18.57-0.11859 27.835-0.7381 2.3214-0.15521 4.6393-0.39832 6.963-0.47537 2.2703-0.0754 4.4781 0.25204 5.0251 2.9968 0.51548 2.5867-1.1319 3.9934-3.1585 5.0881-0.14649 0.0791-0.27692 0.20026-0.43149 0.2504-12.925 4.1916-15.169 14.573-15.205 26.233-0.0515 16.664 0.28369 33.34-0.24509 49.989-0.73508 23.143-0.67694 46.285-0.84726 69.429-0.0194 2.6382 0.21893 5.7593-2.5606 7.1118-3.0633 1.4907-5.4195-0.85709-7.4525-2.7532-11.13-10.38-19.906-22.831-29.884-34.227-4.9381-5.6395-9.7021-11.431-14.773-17.425m-55.783-76.67c32.989 40.121 65.977 80.242 99.222 120.67 2.5055-3.3517 0.94177-5.2587-0.10086-6.9631-1.3809-2.2574-3.1441-4.2933-4.8403-6.3438-22.292-26.95-44.483-53.985-66.959-80.781-10.483-12.498-20.231-25.628-31.649-37.333-3.6579-3.7502-7.8133-6.7369-12.956-8.1159 6.7084 5.1323 11.567 11.91 17.283 18.863m-20.875 118.98c-0.25742 0.82727-1.4148 1.5457-0.34168 2.554 7.4495-3.4208 9.8413-12.445 5.8994-22.291-1.1339 6.5874-2.1938 13.144-5.5577 19.737m117.52-138.32c3.6066 3.8256 4.6889 8.959 6.9187 13.959 1.4089-11.793-0.67395-15.248-9.6064-16.408 0.7912 0.68121 1.5346 1.3213 2.6877 2.4497z"/>
  <path d="m191.08 178.9c-2.6785-8.354-2.7094-16.61-1.5615-24.646 2.3204-16.245 17.701-25.438 34.516-21.327 6.223 1.5213 11.747 4.5382 17.445 8.1388 1.3699-4.5107 0.52179-8.8095 0.67593-13.018 0.30933-8.4472 1.8454-10.288 10.272-11.685 4.5102-0.74789 8.9597-0.38791 13.346 0.77209 7.2914 1.9282 7.8379 2.5944 8.0366 10.251 0.11136 4.2914 0.02 8.588 0.02 13.54 6.2172-2.6751 11.201-6.2944 17.214-7.7729 20.564-5.0559 36.278 7.4497 36.236 28.58-0.0335 16.817-6.1943 31.126-16.427 44.003-1.6409 2.065-2.8052 3.7744-1.0937 6.552 1.5525 2.5195 0.0765 4.8404-1.9327 6.5957-5.3462 4.6708-6.3297 10.445-3.8864 16.759 4.4259 11.437 1.8932 16.92-10.917 22.264-11.551 4.819-23.837 5.6712-36.24 5.4543-11.532-0.20163-22.947-1.0366-33.788-5.3965-2.298-0.92419-4.5815-2.0543-6.598-3.4774-6.2242-4.3926-7.2999-7.6605-5.3051-15.016 0.56613-2.0877 1.2981-4.1357 1.7656-6.2437 1.1644-5.2497 0.10065-9.9327-3.9658-13.661-2.7282-2.5013-4.2032-5.2222-1.9604-8.7616 1.2665-1.9987-0.34998-3.0859-1.2801-4.3477-6.1529-8.3472-11.874-16.918-14.572-27.556m118.48-20.672c5.6975 6.9954 5.3286 14.717 2.4916 22.601-2.3151 6.4335-5.8256 12.298-9.1785 18.234-0.93212 1.6502-3.7083 3.7008-0.82388 5.4423 2.8493 1.7202 3.2676-1.8246 4.4966-3.2582 1.6169-1.8861 2.973-4.0003 4.393-6.0499 7.9699-11.503 11.414-24.242 10.183-38.179-0.82535-9.3434-7.2096-16.521-16.241-18.556-10.506-2.3666-24.43 3.2218-30.266 12.127-1.3966 2.1311-2.4599 4.2887-1.0608 7.3151 11.808-6.4403 23.682-8.8296 36.006 0.32405m-69.963-10.018c-4.802-5.5252-11.146-8.4179-18.071-9.8788-14.771-3.1162-26.074 6.5988-26.829 21.686-0.83966 16.784 6.3533 30.202 15.929 42.925 1.4007 1.8612 2.8373 2.8486 4.8144 0.59275-0.25729-2.4457-1.9862-4.1502-3.1316-6.1224-3.9286-6.7645-7.8796-13.515-9.6562-21.247-2.4085-10.483 1.8216-19.477 10.828-22.32 7.8523-2.4788 15.69-2.2832 23.316 1.2811 1.8796 0.87854 3.5385 2.5147 5.924 2.2436 1.3963-3.6419-0.89636-6.0429-3.1233-9.1593m30.293 34.172c-0.29172 2.1326-0.90137 4.2838-0.77802 6.3922 0.10511 1.796-2.1126 4.0049 0.35718 5.5571 1.0698-0.3581 1.4028-0.92472 1.3136-1.6319-0.75543-5.9896-0.64249-11.413 6.9377-13.109 1.0034-0.22454 1.638-1.9798 2.4992-2.978 2.944-3.4129 7.4245-4.2932 10.737-2.1397 3.6237 2.356 7.585 15.96 5.7838 19.966-0.75632 1.6818-1.6051 3.322-2.4118 4.981 5.7745-7.4492 10.77-15.256 13.293-24.336 1.6067-5.7839 0.27066-11.363-3.8027-13.975-7.4833-4.7972-15.245-3.5575-22.884-0.23622-6.3854 2.7763-10.996 6.8017-10.213 14.708 0.19043 1.9233-0.5177 3.9356-0.83065 6.8018m-47.702-24.318c-12.364 1.0109-17.099 8.191-12.959 19.813 2.7961 7.8494 6.9649 14.965 11.901 21.956 0.68845-1.6867-0.43255-2.4858-0.90451-3.4436-1.9057-3.867-3.7103-7.658 0.6416-11.184 1.2435-1.0076 0.47242-2.5009 0.58719-3.7791 0.31977-3.5606 1.6242-6.5972 5.313-7.6667 3.688-1.0693 6.9298-0.14276 9.1461 3.2526 0.82617 1.2658 1.7034 2.3015 3.2404 2.9094 5.3628 2.121 6.9155 4.8462 6.4832 10.676-0.0958 1.2916-1.3978 2.9694 0.90631 3.6416 1.7912-0.56343 1.0706-1.763 0.91373-2.8706-0.76855-5.425-2.1335-10.863-2.072-16.283 0.0783-6.9056-3.2405-10.9-8.9355-13.603-4.2288-2.007-8.6208-3.519-14.261-3.4186m3.4223 94.473c22.465 7.1392 44.733 6.8598 67.496-0.84837-0.89465-1.1826-1.0315-1.5466-1.2831-1.6632-0.89972-0.41701-1.8301-0.77283-2.7635-1.1116-12.737-4.6231-25.971-5.5788-39.31-4.6698-8.0997 0.55197-16.186 1.878-23.779 5.0729-1.1198 0.47124-4.2112 0.82614-0.36124 3.22m11.618-50.53c-9.1671 2.0275-17.871 5.0037-24.792 11.661 1.1926 3.5133 2.9513 3.4341 5.4034 1.79 5.6082-3.7602 11.904-5.7215 18.457-7.2519 9.3841-2.1914 18.862-1.9511 28.332-1.7384 11.958 0.26851 23.517 2.4624 33.763 9.1167 2.7395 1.7791 4.1292 1.0866 5.4602-2.2651-20.143-14.686-42.584-15.162-66.624-11.312m1.7081 31.763c-6.1281 0.88609-12.149 2.2693-17.524 5.4178-2.3139 1.3555-5.3803 2.8283-4.0642 6.8484 27.323-10.831 54.466-10.463 82.189 0.20368-0.90885-6.146-5.2304-7.6642-9.1149-9.0254-16.518-5.7879-33.475-6.491-51.486-3.4445m22.199-67.608c-3.5738 0.78663-7.0838-0.74898-11.24-0.62606 1.1386 8.2348 2.1698 16.077 3.3348 23.899 0.37934 2.547 1.189 4.794 4.5628 4.8375 3.5202 0.0454 4.6415-2.1204 5.0483-4.9503 1.1472-7.9809 2.1826-15.978 3.3199-24.397-1.8283 0.48348-3.0713 0.81218-5.0262 1.2375m2.49-7.6648c3.4807-3.3126 4.0752-7.167 1.7939-11.309-1.8971-3.4446-5.0587-4.6741-8.8874-4.122-4.2412 0.61153-6.2217 3.5608-7.1284 7.3647-0.77303 3.2432 0.61405 6.001 2.9296 8.0313 3.3011 2.8945 7.0355 2.395 11.292 0.0351m10.04 68.321c4.4878 0.8037 8.9757 1.6074 13.947 2.4976-1.1336-3.4716-4.1344-4.8179-5.7064-7.2468 2.8315-1.6968 6.1767-1.0848 8.8968-3.6302-7.9734-4.6014-16.379-5.4856-25.499-6.0746 2.5892 3.144 5.2799 4.9963 7.8867 6.8936-1.6836 2.997-5.3727 3.2983-6.6389 6.338 1.9907 1.4645 4.2815 0.45168 7.1148 1.2226m-47.021-9.1039c-2.058 1.3443-0.35529 1.8199 0.60708 2.1824 2.093 0.78853 4.2526 1.4 6.6446 2.1672-1.6075 2.6897-4.648 3.8471-5.1351 7.0935 7.0366-1.1624 13.8-2.2797 20.663-3.4133-1.2209-3.2234-5.0486-3.4954-6.4281-6.4979 2.3097-2.2961 5.6664-3.422 7.5557-6.7276-8.3022 0.27191-16.093 1.2548-23.907 5.1956m34.181-86.438c1.7143-1.8158 4.993-2.8313 3.8697-6.1944-0.9495-2.8428-3.568-3.1161-6.177-3.0103-0.33017 0.0134-0.66169-5e-3 -0.99256-0.01-2.5364-0.0381-5.0594-0.0557-6.2452 2.8624-0.76999 1.8948 0.10932 3.3376 1.5478 4.2763 2.2337 1.4577 3.7935 5.2894 7.9974 2.0756m-30.293 47.1c-3.5783-0.45596-5.2076 1.4127-4.3202 4.6165 1.3062 4.7159 3.4463 9.1264 7.9024 13.089 0.91268-6.6502 1.2646-12.354-3.5821-17.706m51.554 5.5827c-0.28692 3.8021-2.0522 7.6532 0.50769 11.846 3.3228-3.8276 5.812-7.7624 7.1988-12.388 0.65119-2.172 0.34027-4.0034-1.915-4.9273-2.3878-0.97817-3.7068 0.44954-4.6213 2.436-0.34409 0.74742-0.62366 1.5246-1.1701 3.0332m-25.293 38.86c3.3914 0.97037 4.4744-1.5254 5.9285-3.5544-4.8836-5.3534-5.663-5.2862-9.4451 0.71175 0.98132 0.81134 1.9832 1.6396 3.5166 2.8427m-8.4881-83.338c1.9624 0.54514 2.9775-0.72933 4.0853-1.9883-0.87476-1.7862-1.9714-3.0864-3.9903-3.4162-0.89264 1.6412-0.45566 3.2814-0.095 5.4045m15.881-1.2666c1.2109 0.25949 2.0868 1.6437 3.622 1.0747 0.3291-1.5764 0.76034-3.1374-0.47129-4.7364-1.7853 0.46042-3.431 0.95961-3.1507 3.6617z"/>
  <path d="m399.35 380.43c2.392-2.6258 4.9743-2.8954 8.0005-2.4064 9.7986 1.5837 19.63 2.9649 29.716 3.9032-6.1555-4.203-12.234-8.3722-18.187-12.717-2.1518-1.5706-4.4679-2.9249-6.5547-4.5732-1.8313-1.4464-4.1921-3.481-1.9429-5.7156 2.119-2.1053 4.5738-5.4677 8.4227-3.3472 4.0769 2.2461 8.0468 4.7413 11.833 7.4492 12.055 8.6211 24.046 17.335 35.948 26.165 1.8157 1.3471 5.2361 2.4222 3.9826 5.5285-1.1999 2.9733-3.9496 4.9057-7.3386 5.311-1.9894 0.23789-3.9523-0.11603-5.9233-0.61359-9.9697-2.5168-19.859-5.3848-31.483-7.2437 5.9917 4.3163 10.961 7.8683 15.9 11.461 5.1185 3.7236 10.137 7.59 15.339 11.191 2.7829 1.9264 3.3462 3.9213 1.2908 6.6241-1.9405 2.5518-4.0321 4.7238-7.4671 2.3515-17.129-11.829-34.259-23.656-51.338-35.557-3.1199-2.1739-4.1673-4.7934-0.19867-7.8117z"/>
  <path d="m480.92 177.24c-15.255 7.1452-30.141 14.194-45.101 21.082-2.229 1.0263-5.1247 3.2566-7.1927 0.37911-2.2732-3.163-3.3302-6.8576-0.28107-10.542 6.7855-8.1982 13.456-16.492 20.02-25.077-7.5693 3.8134-15.13 7.6439-22.898 11.031-1.0662 0.46495-2.0518 1.1249-3.1334 1.5426-2.7099 1.0465-5.7479 3.0948-7.8207-0.66817-1.8866-3.425-0.37127-7.7711 2.8588-9.554 16.5-9.1067 34.065-15.916 51.205-23.637 2.0269-0.9131 4.7134-3.4477 6.741-0.78751 2.1789 2.8588 2.4481 6.6211 0.69654 9.9353-1.0623 2.01-2.7784 3.7238-4.3931 5.3836-5.3393 5.4888-10.784 10.874-16.144 16.344-1.1265 1.1496-2.6134 2.1056-2.8924 4.6551 10.919-4.8516 21.475-9.5596 32.047-14.231 4.9888-2.2044 7.4881-0.73116 8.1056 4.5746 0.26757 2.2988-0.57605 3.8905-2.5657 4.9157-2.9575 1.5239-5.937 3.005-9.2514 4.6529z"/>
  <path d="m302.78 64.045c-1.5974 4.9355-2.9959 9.5515-4.6297 14.083-0.70123 1.9447-0.36462 5.222-3.9748 4.5334-4.1645-0.79435-7.3488-4.541-6.5821-7.8635 1.3806-5.9826 2.7737-11.986 4.6379-17.829 3.939-12.345 6.7752-25.033 11.488-37.133 2.0999-5.3913 2.9027-5.3112 8.3798-3.2311 3.3072 1.2559 7.1428 1.0715 10.714 1.6896 11.569 2.0022 15.986 9.3849 16.996 20.794 0.31436 3.5485-1.2106 6.4837-3.6371 8.9712-4.1141 4.2176-8.7194 7.8515-14.383 9.5996-3.5147 1.0849-3.8268 2.7146-2.7686 5.8546 2.1736 6.4498 3.8028 13.086 6.0471 19.508 1.3263 3.7956-0.46927 5.9555-3.3012 7.2231-2.9551 1.3227-4.6087-1.4001-5.8433-3.4287-3.8249-6.2851-6.2284-13.217-8.5645-20.16-0.73898-2.1962-1.5302-4.3749-2.3837-6.8072-1.6965 0.97239-1.3365 2.7205-2.1953 4.1952m20.053-21.446c1.3244-1.2375 2.8799-2.3098 3.913-3.7554 1.2135-1.6981 2.7254-3.6208 1.8925-5.8977-1.3312-3.6389-13.584-5.4746-15.198-2.0352-2.4721 5.267-3.8677 11.039-6.0479 17.58 6.1763-0.9567 10.514-3.2092 15.44-5.8921z"/>
  <path d="m46.755 338.1c-7.6181 2.0265-14.736 4.3505-22.24 5.0912-3.5784 0.35327-5.52-0.85672-5.3236-4.6038 0.1708-3.2583-1.9647-5.5905-3.1933-8.271-4.3665-9.5263-3.2056-17.279 3.1617-23.929 5.6645-5.9155 11.922-7.403 19.42-4.0408 3.6536 1.6383 7.4617 3.0306 10.408 5.8174 2.8215 2.6686 4.5856 1.8831 6.8206-0.90875 3.8443-4.802 8.2146-9.179 12.182-13.888 2.5448-3.0208 5.5578-4.1505 8.6329-1.6516 2.9391 2.3884 1.208 5.4935-0.30165 8.0804-4.2188 7.2294-9.7843 13.449-15.133 19.827-0.50966 0.60776-0.93413 1.287-1.6158 2.2362 6.8312-0.41683 12.718-3.0174 18.963-3.8201 2.1513-0.27652 5.1452-2.0155 5.8858 1.2743 0.71363 3.1696 1.8013 7.3601-2.6989 9.055-4.8126 1.8126-9.7689 3.2821-14.733 4.6438-6.5737 1.8031-13.216 3.3561-20.235 5.0872m-8.5995-10.49c3.1694-0.66821 6.5078-0.80585 9.8679-3.0238-5.5876-5.5806-10.87-10.748-19.072-10.761-3.8536-6e-3 -6.0354 1.663-4.6772 5.9838 3.2087 10.208 5.2178 11 13.881 7.8011z"/>
  <path d="m452.09 259.25c17.034 0.97519 33.614 1.9961 50.098 4.1336 6.0834 0.78882 6.2719 1.6638 5.2509 7.6042-0.56909 3.3115 0.43316 6.8661 0.47284 10.314 0.12713 11.052-4.7275 17.509-15.179 20.588-9.2564 2.727-14.606-3.3773-20.075-8.9447-2.0528-2.0897-3.5024-4.7719-5.4569-7.5055-6.3018 3.3376-12.427 6.6175-18.591 9.824-1.7647 0.91797-3.6091 1.7056-5.4719 2.4067-2.7082 1.0192-4.547-0.75263-6.0304-2.475-1.7082-1.9834-0.16678-3.853 1.1761-5.2725 4.1624-4.3998 9.4125-7.363 14.504-10.511 3.649-2.256 7.358-4.4153 11.694-7.0086-6.6387-1.706-12.746-1.669-18.72-2.5442-2.4207-0.35468-6.3401 0.79113-6.829-3.1644-0.53927-4.3632 2.8603-7.4781 7.7339-7.7235 1.6507-0.0831 3.3171 0.1466 5.4245 0.27893m28.988 13.81c-1.5762 0.0936-3.3244-0.71936-5.0715 1.3147 3.0004 5.3376 5.8072 11.01 11.301 14.551 2.5903 1.6698 6.0831 3.6875 8.5651 0.49677 2.767-3.5571 1.3463-7.9181 0.30726-11.964-0.89191-3.4731-3.6291-3.2839-6.3444-3.4369-2.6484-0.14914-5.2808-0.58313-8.7576-0.96231z"/>
  <path d="m69.436 130.75c-3.9391-5.4437-7.025-10.925-8.7034-17.11-1.6013-5.8998 0.60501-10.013 5.3432-13.683 10.453-8.0972 20.834-6.2563 31.126-0.40298 12.901 7.3369 22.116 18.048 26.626 32.305 3.6859 11.652-3.4867 20.677-15.696 21.306-13.579 0.69998-23.49-5.8118-32.331-14.925-2.1942-2.2618-4.113-4.7908-6.3644-7.4903m28.383-14.822c-4.9577-5.1332-10.855-8.7582-17.623-10.989-2.0013-0.65969-4.0388-0.85717-5.5863 0.80213-1.319 1.4143-0.53758 3.0786-0.056 4.7042 4.7005 15.867 15.539 25.997 30.325 32.362 1.8305 0.78796 4.0768 2.4628 5.9976 0.4368 1.9226-2.0279 1.4375-4.5751 0.60616-7.0659-2.5993-7.7876-7.308-14.148-13.664-20.25z"/>
  <path d="m432.37 317.47c13.115-8.0598 26.129-5.8097 39.034-0.65872 8.2485 3.2924 15.67 8.0598 21.824 14.558 5.8524 6.1804 5.2485 10.896 0.91363 18.159-7.5788 12.7-19.439 11.646-30.841 10.083-12.054-1.6526-22.648-7.5694-31.237-16.432-8.7204-8.9985-8.6204-16.181 0.30615-25.711m23.32 25.527c1.2198 0.53058 2.4232 1.1036 3.6623 1.5846 6.4166 2.491 13.069 3.8192 19.955 3.7402 2.3485-0.0269 4.9937-0.42148 6.0231-2.7457 0.95649-2.1596-1.3112-3.5781-2.5656-4.9964-10.73-12.133-24.704-16.886-40.43-17.469-2.1408-0.0793-4.6703-3e-3 -5.6334 2.311-0.94723 2.276 0.76855 4.1085 2.1814 5.7382 4.445 5.1271 10.021 8.6945 16.806 11.837z"/>
  <path d="m257.14 9.5829c12.49 5.1196 18.286 14.525 18.92 27.266 0.87488 17.562-5.2369 31.983-20.104 41.965-6.4106 4.3042-15.613-0.43867-15.812-8.0387-0.45591-17.43-0.71461-34.865-0.95029-52.3-0.13599-10.059-0.0445-10.114 10.133-9.8903 2.4774 0.05436 4.9443 0.58527 7.8126 0.99799m5.8106 35.889c0.0696-3.6608 0.47705-7.3544 0.12698-10.975-0.48169-4.981-1.2576-10.067-6.6137-12.58-2.6095-1.224-4.6308-1.2164-4.5868 2.4942 0.16254 13.719-0.67398 27.466 0.84543 41.886 5.534-6.1426 8.2249-12.836 10.228-20.825z"/>
  <path d="m447.24 247.64c-1.1589 0.37967-1.9525 0.62487-2.7491 0.86026-2.0767 0.61366-4.5751 2.7134-5.8567-0.72223-1.0503-2.8155-2.5916-5.9398 1.0502-8.4698 3.3166-2.304 6.9027-4.0292 10.612-5.4778 3.211-1.254 3.9592-2.7835 3.1302-6.4293-1.4869-6.5402-4.6022-9.8081-11.545-9.1345-2.9532 0.28655-5.9808-0.29665-8.9642-0.19153-3.8202 0.13462-5.515-1.6993-5.641-5.3254-0.13791-3.9715 2.3154-5.2738 5.7268-5.2736 10.647 7.5e-4 21.299-0.10485 31.938 0.21776 10.794 0.32733 21.578 1.0685 32.359 1.7311 3.0263 0.18599 6.6342-0.36402 7.463 4.0245 1.5207 8.0512 4e-3 12.365-4.9781 14.254-17.395 6.5961-34.788 13.198-52.545 19.936m31.429-27.603c-3.4538-0.29311-6.9047-0.63378-10.363-0.85649-1.4307-0.0921-3.2246-0.57582-4.02 1.075-1.0474 2.1739 0.16943 4.2478 1.1484 6.0826 0.88373 1.6564 2.5389 1.0744 3.9711 0.47744 4.8034-2.0023 9.6094-3.9981 15.579-6.4808-2.6341-0.14114-4.0549-0.21727-6.3159-0.29768z"/>
  <path d="m229.43 75.982c1.1693 2.0046 2.108 3.8488-0.32288 4.9338-2.6002 1.1606-5.2406 3.2791-8.1976 0.37283-2.9164-2.8663-4.6588-6.451-6.6839-9.89-1.2705-2.1576-2.2046-5.7563-5.7207-3.7967-3.6672 2.0438-10.041 1.2854-9.6255 8.1778 0.26966 4.4739 0.53119 8.9514 0.96082 13.412 0.33975 3.5272-0.72644 5.8777-4.5097 6.3928-3.8602 0.52556-5.5774-1.694-5.9726-5.0708-0.79138-6.7638-1.615-13.538-2.0009-20.332-0.81088-14.28-1.4669-28.572-1.9062-42.867-0.0999-3.2528-0.65853-7.295 3.9643-8.6337 6.4948-1.8807 12.331-0.39489 14.376 3.8502 8.5208 17.688 16.976 35.408 25.639 53.452m-29.718-17.232c2.4759-0.73735 5.2831-0.80138 7.0523-3.4441-2.9472-5.7398-5.8796-11.451-8.8936-17.321 0 4.5067-0.19204 8.6687 0.0688 12.802 0.16852 2.6699-1.2326 5.6212 1.7725 7.9629z"/>
  <path d="m71.123 215.17c-7.4839-5.9318-16.495-6.7366-24.929-8.9817-8.8157-2.3467-17.811-4.02-26.732-5.9695-2.4623-0.5381-4.9381-1.3635-3.704-4.5085 1.2344-3.1459 1.4759-8.4679 6.5396-7.2144 16.445 4.0705 33.387 6.0798 49.433 11.751 6.6964 2.3667 11.679 6.4951 12.127 14.243 0.54055 9.3509-8.6692 19.068-18.187 19.612-7.9795 0.45572-15.494-1.7731-23.049-3.6572-8.3804-2.09-16.697-4.4675-24.955-6.998-2.6555-0.81362-6.9594-0.66924-5.4433-5.7695 1.5345-5.1624 4.0614-6.8315 9.1708-5.5557 7.0946 1.7714 14.174 3.6134 21.213 5.5958 7.0538 1.9868 14.154 3.7489 21.44 4.5479 6.0624 0.66488 8.5788-1.8233 7.0774-7.0946z"/>
  <path d="m140.51 55.665c1.8175 1.1114 2.8969 2.7767 5.6123 3.127-0.44759-5.3567-0.86733-10.528-1.3192-15.696-0.13008-1.4879-0.47867-2.9652-0.50783-4.4517-0.0697-3.553-0.43396-7.291 4.9679-7.2652 5.3435 0.0256 7.3846 1.6579 7.4449 6.893 0.10554 9.1604 1.4793 18.172 2.7106 27.216 0.46781 3.436 2.1996 5.7425 4.7723 7.7752 5.872 4.6396 11.724 9.3074 17.477 14.092 1.8648 1.551 4.5224 3.5944 2.4496 6.1735-1.8932 2.3557-4.7309 4.2483-8.3475 2.7053-3.2628-1.392-5.8906-3.7213-8.8112-5.6196-1.5974-1.0382-2.7514-2.9674-5.2797-2.8209-0.21557 5.3781 0.87355 10.518 1.7984 15.696 0.47911 2.6821 1.4736 5.9025-2.8344 6.642-5.6276 0.96599-8.7662-0.83847-9.3487-5.2923-0.96747-7.3971-2.067-14.779-2.8768-22.194-0.45575-4.1727-2.6445-7.0045-5.8114-9.4365-6.6016-5.0697-12.928-10.481-18.824-16.353-3.8827-3.8673-3.2615-5.4108 1.9028-6.9224 6.3409-1.856 10.425 1.7706 14.824 5.7312z"/>
  <path d="m6.0623 267.08c-0.21301-12.938 13.131-22.532 24.939-18.353 2.5414 0.89937 3.5738 2.9528 3.6888 5.4099 0.11715 2.5019-0.88478 4.6937-3.347 5.6024-2.4761 0.91376-5.1094 1.3949-7.6589 2.1184-1.8532 0.52585-3.9627 0.57101-5.1367 2.3962 0.12521 1.1501 0.97984 1.5136 1.7228 1.7309 14.518 4.2465 29.235 6.0097 44.281 3.3891 1.8107-0.3154 3.8691-0.5881 4.4143-2.6474 0.65111-2.4594-1.4917-3.4569-3.1111-4.5641-3.3654-2.3009-7.2152-3.3324-11.161-4.0476-3.6016-0.65286-6.6678-2.2223-6.266-6.3286 0.39655-4.0524 3.8684-5.3616 7.3532-5.2506 6.4221 0.20456 12.557 1.846 17.538 6.1704 9.1766 7.9671 5.871 23.741-6.0557 28.095-10.232 3.7353-20.866 3.6734-31.499 1.8572-7.2138-1.2322-14.417-2.6009-20.959-6.1172-3.8518-2.0703-7.4851-4.434-8.7423-9.4608z"/>
  <path d="m102.64 377.04c-4.848-0.44849-8.9161 0.82556-12.885 2.7435-3.3612 1.6243-7.0851 2.4068-9.3039-1.3679-2.4186-4.1145 0.48521-6.8239 3.7136-9.0164 4.235-2.876 8.9747-4.4889 14.031-4.7141 5.9744-0.26611 11.313 1.4016 14.41 7.0583 3.1993 5.8435 4.344 11.962 0.43941 17.927-7.1492 10.921-18.083 16.975-29.568 22.102-6.3706 2.8436-12.934 5.301-20.113 5.3058-8.7449 6e-3 -11.676-3.2185-12.38-11.851-0.75044-9.2014 3.5116-14.808 11.213-18.657 3.1842-1.5913 6.1283-1.7912 8.3818 1.4431 2.1546 3.0924 1.3776 5.9274-1.0092 8.591-2.3758 2.6513-5.594 4.6549-7.1013 8.7006 1.2981 0 2.1724 0.22437 2.8686-0.0331 14.001-5.1771 27.219-11.729 37.948-22.414 1.7466-1.7394 4.6397-4.0907-0.64503-5.8177z"/>
  <path d="m338.32 82.661c8.2776-14.488 16.31-28.686 25.494-42.193 2.2378-3.2914 4.1389-4.3416 8.0368-1.5876 3.7144 2.6244 8.4234 3.8509 12.715 5.6454 2.796 1.1692 4.0111 3.3646 4.1978 6.2405 0.35568 5.4768-2.0217 7.3298-7.3087 5.7123-0.95254-0.29144-1.888-0.64826-2.8117-1.023-8.8963-3.6093-9.1235-3.464-13.754 5.0564-1.3926 2.5627-0.86749 3.9495 1.7324 4.9808 2.1621 0.8577 4.3194 1.7862 6.3408 2.9277 4.0874 2.3081 4.6793 5.2644 2.6863 9.6993-2.0135 4.4804-4.9548 2.7686-7.8601 1.524-11.19-4.7937-11.185-4.8138-17.417 5.4728-0.84832 1.4004-1.6503 2.8289-2.5511 4.3774 2.6919 3.1877 6.5566 3.4829 9.7603 5.0048 4.2785 2.0324 5.6593 5.0293 4.162 9.2624-1.1704 3.3091-2.7766 4.9695-6.6484 3.1309-4.1926-1.991-8.7258-3.2504-13.029-5.0255-8.0286-3.3117-9.5188-7.4054-5.7507-15.325 0.57178-1.2017 1.2202-2.367 2.0058-3.8805z"/>
  <path d="m376.44 103.46c15.201-4.9207 30.024-9.7313 45.431-14.731-2.6552-4.446-6.0458-7.338-9.2151-10.294-3.9504-3.6847-0.92566-6.3088 0.97442-8.9981 2.2159-3.1362 4.6145-1.5972 6.7164 0.34286 5.8568 5.4058 11.783 10.745 17.447 16.347 2.9932 2.9604 0.47696 9.639-4.0733 11.175-13.695 4.6241-27.427 9.1409-41.121 13.768-2.154 0.72788-4.5228 1.093-6.45 2.9682 1.4473 4.0664 5.2239 6.308 7.6009 9.6098 1.545 2.1462 2.6286 4.241 1.936 6.897-1.1727 4.4967-5.0018 5.7899-8.4507 2.8174-6.5365-5.6336-11.645-12.78-19.028-17.57-2.268-1.4712 0.38876-8.7897 3.6815-10.598 1.2974-0.71231 2.7765-1.0934 4.5517-1.7355z"/>
  <path d="m43.885 167.41c-3.803-2.1269-7.2341-4.1746-10.798-5.9562-2.6427-1.321-4.5923-2.5899-2.862-6.0096 1.6829-3.3261 4.2052-4.9517 7.6766-3.5005 5.6629 2.3674 11.203 5.0521 16.692 7.8076 9.4693 4.7536 18.86 9.6642 28.219 14.476 2.6896-2.0942 3.0818-5.083 4.4572-7.4846 1.3582-2.3717 2.8004-4.59 5.7176-5.128 2.3654-0.43617 4.7699-0.29152 6.6062 1.385 1.9019 1.7365 0.38311 3.7196-0.11713 5.5595-1.1748 4.3208-2.4993 8.6029-3.5931 12.943-1.8721 7.4287-6.2506 9.6527-13.205 6.1204-12.89-6.5475-25.659-13.333-38.793-20.213z"/>
  <path d="m66.952 364.27c-9.3558 4.4508-18.358 8.7758-27.392 13.033-3.0194 1.423-6.1932 3.3361-8.3931-1.2553-2.0002-4.1747-1.04-7.0726 3.3155-9.1947 17.349-8.453 34.697-16.909 52.106-25.237 2.4074-1.1517 5.2628-4.2015 7.7275-0.1214 1.9818 3.2806 0.18554 8.9734-3.3572 10.793-7.8445 4.0293-15.772 7.8967-24.007 11.982z"/>
  <path d="m504.27 365.96c-4.4038-0.33032-4.13-3.5597-3.8126-5.9674 0.63501-4.8165-2.9243-10.405 2.1025-14.386 2.6709-2.1154 4.8343-1.0324 5.1567 2.3583 0.28607 3.0081 1.0909 5.8503 1.8323 8.7391 1.5648 6.097 1.1439 6.8314-5.279 9.2562z"/>
  <path d="m13.314 366.52c4.4134-0.8724 15.591 8.814 15.479 12.872-0.044 1.5864-0.55957 3.0505-1.8276 3.9249-1.5637 1.0783-2.7565-0.19534-3.9653-1.0702-2.2878-1.6558-4.5759-3.3151-6.9242-4.8826-5.4563-3.6422-5.6325-4.1812-2.7617-10.844z"/>
 </g>
</svg>
