<?xml version="1.0" encoding="utf-8"?>
<!-- Generator: Adobe Illustrator 27.2.0, SVG Export Plug-In . SVG Version: 6.00 Build 0)  -->
<svg version="1.1" id="Capa_1" xmlns="http://www.w3.org/2000/svg" xmlns:xlink="http://www.w3.org/1999/xlink" x="0px" y="0px"
	 width="996.2px" height="284px" viewBox="0 0 996.2 284" style="enable-background:new 0 0 996.2 284;" xml:space="preserve">

<path class="st0" d="M0.9,0.7v284h198.8V0.7H0.9z M93.2,24.4H98v-4.7h4.7v4.7h4.7v4.7h-4.7v4.7H98v-4.7h-4.7L93.2,24.4L93.2,24.4z
	 M57.7,227.9h-9.5v9.5h-9.5v-9.5h-9.5v-9.5h9.5V209h9.5v9.5h9.5V227.9z M57.7,171.1h-9.5v9.5h-9.5v-9.5h-9.5v-9.5h9.5v-9.5h9.5v9.5
	h9.5V171.1z M57.7,114.3h-9.5v9.5h-9.5v-9.5h-9.5v-9.5h9.5v-9.5h9.5v9.5h9.5V114.3z M105.3,213.4c-0.1,1.7-0.2,3.4-0.2,5.1
	c0,14.1,4.4,27.1,11.9,37.9H83.7c7.5-10.7,11.9-23.8,11.9-37.9c0-1.7-0.1-3.4-0.2-5.1c-16-2.4-28.2-16.1-28.2-32.8h66.3
	C133.5,197.2,121.2,211,105.3,213.4z M114.5,104.9v9.5H105v9.5h-9.5v-9.5H86v-9.5h9.5v-9.5h9.5v9.5H114.5z M100.3,133.3
	c10.5,0,18.9,8.5,18.9,18.9c0,10.5-8.5,18.9-18.9,18.9c-10.5,0-18.9-8.5-18.9-18.9C81.4,141.7,89.9,133.3,100.3,133.3z M133.5,83.6
	H67.2v-7.1h66.3V83.6z M140.2,64.4l-3.5,5h-8.8l6.3-9.1c1.1-1.6,1.5-3.6,1.5-4.9c0-2.2-0.7-4.1-2.1-5.6c-1.7-1.8-3.8-2.6-6.2-2.6
	c-1,0-1.8,0.1-1.8,0.1l0,0c0.5,1.9,0.8,3.7,0.8,5.4c0,3.1-0.3,5.7-2,8.4l-4.9,8.3h-8.6l7-11.9c0.7-1.1,1.2-3.2,1.2-4.9
	c0-2.4-0.8-4.4-2.3-6c-1.8-1.9-3.9-2.8-6.2-2.8c-2.9,0-5,0.8-6.5,2.6v23.1H97V46.3c-1.4-1.7-3.5-2.6-6.5-2.6c-2.3,0-4.4,1-6.2,2.8
	c-1.6,1.6-2.3,3.6-2.3,6c0,1.6,0.5,3.8,1.2,4.9l7,11.9h-8.6L76.4,61c-1.6-2.8-2-5.4-2-8.4c0-1.7,0.3-3.5,0.8-5.4l0,0
	c0,0-0.7-0.1-1.8-0.1c-2.4,0-4.5,0.9-6.2,2.6c-1.4,1.5-2.1,3.3-2.1,5.6c0,1.3,0.4,3.3,1.5,4.9l6.3,9.1H64l-3.5-5
	c-1.9-2.7-2.8-5.6-2.8-9.1c0-4.4,1.6-8.1,4.6-11c3.1-3.2,6.8-4.8,11.1-4.8c1.8,0,3.8,0.4,5.9,1.1c0.2-0.2,0.3-0.4,0.5-0.5
	c2.8-2.6,6.3-3.9,10.5-3.9c3.6,0,7,1.1,10,3.3c3-2.2,6.4-3.3,10-3.3c4.2,0,7.7,1.3,10.5,3.9c0.2,0.2,0.3,0.3,0.5,0.5
	c2.1-0.7,4-1.1,5.9-1.1c4.3,0,8,1.6,11.1,4.8c3.1,2.8,4.6,6.5,4.6,11C142.9,58.8,142,61.7,140.2,64.4z M171.3,227.9h-9.5v9.5h-9.5
	v-9.5h-9.5v-9.5h9.5V209h9.5v9.5h9.5V227.9z M171.3,171.1h-9.5v9.5h-9.5v-9.5h-9.5v-9.5h9.5v-9.5h9.5v9.5h9.5V171.1z M171.3,114.3
	h-9.5v9.5h-9.5v-9.5h-9.5v-9.5h9.5v-9.5h9.5v9.5h9.5V114.3z M331.6,208.3c0,30.7-17.7,48-43.8,48h-31.3v-94.7h29.9
	C313.6,161.6,331.6,178.5,331.6,208.3z M318.4,208.3c0-23.5-13.6-35.1-32.3-35.1h-17.3v71.6H287
	C305.4,244.8,318.4,232.7,318.4,208.3z M354,161.6h58.2l-3.8,11.5h-42v28H404v11.5h-37.6v32.1h42.5l3.8,11.5H354V161.6L354,161.6z
	 M468,208.5c0-29.5,18.4-49.1,46.5-49.1c10.6,0,23.2,4.1,32.5,9.6v14.3c-11.7-7.3-24.3-12.1-32.5-12.1c-19.6,0-33.4,15-33.4,37.3
	c0,23.7,11.9,38.4,29.6,38.4c16.5,0,28.4-10.4,29.9-28.1h-26.5l-3.7-11.5H553c0.5,2.6,0.8,5.5,0.8,8.6c0,25.1-16.6,42.8-43,42.8
	C484.5,258.8,468,239.4,468,208.5z M605,161.6h8l39.8,94.7h-13.6l-9.2-23.2h-42.4l-9.3,23.2h-13L605,161.6z M625.4,221.9l-16.6-41.6
	l-16.7,41.6H625.4z M669.9,161.6h12.4v83.2h43.9l3.8,11.5h-60.1L669.9,161.6L669.9,161.6z M747.7,161.6h12.4v94.7h-12.4V161.6z
	 M782.5,208.3c0-29.4,16.1-48.9,41.7-48.9c11.1,0,22.9,4.1,31.6,10.6v14.4c-10.4-7.8-22-13.2-31.6-13.2c-16.5,0-28.5,14-28.5,37.1
	c0,23.9,11.5,38.4,28.5,38.4c9.6,0,21.1-5.4,31.6-13.2v14.4c-8.6,6.5-20.5,10.6-31.6,10.6C798,258.5,782.5,238.5,782.5,208.3z
	 M877.9,161.6h12.4v94.7h-12.4V161.6z M947.2,161.6h8l39.8,94.7h-13.6l-9.2-23.2h-42.4l-9.3,23.2h-13L947.2,161.6z M967.6,221.9
	L951,180.3l-16.7,41.6H967.6z M288.5,75.1l-30.3-46h14.5l23.6,35.8l23.3-35.8h14l-30.3,46.3l32,48.5h-14.5l-25.3-38.3l-25,38.3h-14
	L288.5,75.1z M350.3,92.1v-63h12.4v62.4c0,14.7,8.9,22.9,22.6,22.9s22.6-8.2,22.6-22.9V29.1h12.4v63c0,21.3-13.6,34.2-35,34.2
	S350.3,113.4,350.3,92.1z M447.3,29.1h10.4l48.4,67.5V29.1h12.4v94.7h-7l-51.9-72.3v72.3h-12.4L447.3,29.1L447.3,29.1z M573.6,40.6
	h-34.3l-3.8-11.5h88.7l-3.8,11.5H586v83.2h-12.4V40.6z M659.4,29.1h8l39.8,94.7h-13.6l-9.2-23.2H642l-9.3,23.2h-13L659.4,29.1z
	 M679.8,89.4l-16.6-41.6l-16.7,41.6H679.8z"/>
</svg>
