<?xml version="1.0" encoding="UTF-8" standalone="no"?>
<svg
   width="34.152344pt"
   height="67.859375pt"
   viewBox="0 0 34.152344 67.859375"
   version="1.1"
   id="svg39"
   xmlns="http://www.w3.org/2000/svg">
  <defs id="defs39" />
  <g
     id="surface1"
     style="fill:#000000;fill-opacity:1"
     transform="translate(-0.511719,-0.68359399)">
    <path
       style="fill:#073984;fill-opacity:1;fill-rule:nonzero;stroke:none"
       d="M 11.351563,8.011719 11.207031,6.441406 c 0,0 -11.863281,1.214844 -7.726562,9.15625 l 1.570312,-0.925781 c 0,0 -3.640625,-4.898437 5.875,-6.375 0,0 -3.640625,2.757813 -1.285156,7.300781 l 1.617188,-0.757812 c 0,0 -1.106643,-1.822452 -0.397463,-3.603982 0.462267,-1.161261 1.696051,-2.3051337 4.510744,-2.915549 L 15.085938,6.558594 c 0,0 -1.1875,-0.046875 -3.734375,1.453125"
       id="path1" />
    <path
       style="fill:#073984;fill-opacity:1;fill-rule:nonzero;stroke:none"
       d="m 16.703125,15.625 h 1.832031 V 6.441406 H 16.703125 V 15.625"
       id="path2" />
    <path
       style="fill:#073984;fill-opacity:1;fill-rule:nonzero;stroke:none"
       d="m 17.167969,3.28125 v 1.605469 l 0.867187,0.00781 V 3.277344 h 1.734375 V 2.398438 H 18.035156 V 0.683594 h -0.832031 v 1.667969 h -1.714844 l 0.0078,0.929687 h 1.671875"
       id="path3" />
    <path
       style="fill:#073984;fill-opacity:1;fill-rule:nonzero;stroke:none"
       d="m 3.488281,16.449219 v 2.101562 H 31.71875 V 16.480469 L 3.488281,16.449219"
       id="path4" />
    <path
       style="fill:#073984;fill-opacity:1;fill-rule:nonzero;stroke:none"
       d="M 6.839844,22.734375 H 6.667969 C 6.386719,22.496094 5.53125,22.195313 5.53125,22.195313 4.132813,22.023438 4.089844,23.203125 4.089844,23.203125 c 0.261719,2.0625 2.257812,0.625 2.257812,0.625 0.429688,-0.257812 1.417969,0.214844 1.417969,0.214844 1.609375,0.6875 1.78125,-0.773438 1.78125,-0.773438 C 9.4375,21.207031 6.839844,22.734375 6.839844,22.734375 Z m 6.191406,-0.01563 h -0.171875 c -0.28125,-0.234375 -1.136719,-0.539062 -1.136719,-0.539062 -1.398437,-0.171875 -1.441406,1.011718 -1.441406,1.011718 0.261719,2.0625 2.257813,0.625 2.257813,0.625 0.429687,-0.257812 1.417968,0.214844 1.417968,0.214844 1.609375,0.6875 1.78125,-0.777344 1.78125,-0.777344 C 15.632813,21.195313 13.03125,22.71875 13.03125,22.71875 Z m -3.105469,2.75 H 9.753906 C 9.476563,25.230469 8.617188,24.929688 8.617188,24.929688 7.21875,24.757813 7.179688,25.941406 7.179688,25.941406 7.4375,28 9.433594,26.5625 9.433594,26.5625 c 0.429687,-0.257812 1.417969,0.214844 1.417969,0.214844 1.613281,0.6875 1.785156,-0.773438 1.785156,-0.773438 C 12.527344,23.941406 9.925781,25.46875 9.925781,25.46875 Z M 6.824219,28.054688 H 6.652344 c -0.28125,-0.234375 -1.140625,-0.535157 -1.140625,-0.535157 -1.394531,-0.175781 -1.4375,1.007813 -1.4375,1.007813 0.257812,2.0625 2.253906,0.625 2.253906,0.625 0.433594,-0.257813 1.417969,0.210937 1.417969,0.210937 1.613281,0.6875 1.785156,-0.773437 1.785156,-0.773437 C 9.421875,26.53125 6.824219,28.054688 6.824219,28.054688 Z m 6.207031,-0.03125 h -0.171875 c -0.28125,-0.234375 -1.136719,-0.539063 -1.136719,-0.539063 -1.398437,-0.171875 -1.441406,1.011719 -1.441406,1.011719 0.261719,2.058594 2.257813,0.621094 2.257813,0.621094 0.429687,-0.257813 1.417968,0.214843 1.417968,0.214843 1.609375,0.6875 1.78125,-0.773437 1.78125,-0.773437 -0.105468,-2.0625 -2.707031,-0.535156 -2.707031,-0.535156 z M 2.625,20.011719 17.164063,20.0625 V 31.417969 H 2.625 v -11.40625"
       id="path5" />
    <path
       style="opacity:1;fill:#073984;fill-opacity:1;fill-rule:nonzero;stroke:none"
       d="m 21.917969,21.957031 v 0.691407 h 1.65625 v 0.277343 h -1.4375 v 0.75 H 23.59375 V 26.0625 l -2.664062,1.847656 2.96875,2.167969 1.457031,-1.007812 1.546875,1.074218 2.988281,-2.148437 -2.6875,-1.871094 v -2.382812 h 1.398438 v -0.730469 h -1.375 v -0.257813 h 1.632812 v -0.796875 c 0,0 -0.9375,0.0078 -1.617187,0 l -0.746094,-0.06641 V 26.125 l -1.03125,0.730469 -1.09375,-0.792969 v -4.210937 h -0.753906 v 0.105468 z M 18.082031,20.011719 32.621094,20.0625 V 31.363281 H 18.082031 V 20.011719"
       id="path6" />
    <path
       style="fill:#073984;fill-opacity:1;fill-rule:nonzero;stroke:none"
       d="m 27.609375,37.195313 c -0.152344,0.125 -0.02344,0.265625 -0.02344,0.265625 0.128906,0.09375 0.21875,-0.02344 0.21875,-0.02344 l 1.46875,-2 c 0.160156,-0.171875 0.02344,-0.289062 0.02344,-0.289062 -0.117187,-0.05078 -0.257812,0.06641 -0.257812,0.06641 z m 0.789063,-0.269532 c -0.136719,0.140625 -0.03125,0.253907 -0.03125,0.253907 0.113281,0.09375 0.21875,-0.0078 0.21875,-0.0078 l 1.5,-2.039062 c 0.09375,-0.101563 0.02344,-0.242188 0.02344,-0.242188 -0.152344,-0.07031 -0.242187,0.02344 -0.242187,0.02344 z m 1.710937,-1.128906 c -0.105469,-0.05859 -0.21875,0.02344 -0.21875,0.02344 l -1.457031,2.011718 c -0.125,0.171875 -0.04297,0.246094 -0.04297,0.246094 0.101563,0.101563 0.242188,0.01172 0.242188,0.01172 l 1.476562,-2.046875 c 0.09375,-0.117188 0,-0.246094 0,-0.246094 z m -0.152344,2.746094 c -0.777343,-0.175781 -1.917968,-0.09375 -1.917968,-0.09375 -0.976563,0.125 -1.011719,1.128906 -1.011719,1.128906 0.03516,1.09375 1.464844,0.835938 1.464844,0.835938 1.371093,-0.1875 1.664062,-1.335938 1.664062,-1.335938 0.222656,-0.410156 -0.199219,-0.535156 -0.199219,-0.535156 z m -4.871093,-1.941406 c -0.429688,1.636718 0.07031,2.453125 0.07031,2.453125 0.324219,0.582031 1.011719,0.511718 1.011719,0.511718 0.546875,-0.03516 0.617187,-0.363281 0.617187,-0.363281 0.71875,-2.230469 -1.128906,-2.71875 -1.128906,-2.71875 -0.488281,-0.210937 -0.570312,0.117188 -0.570312,0.117188 z m -1.753907,1.929687 c 0,0 -0.339843,-0.128906 -0.386718,0.207031 0,0 -0.800782,3.140625 1.140625,2.945313 0,0 0.847656,0.01953 0.734375,-1.292969 0,0 -0.05859,-1.570312 -1.488282,-1.859375 z m 4.523438,2.324219 C 27.632813,40.726563 25.96875,40.625 25.96875,40.625 c -0.988281,0.148438 -0.976562,1.070313 -0.976562,1.070313 0.04687,0.953125 1.398437,0.90625 1.398437,0.90625 1.277344,0.136718 1.8125,-1.324219 1.8125,-1.324219 0.199219,-0.421875 -0.347656,-0.421875 -0.347656,-0.421875 z m -1.886719,2.140625 c -0.3125,-0.140625 -1.617187,-0.164063 -1.617187,-0.164063 -1.101563,0.117188 -1.019532,1.175782 -1.019532,1.175782 0.04687,1.117187 1.800782,0.816406 1.800782,0.816406 1.140625,-0.128906 1.464843,-1.363281 1.464843,-1.363281 0.175782,-0.3125 -0.628906,-0.464844 -0.628906,-0.464844 z m -4.183594,-2.382813 c 0,0 -0.40625,-0.257812 -0.488281,0.113282 0,0 -0.882812,2.980468 1.117188,3.015625 0,0 0.765625,0.101562 0.742187,-1.105469 0,0 0.164063,-1.605469 -1.371094,-2.023438 z m -5.261718,9.042969 c 0,0 -5.195313,3.203125 -9.789063,-3.988281 0,0 -0.417969,8.953125 10.808594,9.371094 0,0 10.761719,0.140625 10.902344,-9.277344 0,0 -3.988282,6.820312 -9.878907,3.894531 l -0.04687,-8.394531 c 0,0 1.4375,0.08984 1.527344,-0.882813 0,0 -0.183594,-0.695312 -0.925781,-1.34375 0,0 1.578125,-0.652343 1.390625,-2.832031 0,0 -0.15625,-2.539062 -2.921875,-2.550781 0,0 -2.894531,0.09766 -2.828125,2.6875 0,0 -0.191406,1.53125 1.296875,2.695312 0,0 -1.113281,0.691407 -0.972656,1.25 0,0 -0.09375,0.882813 1.4375,1.019532 z m 6.410156,-5.566406 C 22.65625,43.902344 22.375,44.066406 22.375,44.066406 l -2.054687,3.140625 c -0.222657,0.253907 0.01953,0.59375 0.01953,0.59375 0.257812,0.300782 0.582031,0.0078 0.582031,0.0078 l 2.011719,-3.03125 c 0.304687,-0.433594 0,-0.6875 0,-0.6875 z M 7.582031,37.125 6.152344,35.148438 c 0,0 -0.136719,-0.117188 -0.253906,-0.07031 0,0 -0.140625,0.117188 0.023437,0.289063 l 1.464844,2 c 0,0 0.09375,0.117187 0.21875,0.02344 0,0 0.128906,-0.136719 -0.023438,-0.265625 z M 6.792969,36.855469 5.328125,34.84375 c 0,0 -0.09375,-0.08984 -0.246094,-0.01953 0,0 -0.070312,0.136719 0.023438,0.242187 l 1.503906,2.035157 c 0,0 0.101563,0.105468 0.21875,0.01172 0,0 0.105469,-0.117187 -0.035156,-0.257812 z m -1.710938,-1.125 c 0,0 -0.089843,0.125 0,0.242187 L 6.5625,38.019531 c 0,0 0.136719,0.09375 0.242188,-0.01172 0,0 0.082031,-0.07031 -0.046875,-0.242188 L 5.304688,35.753906 c 0,0 -0.117188,-0.08203 -0.222657,-0.02344 z m 0.152344,2.742187 c 0,0 -0.417969,0.128907 -0.195312,0.535157 0,0 0.289062,1.152343 1.660156,1.335937 0,0 1.429687,0.257813 1.464844,-0.835937 0,0 -0.035157,-1 -1.011719,-1.128907 0,0 -1.136719,-0.08203 -1.917969,0.09375 z m 4.875,-1.941406 c 0,0 -0.08203,-0.324219 -0.570312,-0.117187 0,0 -1.851563,0.488281 -1.128907,2.722656 0,0 0.070313,0.324219 0.617188,0.359375 0,0 0.683594,0.07031 1.011719,-0.511719 0,0 0.496093,-0.8125 0.07031,-2.453125 z m 1.753906,1.929688 C 10.429688,38.753906 10.375,40.324219 10.375,40.324219 c -0.117187,1.3125 0.734375,1.289062 0.734375,1.289062 1.941406,0.199219 1.136719,-2.941406 1.136719,-2.941406 -0.04687,-0.339844 -0.382813,-0.210937 -0.382813,-0.210937 z m -4.523437,2.328125 c 0,0 -0.546875,0 -0.347656,0.417968 0,0 0.53125,1.464844 1.8125,1.324219 0,0 1.347656,0.04687 1.394531,-0.90625 0,0 0.01563,-0.917969 -0.976563,-1.070312 0,0 -1.660156,0.105468 -1.882812,0.234375 z m 1.882812,2.136718 c 0,0 -0.800781,0.152344 -0.628906,0.46875 0,0 0.328125,1.230469 1.464844,1.359375 0,0 1.757812,0.300782 1.804687,-0.8125 0,0 0.08203,-1.058593 -1.023437,-1.175781 0,0 -1.300781,0.02344 -1.617188,0.160156 z m 4.1875,-2.382812 c -1.535156,0.421875 -1.371093,2.023437 -1.371093,2.023437 -0.02344,1.210938 0.742187,1.105469 0.742187,1.105469 2,-0.03516 1.117188,-3.011719 1.117188,-3.011719 -0.08203,-0.371093 -0.488282,-0.117187 -0.488282,-0.117187 z m -1.152343,3.480469 c 0,0 -0.300782,0.253906 0,0.683593 l 2.011718,3.035157 c 0,0 0.328125,0.292968 0.582032,-0.01172 0,0 0.246093,-0.335938 0.02344,-0.59375 l -2.058594,-3.140625 c 0,0 -0.277343,-0.160156 -0.558593,0.02734 z M 2.625,32.285156 h 30.046875 l -0.105469,11.191407 c 0,5.515625 -5.242187,14.417968 -14.539062,14.386718 C 3.21875,57.808594 2.625,43.316406 2.625,43.316406 v -11.03125"
       id="path7" />
    <path
       style="fill:#073984;fill-opacity:1;fill-rule:nonzero;stroke:none"
       d="m 20.117188,6.554688 -0.300782,1.742187 c 0,0 7.042969,1.375 4.121094,6.507813 l 1.65625,0.859375 c 0,0 2.40625,-4.039063 -1.203125,-7.324219 0,0 9.109375,1.09375 5.820313,6.335937 l 1.546875,0.925782 c 0,0 4.726562,-7.199219 -7.691407,-9.195313 l -0.234375,1.609375 c 0,0 -2.554687,-1.417969 -3.714843,-1.460937"
       id="path8" />
    <path
       style="fill:#073984;fill-opacity:1;fill-rule:nonzero;stroke:none"
       d="m 7.460938,23.140625 c 0,0 1.441406,-0.988281 1.460937,0.105469 0,0 0.152344,1.074219 -1.460937,-0.105469"
       id="path9" />
    <path
       style="fill:#073984;fill-opacity:1;fill-rule:nonzero;stroke:none"
       d="m 4.710938,23.164063 c 0,0 -0.105469,-0.515625 0.476562,-0.429688 0,0 0.878906,0.234375 1.027344,0.40625 l -0.988281,0.535156 c 0,0 -0.492188,0.195313 -0.515625,-0.511718"
       id="path10" />
    <path
       style="fill:#073984;fill-opacity:1;fill-rule:nonzero;stroke:none"
       d="m 13.65625,23.125 c 0,0 1.4375,-0.984375 1.457031,0.109375 0,0 0.152344,1.074219 -1.457031,-0.109375"
       id="path11" />
    <path
       style="fill:#073984;fill-opacity:1;fill-rule:nonzero;stroke:none"
       d="m 10.90625,23.148438 c 0,0 -0.109375,-0.515625 0.472656,-0.429688 0,0 0.878907,0.234375 1.03125,0.40625 l -0.992187,0.539063 c 0,0 -0.492188,0.191406 -0.511719,-0.515625"
       id="path12" />
    <path
       style="fill:#073984;fill-opacity:1;fill-rule:nonzero;stroke:none"
       d="m 10.550781,25.875 c 0,0 1.4375,-0.988281 1.460938,0.109375 0,0 0.148437,1.070313 -1.460938,-0.109375"
       id="path13" />
    <path
       style="fill:#073984;fill-opacity:1;fill-rule:nonzero;stroke:none"
       d="m 7.800781,25.898438 c 0,0 -0.105468,-0.515625 0.472657,-0.429688 0,0 0.878906,0.234375 1.03125,0.40625 l -0.988282,0.539063 c 0,0 -0.496093,0.191406 -0.515625,-0.515625"
       id="path14" />
    <path
       style="fill:#073984;fill-opacity:1;fill-rule:nonzero;stroke:none"
       d="m 7.445313,28.460938 c 0,0 1.4375,-0.984375 1.460937,0.109375 0,0 0.148438,1.074218 -1.460937,-0.109375"
       id="path15" />
    <path
       style="fill:#073984;fill-opacity:1;fill-rule:nonzero;stroke:none"
       d="m 4.695313,28.484375 c 0,0 -0.105469,-0.515625 0.472656,-0.429687 0,0 0.882812,0.234375 1.03125,0.40625 L 5.210938,29 c 0,0 -0.492188,0.191406 -0.515625,-0.515625"
       id="path16" />
    <path
       style="fill:#073984;fill-opacity:1;fill-rule:nonzero;stroke:none"
       d="m 13.65625,28.429688 c 0,0 1.4375,-0.984375 1.457031,0.109375 0,0 0.152344,1.070312 -1.457031,-0.109375"
       id="path17" />
    <path
       style="fill:#073984;fill-opacity:1;fill-rule:nonzero;stroke:none"
       d="m 10.90625,28.453125 c 0,0 -0.109375,-0.515625 0.472656,-0.429687 0,0 0.878907,0.234375 1.03125,0.40625 l -0.992187,0.539062 c 0,0 -0.492188,0.191406 -0.511719,-0.515625"
       id="path18" />
    <path
       style="fill:#073984;fill-opacity:1;fill-rule:nonzero;stroke:none"
       d="m 25.914063,28.710938 0.949218,0.714843 2.003907,-1.433593 -1.992188,-1.390625 -0.878906,0.625 0.949219,0.746093 -1.03125,0.738282"
       id="path19" />
    <path
       style="fill:#073984;fill-opacity:1;fill-rule:nonzero;stroke:none"
       d="m 25.378906,28.371094 0.554688,-0.367188 -0.492188,-0.417968 -0.539062,0.394531 0.476562,0.390625"
       id="path20" />
    <path
       style="fill:#073984;fill-opacity:1;fill-rule:nonzero;stroke:none"
       d="m 23.847656,28.003906 1.03125,-0.757812 -0.9375,-0.738281 -1.984375,1.414062 1.960938,1.453125 0.910156,-0.675781 -0.980469,-0.695313"
       id="path21" />
    <path
       style="fill:#073984;fill-opacity:1;fill-rule:nonzero;stroke:none"
       d="m 5.433594,38.871094 c 0,0 0.394531,1.117187 1.429687,1.070312 0,0 0.917969,0.04687 0.882813,-0.5 -0.035156,-0.546875 -0.417969,-0.550781 -0.765625,-0.652343 0,0 -1.453125,-0.04687 -1.546875,0.08203"
       id="path22" />
    <path
       style="fill:#073984;fill-opacity:1;fill-rule:nonzero;stroke:none"
       d="m 9.769531,36.996094 c 0,0 -0.011718,-0.289063 -0.277343,-0.128906 0,0 -1.175782,0.558593 -0.746094,1.921875 0,0 0.035156,0.265625 0.394531,0.289062 0,0 0.605469,-0.03516 0.699219,-0.710937 0,0 -0.011719,-1.195313 -0.070313,-1.371094"
       id="path23" />
    <path
       style="fill:#073984;fill-opacity:1;fill-rule:nonzero;stroke:none"
       d="m 11.480469,39.066406 c 0,0 0.453125,-0.242187 0.417969,0.105469 0,0 0.335937,2.117188 -0.664063,2.011719 0,0 -0.371094,0.02344 -0.394531,-0.523438 0,0 -0.242188,-0.777343 0.640625,-1.59375"
       id="path24" />
    <path
       style="fill:#073984;fill-opacity:1;fill-rule:nonzero;stroke:none"
       d="m 7.675781,41.125 c 0,0 -0.371093,0.01172 -0.125,0.230469 0,0 0.464844,0.988281 1.671875,0.734375 0,0 0.59375,-0.01172 0.570313,-0.476563 0,0 -0.035156,-0.570312 -0.734375,-0.628906 0,0 -1.21875,0.02344 -1.382813,0.140625"
       id="path25" />
    <path
       style="fill:#073984;fill-opacity:1;fill-rule:nonzero;stroke:none"
       d="m 9.269531,43.355469 c 0,0 -0.300781,0.08203 -0.125,0.234375 0,0 0.347657,0.804687 1.335938,0.746094 0,0 1,0.02344 0.953125,-0.5 C 11.386719,43.3125 10.78125,43.21875 10.78125,43.21875 c 0,0 -1.300781,0 -1.511719,0.136719"
       id="path26" />
    <path
       style="fill:#073984;fill-opacity:1;fill-rule:nonzero;stroke:none"
       d="m 12.492188,42.425781 c 0,0 -0.140625,0.769532 0.371093,0.78125 0,0 0.605469,0.164063 0.800782,-0.894531 0,0 -0.07031,-1.175781 -0.148438,-1.328125 0,0 -1.023437,0.128906 -1.023437,1.441406"
       id="path27" />
    <path
       style="fill:#073984;fill-opacity:1;fill-rule:nonzero;stroke:none"
       d="m 29.761719,38.9375 c 0,0 -0.394531,1.117188 -1.429688,1.070313 0,0 -0.917968,0.04687 -0.882812,-0.5 0.03125,-0.546875 0.417969,-0.546875 0.765625,-0.652344 0,0 1.453125,-0.04687 1.546875,0.08203"
       id="path28" />
    <path
       style="fill:#073984;fill-opacity:1;fill-rule:nonzero;stroke:none"
       d="m 25.421875,37.066406 c 0,0 0.01172,-0.292968 0.28125,-0.128906 0,0 1.171875,0.558594 0.742188,1.917969 0,0 -0.03516,0.269531 -0.394532,0.292969 0,0 -0.605468,-0.03906 -0.695312,-0.710938 0,0 0.0078,-1.199219 0.06641,-1.371094"
       id="path29" />
    <path
       style="fill:#073984;fill-opacity:1;fill-rule:nonzero;stroke:none"
       d="m 23.714844,39.132813 c 0,0 -0.457031,-0.242188 -0.417969,0.105468 0,0 -0.339844,2.117188 0.660156,2.011719 0,0 0.375,0.02344 0.394532,-0.523437 0,0 0.246093,-0.777344 -0.636719,-1.59375"
       id="path30" />
    <path
       style="fill:#073984;fill-opacity:1;fill-rule:nonzero;stroke:none"
       d="m 27.515625,41.195313 c 0,0 0.371094,0.0078 0.128906,0.230468 0,0 -0.46875,0.988282 -1.675781,0.734375 0,0 -0.589844,-0.01172 -0.566406,-0.476562 0,0 0.03125,-0.570313 0.730469,-0.628906 0,0 1.21875,0.02344 1.382812,0.140625"
       id="path31" />
    <path
       style="fill:#073984;fill-opacity:1;fill-rule:nonzero;stroke:none"
       d="m 25.921875,43.425781 c 0,0 0.304688,0.08203 0.128906,0.234375 0,0 -0.347656,0.800782 -1.335937,0.742188 0,0 -1,0.02344 -0.957031,-0.5 0.04687,-0.523438 0.652343,-0.613281 0.652343,-0.613281 0,0 1.300782,0 1.511719,0.136718"
       id="path32" />
    <path
       style="fill:#073984;fill-opacity:1;fill-rule:nonzero;stroke:none"
       d="m 22.703125,42.496094 c 0,0 0.140625,0.765625 -0.371094,0.777344 0,0 -0.605468,0.164062 -0.804687,-0.894532 0,0 0.07031,-1.175781 0.152344,-1.324218 0,0 1.023437,0.125 1.023437,1.441406"
       id="path33" />
    <path
       style="fill:#073984;fill-opacity:1;fill-rule:nonzero;stroke:none"
       d="m 15.738281,36.507813 c 0,-1.046875 0.851563,-1.898438 1.898438,-1.898438 1.042969,0 1.894531,0.851563 1.894531,1.898438 0,1.046875 -0.851562,1.894531 -1.894531,1.894531 -1.046875,0 -1.898438,-0.847656 -1.898438,-1.894531"
       id="path34" />
    <path
       style="fill:#073984;fill-opacity:1;fill-rule:nonzero;stroke:none"
       d="m 0.511719,68.199219 1.777344,-0.160156 v -3.492188 l 4.332031,3.996094 v -7.804688 l -1.742188,0.1875 v 3.597657 L 0.511719,60.449219 v 7.75"
       id="path35" />
    <path
       style="fill:#073984;fill-opacity:1;fill-rule:evenodd;stroke:none"
       d="M 7.019531,68.039063 8.796875,68.453125 9.46875,66.8125 h 2.605469 l 0.753906,1.625 1.777344,-0.398437 -3.796875,-7.644532 z m 4.441407,-2.730469 h -1.390625 l 0.6875,-1.601563 z m 0,0"
       id="path36" />
    <path
       style="fill:#073984;fill-opacity:1;fill-rule:evenodd;stroke:none"
       d="m 18.769531,64.964844 c 0.746094,-0.433594 1.144532,-1.085938 1.125,-1.960938 -0.0078,-0.390625 -0.109375,-0.71875 -0.273437,-0.992187 -0.15625,-0.265625 -0.363281,-0.484375 -0.628906,-0.644531 C 18.734375,61.207031 18.453125,61.09375 18.125,61.03125 17.796875,60.960938 17.445313,60.925781 17.058594,60.925781 h -2.148438 v 7.238282 l 1.832032,-0.105469 v -3.148438 l 2.113281,3.332032 1.828125,-0.582032 z M 16.742188,64.222656 V 62.3125 h 0.371093 c 0.632813,0 0.96875,0.308594 0.984375,0.929688 0.0078,0.167968 -0.03125,0.328125 -0.09375,0.464843 -0.06641,0.152344 -0.171875,0.277344 -0.316406,0.375 -0.148437,0.09375 -0.328125,0.140625 -0.542969,0.140625 h -0.402343"
       id="path37" />
    <path
       style="fill:#073984;fill-opacity:1;fill-rule:evenodd;stroke:none"
       d="m 24.167969,62.429688 c 0.347656,0 0.664062,0.07813 0.964844,0.238281 0.300781,0.167969 0.539062,0.386719 0.71875,0.679687 0.191406,0.28125 0.304687,0.609375 0.335937,0.964844 0.01172,0.04297 0.01172,0.09375 0.01172,0.175781 0,0.34375 -0.09766,0.671875 -0.277344,0.988282 -0.179687,0.308593 -0.421875,0.566406 -0.722656,0.761718 -0.289063,0.191407 -0.601563,0.308594 -0.910156,0.316407 -0.34375,0.0078 -0.675782,-0.08984 -0.996094,-0.265625 -0.308594,-0.167969 -0.566406,-0.40625 -0.765625,-0.695313 -0.195313,-0.300781 -0.308594,-0.621094 -0.316406,-0.957031 -0.0078,-0.398438 0.08594,-0.757813 0.265625,-1.09375 0.179687,-0.335938 0.421875,-0.609375 0.722656,-0.804688 0.300781,-0.203125 0.617187,-0.308593 0.96875,-0.308593 z m 0.08594,-1.707032 c -0.503906,0 -0.984375,0.08984 -1.441406,0.273438 -0.457031,0.175781 -0.851562,0.425781 -1.203125,0.761719 -0.34375,0.324218 -0.617187,0.707031 -0.816406,1.148437 -0.207031,0.441406 -0.316406,0.917969 -0.328125,1.421875 -0.0078,0.726563 0.15625,1.378906 0.476562,1.960938 0.316407,0.59375 0.753907,1.0625 1.320313,1.40625 0.566406,0.335937 1.203125,0.519531 1.925781,0.53125 0.507813,0.0078 0.988281,-0.09766 1.445313,-0.285157 0.453125,-0.183593 0.855468,-0.449218 1.199218,-0.785156 0.34375,-0.335937 0.621094,-0.726562 0.816407,-1.175781 0.199218,-0.449219 0.308593,-0.925781 0.320312,-1.429688 0.0078,-0.523437 -0.09766,-1.019531 -0.285156,-1.476562 -0.1875,-0.460938 -0.457031,-0.867188 -0.796875,-1.21875 C 26.550781,61.5 26.15625,61.234375 25.699219,61.03125 c -0.457031,-0.195312 -0.9375,-0.300781 -1.445313,-0.308594 z m -1.285156,-0.953125 0.410156,0.792969 2.035157,-0.945312 -0.503907,-0.917969 -1.941406,1.070312"
       id="path38" />
    <path
       style="fill:#073984;fill-opacity:1;fill-rule:nonzero;stroke:none"
       d="m 28.554688,68.199219 1.777343,-0.160156 v -3.492188 l 4.332032,3.996094 v -7.804688 l -1.746094,0.1875 v 3.597657 l -4.363281,-4.074219 v 7.75"
       id="path39" />
  </g>
</svg>
