<?xml version="1.0" encoding="UTF-8"?>
<svg xmlns="http://www.w3.org/2000/svg" xmlns:xlink="http://www.w3.org/1999/xlink" width="35pt" height="69pt" viewBox="0 0 35 69" version="1.1">
<g id="surface1">
<path style=" stroke:none;fill-rule:nonzero;fill-opacity:1;" d="M 11.351563 8.011719 L 11.207031 6.441406 C 11.207031 6.441406 -0.65625 7.65625 3.480469 15.597656 L 5.050781 14.671875 C 5.050781 14.671875 1.410156 9.773438 10.925781 8.296875 C 10.925781 8.296875 7.285156 11.054688 9.640625 15.597656 L 11.257813 14.839844 C 11.257813 14.839844 8.238281 9.867188 15.371094 8.320313 L 15.085938 6.558594 C 15.085938 6.558594 13.898438 6.511719 11.351563 8.011719 "/>
<path style=" stroke:none;fill-rule:nonzero;fill-opacity:1;" d="M 16.703125 15.625 L 18.535156 15.625 L 18.535156 6.441406 L 16.703125 6.441406 L 16.703125 15.625 "/>
<path style=" stroke:none;fill-rule:nonzero;fill-opacity:1;" d="M 17.167969 3.28125 L 17.167969 4.886719 L 18.035156 4.894531 L 18.035156 3.277344 L 19.769531 3.277344 L 19.769531 2.398438 L 18.035156 2.398438 L 18.035156 0.683594 L 17.203125 0.683594 L 17.203125 2.351563 L 15.488281 2.351563 L 15.496094 3.28125 L 17.167969 3.28125 "/>
<path style=" stroke:none;fill-rule:nonzero;fill-opacity:1;" d="M 3.488281 16.449219 L 3.488281 18.550781 L 31.71875 18.550781 L 31.71875 16.480469 L 3.488281 16.449219 "/>
<path style=" stroke:none;fill-rule:nonzero;fill-opacity:1;" d="M 6.839844 22.734375 L 6.667969 22.734375 C 6.386719 22.496094 5.53125 22.195313 5.53125 22.195313 C 4.132813 22.023438 4.089844 23.203125 4.089844 23.203125 C 4.351563 25.265625 6.347656 23.828125 6.347656 23.828125 C 6.777344 23.570313 7.765625 24.042969 7.765625 24.042969 C 9.375 24.730469 9.546875 23.269531 9.546875 23.269531 C 9.4375 21.207031 6.839844 22.734375 6.839844 22.734375 Z M 13.03125 22.71875 L 12.859375 22.71875 C 12.578125 22.484375 11.722656 22.179688 11.722656 22.179688 C 10.324219 22.007813 10.28125 23.191406 10.28125 23.191406 C 10.542969 25.253906 12.539063 23.816406 12.539063 23.816406 C 12.96875 23.558594 13.957031 24.03125 13.957031 24.03125 C 15.566406 24.71875 15.738281 23.253906 15.738281 23.253906 C 15.632813 21.195313 13.03125 22.71875 13.03125 22.71875 Z M 9.925781 25.46875 L 9.753906 25.46875 C 9.476563 25.230469 8.617188 24.929688 8.617188 24.929688 C 7.21875 24.757813 7.179688 25.941406 7.179688 25.941406 C 7.4375 28 9.433594 26.5625 9.433594 26.5625 C 9.863281 26.304688 10.851563 26.777344 10.851563 26.777344 C 12.464844 27.464844 12.636719 26.003906 12.636719 26.003906 C 12.527344 23.941406 9.925781 25.46875 9.925781 25.46875 Z M 6.824219 28.054688 L 6.652344 28.054688 C 6.371094 27.820313 5.511719 27.519531 5.511719 27.519531 C 4.117188 27.34375 4.074219 28.527344 4.074219 28.527344 C 4.332031 30.589844 6.328125 29.152344 6.328125 29.152344 C 6.761719 28.894531 7.746094 29.363281 7.746094 29.363281 C 9.359375 30.050781 9.53125 28.589844 9.53125 28.589844 C 9.421875 26.53125 6.824219 28.054688 6.824219 28.054688 Z M 13.03125 28.023438 L 12.859375 28.023438 C 12.578125 27.789063 11.722656 27.484375 11.722656 27.484375 C 10.324219 27.3125 10.28125 28.496094 10.28125 28.496094 C 10.542969 30.554688 12.539063 29.117188 12.539063 29.117188 C 12.96875 28.859375 13.957031 29.332031 13.957031 29.332031 C 15.566406 30.019531 15.738281 28.558594 15.738281 28.558594 C 15.632813 26.496094 13.03125 28.023438 13.03125 28.023438 Z M 2.625 20.011719 L 17.164063 20.0625 L 17.164063 31.417969 L 2.625 31.417969 L 2.625 20.011719 "/>
<path style=" stroke:none;fill-rule:nonzero;fill-opacity:1;" d="M 21.917969 21.957031 L 21.917969 22.648438 L 23.574219 22.648438 L 23.574219 22.925781 L 22.136719 22.925781 L 22.136719 23.675781 L 23.59375 23.675781 L 23.59375 26.0625 L 20.929688 27.910156 L 23.898438 30.078125 L 25.355469 29.070313 L 26.902344 30.144531 L 29.890625 27.996094 L 27.203125 26.125 L 27.203125 23.742188 L 28.601563 23.742188 L 28.601563 23.011719 L 27.226563 23.011719 L 27.226563 22.753906 L 28.859375 22.753906 L 28.859375 21.957031 C 28.859375 21.957031 27.921875 21.964844 27.242188 21.957031 L 26.496094 21.890625 L 26.496094 26.125 L 25.464844 26.855469 L 24.371094 26.0625 L 24.371094 21.851563 L 23.617188 21.851563 L 23.617188 21.957031 Z M 18.082031 20.011719 L 32.621094 20.0625 L 32.621094 31.363281 L 18.082031 31.363281 L 18.082031 20.011719 "/>
<path style=" stroke:none;fill-rule:nonzero;fill-opacity:1;" d="M 27.609375 37.195313 C 27.457031 37.320313 27.585938 37.460938 27.585938 37.460938 C 27.714844 37.554688 27.804688 37.4375 27.804688 37.4375 L 29.273438 35.4375 C 29.433594 35.265625 29.296875 35.148438 29.296875 35.148438 C 29.179688 35.097656 29.039063 35.214844 29.039063 35.214844 Z M 28.398438 36.925781 C 28.261719 37.066406 28.367188 37.179688 28.367188 37.179688 C 28.480469 37.273438 28.585938 37.171875 28.585938 37.171875 L 30.085938 35.132813 C 30.179688 35.03125 30.109375 34.890625 30.109375 34.890625 C 29.957031 34.820313 29.867188 34.914063 29.867188 34.914063 Z M 30.109375 35.796875 C 30.003906 35.738281 29.890625 35.820313 29.890625 35.820313 L 28.433594 37.832031 C 28.308594 38.003906 28.390625 38.078125 28.390625 38.078125 C 28.492188 38.179688 28.632813 38.089844 28.632813 38.089844 L 30.109375 36.042969 C 30.203125 35.925781 30.109375 35.796875 30.109375 35.796875 Z M 29.957031 38.542969 C 29.179688 38.367188 28.039063 38.449219 28.039063 38.449219 C 27.0625 38.574219 27.027344 39.578125 27.027344 39.578125 C 27.0625 40.671875 28.492188 40.414063 28.492188 40.414063 C 29.863281 40.226563 30.15625 39.078125 30.15625 39.078125 C 30.378906 38.667969 29.957031 38.542969 29.957031 38.542969 Z M 25.085938 36.601563 C 24.65625 38.238281 25.15625 39.054688 25.15625 39.054688 C 25.480469 39.636719 26.167969 39.566406 26.167969 39.566406 C 26.714844 39.53125 26.785156 39.203125 26.785156 39.203125 C 27.503906 36.972656 25.65625 36.484375 25.65625 36.484375 C 25.167969 36.273438 25.085938 36.601563 25.085938 36.601563 Z M 23.332031 38.53125 C 23.332031 38.53125 22.992188 38.402344 22.945313 38.738281 C 22.945313 38.738281 22.144531 41.878906 24.085938 41.683594 C 24.085938 41.683594 24.933594 41.703125 24.820313 40.390625 C 24.820313 40.390625 24.761719 38.820313 23.332031 38.53125 Z M 27.855469 40.855469 C 27.632813 40.726563 25.96875 40.625 25.96875 40.625 C 24.980469 40.773438 24.992188 41.695313 24.992188 41.695313 C 25.039063 42.648438 26.390625 42.601563 26.390625 42.601563 C 27.667969 42.738281 28.203125 41.277344 28.203125 41.277344 C 28.402344 40.855469 27.855469 40.855469 27.855469 40.855469 Z M 25.96875 42.996094 C 25.65625 42.855469 24.351563 42.832031 24.351563 42.832031 C 23.25 42.949219 23.332031 44.007813 23.332031 44.007813 C 23.378906 45.125 25.132813 44.824219 25.132813 44.824219 C 26.273438 44.695313 26.597656 43.460938 26.597656 43.460938 C 26.773438 43.148438 25.96875 42.996094 25.96875 42.996094 Z M 21.785156 40.613281 C 21.785156 40.613281 21.378906 40.355469 21.296875 40.726563 C 21.296875 40.726563 20.414063 43.707031 22.414063 43.742188 C 22.414063 43.742188 23.179688 43.84375 23.15625 42.636719 C 23.15625 42.636719 23.320313 41.03125 21.785156 40.613281 Z M 16.523438 49.65625 C 16.523438 49.65625 11.328125 52.859375 6.734375 45.667969 C 6.734375 45.667969 6.316406 54.621094 17.542969 55.039063 C 17.542969 55.039063 28.304688 55.179688 28.445313 45.761719 C 28.445313 45.761719 24.457031 52.582031 18.566406 49.65625 L 18.519531 41.261719 C 18.519531 41.261719 19.957031 41.351563 20.046875 40.378906 C 20.046875 40.378906 19.863281 39.683594 19.121094 39.035156 C 19.121094 39.035156 20.699219 38.382813 20.511719 36.203125 C 20.511719 36.203125 20.355469 33.664063 17.589844 33.652344 C 17.589844 33.652344 14.695313 33.75 14.761719 36.339844 C 14.761719 36.339844 14.570313 37.871094 16.058594 39.035156 C 16.058594 39.035156 14.945313 39.726563 15.085938 40.285156 C 15.085938 40.285156 14.992188 41.167969 16.523438 41.304688 Z M 22.933594 44.089844 C 22.65625 43.902344 22.375 44.066406 22.375 44.066406 L 20.320313 47.207031 C 20.097656 47.460938 20.339844 47.800781 20.339844 47.800781 C 20.597656 48.101563 20.921875 47.808594 20.921875 47.808594 L 22.933594 44.777344 C 23.238281 44.34375 22.933594 44.089844 22.933594 44.089844 Z M 7.582031 37.125 L 6.152344 35.148438 C 6.152344 35.148438 6.015625 35.03125 5.898438 35.078125 C 5.898438 35.078125 5.757813 35.195313 5.921875 35.367188 L 7.386719 37.367188 C 7.386719 37.367188 7.480469 37.484375 7.605469 37.390625 C 7.605469 37.390625 7.734375 37.253906 7.582031 37.125 Z M 6.792969 36.855469 L 5.328125 34.84375 C 5.328125 34.84375 5.234375 34.753906 5.082031 34.824219 C 5.082031 34.824219 5.011719 34.960938 5.105469 35.066406 L 6.609375 37.101563 C 6.609375 37.101563 6.710938 37.207031 6.828125 37.113281 C 6.828125 37.113281 6.933594 36.996094 6.792969 36.855469 Z M 5.082031 35.730469 C 5.082031 35.730469 4.992188 35.855469 5.082031 35.972656 L 6.5625 38.019531 C 6.5625 38.019531 6.699219 38.113281 6.804688 38.007813 C 6.804688 38.007813 6.886719 37.9375 6.757813 37.765625 L 5.304688 35.753906 C 5.304688 35.753906 5.1875 35.671875 5.082031 35.730469 Z M 5.234375 38.472656 C 5.234375 38.472656 4.816406 38.601563 5.039063 39.007813 C 5.039063 39.007813 5.328125 40.160156 6.699219 40.34375 C 6.699219 40.34375 8.128906 40.601563 8.164063 39.507813 C 8.164063 39.507813 8.128906 38.507813 7.152344 38.378906 C 7.152344 38.378906 6.015625 38.296875 5.234375 38.472656 Z M 10.109375 36.53125 C 10.109375 36.53125 10.027344 36.207031 9.539063 36.414063 C 9.539063 36.414063 7.6875 36.902344 8.410156 39.136719 C 8.410156 39.136719 8.480469 39.460938 9.027344 39.496094 C 9.027344 39.496094 9.710938 39.566406 10.039063 38.984375 C 10.039063 38.984375 10.535156 38.171875 10.109375 36.53125 Z M 11.863281 38.460938 C 10.429688 38.753906 10.375 40.324219 10.375 40.324219 C 10.257813 41.636719 11.109375 41.613281 11.109375 41.613281 C 13.050781 41.8125 12.246094 38.671875 12.246094 38.671875 C 12.199219 38.332031 11.863281 38.460938 11.863281 38.460938 Z M 7.339844 40.789063 C 7.339844 40.789063 6.792969 40.789063 6.992188 41.207031 C 6.992188 41.207031 7.523438 42.671875 8.804688 42.53125 C 8.804688 42.53125 10.152344 42.578125 10.199219 41.625 C 10.199219 41.625 10.214844 40.707031 9.222656 40.554688 C 9.222656 40.554688 7.5625 40.660156 7.339844 40.789063 Z M 9.222656 42.925781 C 9.222656 42.925781 8.421875 43.078125 8.59375 43.394531 C 8.59375 43.394531 8.921875 44.625 10.058594 44.753906 C 10.058594 44.753906 11.816406 45.054688 11.863281 43.941406 C 11.863281 43.941406 11.945313 42.882813 10.839844 42.765625 C 10.839844 42.765625 9.539063 42.789063 9.222656 42.925781 Z M 13.410156 40.542969 C 11.875 40.964844 12.039063 42.566406 12.039063 42.566406 C 12.015625 43.777344 12.78125 43.671875 12.78125 43.671875 C 14.78125 43.636719 13.898438 40.660156 13.898438 40.660156 C 13.816406 40.289063 13.410156 40.542969 13.410156 40.542969 Z M 12.257813 44.023438 C 12.257813 44.023438 11.957031 44.277344 12.257813 44.707031 L 14.269531 47.742188 C 14.269531 47.742188 14.597656 48.035156 14.851563 47.730469 C 14.851563 47.730469 15.097656 47.394531 14.875 47.136719 L 12.816406 43.996094 C 12.816406 43.996094 12.539063 43.835938 12.257813 44.023438 Z M 2.625 32.285156 L 32.671875 32.285156 L 32.566406 43.476563 C 32.566406 48.992188 27.324219 57.894531 18.027344 57.863281 C 3.21875 57.808594 2.625 43.316406 2.625 43.316406 L 2.625 32.285156 "/>
<path style=" stroke:none;fill-rule:nonzero;fill-opacity:1;" d="M 20.117188 6.554688 L 19.816406 8.296875 C 19.816406 8.296875 26.859375 9.671875 23.9375 14.804688 L 25.59375 15.664063 C 25.59375 15.664063 28 11.625 24.390625 8.339844 C 24.390625 8.339844 33.5 9.433594 30.210938 14.675781 L 31.757813 15.601563 C 31.757813 15.601563 36.484375 8.402344 24.066406 6.40625 L 23.832031 8.015625 C 23.832031 8.015625 21.277344 6.597656 20.117188 6.554688 "/>
<path style=" stroke:none;fill-rule:nonzero;fill-opacity:1;" d="M 7.460938 23.140625 C 7.460938 23.140625 8.902344 22.152344 8.921875 23.246094 C 8.921875 23.246094 9.074219 24.320313 7.460938 23.140625 "/>
<path style=" stroke:none;fill-rule:nonzero;fill-opacity:1;" d="M 4.710938 23.164063 C 4.710938 23.164063 4.605469 22.648438 5.1875 22.734375 C 5.1875 22.734375 6.066406 22.96875 6.214844 23.140625 L 5.226563 23.675781 C 5.226563 23.675781 4.734375 23.871094 4.710938 23.164063 "/>
<path style=" stroke:none;fill-rule:nonzero;fill-opacity:1;" d="M 13.65625 23.125 C 13.65625 23.125 15.09375 22.140625 15.113281 23.234375 C 15.113281 23.234375 15.265625 24.308594 13.65625 23.125 "/>
<path style=" stroke:none;fill-rule:nonzero;fill-opacity:1;" d="M 10.90625 23.148438 C 10.90625 23.148438 10.796875 22.632813 11.378906 22.71875 C 11.378906 22.71875 12.257813 22.953125 12.410156 23.125 L 11.417969 23.664063 C 11.417969 23.664063 10.925781 23.855469 10.90625 23.148438 "/>
<path style=" stroke:none;fill-rule:nonzero;fill-opacity:1;" d="M 10.550781 25.875 C 10.550781 25.875 11.988281 24.886719 12.011719 25.984375 C 12.011719 25.984375 12.160156 27.054688 10.550781 25.875 "/>
<path style=" stroke:none;fill-rule:nonzero;fill-opacity:1;" d="M 7.800781 25.898438 C 7.800781 25.898438 7.695313 25.382813 8.273438 25.46875 C 8.273438 25.46875 9.152344 25.703125 9.304688 25.875 L 8.316406 26.414063 C 8.316406 26.414063 7.820313 26.605469 7.800781 25.898438 "/>
<path style=" stroke:none;fill-rule:nonzero;fill-opacity:1;" d="M 7.445313 28.460938 C 7.445313 28.460938 8.882813 27.476563 8.90625 28.570313 C 8.90625 28.570313 9.054688 29.644531 7.445313 28.460938 "/>
<path style=" stroke:none;fill-rule:nonzero;fill-opacity:1;" d="M 4.695313 28.484375 C 4.695313 28.484375 4.589844 27.96875 5.167969 28.054688 C 5.167969 28.054688 6.050781 28.289063 6.199219 28.460938 L 5.210938 29 C 5.210938 29 4.71875 29.191406 4.695313 28.484375 "/>
<path style=" stroke:none;fill-rule:nonzero;fill-opacity:1;" d="M 13.65625 28.429688 C 13.65625 28.429688 15.09375 27.445313 15.113281 28.539063 C 15.113281 28.539063 15.265625 29.609375 13.65625 28.429688 "/>
<path style=" stroke:none;fill-rule:nonzero;fill-opacity:1;" d="M 10.90625 28.453125 C 10.90625 28.453125 10.796875 27.9375 11.378906 28.023438 C 11.378906 28.023438 12.257813 28.257813 12.410156 28.429688 L 11.417969 28.96875 C 11.417969 28.96875 10.925781 29.160156 10.90625 28.453125 "/>
<path style=" stroke:none;fill-rule:nonzero;fill-opacity:1;" d="M 25.914063 28.710938 L 26.863281 29.425781 L 28.867188 27.992188 L 26.875 26.601563 L 25.996094 27.226563 L 26.945313 27.972656 L 25.914063 28.710938 "/>
<path style=" stroke:none;fill-rule:nonzero;fill-opacity:1;" d="M 25.378906 28.371094 L 25.933594 28.003906 L 25.441406 27.585938 L 24.902344 27.980469 L 25.378906 28.371094 "/>
<path style=" stroke:none;fill-rule:nonzero;fill-opacity:1;" d="M 23.847656 28.003906 L 24.878906 27.246094 L 23.941406 26.507813 L 21.957031 27.921875 L 23.917969 29.375 L 24.828125 28.699219 L 23.847656 28.003906 "/>
<path style=" stroke:none;fill-rule:nonzero;fill-opacity:1;" d="M 5.433594 38.871094 C 5.433594 38.871094 5.828125 39.988281 6.863281 39.941406 C 6.863281 39.941406 7.78125 39.988281 7.746094 39.441406 C 7.710938 38.894531 7.328125 38.890625 6.980469 38.789063 C 6.980469 38.789063 5.527344 38.742188 5.433594 38.871094 "/>
<path style=" stroke:none;fill-rule:nonzero;fill-opacity:1;" d="M 9.769531 36.996094 C 9.769531 36.996094 9.757813 36.707031 9.492188 36.867188 C 9.492188 36.867188 8.316406 37.425781 8.746094 38.789063 C 8.746094 38.789063 8.78125 39.054688 9.140625 39.078125 C 9.140625 39.078125 9.746094 39.042969 9.839844 38.367188 C 9.839844 38.367188 9.828125 37.171875 9.769531 36.996094 "/>
<path style=" stroke:none;fill-rule:nonzero;fill-opacity:1;" d="M 11.480469 39.066406 C 11.480469 39.066406 11.933594 38.824219 11.898438 39.171875 C 11.898438 39.171875 12.234375 41.289063 11.234375 41.183594 C 11.234375 41.183594 10.863281 41.207031 10.839844 40.660156 C 10.839844 40.660156 10.597656 39.882813 11.480469 39.066406 "/>
<path style=" stroke:none;fill-rule:nonzero;fill-opacity:1;" d="M 7.675781 41.125 C 7.675781 41.125 7.304688 41.136719 7.550781 41.355469 C 7.550781 41.355469 8.015625 42.34375 9.222656 42.089844 C 9.222656 42.089844 9.816406 42.078125 9.792969 41.613281 C 9.792969 41.613281 9.757813 41.042969 9.058594 40.984375 C 9.058594 40.984375 7.839844 41.007813 7.675781 41.125 "/>
<path style=" stroke:none;fill-rule:nonzero;fill-opacity:1;" d="M 9.269531 43.355469 C 9.269531 43.355469 8.96875 43.4375 9.144531 43.589844 C 9.144531 43.589844 9.492188 44.394531 10.480469 44.335938 C 10.480469 44.335938 11.480469 44.359375 11.433594 43.835938 C 11.386719 43.3125 10.78125 43.21875 10.78125 43.21875 C 10.78125 43.21875 9.480469 43.21875 9.269531 43.355469 "/>
<path style=" stroke:none;fill-rule:nonzero;fill-opacity:1;" d="M 12.492188 42.425781 C 12.492188 42.425781 12.351563 43.195313 12.863281 43.207031 C 12.863281 43.207031 13.46875 43.371094 13.664063 42.3125 C 13.664063 42.3125 13.59375 41.136719 13.515625 40.984375 C 13.515625 40.984375 12.492188 41.113281 12.492188 42.425781 "/>
<path style=" stroke:none;fill-rule:nonzero;fill-opacity:1;" d="M 29.761719 38.9375 C 29.761719 38.9375 29.367188 40.054688 28.332031 40.007813 C 28.332031 40.007813 27.414063 40.054688 27.449219 39.507813 C 27.480469 38.960938 27.867188 38.960938 28.214844 38.855469 C 28.214844 38.855469 29.667969 38.808594 29.761719 38.9375 "/>
<path style=" stroke:none;fill-rule:nonzero;fill-opacity:1;" d="M 25.421875 37.066406 C 25.421875 37.066406 25.433594 36.773438 25.703125 36.9375 C 25.703125 36.9375 26.875 37.496094 26.445313 38.855469 C 26.445313 38.855469 26.410156 39.125 26.050781 39.148438 C 26.050781 39.148438 25.445313 39.109375 25.355469 38.4375 C 25.355469 38.4375 25.363281 37.238281 25.421875 37.066406 "/>
<path style=" stroke:none;fill-rule:nonzero;fill-opacity:1;" d="M 23.714844 39.132813 C 23.714844 39.132813 23.257813 38.890625 23.296875 39.238281 C 23.296875 39.238281 22.957031 41.355469 23.957031 41.25 C 23.957031 41.25 24.332031 41.273438 24.351563 40.726563 C 24.351563 40.726563 24.597656 39.949219 23.714844 39.132813 "/>
<path style=" stroke:none;fill-rule:nonzero;fill-opacity:1;" d="M 27.515625 41.195313 C 27.515625 41.195313 27.886719 41.203125 27.644531 41.425781 C 27.644531 41.425781 27.175781 42.414063 25.96875 42.160156 C 25.96875 42.160156 25.378906 42.148438 25.402344 41.683594 C 25.402344 41.683594 25.433594 41.113281 26.132813 41.054688 C 26.132813 41.054688 27.351563 41.078125 27.515625 41.195313 "/>
<path style=" stroke:none;fill-rule:nonzero;fill-opacity:1;" d="M 25.921875 43.425781 C 25.921875 43.425781 26.226563 43.507813 26.050781 43.660156 C 26.050781 43.660156 25.703125 44.460938 24.714844 44.402344 C 24.714844 44.402344 23.714844 44.425781 23.757813 43.902344 C 23.804688 43.378906 24.410156 43.289063 24.410156 43.289063 C 24.410156 43.289063 25.710938 43.289063 25.921875 43.425781 "/>
<path style=" stroke:none;fill-rule:nonzero;fill-opacity:1;" d="M 22.703125 42.496094 C 22.703125 42.496094 22.84375 43.261719 22.332031 43.273438 C 22.332031 43.273438 21.726563 43.4375 21.527344 42.378906 C 21.527344 42.378906 21.597656 41.203125 21.679688 41.054688 C 21.679688 41.054688 22.703125 41.179688 22.703125 42.496094 "/>
<path style=" stroke:none;fill-rule:nonzero;fill-opacity:1;" d="M 15.738281 36.507813 C 15.738281 35.460938 16.589844 34.609375 17.636719 34.609375 C 18.679688 34.609375 19.53125 35.460938 19.53125 36.507813 C 19.53125 37.554688 18.679688 38.402344 17.636719 38.402344 C 16.589844 38.402344 15.738281 37.554688 15.738281 36.507813 "/>
<path style=" stroke:none;fill-rule:nonzero;fill-opacity:1;" d="M 0.511719 68.199219 L 2.289063 68.039063 L 2.289063 64.546875 L 6.621094 68.542969 L 6.621094 60.738281 L 4.878906 60.925781 L 4.878906 64.523438 L 0.511719 60.449219 L 0.511719 68.199219 "/>
<path style=" stroke:none;fill-rule:evenodd;fill-opacity:1;" d="M 7.019531 68.039063 L 8.796875 68.453125 L 9.46875 66.8125 L 12.074219 66.8125 L 12.828125 68.4375 L 14.605469 68.039063 L 10.808594 60.394531 Z M 11.460938 65.308594 L 10.070313 65.308594 L 10.757813 63.707031 Z M 11.460938 65.308594 "/>
<path style=" stroke:none;fill-rule:evenodd;fill-opacity:1;" d="M 18.769531 64.964844 C 19.515625 64.53125 19.914063 63.878906 19.894531 63.003906 C 19.886719 62.613281 19.785156 62.285156 19.621094 62.011719 C 19.464844 61.746094 19.257813 61.527344 18.992188 61.367188 C 18.734375 61.207031 18.453125 61.09375 18.125 61.03125 C 17.796875 60.960938 17.445313 60.925781 17.058594 60.925781 L 14.910156 60.925781 L 14.910156 68.164063 L 16.742188 68.058594 L 16.742188 64.910156 L 18.855469 68.242188 L 20.683594 67.660156 Z M 16.742188 64.222656 L 16.742188 62.3125 L 17.113281 62.3125 C 17.746094 62.3125 18.082031 62.621094 18.097656 63.242188 C 18.105469 63.410156 18.066406 63.570313 18.003906 63.707031 C 17.9375 63.859375 17.832031 63.984375 17.6875 64.082031 C 17.539063 64.175781 17.359375 64.222656 17.144531 64.222656 L 16.742188 64.222656 "/>
<path style=" stroke:none;fill-rule:evenodd;fill-opacity:1;" d="M 24.167969 62.429688 C 24.515625 62.429688 24.832031 62.507813 25.132813 62.667969 C 25.433594 62.835938 25.671875 63.054688 25.851563 63.347656 C 26.042969 63.628906 26.15625 63.957031 26.1875 64.3125 C 26.199219 64.355469 26.199219 64.40625 26.199219 64.488281 C 26.199219 64.832031 26.101563 65.160156 25.921875 65.476563 C 25.742188 65.785156 25.5 66.042969 25.199219 66.238281 C 24.910156 66.429688 24.597656 66.546875 24.289063 66.554688 C 23.945313 66.5625 23.613281 66.464844 23.292969 66.289063 C 22.984375 66.121094 22.726563 65.882813 22.527344 65.59375 C 22.332031 65.292969 22.21875 64.972656 22.210938 64.636719 C 22.203125 64.238281 22.296875 63.878906 22.476563 63.542969 C 22.65625 63.207031 22.898438 62.933594 23.199219 62.738281 C 23.5 62.535156 23.816406 62.429688 24.167969 62.429688 Z M 24.253906 60.722656 C 23.75 60.722656 23.269531 60.8125 22.8125 60.996094 C 22.355469 61.171875 21.960938 61.421875 21.609375 61.757813 C 21.265625 62.082031 20.992188 62.464844 20.792969 62.90625 C 20.585938 63.347656 20.476563 63.824219 20.464844 64.328125 C 20.457031 65.054688 20.621094 65.707031 20.941406 66.289063 C 21.257813 66.882813 21.695313 67.351563 22.261719 67.695313 C 22.828125 68.03125 23.464844 68.214844 24.1875 68.226563 C 24.695313 68.234375 25.175781 68.128906 25.632813 67.941406 C 26.085938 67.757813 26.488281 67.492188 26.832031 67.15625 C 27.175781 66.820313 27.453125 66.429688 27.648438 65.980469 C 27.847656 65.53125 27.957031 65.054688 27.96875 64.550781 C 27.976563 64.027344 27.871094 63.53125 27.683594 63.074219 C 27.496094 62.613281 27.226563 62.207031 26.886719 61.855469 C 26.550781 61.5 26.15625 61.234375 25.699219 61.03125 C 25.242188 60.835938 24.761719 60.730469 24.253906 60.722656 Z M 22.96875 59.769531 L 23.378906 60.5625 L 25.414063 59.617188 L 24.910156 58.699219 L 22.96875 59.769531 "/>
<path style=" stroke:none;fill-rule:nonzero;fill-opacity:1;" d="M 28.554688 68.199219 L 30.332031 68.039063 L 30.332031 64.546875 L 34.664063 68.542969 L 34.664063 60.738281 L 32.917969 60.925781 L 32.917969 64.523438 L 28.554688 60.449219 L 28.554688 68.199219 "/>
</g>
</svg>
